<?xml version="1.0" encoding="UTF-8"?>
<!DOCTYPE svg PUBLIC "-//W3C//DTD SVG 1.1//EN" "http://www.w3.org/Graphics/SVG/1.1/DTD/svg11.dtd">
<svg xmlns="http://www.w3.org/2000/svg" version="1.1" width="462px" height="329px" style="shape-rendering:geometricPrecision; text-rendering:geometricPrecision; image-rendering:optimizeQuality; fill-rule:evenodd; clip-rule:evenodd" xmlns:xlink="http://www.w3.org/1999/xlink">
<g><path style="opacity:0.194" fill="#0b0a0b" d="M -0.5,0.5 C -0.5,0.166667 -0.5,-0.166667 -0.5,-0.5C 145.167,-0.5 290.833,-0.5 436.5,-0.5C 387.668,0.33275 338.668,0.83275 289.5,1C 294.892,2.59004 299.892,4.92337 304.5,8C 309.068,12.7371 313.735,17.2371 318.5,21.5C 319.926,23.9372 321.259,26.4372 322.5,29C 331.447,28.4211 340.447,28.4211 349.5,29C 367.18,32.8113 379.013,43.3113 385,60.5C 386.16,70.7312 385.493,80.7312 383,90.5C 375.955,100.22 367.122,107.72 356.5,113C 353.568,113.953 350.568,114.453 347.5,114.5C 347.5,118.167 347.5,121.833 347.5,125.5C 346.5,125.5 345.5,125.5 344.5,125.5C 342.683,120.577 341.683,115.243 341.5,109.5C 360.843,108.004 373.676,98.0035 380,79.5C 380.667,74.8333 380.667,70.1667 380,65.5C 379.844,62.8091 379.011,60.4758 377.5,58.5C 371.535,45.0573 361.202,36.8907 346.5,34C 338.39,33.0615 330.39,33.5615 322.5,35.5C 318.485,33.8118 315.818,30.8118 314.5,26.5C 301.383,10.6062 284.383,2.27285 263.5,1.5C 253.182,2.33139 243.182,4.49805 233.5,8C 227.243,12.6256 221.076,17.459 215,22.5C 212.589,26.0651 210.422,29.7318 208.5,33.5C 207.726,34.1471 206.726,34.4805 205.5,34.5C 195.64,30.6616 185.807,30.6616 176,34.5C 165.642,35.7674 156.809,40.4341 149.5,48.5C 148.833,48.5 148.167,48.5 147.5,48.5C 145.761,45.7573 143.427,43.7573 140.5,42.5C 137.036,39.2615 133.036,36.7615 128.5,35C 124.005,34.4185 119.672,33.2519 115.5,31.5C 112.027,32.34 108.694,32.6734 105.5,32.5C 100.199,32.8249 95.1993,34.1582 90.5,36.5C 68.314,48.1815 61.9807,65.5149 71.5,88.5C 78.7108,101.356 89.7108,108.689 104.5,110.5C 106.369,112.635 107.036,115.302 106.5,118.5C 95.0358,120.159 83.3691,121.159 71.5,121.5C 67.0184,121.034 63.0184,122.034 59.5,124.5C 41.2079,131.759 30.5412,145.093 27.5,164.5C 27.1076,186.196 27.6076,207.863 29,229.5C 37.5312,249.04 52.3645,260.874 73.5,265C 80.3464,265.821 87.013,265.654 93.5,264.5C 97.8333,264.5 102.167,264.5 106.5,264.5C 106.334,274.839 106.5,285.172 107,295.5C 107.21,297.058 107.71,298.391 108.5,299.5C 109.38,302.262 110.546,304.929 112,307.5C 116.217,310.268 120.217,313.268 124,316.5C 164.722,316.153 205.555,315.82 246.5,315.5C 246.893,317.284 247.559,318.95 248.5,320.5C 215.943,321.433 185.11,322.1 156,322.5C 144.195,321.899 132.362,321.066 120.5,320C 111.181,315.518 105.014,308.351 102,298.5C 101.5,289.173 101.334,279.839 101.5,270.5C 95.3918,270.423 89.5585,270.757 84,271.5C 58.2612,271.095 38.9279,259.761 26,237.5C 24.1729,233.719 23.1729,229.719 23,225.5C 22.3333,203.5 22.3333,181.5 23,159.5C 23.1676,154.499 24.5009,149.832 27,145.5C 31.3334,139.67 35.8334,134.004 40.5,128.5C 47.7219,123.054 55.7219,118.887 64.5,116C 73.8113,115.038 83.1447,114.372 92.5,114C 66.37,102.613 56.87,83.1132 64,55.5C 79.6937,29.0459 102.194,20.5459 131.5,30C 138.111,32.1312 143.444,35.9645 147.5,41.5C 154.345,35.7454 162.012,31.5788 170.5,29C 173.525,28.6393 176.525,28.1393 179.5,27.5C 180.713,27.2528 181.38,26.5862 181.5,25.5C 188.863,26.0596 196.196,27.0596 203.5,28.5C 204.458,26.3761 205.625,24.3761 207,22.5C 215.257,12.8725 225.09,5.7058 236.5,1C 157.501,0.500003 78.5007,0.333336 -0.5,0.5 Z"/></g>
<g><path style="opacity:1" fill="#e8e6f1" d="M 299.5,17.5 C 294.204,16.1869 289.204,16.1869 284.5,17.5C 276.647,18.1733 269.147,20.1733 262,23.5C 261.667,22.8333 261.333,22.1667 261,21.5C 260.751,22.624 260.251,23.624 259.5,24.5C 250.761,29.3629 243.095,36.1962 236.5,45C 230.123,48.4218 223.79,49.2551 217.5,47.5C 218.252,44.2527 218.752,40.9194 219,37.5C 220.831,34.6855 222.665,31.8522 224.5,29C 220.486,26.08 220.653,25.2467 225,26.5C 226.284,25.4281 226.617,24.0948 226,22.5C 226.914,23.6537 227.747,23.487 228.5,22C 228.043,21.586 227.709,21.086 227.5,20.5C 229.012,19.1375 230.512,18.8042 232,19.5C 233.887,17.9739 234.887,15.9739 235,13.5C 235.333,14.1667 235.667,14.8333 236,15.5C 236.465,14.0692 237.299,12.9025 238.5,12C 238.167,11.6667 237.833,11.3333 237.5,11C 238.899,10.4054 240.232,10.5721 241.5,11.5C 242.598,7.63948 243.431,7.63948 244,11.5C 244.717,10.9558 245.217,10.2891 245.5,9.5C 248.161,8.53531 250.661,7.20198 253,5.5C 254.016,6.63411 254.683,6.30077 255,4.5C 255.667,7.16667 256.333,7.16667 257,4.5C 257.667,7.16667 258.333,7.16667 259,4.5C 259.667,7.16667 260.333,7.16667 261,4.5C 261.667,7.16667 262.333,7.16667 263,4.5C 263.667,7.16667 264.333,7.16667 265,4.5C 266,5.83333 267,5.83333 268,4.5C 268.667,7.16667 269.333,7.16667 270,4.5C 270.667,7.16667 271.333,7.16667 272,4.5C 273.688,6.04486 275.688,7.04486 278,7.5C 278.333,7.16667 278.667,6.83333 279,6.5C 279.591,9.14453 280.925,9.8112 283,8.5C 288.677,10.6087 294.177,13.6087 299.5,17.5 Z"/></g>
<g><path style="opacity:1" fill="#deddec" d="M 245.5,9.5 C 245.217,10.2891 244.717,10.9558 244,11.5C 243.431,7.63948 242.598,7.63948 241.5,11.5C 240.232,10.5721 238.899,10.4054 237.5,11C 237.833,11.3333 238.167,11.6667 238.5,12C 237.299,12.9025 236.465,14.0692 236,15.5C 235.667,14.8333 235.333,14.1667 235,13.5C 234.887,15.9739 233.887,17.9739 232,19.5C 230.512,18.8042 229.012,19.1375 227.5,20.5C 227.709,21.086 228.043,21.586 228.5,22C 227.747,23.487 226.914,23.6537 226,22.5C 226.617,24.0948 226.284,25.4281 225,26.5C 220.653,25.2467 220.486,26.08 224.5,29C 222.665,31.8522 220.831,34.6855 219,37.5C 218.752,40.9194 218.252,44.2527 217.5,47.5C 215.803,45.6948 214.97,43.3615 215,40.5C 214.503,42.8098 214.337,45.1432 214.5,47.5C 213.178,47.67 212.011,47.3366 211,46.5C 210.333,49.1667 209.667,49.1667 209,46.5C 205.425,48.1676 201.758,49.8342 198,51.5C 197.667,51.1667 197.333,50.8333 197,50.5C 191.325,54.5054 185.158,57.5054 178.5,59.5C 171.743,59.2052 165.076,56.8718 158.5,52.5C 155.473,51.3199 152.473,49.9866 149.5,48.5C 156.809,40.4341 165.642,35.7674 176,34.5C 185.807,30.6616 195.64,30.6616 205.5,34.5C 206.726,34.4805 207.726,34.1471 208.5,33.5C 209.978,33.762 211.311,33.4287 212.5,32.5C 213.253,30.2466 214.586,28.4133 216.5,27C 216.167,26.6667 215.833,26.3333 215.5,26C 216.9,24.5619 218.567,23.7286 220.5,23.5C 220.351,22.448 220.517,21.448 221,20.5C 221.333,20.8333 221.667,21.1667 222,21.5C 223.109,19.1853 224.943,17.6853 227.5,17C 227.167,16.6667 226.833,16.3333 226.5,16C 232.309,12.6807 238.143,9.51401 244,6.5C 244.232,7.73747 244.732,8.73747 245.5,9.5 Z"/></g>
<g><path style="opacity:1" fill="#f7f5f6" d="M 299.5,17.5 C 306.349,22.5181 312.015,28.6848 316.5,36C 319.269,36.8632 322.102,37.3632 325,37.5C 338.838,34.0364 351.671,36.5364 363.5,45C 380.204,62.1205 379.87,79.1205 362.5,96C 355.46,100.569 347.794,103.569 339.5,105C 338.167,106.667 338.167,108.333 339.5,110C 338.109,111.02 336.609,111.853 335,112.5C 330.25,110.85 325.416,109.517 320.5,108.5C 320.167,108.5 319.833,108.5 319.5,108.5C 319.5,107.833 319.167,107.5 318.5,107.5C 313.124,105.053 308.291,101.72 304,97.5C 293.823,105.282 282.323,109.615 269.5,110.5C 270.609,109.71 271.942,109.21 273.5,109C 271.441,107.815 271.274,106.648 273,105.5C 274.168,106.509 275.335,107.509 276.5,108.5C 279.537,104.483 279.704,100.483 277,96.5C 276.333,99.1667 275.667,99.1667 275,96.5C 274.333,99.1667 273.667,99.1667 273,96.5C 272.333,99.1667 271.667,99.1667 271,96.5C 270.333,99.1667 269.667,99.1667 269,96.5C 268.333,99.1667 267.667,99.1667 267,96.5C 266.333,99.1667 265.667,99.1667 265,96.5C 264.333,99.1667 263.667,99.1667 263,96.5C 262.667,97.1667 262.333,97.8333 262,98.5C 261.365,97.0337 260.531,95.7003 259.5,94.5C 261.007,93.2612 262.174,93.5946 263,95.5C 263.667,92.8333 264.333,92.8333 265,95.5C 265.667,92.8333 266.333,92.8333 267,95.5C 267.667,92.8333 268.333,92.8333 269,95.5C 269.667,92.8333 270.333,92.8333 271,95.5C 271.667,92.8333 272.333,92.8333 273,95.5C 273.667,92.8333 274.333,92.8333 275,95.5C 275.667,92.8333 276.333,92.8333 277,95.5C 277.374,94.5838 277.874,93.7504 278.5,93C 277.638,90.2656 276.805,90.0989 276,92.5C 275.333,89.8333 274.667,89.8333 274,92.5C 273.333,89.8333 272.667,89.8333 272,92.5C 271.333,89.8333 270.667,89.8333 270,92.5C 269.333,89.8333 268.667,89.8333 268,92.5C 267.333,89.8333 266.667,89.8333 266,92.5C 265.333,89.8333 264.667,89.8333 264,92.5C 263.333,89.8333 262.667,89.8333 262,92.5C 261.365,91.0337 260.531,89.7003 259.5,88.5C 261.007,87.2612 262.174,87.5946 263,89.5C 263.667,86.8333 264.333,86.8333 265,89.5C 265.667,86.8333 266.333,86.8333 267,89.5C 267.667,86.8333 268.333,86.8333 269,89.5C 269.667,86.8333 270.333,86.8333 271,89.5C 271.667,86.8333 272.333,86.8333 273,89.5C 273.667,86.8333 274.333,86.8333 275,89.5C 275.667,86.8333 276.333,86.8333 277,89.5C 277.374,88.5838 277.874,87.7504 278.5,87C 277.638,84.2656 276.805,84.0989 276,86.5C 275.333,83.8333 274.667,83.8333 274,86.5C 273.333,83.8333 272.667,83.8333 272,86.5C 271.333,83.8333 270.667,83.8333 270,86.5C 269.333,83.8333 268.667,83.8333 268,86.5C 267.333,83.8333 266.667,83.8333 266,86.5C 265.333,83.8333 264.667,83.8333 264,86.5C 263.333,83.8333 262.667,83.8333 262,86.5C 261.365,85.0337 260.531,83.7003 259.5,82.5C 261.007,81.2612 262.174,81.5946 263,83.5C 263.667,80.8333 264.333,80.8333 265,83.5C 265.667,80.8333 266.333,80.8333 267,83.5C 267.667,80.8333 268.333,80.8333 269,83.5C 269.667,80.8333 270.333,80.8333 271,83.5C 271.667,80.8333 272.333,80.8333 273,83.5C 273.667,80.8333 274.333,80.8333 275,83.5C 275.667,80.8333 276.333,80.8333 277,83.5C 277.374,82.5838 277.874,81.7504 278.5,81C 277.638,78.2656 276.805,78.0989 276,80.5C 275.333,77.8333 274.667,77.8333 274,80.5C 273.333,77.8333 272.667,77.8333 272,80.5C 271.333,77.8333 270.667,77.8333 270,80.5C 269.333,77.8333 268.667,77.8333 268,80.5C 267.333,77.8333 266.667,77.8333 266,80.5C 265.333,77.8333 264.667,77.8333 264,80.5C 263.333,77.8333 262.667,77.8333 262,80.5C 261.365,79.0337 260.531,77.7003 259.5,76.5C 261.007,75.2612 262.174,75.5946 263,77.5C 263.667,74.8333 264.333,74.8333 265,77.5C 265.667,74.8333 266.333,74.8333 267,77.5C 267.667,74.8333 268.333,74.8333 269,77.5C 269.667,74.8333 270.333,74.8333 271,77.5C 271.667,74.8333 272.333,74.8333 273,77.5C 273.667,74.8333 274.333,74.8333 275,77.5C 275.667,74.8333 276.333,74.8333 277,77.5C 277.374,76.5838 277.874,75.7504 278.5,75C 277.638,72.2656 276.805,72.0989 276,74.5C 275.333,71.8333 274.667,71.8333 274,74.5C 273.333,71.8333 272.667,71.8333 272,74.5C 271.333,71.8333 270.667,71.8333 270,74.5C 269.333,71.8333 268.667,71.8333 268,74.5C 267.333,71.8333 266.667,71.8333 266,74.5C 265.333,71.8333 264.667,71.8333 264,74.5C 263.333,71.8333 262.667,71.8333 262,74.5C 261.365,73.0337 260.531,71.7003 259.5,70.5C 261.007,69.2612 262.174,69.5946 263,71.5C 263.667,68.8333 264.333,68.8333 265,71.5C 265.667,68.8333 266.333,68.8333 267,71.5C 267.667,68.8333 268.333,68.8333 269,71.5C 269.667,68.8333 270.333,68.8333 271,71.5C 271.667,68.8333 272.333,68.8333 273,71.5C 273.667,68.8333 274.333,68.8333 275,71.5C 275.667,68.8333 276.333,68.8333 277,71.5C 277.374,70.5838 277.874,69.7504 278.5,69C 277.638,66.2656 276.805,66.0989 276,68.5C 275.333,65.8333 274.667,65.8333 274,68.5C 273.333,65.8333 272.667,65.8333 272,68.5C 271.333,65.8333 270.667,65.8333 270,68.5C 269.333,65.8333 268.667,65.8333 268,68.5C 267.333,65.8333 266.667,65.8333 266,68.5C 265.333,65.8333 264.667,65.8333 264,68.5C 263.333,65.8333 262.667,65.8333 262,68.5C 261.365,67.0337 260.531,65.7003 259.5,64.5C 261.007,63.2612 262.174,63.5946 263,65.5C 263.667,62.8333 264.333,62.8333 265,65.5C 265.667,62.8333 266.333,62.8333 267,65.5C 267.667,62.8333 268.333,62.8333 269,65.5C 269.667,62.8333 270.333,62.8333 271,65.5C 271.667,62.8333 272.333,62.8333 273,65.5C 273.667,62.8333 274.333,62.8333 275,65.5C 275.667,62.8333 276.333,62.8333 277,65.5C 277.374,64.5838 277.874,63.7504 278.5,63C 277.638,60.2656 276.805,60.0989 276,62.5C 275.333,59.8333 274.667,59.8333 274,62.5C 273.333,59.8333 272.667,59.8333 272,62.5C 271.333,59.8333 270.667,59.8333 270,62.5C 269.333,59.8333 268.667,59.8333 268,62.5C 267.333,59.8333 266.667,59.8333 266,62.5C 265.333,59.8333 264.667,59.8333 264,62.5C 263.333,59.8333 262.667,59.8333 262,62.5C 261.365,61.0337 260.531,59.7003 259.5,58.5C 261.007,57.2612 262.174,57.5946 263,59.5C 263.667,56.8333 264.333,56.8333 265,59.5C 265.667,56.8333 266.333,56.8333 267,59.5C 267.667,56.8333 268.333,56.8333 269,59.5C 269.667,56.8333 270.333,56.8333 271,59.5C 271.667,56.8333 272.333,56.8333 273,59.5C 273.667,56.8333 274.333,56.8333 275,59.5C 275.667,56.8333 276.333,56.8333 277,59.5C 277.374,58.5838 277.874,57.7504 278.5,57C 277.638,54.2656 276.805,54.0989 276,56.5C 275.333,53.8333 274.667,53.8333 274,56.5C 273.333,53.8333 272.667,53.8333 272,56.5C 271.333,53.8333 270.667,53.8333 270,56.5C 269.333,53.8333 268.667,53.8333 268,56.5C 267.333,53.8333 266.667,53.8333 266,56.5C 265.333,53.8333 264.667,53.8333 264,56.5C 263.333,53.8333 262.667,53.8333 262,56.5C 261.365,55.0337 260.531,53.7003 259.5,52.5C 261.007,51.2612 262.174,51.5946 263,53.5C 263.667,50.8333 264.333,50.8333 265,53.5C 265.667,50.8333 266.333,50.8333 267,53.5C 267.667,50.8333 268.333,50.8333 269,53.5C 269.667,50.8333 270.333,50.8333 271,53.5C 271.667,50.8333 272.333,50.8333 273,53.5C 273.667,50.8333 274.333,50.8333 275,53.5C 275.667,50.8333 276.333,50.8333 277,53.5C 277.374,52.5838 277.874,51.7504 278.5,51C 277.638,48.2656 276.805,48.0989 276,50.5C 275.333,47.8333 274.667,47.8333 274,50.5C 273.333,47.8333 272.667,47.8333 272,50.5C 271.333,47.8333 270.667,47.8333 270,50.5C 269.333,47.8333 268.667,47.8333 268,50.5C 267.333,47.8333 266.667,47.8333 266,50.5C 265.333,47.8333 264.667,47.8333 264,50.5C 263.333,47.8333 262.667,47.8333 262,50.5C 261.365,49.0337 260.531,47.7003 259.5,46.5C 261.007,45.2612 262.174,45.5946 263,47.5C 263.667,44.8333 264.333,44.8333 265,47.5C 265.667,44.8333 266.333,44.8333 267,47.5C 267.667,44.8333 268.333,44.8333 269,47.5C 269.667,44.8333 270.333,44.8333 271,47.5C 271.667,44.8333 272.333,44.8333 273,47.5C 273.667,44.8333 274.333,44.8333 275,47.5C 275.667,44.8333 276.333,44.8333 277,47.5C 277.635,46.0337 278.469,44.7003 279.5,43.5C 279.319,36.2493 278.986,28.5826 278.5,20.5C 280.282,19.0159 282.282,18.0159 284.5,17.5C 289.204,16.1869 294.204,16.1869 299.5,17.5 Z"/></g>
<g><path style="opacity:0.031" fill="#3d2827" d="M 131.5,21.5 C 133.288,20.3775 135.288,20.2109 137.5,21C 135.45,22.3318 133.45,22.4985 131.5,21.5 Z"/></g>
<g><path style="opacity:0.031" fill="#3d2827" d="M 156.5,21.5 C 157.946,20.3871 159.613,20.2204 161.5,21C 161,21.5 160.5,22 160,22.5C 158.989,21.6634 157.822,21.33 156.5,21.5 Z"/></g>
<g><path style="opacity:0.031" fill="#3d2827" d="M 319.5,20.5 C 320.833,21.1667 320.833,21.1667 319.5,20.5 Z"/></g>
<g><path style="opacity:0.031" fill="#382424" d="M 321.5,21.5 C 324.304,20.3622 327.304,20.1955 330.5,21C 327.518,21.498 324.518,21.6646 321.5,21.5 Z"/></g>
<g><path style="opacity:0.031" fill="#2b1d1d" d="M 125.5,22.5 C 125.897,21.475 126.563,21.3083 127.5,22C 126.906,22.4643 126.239,22.631 125.5,22.5 Z"/></g>
<g><path style="opacity:0.031" fill="#3d2827" d="M 165.5,22.5 C 165.897,21.475 166.563,21.3083 167.5,22C 166.906,22.4643 166.239,22.631 165.5,22.5 Z"/></g>
<g><path style="opacity:0.031" fill="#3d2827" d="M 336.5,22.5 C 336.897,21.475 337.563,21.3083 338.5,22C 337.906,22.4643 337.239,22.631 336.5,22.5 Z"/></g>
<g><path style="opacity:0.031" fill="#3d2827" d="M 120.5,22.5 C 121.833,23.1667 121.833,23.1667 120.5,22.5 Z"/></g>
<g><path style="opacity:0.031" fill="#3d2827" d="M 171.5,23.5 C 171.897,22.475 172.563,22.3083 173.5,23C 172.906,23.4643 172.239,23.631 171.5,23.5 Z"/></g>
<g><path style="opacity:0.031" fill="#3d2827" d="M 342.5,23.5 C 342.897,22.475 343.563,22.3083 344.5,23C 343.906,23.4643 343.239,23.631 342.5,23.5 Z"/></g>
<g><path style="opacity:0.031" fill="#3d2827" d="M 115.5,23.5 C 116.833,24.1667 116.833,24.1667 115.5,23.5 Z"/></g>
<g><path style="opacity:0.031" fill="#3d2827" d="M 177.5,24.5 C 176.833,23.1667 176.833,23.1667 177.5,24.5 Z"/></g>
<g><path style="opacity:0.031" fill="#3d2827" d="M 177.5,24.5 C 178.833,25.1667 178.833,25.1667 177.5,24.5 Z"/></g>
<g><path style="opacity:0.031" fill="#3d2827" d="M 181.5,25.5 C 180.833,24.1667 180.833,24.1667 181.5,25.5 Z"/></g>
<g><path style="opacity:0.031" fill="#3d2827" d="M 349.5,24.5 C 350.833,25.1667 350.833,25.1667 349.5,24.5 Z"/></g>
<g><path style="opacity:0.031" fill="#3d2827" d="M 352.5,24.5 C 353.525,24.8966 353.692,25.5632 353,26.5C 352.536,25.9056 352.369,25.2389 352.5,24.5 Z"/></g>
<g><path style="opacity:0.031" fill="#3d2827" d="M 355.5,25.5 C 356.833,26.1667 356.833,26.1667 355.5,25.5 Z"/></g>
<g><path style="opacity:0.031" fill="#3d2827" d="M 358.5,26.5 C 359.833,27.1667 359.833,27.1667 358.5,26.5 Z"/></g>
<g><path style="opacity:0.031" fill="#3d2827" d="M 362.5,28.5 C 363.833,29.1667 363.833,29.1667 362.5,28.5 Z"/></g>
<g><path style="opacity:0.031" fill="#3d2827" d="M 365.5,29.5 C 366.833,30.1667 366.833,30.1667 365.5,29.5 Z"/></g>
<g><path style="opacity:0.031" fill="#3d2827" d="M 367.5,30.5 C 368.833,31.1667 368.833,31.1667 367.5,30.5 Z"/></g>
<g><path style="opacity:0.031" fill="#3d2827" d="M 369.5,31.5 C 370.833,32.1667 370.833,32.1667 369.5,31.5 Z"/></g>
<g><path style="opacity:0.031" fill="#3d2827" d="M 372.5,32.5 C 373.833,33.1667 373.833,33.1667 372.5,32.5 Z"/></g>
<g><path style="opacity:1" fill="#d9d7eb" d="M 140.5,42.5 C 142.167,44.5 143.833,46.5 145.5,48.5C 129.276,46.652 115.11,51.652 103,63.5C 100.442,68.6155 97.9422,73.6155 95.5,78.5C 94.6103,76.2181 94.4436,73.8848 95,71.5C 95.805,73.9011 96.6383,73.7344 97.5,71C 96.8693,67.3527 96.8693,63.5194 97.5,59.5C 96.8169,56.5386 95.9836,56.2053 95,58.5C 94.6892,56.444 94.1892,54.444 93.5,52.5C 94.4978,49.9722 95.3311,49.9722 96,52.5C 96.7845,50.714 97.9512,49.214 99.5,48C 98.5,46.3333 97.5,44.6667 96.5,43C 97.893,40.8219 99.5596,39.8219 101.5,40C 99.6063,38.9207 99.273,37.5874 100.5,36C 99.5,35.6667 98.5,35.3333 97.5,35C 100.5,34.6667 103.5,34.3333 106.5,34C 105.944,33.6174 105.611,33.1174 105.5,32.5C 108.694,32.6734 112.027,32.34 115.5,31.5C 119.672,33.2519 124.005,34.4185 128.5,35C 133.036,36.7615 137.036,39.2615 140.5,42.5 Z"/></g>
<g><path style="opacity:1" fill="#e0dfe5" d="M 377.5,58.5 C 378.443,65.1442 378.609,71.8108 378,78.5C 370.844,93.6502 359.011,102.817 342.5,106C 340.627,106.953 340.294,108.12 341.5,109.5C 341.683,115.243 342.683,120.577 344.5,125.5C 343.791,126.404 342.791,126.737 341.5,126.5C 334.85,127.105 328.184,126.272 321.5,124C 320.529,118.928 320.195,113.762 320.5,108.5C 325.416,109.517 330.25,110.85 335,112.5C 336.609,111.853 338.109,111.02 339.5,110C 338.167,108.333 338.167,106.667 339.5,105C 347.794,103.569 355.46,100.569 362.5,96C 379.87,79.1205 380.204,62.1205 363.5,45C 351.671,36.5364 338.838,34.0364 325,37.5C 322.102,37.3632 319.269,36.8632 316.5,36C 312.015,28.6848 306.349,22.5181 299.5,17.5C 294.177,13.6087 288.677,10.6087 283,8.5C 280.925,9.8112 279.591,9.14453 279,6.5C 278.667,6.83333 278.333,7.16667 278,7.5C 275.688,7.04486 273.688,6.04486 272,4.5C 271.333,7.16667 270.667,7.16667 270,4.5C 269.333,7.16667 268.667,7.16667 268,4.5C 267,5.83333 266,5.83333 265,4.5C 264.333,7.16667 263.667,7.16667 263,4.5C 262.333,7.16667 261.667,7.16667 261,4.5C 260.333,7.16667 259.667,7.16667 259,4.5C 258.333,7.16667 257.667,7.16667 257,4.5C 256.333,7.16667 255.667,7.16667 255,4.5C 254.683,6.30077 254.016,6.63411 253,5.5C 250.661,7.20198 248.161,8.53531 245.5,9.5C 244.732,8.73747 244.232,7.73747 244,6.5C 238.143,9.51401 232.309,12.6807 226.5,16C 226.833,16.3333 227.167,16.6667 227.5,17C 224.943,17.6853 223.109,19.1853 222,21.5C 221.667,21.1667 221.333,20.8333 221,20.5C 220.517,21.448 220.351,22.448 220.5,23.5C 218.567,23.7286 216.9,24.5619 215.5,26C 215.833,26.3333 216.167,26.6667 216.5,27C 214.586,28.4133 213.253,30.2466 212.5,32.5C 211.311,33.4287 209.978,33.762 208.5,33.5C 210.422,29.7318 212.589,26.0651 215,22.5C 221.076,17.459 227.243,12.6256 233.5,8C 243.182,4.49805 253.182,2.33139 263.5,1.5C 284.383,2.27285 301.383,10.6062 314.5,26.5C 315.818,30.8118 318.485,33.8118 322.5,35.5C 330.39,33.5615 338.39,33.0615 346.5,34C 361.202,36.8907 371.535,45.0573 377.5,58.5 Z"/></g>
<g><path style="opacity:0.031" fill="#3d2827" d="M 376.5,34.5 C 377.833,35.1667 377.833,35.1667 376.5,34.5 Z"/></g>
<g><path style="opacity:0.031" fill="#3d2827" d="M 380.5,37.5 C 379.761,37.631 379.094,37.4643 378.5,37C 379.437,36.3083 380.103,36.475 380.5,37.5 Z"/></g>
<g><path style="opacity:0.031" fill="#3d2827" d="M 380.5,37.5 C 381.833,38.1667 381.833,38.1667 380.5,37.5 Z"/></g>
<g><path style="opacity:0.031" fill="#3d2827" d="M 383.5,39.5 C 382.833,38.1667 382.833,38.1667 383.5,39.5 Z"/></g>
<g><path style="opacity:0.031" fill="#3d2827" d="M 383.5,39.5 C 384.833,40.1667 384.833,40.1667 383.5,39.5 Z"/></g>
<g><path style="opacity:1" fill="#d2cfeb" d="M 105.5,32.5 C 105.611,33.1174 105.944,33.6174 106.5,34C 103.5,34.3333 100.5,34.6667 97.5,35C 98.5,35.3333 99.5,35.6667 100.5,36C 99.273,37.5874 99.6063,38.9207 101.5,40C 99.5596,39.8219 97.893,40.8219 96.5,43C 97.5,44.6667 98.5,46.3333 99.5,48C 97.9512,49.214 96.7845,50.714 96,52.5C 95.3311,49.9722 94.4978,49.9722 93.5,52.5C 94.1892,54.444 94.6892,56.444 95,58.5C 95.9836,56.2053 96.8169,56.5386 97.5,59.5C 96.8693,63.5194 96.8693,67.3527 97.5,71C 96.6383,73.7344 95.805,73.9011 95,71.5C 94.4436,73.8848 94.6103,76.2181 95.5,78.5C 95.3339,84.1764 95.5006,89.8431 96,95.5C 96.6216,98.5846 98.1216,101.085 100.5,103C 99.9056,103.464 99.2389,103.631 98.5,103.5C 96.2537,102.79 93.9204,102.29 91.5,102C 89.1471,99.5738 86.3137,98.0738 83,97.5C 80.7442,92.5901 77.7442,88.2567 74,84.5C 70.8875,74.2769 70.8875,64.2769 74,54.5C 75.9555,52.0888 77.7888,49.5888 79.5,47C 82.6793,46.4033 85.0126,44.7367 86.5,42C 89.1608,40.3423 91.8275,38.6756 94.5,37C 92.9813,37.3308 91.648,37.1641 90.5,36.5C 95.1993,34.1582 100.199,32.8249 105.5,32.5 Z"/></g>
<g><path style="opacity:0.031" fill="#3d2827" d="M 387.5,42.5 C 386.833,41.1667 386.833,41.1667 387.5,42.5 Z"/></g>
<g><path style="opacity:0.031" fill="#3d2827" d="M 387.5,42.5 C 388.833,43.1667 388.833,43.1667 387.5,42.5 Z"/></g>
<g><path style="opacity:0.322" fill="#5a5a5d" d="M 140.5,42.5 C 143.427,43.7573 145.761,45.7573 147.5,48.5C 146.833,48.5 146.167,48.5 145.5,48.5C 143.833,46.5 142.167,44.5 140.5,42.5 Z"/></g>
<g><path style="opacity:0.031" fill="#3d2827" d="M 391.5,45.5 C 390.833,44.1667 390.833,44.1667 391.5,45.5 Z"/></g>
<g><path style="opacity:0.031" fill="#3d2827" d="M 391.5,45.5 C 392.833,46.1667 392.833,46.1667 391.5,45.5 Z"/></g>
<g><path style="opacity:0.031" fill="#3d2827" d="M 393.5,48.5 C 393.897,47.475 394.563,47.3083 395.5,48C 394.906,48.4643 394.239,48.631 393.5,48.5 Z"/></g>
<g><path style="opacity:1" fill="#eeebf1" d="M 145.5,48.5 C 146.167,48.5 146.833,48.5 147.5,48.5C 148.167,48.5 148.833,48.5 149.5,48.5C 152.473,49.9866 155.473,51.3199 158.5,52.5C 158.751,54.1703 159.418,55.6703 160.5,57C 159.366,58.016 159.699,58.6827 161.5,59C 159.109,59.6914 159.109,60.6914 161.5,62C 161.5,63.3333 161.5,64.6667 161.5,66C 158.833,67.3333 158.833,68.6667 161.5,70C 160.643,70.6891 159.977,71.5224 159.5,72.5C 161.302,75.8001 163.302,78.9668 165.5,82C 164.083,84.8262 162.583,84.9928 161,82.5C 158.904,83.7155 159.071,84.5488 161.5,85C 159.109,85.6914 159.109,86.6914 161.5,88C 161.5,90.6667 161.5,93.3333 161.5,96C 158.833,97.3333 158.833,98.6667 161.5,100C 158.833,101.333 158.833,102.667 161.5,104C 158.833,105.333 158.833,106.667 161.5,108C 160.643,108.689 159.977,109.522 159.5,110.5C 161.639,114.314 161.805,117.98 160,121.5C 159.641,118.456 158.974,118.122 158,120.5C 157.676,118.431 156.842,118.098 155.5,119.5C 154.272,116.929 152.272,115.595 149.5,115.5C 148.5,114.833 147.5,114.167 146.5,113.5C 143.831,109.796 141.164,106.129 138.5,102.5C 135.833,104.167 133.167,105.833 130.5,107.5C 129.5,164.163 129.167,220.829 129.5,277.5C 128.501,221.336 128.168,165.002 128.5,108.5C 124.356,109.244 120.189,109.91 116,110.5C 114.019,110.371 112.353,109.704 111,108.5C 110.536,109.094 110.369,109.761 110.5,110.5C 109.883,110.611 109.383,110.944 109,111.5C 108.727,109.899 108.227,108.399 107.5,107C 104.956,105.908 102.289,105.241 99.5,105C 98.944,104.617 98.6107,104.117 98.5,103.5C 99.2389,103.631 99.9056,103.464 100.5,103C 98.1216,101.085 96.6216,98.5846 96,95.5C 95.5006,89.8431 95.3339,84.1764 95.5,78.5C 97.9422,73.6155 100.442,68.6155 103,63.5C 115.11,51.652 129.276,46.652 145.5,48.5 Z"/></g>
<g><path style="opacity:1" fill="#f2f0f5" d="M 284.5,17.5 C 282.282,18.0159 280.282,19.0159 278.5,20.5C 278.986,28.5826 279.319,36.2493 279.5,43.5C 278.469,44.7003 277.635,46.0337 277,47.5C 276.333,44.8333 275.667,44.8333 275,47.5C 274.333,44.8333 273.667,44.8333 273,47.5C 272.333,44.8333 271.667,44.8333 271,47.5C 270.333,44.8333 269.667,44.8333 269,47.5C 268.333,44.8333 267.667,44.8333 267,47.5C 266.333,44.8333 265.667,44.8333 265,47.5C 264.333,44.8333 263.667,44.8333 263,47.5C 262.174,45.5946 261.007,45.2612 259.5,46.5C 260.531,47.7003 261.365,49.0337 262,50.5C 262.667,47.8333 263.333,47.8333 264,50.5C 264.667,47.8333 265.333,47.8333 266,50.5C 266.667,47.8333 267.333,47.8333 268,50.5C 268.667,47.8333 269.333,47.8333 270,50.5C 270.667,47.8333 271.333,47.8333 272,50.5C 272.667,47.8333 273.333,47.8333 274,50.5C 274.667,47.8333 275.333,47.8333 276,50.5C 276.805,48.0989 277.638,48.2656 278.5,51C 277.874,51.7504 277.374,52.5838 277,53.5C 276.333,50.8333 275.667,50.8333 275,53.5C 274.333,50.8333 273.667,50.8333 273,53.5C 272.333,50.8333 271.667,50.8333 271,53.5C 270.333,50.8333 269.667,50.8333 269,53.5C 268.333,50.8333 267.667,50.8333 267,53.5C 266.333,50.8333 265.667,50.8333 265,53.5C 264.333,50.8333 263.667,50.8333 263,53.5C 262.174,51.5946 261.007,51.2612 259.5,52.5C 260.531,53.7003 261.365,55.0337 262,56.5C 262.667,53.8333 263.333,53.8333 264,56.5C 264.667,53.8333 265.333,53.8333 266,56.5C 266.667,53.8333 267.333,53.8333 268,56.5C 268.667,53.8333 269.333,53.8333 270,56.5C 270.667,53.8333 271.333,53.8333 272,56.5C 272.667,53.8333 273.333,53.8333 274,56.5C 274.667,53.8333 275.333,53.8333 276,56.5C 276.805,54.0989 277.638,54.2656 278.5,57C 277.874,57.7504 277.374,58.5838 277,59.5C 276.333,56.8333 275.667,56.8333 275,59.5C 274.333,56.8333 273.667,56.8333 273,59.5C 272.333,56.8333 271.667,56.8333 271,59.5C 270.333,56.8333 269.667,56.8333 269,59.5C 268.333,56.8333 267.667,56.8333 267,59.5C 266.333,56.8333 265.667,56.8333 265,59.5C 264.333,56.8333 263.667,56.8333 263,59.5C 262.174,57.5946 261.007,57.2612 259.5,58.5C 260.531,59.7003 261.365,61.0337 262,62.5C 262.667,59.8333 263.333,59.8333 264,62.5C 264.667,59.8333 265.333,59.8333 266,62.5C 266.667,59.8333 267.333,59.8333 268,62.5C 268.667,59.8333 269.333,59.8333 270,62.5C 270.667,59.8333 271.333,59.8333 272,62.5C 272.667,59.8333 273.333,59.8333 274,62.5C 274.667,59.8333 275.333,59.8333 276,62.5C 276.805,60.0989 277.638,60.2656 278.5,63C 277.874,63.7504 277.374,64.5838 277,65.5C 276.333,62.8333 275.667,62.8333 275,65.5C 274.333,62.8333 273.667,62.8333 273,65.5C 272.333,62.8333 271.667,62.8333 271,65.5C 270.333,62.8333 269.667,62.8333 269,65.5C 268.333,62.8333 267.667,62.8333 267,65.5C 266.333,62.8333 265.667,62.8333 265,65.5C 264.333,62.8333 263.667,62.8333 263,65.5C 262.174,63.5946 261.007,63.2612 259.5,64.5C 260.531,65.7003 261.365,67.0337 262,68.5C 262.667,65.8333 263.333,65.8333 264,68.5C 264.667,65.8333 265.333,65.8333 266,68.5C 266.667,65.8333 267.333,65.8333 268,68.5C 268.667,65.8333 269.333,65.8333 270,68.5C 270.667,65.8333 271.333,65.8333 272,68.5C 272.667,65.8333 273.333,65.8333 274,68.5C 274.667,65.8333 275.333,65.8333 276,68.5C 276.805,66.0989 277.638,66.2656 278.5,69C 277.874,69.7504 277.374,70.5838 277,71.5C 276.333,68.8333 275.667,68.8333 275,71.5C 274.333,68.8333 273.667,68.8333 273,71.5C 272.333,68.8333 271.667,68.8333 271,71.5C 270.333,68.8333 269.667,68.8333 269,71.5C 268.333,68.8333 267.667,68.8333 267,71.5C 266.333,68.8333 265.667,68.8333 265,71.5C 264.333,68.8333 263.667,68.8333 263,71.5C 262.174,69.5946 261.007,69.2612 259.5,70.5C 260.531,71.7003 261.365,73.0337 262,74.5C 262.667,71.8333 263.333,71.8333 264,74.5C 264.667,71.8333 265.333,71.8333 266,74.5C 266.667,71.8333 267.333,71.8333 268,74.5C 268.667,71.8333 269.333,71.8333 270,74.5C 270.667,71.8333 271.333,71.8333 272,74.5C 272.667,71.8333 273.333,71.8333 274,74.5C 274.667,71.8333 275.333,71.8333 276,74.5C 276.805,72.0989 277.638,72.2656 278.5,75C 277.874,75.7504 277.374,76.5838 277,77.5C 276.333,74.8333 275.667,74.8333 275,77.5C 274.333,74.8333 273.667,74.8333 273,77.5C 272.333,74.8333 271.667,74.8333 271,77.5C 270.333,74.8333 269.667,74.8333 269,77.5C 268.333,74.8333 267.667,74.8333 267,77.5C 266.333,74.8333 265.667,74.8333 265,77.5C 264.333,74.8333 263.667,74.8333 263,77.5C 262.174,75.5946 261.007,75.2612 259.5,76.5C 260.531,77.7003 261.365,79.0337 262,80.5C 262.667,77.8333 263.333,77.8333 264,80.5C 264.667,77.8333 265.333,77.8333 266,80.5C 266.667,77.8333 267.333,77.8333 268,80.5C 268.667,77.8333 269.333,77.8333 270,80.5C 270.667,77.8333 271.333,77.8333 272,80.5C 272.667,77.8333 273.333,77.8333 274,80.5C 274.667,77.8333 275.333,77.8333 276,80.5C 276.805,78.0989 277.638,78.2656 278.5,81C 277.874,81.7504 277.374,82.5838 277,83.5C 276.333,80.8333 275.667,80.8333 275,83.5C 274.333,80.8333 273.667,80.8333 273,83.5C 272.333,80.8333 271.667,80.8333 271,83.5C 270.333,80.8333 269.667,80.8333 269,83.5C 268.333,80.8333 267.667,80.8333 267,83.5C 266.333,80.8333 265.667,80.8333 265,83.5C 264.333,80.8333 263.667,80.8333 263,83.5C 262.174,81.5946 261.007,81.2612 259.5,82.5C 260.531,83.7003 261.365,85.0337 262,86.5C 262.667,83.8333 263.333,83.8333 264,86.5C 264.667,83.8333 265.333,83.8333 266,86.5C 266.667,83.8333 267.333,83.8333 268,86.5C 268.667,83.8333 269.333,83.8333 270,86.5C 270.667,83.8333 271.333,83.8333 272,86.5C 272.667,83.8333 273.333,83.8333 274,86.5C 274.667,83.8333 275.333,83.8333 276,86.5C 276.805,84.0989 277.638,84.2656 278.5,87C 277.874,87.7504 277.374,88.5838 277,89.5C 276.333,86.8333 275.667,86.8333 275,89.5C 274.333,86.8333 273.667,86.8333 273,89.5C 272.333,86.8333 271.667,86.8333 271,89.5C 270.333,86.8333 269.667,86.8333 269,89.5C 268.333,86.8333 267.667,86.8333 267,89.5C 266.333,86.8333 265.667,86.8333 265,89.5C 264.333,86.8333 263.667,86.8333 263,89.5C 262.174,87.5946 261.007,87.2612 259.5,88.5C 260.531,89.7003 261.365,91.0337 262,92.5C 262.667,89.8333 263.333,89.8333 264,92.5C 264.667,89.8333 265.333,89.8333 266,92.5C 266.667,89.8333 267.333,89.8333 268,92.5C 268.667,89.8333 269.333,89.8333 270,92.5C 270.667,89.8333 271.333,89.8333 272,92.5C 272.667,89.8333 273.333,89.8333 274,92.5C 274.667,89.8333 275.333,89.8333 276,92.5C 276.805,90.0989 277.638,90.2656 278.5,93C 277.874,93.7504 277.374,94.5838 277,95.5C 276.333,92.8333 275.667,92.8333 275,95.5C 274.333,92.8333 273.667,92.8333 273,95.5C 272.333,92.8333 271.667,92.8333 271,95.5C 270.333,92.8333 269.667,92.8333 269,95.5C 268.333,92.8333 267.667,92.8333 267,95.5C 266.333,92.8333 265.667,92.8333 265,95.5C 264.333,92.8333 263.667,92.8333 263,95.5C 262.174,93.5946 261.007,93.2612 259.5,94.5C 260.531,95.7003 261.365,97.0337 262,98.5C 262.333,97.8333 262.667,97.1667 263,96.5C 263.667,99.1667 264.333,99.1667 265,96.5C 265.667,99.1667 266.333,99.1667 267,96.5C 267.667,99.1667 268.333,99.1667 269,96.5C 269.667,99.1667 270.333,99.1667 271,96.5C 271.667,99.1667 272.333,99.1667 273,96.5C 273.667,99.1667 274.333,99.1667 275,96.5C 275.667,99.1667 276.333,99.1667 277,96.5C 279.704,100.483 279.537,104.483 276.5,108.5C 275.335,107.509 274.168,106.509 273,105.5C 271.274,106.648 271.441,107.815 273.5,109C 271.942,109.21 270.609,109.71 269.5,110.5C 269.167,110.5 268.833,110.5 268.5,110.5C 258.504,111.274 248.837,109.941 239.5,106.5C 237.173,109.161 234.84,111.828 232.5,114.5C 228.157,118.66 223.491,122.327 218.5,125.5C 212.048,127.542 205.715,129.542 199.5,131.5C 192.11,131.764 184.777,131.43 177.5,130.5C 172.285,129.428 167.285,127.762 162.5,125.5C 157.572,122.901 153.239,119.568 149.5,115.5C 152.272,115.595 154.272,116.929 155.5,119.5C 156.842,118.098 157.676,118.431 158,120.5C 158.974,118.122 159.641,118.456 160,121.5C 161.805,117.98 161.639,114.314 159.5,110.5C 159.977,109.522 160.643,108.689 161.5,108C 158.833,106.667 158.833,105.333 161.5,104C 158.833,102.667 158.833,101.333 161.5,100C 158.833,98.6667 158.833,97.3333 161.5,96C 161.5,93.3333 161.5,90.6667 161.5,88C 159.109,86.6914 159.109,85.6914 161.5,85C 159.071,84.5488 158.904,83.7155 161,82.5C 162.583,84.9928 164.083,84.8262 165.5,82C 163.302,78.9668 161.302,75.8001 159.5,72.5C 159.977,71.5224 160.643,70.6891 161.5,70C 158.833,68.6667 158.833,67.3333 161.5,66C 161.5,64.6667 161.5,63.3333 161.5,62C 159.109,60.6914 159.109,59.6914 161.5,59C 159.699,58.6827 159.366,58.016 160.5,57C 159.418,55.6703 158.751,54.1703 158.5,52.5C 165.076,56.8718 171.743,59.2052 178.5,59.5C 185.158,57.5054 191.325,54.5054 197,50.5C 197.333,50.8333 197.667,51.1667 198,51.5C 201.758,49.8342 205.425,48.1676 209,46.5C 209.667,49.1667 210.333,49.1667 211,46.5C 212.011,47.3366 213.178,47.67 214.5,47.5C 214.337,45.1432 214.503,42.8098 215,40.5C 214.97,43.3615 215.803,45.6948 217.5,47.5C 223.79,49.2551 230.123,48.4218 236.5,45C 243.095,36.1962 250.761,29.3629 259.5,24.5C 260.251,23.624 260.751,22.624 261,21.5C 261.333,22.1667 261.667,22.8333 262,23.5C 269.147,20.1733 276.647,18.1733 284.5,17.5 Z"/></g>
<g><path style="opacity:0.031" fill="#3d2827" d="M 398.5,51.5 C 397.833,50.1667 397.833,50.1667 398.5,51.5 Z"/></g>
<g><path style="opacity:0.031" fill="#3d2827" d="M 398.5,51.5 C 399.833,52.1667 399.833,52.1667 398.5,51.5 Z"/></g>
<g><path style="opacity:0.031" fill="#3d2827" d="M 401.5,54.5 C 402.833,55.1667 402.833,55.1667 401.5,54.5 Z"/></g>
<g><path style="opacity:0.031" fill="#3d2827" d="M 404.5,58.5 C 403.833,57.1667 403.833,57.1667 404.5,58.5 Z"/></g>
<g><path style="opacity:0.031" fill="#3d2827" d="M 404.5,58.5 C 405.167,58.5 405.5,58.8333 405.5,59.5C 405.167,59.1667 404.833,58.8333 404.5,58.5 Z"/></g>
<g><path style="opacity:0.031" fill="#3d2827" d="M 405.5,59.5 C 406.167,59.5 406.5,59.8333 406.5,60.5C 406.167,60.1667 405.833,59.8333 405.5,59.5 Z"/></g>
<g><path style="opacity:0.031" fill="#3d2827" d="M 406.5,60.5 C 407.833,61.1667 407.833,61.1667 406.5,60.5 Z"/></g>
<g><path style="opacity:0.031" fill="#3d2827" d="M 408.5,63.5 C 407.833,62.1667 407.833,62.1667 408.5,63.5 Z"/></g>
<g><path style="opacity:0.031" fill="#3d2827" d="M 55.5,63.5 C 56.8333,64.1667 56.8333,64.1667 55.5,63.5 Z"/></g>
<g><path style="opacity:1" fill="#b8b6ca" d="M 90.5,36.5 C 91.648,37.1641 92.9813,37.3308 94.5,37C 91.8275,38.6756 89.1608,40.3423 86.5,42C 85.0126,44.7367 82.6793,46.4033 79.5,47C 77.7888,49.5888 75.9555,52.0888 74,54.5C 70.8875,64.2769 70.8875,74.2769 74,84.5C 77.7442,88.2567 80.7442,92.5901 83,97.5C 86.3137,98.0738 89.1471,99.5738 91.5,102C 93.9204,102.29 96.2537,102.79 98.5,103.5C 98.6107,104.117 98.944,104.617 99.5,105C 102.289,105.241 104.956,105.908 107.5,107C 108.227,108.399 108.727,109.899 109,111.5C 109.383,110.944 109.883,110.611 110.5,110.5C 110.817,113.572 110.484,116.572 109.5,119.5C 108.817,119.863 108.15,120.196 107.5,120.5C 107.672,119.508 107.338,118.842 106.5,118.5C 107.036,115.302 106.369,112.635 104.5,110.5C 102.325,107.522 99.3251,106.022 95.5,106C 85.1814,102.336 77.3481,95.8357 72,86.5C 71.5357,87.0944 71.369,87.7611 71.5,88.5C 61.9807,65.5149 68.314,48.1815 90.5,36.5 Z"/></g>
<g><path style="opacity:0.031" fill="#3d2827" d="M 408.5,63.5 C 409.833,64.1667 409.833,64.1667 408.5,63.5 Z"/></g>
<g><path style="opacity:0.031" fill="#3d2827" d="M 54.5,65.5 C 55.8333,66.1667 55.8333,66.1667 54.5,65.5 Z"/></g>
<g><path style="opacity:0.031" fill="#3d2827" d="M 54.5,66.5 C 53.8333,67.1667 53.8333,67.1667 54.5,66.5 Z"/></g>
<g><path style="opacity:0.031" fill="#3d2827" d="M 411.5,67.5 C 412.525,67.8966 412.692,68.5632 412,69.5C 411.536,68.9056 411.369,68.2389 411.5,67.5 Z"/></g>
<g><path style="opacity:0.031" fill="#3d2827" d="M 51.5,70.5 C 52.8333,71.1667 52.8333,71.1667 51.5,70.5 Z"/></g>
<g><path style="opacity:0.031" fill="#3d2827" d="M 51.5,71.5 C 50.8333,72.1667 50.8333,72.1667 51.5,71.5 Z"/></g>
<g><path style="opacity:0.031" fill="#3d2827" d="M 414.5,72.5 C 415.525,72.8966 415.692,73.5632 415,74.5C 414.536,73.9056 414.369,73.2389 414.5,72.5 Z"/></g>
<g><path style="opacity:0.031" fill="#3d2827" d="M 417.5,78.5 C 416.475,78.1034 416.308,77.4368 417,76.5C 417.464,77.0944 417.631,77.7611 417.5,78.5 Z"/></g>
<g><path style="opacity:0.031" fill="#3d2827" d="M 47.5,77.5 C 48.8333,78.1667 48.8333,78.1667 47.5,77.5 Z"/></g>
<g><path style="opacity:0.031" fill="#3d2827" d="M 417.5,78.5 C 418.525,78.8966 418.692,79.5632 418,80.5C 417.536,79.9056 417.369,79.2389 417.5,78.5 Z"/></g>
<g><path style="opacity:0.031" fill="#3d2827" d="M 46.5,79.5 C 47.8333,80.1667 47.8333,80.1667 46.5,79.5 Z"/></g>
<g><path style="opacity:0.031" fill="#3d2827" d="M 418.5,81.5 C 419.833,82.1667 419.833,82.1667 418.5,81.5 Z"/></g>
<g><path style="opacity:0.031" fill="#3d2827" d="M 419.5,83.5 C 420.833,84.1667 420.833,84.1667 419.5,83.5 Z"/></g>
<g><path style="opacity:0.031" fill="#3d2827" d="M 44.5,84.5 C 45.8333,85.1667 45.8333,85.1667 44.5,84.5 Z"/></g>
<g><path style="opacity:0.031" fill="#3d2827" d="M 421.5,87.5 C 420.475,87.1034 420.308,86.4368 421,85.5C 421.464,86.0944 421.631,86.7611 421.5,87.5 Z"/></g>
<g><path style="opacity:0.031" fill="#3d2827" d="M 43.5,87.5 C 44.8333,88.1667 44.8333,88.1667 43.5,87.5 Z"/></g>
<g><path style="opacity:1" fill="#c3c2c8" d="M 377.5,58.5 C 379.011,60.4758 379.844,62.8091 380,65.5C 380.667,70.1667 380.667,74.8333 380,79.5C 373.676,98.0035 360.843,108.004 341.5,109.5C 340.294,108.12 340.627,106.953 342.5,106C 359.011,102.817 370.844,93.6502 378,78.5C 378.609,71.8108 378.443,65.1442 377.5,58.5 Z"/></g>
<g><path style="opacity:0.031" fill="#3d2827" d="M 421.5,87.5 C 422.404,88.209 422.737,89.209 422.5,90.5C 421.596,89.791 421.263,88.791 421.5,87.5 Z"/></g>
<g><path style="opacity:0.031" fill="#3d2827" d="M 422.5,90.5 C 423.525,90.8966 423.692,91.5632 423,92.5C 422.536,91.9056 422.369,91.2389 422.5,90.5 Z"/></g>
<g><path style="opacity:1" fill="#9593a3" d="M 104.5,110.5 C 89.7108,108.689 78.7108,101.356 71.5,88.5C 71.369,87.7611 71.5357,87.0944 72,86.5C 77.3481,95.8357 85.1814,102.336 95.5,106C 99.3251,106.022 102.325,107.522 104.5,110.5 Z"/></g>
<g><path style="opacity:0.031" fill="#3d2827" d="M 41.5,93.5 C 42.5735,94.2506 42.7401,95.2506 42,96.5C 40.2716,95.6477 40.105,94.6477 41.5,93.5 Z"/></g>
<g><path style="opacity:0.031" fill="#3d2827" d="M 423.5,94.5 C 424.833,95.1667 424.833,95.1667 423.5,94.5 Z"/></g>
<g><path style="opacity:0.031" fill="#3d2827" d="M 424.5,98.5 C 423.833,97.1667 423.833,97.1667 424.5,98.5 Z"/></g>
<g><path style="opacity:1" fill="#fee317" d="M 318.5,107.5 C 318.666,112.511 318.499,117.511 318,122.5C 312.857,120.261 308.19,117.261 304,113.5C 299.99,116.835 295.49,119.335 290.5,121C 288.274,122.227 286.774,124.061 286,126.5C 285.195,124.099 284.362,124.266 283.5,127C 285.066,129.93 285.9,133.097 286,136.5C 286.667,127.167 287.333,127.167 288,136.5C 288.515,127.236 289.348,127.236 290.5,136.5C 292.424,136.106 294.257,136.773 296,138.5C 296.333,138.167 296.667,137.833 297,137.5C 299.034,139.442 301.2,141.275 303.5,143C 301.292,143.191 299.292,143.691 297.5,144.5C 289.118,145.737 281.451,148.737 274.5,153.5C 264.353,144.443 252.686,142.11 239.5,146.5C 239.607,144.097 238.607,142.264 236.5,141C 233.223,138.685 229.556,137.351 225.5,137C 228.039,134.63 230.372,132.13 232.5,129.5C 235.005,127.137 237.505,124.804 240,122.5C 250.145,125.643 260.479,125.977 271,123.5C 271.805,125.901 272.638,125.734 273.5,123C 271.665,122.072 271.332,120.906 272.5,119.5C 271.833,118.167 271.167,116.833 270.5,115.5C 272.991,114.459 272.991,113.626 270.5,113C 271.167,112.667 271.833,112.333 272.5,112C 270.942,111.79 269.609,111.29 268.5,110.5C 268.833,110.5 269.167,110.5 269.5,110.5C 282.323,109.615 293.823,105.282 304,97.5C 308.291,101.72 313.124,105.053 318.5,107.5 Z"/></g>
<g><path style="opacity:0.031" fill="#3d2827" d="M 424.5,98.5 C 425.833,99.1667 425.833,99.1667 424.5,98.5 Z"/></g>
<g><path style="opacity:0.031" fill="#2b1d1d" d="M 40.5,99.5 C 41.525,99.8966 41.6917,100.563 41,101.5C 40.5357,100.906 40.369,100.239 40.5,99.5 Z"/></g>
<g><path style="opacity:0.031" fill="#392525" d="M 424.5,100.5 C 426.099,101.799 426.599,103.465 426,105.5C 424.731,104.095 424.231,102.429 424.5,100.5 Z"/></g>
<g><path style="opacity:1" fill="#fea528" d="M 146.5,113.5 C 145.624,113.369 144.957,113.702 144.5,114.5C 145.582,116.884 146.249,119.05 146.5,121C 145.5,121.833 144.5,122.667 143.5,123.5C 146.108,126.179 146.442,128.845 144.5,131.5C 145.025,132.192 145.692,132.692 146.5,133C 144.043,134.512 144.043,135.846 146.5,137C 143.833,137.667 143.833,138.333 146.5,139C 146.175,150.496 146.175,161.496 146.5,172C 145.833,172.667 145.167,173.333 144.5,174C 145.663,213.096 145.83,252.262 145,291.5C 143.984,292.634 143.317,292.301 143,290.5C 142.517,291.448 142.351,292.448 142.5,293.5C 138.974,292.31 135.974,290.31 133.5,287.5C 131.195,284.593 129.862,281.259 129.5,277.5C 129.167,220.829 129.5,164.163 130.5,107.5C 133.167,105.833 135.833,104.167 138.5,102.5C 141.164,106.129 143.831,109.796 146.5,113.5 Z"/></g>
<g><path style="opacity:0.031" fill="#312020" d="M 39.5,104.5 C 40.5983,105.601 40.765,106.934 40,108.5C 39.51,107.207 39.3433,105.873 39.5,104.5 Z"/></g>
<g><path style="opacity:1" fill="#fdd60b" d="M 268.5,110.5 C 269.609,111.29 270.942,111.79 272.5,112C 271.833,112.333 271.167,112.667 270.5,113C 272.991,113.626 272.991,114.459 270.5,115.5C 271.167,116.833 271.833,118.167 272.5,119.5C 271.332,120.906 271.665,122.072 273.5,123C 272.638,125.734 271.805,125.901 271,123.5C 260.479,125.977 250.145,125.643 240,122.5C 237.505,124.804 235.005,127.137 232.5,129.5C 232.082,128.778 231.416,128.278 230.5,128C 232.002,127.417 233.335,126.584 234.5,125.5C 234.431,123.722 234.097,121.889 233.5,120C 236.051,117.182 235.717,115.348 232.5,114.5C 234.84,111.828 237.173,109.161 239.5,106.5C 248.837,109.941 258.504,111.274 268.5,110.5 Z"/></g>
<g><path style="opacity:1" fill="#ffea3d" d="M 318.5,107.5 C 319.167,107.5 319.5,107.833 319.5,108.5C 319.832,117.525 319.498,126.525 318.5,135.5C 314.181,137.965 310.847,141.298 308.5,145.5C 304.906,144.574 301.24,144.241 297.5,144.5C 299.292,143.691 301.292,143.191 303.5,143C 301.2,141.275 299.034,139.442 297,137.5C 296.667,137.833 296.333,138.167 296,138.5C 294.257,136.773 292.424,136.106 290.5,136.5C 289.348,127.236 288.515,127.236 288,136.5C 287.333,127.167 286.667,127.167 286,136.5C 285.9,133.097 285.066,129.93 283.5,127C 284.362,124.266 285.195,124.099 286,126.5C 286.774,124.061 288.274,122.227 290.5,121C 295.49,119.335 299.99,116.835 304,113.5C 308.19,117.261 312.857,120.261 318,122.5C 318.499,117.511 318.666,112.511 318.5,107.5 Z"/></g>
<g><path style="opacity:1" fill="#d0cdea" d="M 129.5,277.5 C 129.862,281.259 131.195,284.593 133.5,287.5C 133.655,296.484 136.989,303.984 143.5,310C 144.094,310.464 144.761,310.631 145.5,310.5C 145.833,311.167 146.167,311.833 146.5,312.5C 140.249,311.338 134.416,311.338 129,312.5C 126.993,311.331 124.827,310.665 122.5,310.5C 120.768,307.608 118.268,305.608 115,304.5C 113.075,300.307 111.408,295.974 110,291.5C 109.817,283.255 109.317,275.088 108.5,267C 109.867,264.841 109.533,262.675 107.5,260.5C 107.821,254.974 107.488,249.64 106.5,244.5C 106.5,244.167 106.5,243.833 106.5,243.5C 106.5,242.833 106.5,242.167 106.5,241.5C 107.931,241.119 108.764,240.119 109,238.5C 109.167,222.833 109.333,207.167 109.5,191.5C 109.125,173.898 109.125,156.398 109.5,139C 108.956,138.283 108.289,137.783 107.5,137.5C 107.5,136.833 107.5,136.167 107.5,135.5C 107.5,130.5 107.5,125.5 107.5,120.5C 108.15,120.196 108.817,119.863 109.5,119.5C 110.484,116.572 110.817,113.572 110.5,110.5C 110.369,109.761 110.536,109.094 111,108.5C 112.353,109.704 114.019,110.371 116,110.5C 120.189,109.91 124.356,109.244 128.5,108.5C 128.168,165.002 128.501,221.336 129.5,277.5 Z"/></g>
<g><path style="opacity:0.031" fill="#301f1f" d="M 425.5,107.5 C 427.964,113.625 428.131,119.958 426,126.5C 424.955,119.787 424.788,113.454 425.5,107.5 Z"/></g>
<g><path style="opacity:1" fill="#feab22" d="M 146.5,113.5 C 147.5,114.167 148.5,114.833 149.5,115.5C 153.239,119.568 157.572,122.901 162.5,125.5C 162.33,126.822 162.663,127.989 163.5,129C 161.862,132.33 161.362,135.83 162,139.5C 164.861,139.092 165.028,139.925 162.5,142C 162.152,144.055 162.819,146.055 164.5,148C 163.426,148.739 162.759,149.739 162.5,151C 162.55,153.279 162.883,155.612 163.5,158C 161.664,161.848 161.664,165.515 163.5,169C 160.749,172.325 161.082,175.658 164.5,179C 163.251,180.824 162.085,180.657 161,178.5C 160.846,181.063 161.346,183.563 162.5,186C 162.099,192.463 161.766,198.963 161.5,205.5C 161.482,207.373 161.982,207.706 163,206.5C 164.437,208.221 163.937,209.721 161.5,211C 162.5,212 163.5,213 164.5,214C 161.774,215.966 161.44,217.966 163.5,220C 161.428,222.967 161.428,225.633 163.5,228C 161.562,230.328 161.895,232.661 164.5,235C 163.833,235.667 163.167,236.333 162.5,237C 162.833,238.667 163.167,240.333 163.5,242C 161.44,244.034 161.774,246.034 164.5,248C 163.13,249.441 162.13,251.108 161.5,253C 162.833,255.667 162.833,258.333 161.5,261C 163.539,263.385 163.539,265.552 161.5,267.5C 162.641,268.425 162.641,269.259 161.5,270C 162.167,270.667 162.833,271.333 163.5,272C 161.428,274.967 161.428,277.633 163.5,280C 161.562,282.328 161.895,284.661 164.5,287C 163.251,288.824 162.085,288.657 161,286.5C 160.37,288.903 161.203,290.737 163.5,292C 162.638,294.734 161.805,294.901 161,292.5C 160.487,293.527 159.987,294.527 159.5,295.5C 155.833,295.5 152.167,295.5 148.5,295.5C 146.142,295.747 144.142,295.081 142.5,293.5C 142.351,292.448 142.517,291.448 143,290.5C 143.317,292.301 143.984,292.634 145,291.5C 145.83,252.262 145.663,213.096 144.5,174C 145.167,173.333 145.833,172.667 146.5,172C 146.175,161.496 146.175,150.496 146.5,139C 143.833,138.333 143.833,137.667 146.5,137C 144.043,135.846 144.043,134.512 146.5,133C 145.692,132.692 145.025,132.192 144.5,131.5C 146.442,128.845 146.108,126.179 143.5,123.5C 144.5,122.667 145.5,121.833 146.5,121C 146.249,119.05 145.582,116.884 144.5,114.5C 144.957,113.702 145.624,113.369 146.5,113.5 Z"/></g>
<g><path style="opacity:1" fill="#fed013" d="M 232.5,114.5 C 235.717,115.348 236.051,117.182 233.5,120C 234.097,121.889 234.431,123.722 234.5,125.5C 233.335,126.584 232.002,127.417 230.5,128C 231.416,128.278 232.082,128.778 232.5,129.5C 230.372,132.13 228.039,134.63 225.5,137C 229.556,137.351 233.223,138.685 236.5,141C 238.607,142.264 239.607,144.097 239.5,146.5C 217.714,158.753 214.714,174.587 230.5,194C 233.339,195.92 236.339,197.587 239.5,199C 233.833,199.333 228.167,199.667 222.5,200C 221.473,200.513 220.473,201.013 219.5,201.5C 219.852,186.504 219.519,173.338 218.5,162C 219.833,160.667 221.167,159.333 222.5,158C 221.833,157.333 221.167,156.667 220.5,156C 220.833,154.333 221.167,152.667 221.5,151C 220.289,150.213 219.289,149.546 218.5,149C 219.704,141.064 219.704,133.231 218.5,125.5C 223.491,122.327 228.157,118.66 232.5,114.5 Z"/></g>
<g><path style="opacity:0.031" fill="#342222" d="M 40.5,128.5 C 38.6325,127.214 38.4658,125.881 40,124.5C 40.49,125.793 40.6567,127.127 40.5,128.5 Z"/></g>
<g><path style="opacity:1" fill="#fec80d" d="M 218.5,125.5 C 219.704,133.231 219.704,141.064 218.5,149C 219.289,149.546 220.289,150.213 221.5,151C 221.167,152.667 220.833,154.333 220.5,156C 221.167,156.667 221.833,157.333 222.5,158C 221.167,159.333 219.833,160.667 218.5,162C 219.519,173.338 219.852,186.504 219.5,201.5C 215.001,203.003 211.001,205.336 207.5,208.5C 206.711,208.217 206.044,207.717 205.5,207C 205.833,189.333 206.167,171.667 206.5,154C 205.608,150.274 203.274,148.108 199.5,147.5C 199.5,147.167 199.5,146.833 199.5,146.5C 200.794,143.648 202.294,143.314 204,145.5C 204.5,145 205,144.5 205.5,144C 204.313,142.981 203.313,141.814 202.5,140.5C 202.362,137.816 202.696,135.316 203.5,133C 202.437,131.812 201.103,131.312 199.5,131.5C 205.715,129.542 212.048,127.542 218.5,125.5 Z"/></g>
<g><path style="opacity:0.881" fill="#fbfbfb" d="M 344.5,125.5 C 345.5,125.5 346.5,125.5 347.5,125.5C 357.938,125.59 367.272,128.757 375.5,135C 378.604,138.617 381.77,142.117 385,145.5C 397.733,142.858 408.399,146.192 417,155.5C 417.383,154.944 417.883,154.611 418.5,154.5C 428.163,169.685 426.163,183.185 412.5,195C 408.856,197.656 404.856,199.489 400.5,200.5C 399.71,239.153 399.21,277.82 399,316.5C 395.169,321.842 390.336,325.842 384.5,328.5C 342.5,328.5 300.5,328.5 258.5,328.5C 254.433,326.794 251.1,324.127 248.5,320.5C 247.559,318.95 246.893,317.284 246.5,315.5C 246.5,315.167 246.5,314.833 246.5,314.5C 246.5,314.167 246.5,313.833 246.5,313.5C 248.149,307.399 249.149,301.065 249.5,294.5C 249.5,295.167 249.5,295.833 249.5,296.5C 249.226,303.23 249.726,309.897 251,316.5C 252.614,319.237 254.781,321.403 257.5,323C 270.773,324.425 284.106,324.925 297.5,324.5C 325.502,324.667 353.502,324.5 381.5,324C 385.672,323.505 389.172,321.672 392,318.5C 392.791,317.255 393.291,315.922 393.5,314.5C 394.302,313.048 394.802,311.382 395,309.5C 395.5,271.835 395.667,234.168 395.5,196.5C 411.327,194.345 419.327,185.345 419.5,169.5C 417.8,160.776 412.8,154.776 404.5,151.5C 400.966,149.952 397.133,149.286 393,149.5C 389.627,149.561 386.293,149.894 383,150.5C 381.989,149.944 381.156,149.278 380.5,148.5C 374.838,138.37 366.172,132.203 354.5,130C 349.845,129.501 345.179,129.334 340.5,129.5C 341.11,128.609 341.443,127.609 341.5,126.5C 342.791,126.737 343.791,126.404 344.5,125.5 Z"/></g>
<g><path style="opacity:1" fill="#feb31b" d="M 162.5,125.5 C 167.285,127.762 172.285,129.428 177.5,130.5C 177.269,133.785 178.603,136.285 181.5,138C 180.048,139.958 179.715,141.958 180.5,144C 177.526,145.506 177.193,147.172 179.5,149C 178.663,150.011 178.33,151.178 178.5,152.5C 178.667,192.835 178.5,233.168 178,273.5C 176.77,276.732 174.77,279.399 172,281.5C 168.97,287.664 170.47,292.33 176.5,295.5C 170.833,295.5 165.167,295.5 159.5,295.5C 159.987,294.527 160.487,293.527 161,292.5C 161.805,294.901 162.638,294.734 163.5,292C 161.203,290.737 160.37,288.903 161,286.5C 162.085,288.657 163.251,288.824 164.5,287C 161.895,284.661 161.562,282.328 163.5,280C 161.428,277.633 161.428,274.967 163.5,272C 162.833,271.333 162.167,270.667 161.5,270C 162.641,269.259 162.641,268.425 161.5,267.5C 163.539,265.552 163.539,263.385 161.5,261C 162.833,258.333 162.833,255.667 161.5,253C 162.13,251.108 163.13,249.441 164.5,248C 161.774,246.034 161.44,244.034 163.5,242C 163.167,240.333 162.833,238.667 162.5,237C 163.167,236.333 163.833,235.667 164.5,235C 161.895,232.661 161.562,230.328 163.5,228C 161.428,225.633 161.428,222.967 163.5,220C 161.44,217.966 161.774,215.966 164.5,214C 163.5,213 162.5,212 161.5,211C 163.937,209.721 164.437,208.221 163,206.5C 161.982,207.706 161.482,207.373 161.5,205.5C 161.766,198.963 162.099,192.463 162.5,186C 161.346,183.563 160.846,181.063 161,178.5C 162.085,180.657 163.251,180.824 164.5,179C 161.082,175.658 160.749,172.325 163.5,169C 161.664,165.515 161.664,161.848 163.5,158C 162.883,155.612 162.55,153.279 162.5,151C 162.759,149.739 163.426,148.739 164.5,148C 162.819,146.055 162.152,144.055 162.5,142C 165.028,139.925 164.861,139.092 162,139.5C 161.362,135.83 161.862,132.33 163.5,129C 162.663,127.989 162.33,126.822 162.5,125.5 Z"/></g>
<g><path style="opacity:1" fill="#fdfaee" d="M 319.5,108.5 C 319.833,108.5 320.167,108.5 320.5,108.5C 320.195,113.762 320.529,118.928 321.5,124C 328.184,126.272 334.85,127.105 341.5,126.5C 341.443,127.609 341.11,128.609 340.5,129.5C 333.406,130.514 327.073,133.181 321.5,137.5C 317.436,141.226 313.77,145.226 310.5,149.5C 306.52,149.74 302.854,149.074 299.5,147.5C 293.685,148.87 288.018,150.704 282.5,153C 279.815,154.161 277.815,155.994 276.5,158.5C 275.5,158.5 274.5,158.5 273.5,158.5C 272.19,156.852 270.857,155.186 269.5,153.5C 265.061,150.615 260.227,148.615 255,147.5C 245.945,147.595 238.112,150.595 231.5,156.5C 221.11,169.925 222.444,182.091 235.5,193C 239.032,194.632 242.699,195.799 246.5,196.5C 248.913,197.68 249.913,199.68 249.5,202.5C 241.147,202.477 232.147,202.977 222.5,204C 219.289,205.852 215.956,207.519 212.5,209C 211.301,210.694 209.968,212.194 208.5,213.5C 206.453,215.55 204.786,217.883 203.5,220.5C 201.828,223.198 200.661,226.198 200,229.5C 199.333,241.5 199.333,253.5 200,265.5C 203.119,278.606 210.952,287.439 223.5,292C 232.216,293.437 240.883,293.937 249.5,293.5C 249.5,293.833 249.5,294.167 249.5,294.5C 249.149,301.065 248.149,307.399 246.5,313.5C 245.662,313.158 245.328,312.492 245.5,311.5C 245.5,306.5 245.5,301.5 245.5,296.5C 238.167,296.5 230.833,296.5 223.5,296.5C 223.167,295.5 222.5,294.833 221.5,294.5C 211.468,291.631 203.968,285.631 199,276.5C 198.333,274.5 197.667,272.5 197,270.5C 196.333,255.5 196.333,240.5 197,225.5C 199.101,218.914 202.601,213.247 207.5,208.5C 211.001,205.336 215.001,203.003 219.5,201.5C 220.473,201.013 221.473,200.513 222.5,200C 228.167,199.667 233.833,199.333 239.5,199C 236.339,197.587 233.339,195.92 230.5,194C 214.714,174.587 217.714,158.753 239.5,146.5C 252.686,142.11 264.353,144.443 274.5,153.5C 281.451,148.737 289.118,145.737 297.5,144.5C 301.24,144.241 304.906,144.574 308.5,145.5C 310.847,141.298 314.181,137.965 318.5,135.5C 319.498,126.525 319.832,117.525 319.5,108.5 Z"/></g>
<g><path style="opacity:1" fill="#e7e5ef" d="M 106.5,118.5 C 107.338,118.842 107.672,119.508 107.5,120.5C 107.5,125.5 107.5,130.5 107.5,135.5C 98.911,136.305 90.2443,136.805 81.5,137C 75.8235,137.394 70.4902,138.894 65.5,141.5C 63.2478,142.333 61.0811,142.333 59,141.5C 57.8906,143.815 56.0573,145.315 53.5,146C 53.8333,146.333 54.1667,146.667 54.5,147C 53.5,147.333 52.5,147.667 51.5,148C 51.8333,148.333 52.1667,148.667 52.5,149C 51.5838,149.374 50.7504,149.874 50,150.5C 49.8782,148.831 50.2115,147.165 51,145.5C 56.7844,137.672 63.451,131.672 71,127.5C 71.5855,125.871 72.4188,124.371 73.5,123C 73.0556,121.238 72.5556,121.405 72,123.5C 71.5357,122.906 71.369,122.239 71.5,121.5C 83.3691,121.159 95.0358,120.159 106.5,118.5 Z"/></g>
<g><path style="opacity:1" fill="#febc16" d="M 177.5,130.5 C 184.777,131.43 192.11,131.764 199.5,131.5C 201.103,131.312 202.437,131.812 203.5,133C 202.696,135.316 202.362,137.816 202.5,140.5C 203.313,141.814 204.313,142.981 205.5,144C 205,144.5 204.5,145 204,145.5C 202.294,143.314 200.794,143.648 199.5,146.5C 197.662,145.898 195.829,145.565 194,145.5C 192.676,146.88 191.343,147.214 190,146.5C 187.595,147.274 185.095,147.774 182.5,148C 181.619,148.708 180.953,149.542 180.5,150.5C 179.833,151.167 179.167,151.833 178.5,152.5C 178.33,151.178 178.663,150.011 179.5,149C 177.193,147.172 177.526,145.506 180.5,144C 179.715,141.958 180.048,139.958 181.5,138C 178.603,136.285 177.269,133.785 177.5,130.5 Z"/></g>
<g><path style="opacity:0.031" fill="#3a2626" d="M 425.5,129.5 C 426.043,129.56 426.376,129.893 426.5,130.5C 425.975,132.988 425.142,135.321 424,137.5C 424.041,134.794 424.541,132.128 425.5,129.5 Z"/></g>
<g><path style="opacity:1" fill="#e4e2ec" d="M 340.5,129.5 C 345.179,129.334 349.845,129.501 354.5,130C 366.172,132.203 374.838,138.37 380.5,148.5C 380.565,148.938 380.399,149.272 380,149.5C 371.637,138.342 360.971,132.342 348,131.5C 347.498,135.516 348.665,136.182 351.5,133.5C 352.478,133.977 353.311,134.643 354,135.5C 356.754,133.926 359.087,134.592 361,137.5C 362.871,136.332 364.371,136.832 365.5,139C 364.552,139.483 363.552,139.649 362.5,139.5C 361.298,140.405 359.964,140.405 358.5,139.5C 355.399,139.692 352.399,140.358 349.5,141.5C 348.158,140.098 347.324,140.431 347,142.5C 344.549,142.426 342.049,141.926 339.5,141C 340.833,142 342.167,143 343.5,144C 338.597,147.302 334.264,151.302 330.5,156C 325.18,158.624 319.68,159.124 314,157.5C 307.188,159.68 301.022,162.346 295.5,165.5C 293.622,165.377 291.789,165.377 290,165.5C 285.659,162.678 281.159,160.344 276.5,158.5C 277.815,155.994 279.815,154.161 282.5,153C 288.018,150.704 293.685,148.87 299.5,147.5C 302.854,149.074 306.52,149.74 310.5,149.5C 313.77,145.226 317.436,141.226 321.5,137.5C 327.073,133.181 333.406,130.514 340.5,129.5 Z"/></g>
<g><path style="opacity:1" fill="#b8b6cc" d="M 107.5,137.5 C 108.289,137.783 108.956,138.283 109.5,139C 109.125,156.398 109.125,173.898 109.5,191.5C 109.333,207.167 109.167,222.833 109,238.5C 108.764,240.119 107.931,241.119 106.5,241.5C 106.5,207.833 106.5,174.167 106.5,140.5C 106.557,139.391 106.89,138.391 107.5,137.5 Z"/></g>
<g><path style="opacity:0.031" fill="#3d2827" d="M 423.5,138.5 C 424.525,138.897 424.692,139.563 424,140.5C 423.536,139.906 423.369,139.239 423.5,138.5 Z"/></g>
<g><path style="opacity:1" fill="#f6f4f6" d="M 358.5,139.5 C 359.964,140.405 361.298,140.405 362.5,139.5C 367.791,142.968 371.958,146.968 375,151.5C 376.955,152.453 378.622,153.787 380,155.5C 381.925,153.027 383.758,153.027 385.5,155.5C 386.478,155.023 387.311,154.357 388,153.5C 388.388,154.428 389.055,155.095 390,155.5C 391.891,155.282 393.724,155.282 395.5,155.5C 396.192,154.975 396.692,154.308 397,153.5C 402.366,156.629 407.199,160.463 411.5,165C 410.786,166.343 411.12,167.676 412.5,169C 412.5,171 412.5,173 412.5,175C 410.033,181.868 405.199,186.368 398,188.5C 396.667,188.5 395.333,188.5 394,188.5C 393.683,190.301 393.016,190.634 392,189.5C 390.589,191.65 389.755,193.984 389.5,196.5C 386.794,196.425 384.127,196.092 381.5,195.5C 377.993,194.156 374.826,192.156 372,189.5C 365.892,192.689 359.725,195.356 353.5,197.5C 348.968,197.818 344.634,197.485 340.5,196.5C 342.549,196.294 342.883,195.461 341.5,194C 342.167,193.333 342.833,192.667 343.5,192C 343.063,189.783 343.063,187.449 343.5,185C 340.833,183 340.833,181 343.5,179C 340.833,177.333 340.833,175.667 343.5,174C 343.923,171.116 343.256,168.282 341.5,165.5C 341.529,163.971 342.196,162.804 343.5,162C 343.5,160 343.5,158 343.5,156C 341.053,154.771 340.887,153.271 343,151.5C 344.085,153.657 345.251,153.824 346.5,152C 346.167,151 345.833,150 345.5,149C 346.701,148.097 347.535,146.931 348,145.5C 349.147,146.458 350.147,146.125 351,144.5C 351.483,143.552 351.649,142.552 351.5,141.5C 354.152,141.59 356.485,140.924 358.5,139.5 Z"/></g>
<g><path style="opacity:0.678" fill="#8c8b91" d="M 106.5,140.5 C 106.5,174.167 106.5,207.833 106.5,241.5C 106.5,242.167 106.5,242.833 106.5,243.5C 106.167,243.5 105.833,243.5 105.5,243.5C 105.5,209.5 105.5,175.5 105.5,141.5C 96.4568,141.557 87.6235,141.557 79,141.5C 71.1149,143.502 63.9483,147.502 57.5,153.5C 57.3893,152.883 57.056,152.383 56.5,152C 58.6558,150.01 60.6558,147.843 62.5,145.5C 68.4725,143.255 74.3058,140.921 80,138.5C 88.5657,140.454 97.399,141.12 106.5,140.5 Z"/></g>
<g><path style="opacity:1" fill="#d9d8e8" d="M 71.5,121.5 C 71.369,122.239 71.5357,122.906 72,123.5C 72.5556,121.405 73.0556,121.238 73.5,123C 72.4188,124.371 71.5855,125.871 71,127.5C 63.451,131.672 56.7844,137.672 51,145.5C 50.2115,147.165 49.8782,148.831 50,150.5C 50.7504,149.874 51.5838,149.374 52.5,149C 52.1667,148.667 51.8333,148.333 51.5,148C 52.5,147.667 53.5,147.333 54.5,147C 54.1667,146.667 53.8333,146.333 53.5,146C 56.0573,145.315 57.8906,143.815 59,141.5C 61.0811,142.333 63.2478,142.333 65.5,141.5C 62.8733,142.831 60.54,144.664 58.5,147C 57.552,147.483 56.552,147.649 55.5,147.5C 54.618,150.156 53.2847,152.656 51.5,155C 51.8333,155.333 52.1667,155.667 52.5,156C 50.1358,157.012 48.8024,158.345 48.5,160C 49.1667,160.667 49.8333,161.333 50.5,162C 49.1667,163 49.1667,164 50.5,165C 49.572,165.388 48.9054,166.055 48.5,167C 49.1539,185.042 49.8206,203.042 50.5,221C 50.1667,221.333 49.8333,221.667 49.5,222C 51.689,222.677 52.0224,223.844 50.5,225.5C 51.9814,226.48 53.3147,227.647 54.5,229C 54.1667,229.333 53.8333,229.667 53.5,230C 55.7343,231.75 58.0676,233.25 60.5,234.5C 66.7479,238.999 73.5813,241.999 81,243.5C 89.0162,243.411 97.1828,243.411 105.5,243.5C 105.833,243.5 106.167,243.5 106.5,243.5C 106.5,243.833 106.5,244.167 106.5,244.5C 100.491,244.334 94.4908,244.501 88.5,245C 84.4951,246.459 80.1618,246.626 75.5,245.5C 70.1528,242.498 64.4861,239.998 58.5,238C 57.255,234.841 56.0884,235.007 55,238.5C 53.9196,236.004 52.5862,233.67 51,231.5C 50.6667,231.833 50.3333,232.167 50,232.5C 49.3811,229.968 48.3811,227.635 47,225.5C 46.5172,226.448 46.3505,227.448 46.5,228.5C 44.1867,229.392 43.8534,228.558 45.5,226C 45.2409,224.739 44.5742,223.739 43.5,223C 44.8333,204.333 44.8333,185.667 43.5,167C 44.1667,165 44.8333,163 45.5,161C 44.8333,160.667 44.1667,160.333 43.5,160C 45.3869,158.031 46.7202,155.698 47.5,153C 45.2031,151.737 44.3698,149.903 45,147.5C 45.805,149.901 46.6383,149.734 47.5,147C 46.3398,144.002 47.3398,141.169 50.5,138.5C 49.2815,138.891 48.4482,138.224 48,136.5C 46.848,138.649 45.348,140.482 43.5,142C 43.8333,142.333 44.1667,142.667 44.5,143C 43.2713,144.529 41.7713,145.696 40,146.5C 39.5291,148.246 38.8624,149.913 38,151.5C 37.5,151 37,150.5 36.5,150C 37.3802,148.644 37.7135,147.144 37.5,145.5C 38.4959,145.586 39.3292,145.252 40,144.5C 41.9365,141.766 43.7699,138.933 45.5,136C 50.0634,131.906 54.73,128.073 59.5,124.5C 63.0184,122.034 67.0184,121.034 71.5,121.5 Z"/></g>
<g><path style="opacity:0.192" fill="#0c0908" d="M 105.5,243.5 C 97.1828,243.411 89.0162,243.411 81,243.5C 73.5813,241.999 66.7479,238.999 60.5,234.5C 57.5658,229.75 54.8991,225.25 52.5,221C 52.5,202 52.5,183 52.5,164C 54.1929,162.287 55.5262,160.287 56.5,158C 56.1667,157.667 55.8333,157.333 55.5,157C 56.9733,156.29 57.6399,155.124 57.5,153.5C 63.9483,147.502 71.1149,143.502 79,141.5C 87.6235,141.557 96.4568,141.557 105.5,141.5C 105.5,175.5 105.5,209.5 105.5,243.5 Z M 78.5,146.5 C 85.6232,146.588 92.9565,146.588 100.5,146.5C 100.5,177.167 100.5,207.833 100.5,238.5C 87.1671,240.759 75.0004,238.093 64,230.5C 61.2068,226.577 59.2068,222.244 58,217.5C 57.0544,199.447 57.3878,181.447 59,163.5C 60.3183,160.523 61.8183,157.69 63.5,155C 68.2244,151.499 73.2244,148.665 78.5,146.5 Z"/></g>
<g><path style="opacity:0.031" fill="#3d2827" d="M 422.5,141.5 C 423.525,141.897 423.692,142.563 423,143.5C 422.536,142.906 422.369,142.239 422.5,141.5 Z"/></g>
<g><path style="opacity:1" fill="#d1ceea" d="M 46.5,228.5 C 52.2473,243.198 61.5806,253.531 74.5,259.5C 71.911,258.873 69.411,258.873 67,259.5C 58.6386,255.78 50.8053,251.28 43.5,246C 41.2436,243.878 39.577,241.378 38.5,238.5C 34.4486,232.546 31.9486,225.879 31,218.5C 30.8202,200.456 30.3202,182.456 29.5,164.5C 30.5228,160.887 31.3562,157.221 32,153.5C 33.1021,150.285 34.9354,147.618 37.5,145.5C 37.7135,147.144 37.3802,148.644 36.5,150C 37,150.5 37.5,151 38,151.5C 38.8624,149.913 39.5291,148.246 40,146.5C 41.7713,145.696 43.2713,144.529 44.5,143C 44.1667,142.667 43.8333,142.333 43.5,142C 45.348,140.482 46.848,138.649 48,136.5C 48.4482,138.224 49.2815,138.891 50.5,138.5C 47.3398,141.169 46.3398,144.002 47.5,147C 46.6383,149.734 45.805,149.901 45,147.5C 44.3698,149.903 45.2031,151.737 47.5,153C 46.7202,155.698 45.3869,158.031 43.5,160C 44.1667,160.333 44.8333,160.667 45.5,161C 44.8333,163 44.1667,165 43.5,167C 44.8333,185.667 44.8333,204.333 43.5,223C 44.5742,223.739 45.2409,224.739 45.5,226C 43.8534,228.558 44.1867,229.392 46.5,228.5 Z"/></g>
<g><path style="opacity:0.031" fill="#3d2827" d="M 421.5,145.5 C 422.833,146.167 422.833,146.167 421.5,145.5 Z"/></g>
<g><path style="opacity:1" fill="#fece04" d="M 199.5,146.5 C 199.5,146.833 199.5,147.167 199.5,147.5C 197.123,147.784 194.956,147.784 193,147.5C 192.833,171.833 192.667,196.167 192.5,220.5C 192.505,245.215 193.172,269.715 194.5,294C 192.942,294.21 191.609,294.71 190.5,295.5C 188.167,295.5 185.833,295.5 183.5,295.5C 182.737,294.732 181.737,294.232 180.5,294C 181.833,293.333 183.167,292.667 184.5,292C 182.023,290.295 180.689,288.295 180.5,286C 181.833,285.333 183.167,284.667 184.5,284C 182.023,282.295 180.689,280.295 180.5,278C 181.833,276.667 181.833,275.333 180.5,274C 183.167,273.333 183.167,272.667 180.5,272C 182.513,271.125 182.513,269.791 180.5,268C 181.833,266.667 181.833,265.333 180.5,264C 183.167,263.333 183.167,262.667 180.5,262C 182.513,261.125 182.513,259.791 180.5,258C 181.833,256.667 181.833,255.333 180.5,254C 183.167,253.333 183.167,252.667 180.5,252C 182.513,251.125 182.513,249.791 180.5,248C 181.833,246.667 181.833,245.333 180.5,244C 183.167,243.333 183.167,242.667 180.5,242C 182.513,241.125 182.513,239.791 180.5,238C 181.833,236.667 181.833,235.333 180.5,234C 183.167,233.333 183.167,232.667 180.5,232C 182.513,231.125 182.513,229.791 180.5,228C 181.833,226.667 181.833,225.333 180.5,224C 183.167,223.333 183.167,222.667 180.5,222C 182.513,221.125 182.513,219.791 180.5,218C 181.833,216.667 181.833,215.333 180.5,214C 183.167,213.333 183.167,212.667 180.5,212C 182.513,211.125 182.513,209.791 180.5,208C 181.833,206.667 181.833,205.333 180.5,204C 183.167,203.333 183.167,202.667 180.5,202C 182.513,201.125 182.513,199.791 180.5,198C 181.833,196.667 181.833,195.333 180.5,194C 183.167,193.333 183.167,192.667 180.5,192C 182.513,191.125 182.513,189.791 180.5,188C 181.833,186.667 181.833,185.333 180.5,184C 183.167,183.333 183.167,182.667 180.5,182C 182.513,181.125 182.513,179.791 180.5,178C 181.833,176.667 181.833,175.333 180.5,174C 183.167,173.333 183.167,172.667 180.5,172C 182.513,171.125 182.513,169.791 180.5,168C 181.833,166.667 181.833,165.333 180.5,164C 183.167,163.333 183.167,162.667 180.5,162C 182.513,161.125 182.513,159.791 180.5,158C 181.543,155.46 182.209,153.126 182.5,151C 181.906,150.536 181.239,150.369 180.5,150.5C 180.953,149.542 181.619,148.708 182.5,148C 185.095,147.774 187.595,147.274 190,146.5C 191.343,147.214 192.676,146.88 194,145.5C 195.829,145.565 197.662,145.898 199.5,146.5 Z"/></g>
<g><path style="opacity:1" fill="#fdd50e" d="M 199.5,147.5 C 203.274,148.108 205.608,150.274 206.5,154C 206.167,171.667 205.833,189.333 205.5,207C 206.044,207.717 206.711,208.217 207.5,208.5C 202.601,213.247 199.101,218.914 197,225.5C 196.333,240.5 196.333,255.5 197,270.5C 197.667,272.5 198.333,274.5 199,276.5C 203.968,285.631 211.468,291.631 221.5,294.5C 211.347,295.494 201.014,295.828 190.5,295.5C 191.609,294.71 192.942,294.21 194.5,294C 193.172,269.715 192.505,245.215 192.5,220.5C 192.667,196.167 192.833,171.833 193,147.5C 194.956,147.784 197.123,147.784 199.5,147.5 Z"/></g>
<g><path style="opacity:0.031" fill="#3d2827" d="M 420.5,149.5 C 420.369,148.761 420.536,148.094 421,147.5C 421.692,148.437 421.525,149.103 420.5,149.5 Z"/></g>
<g><path style="opacity:0.031" fill="#3d2827" d="M 420.5,149.5 C 420.737,150.791 420.404,151.791 419.5,152.5C 419.263,151.209 419.596,150.209 420.5,149.5 Z"/></g>
<g><path style="opacity:1" fill="#ffc70a" d="M 180.5,150.5 C 181.239,150.369 181.906,150.536 182.5,151C 182.209,153.126 181.543,155.46 180.5,158C 182.513,159.791 182.513,161.125 180.5,162C 183.167,162.667 183.167,163.333 180.5,164C 181.833,165.333 181.833,166.667 180.5,168C 182.513,169.791 182.513,171.125 180.5,172C 183.167,172.667 183.167,173.333 180.5,174C 181.833,175.333 181.833,176.667 180.5,178C 182.513,179.791 182.513,181.125 180.5,182C 183.167,182.667 183.167,183.333 180.5,184C 181.833,185.333 181.833,186.667 180.5,188C 182.513,189.791 182.513,191.125 180.5,192C 183.167,192.667 183.167,193.333 180.5,194C 181.833,195.333 181.833,196.667 180.5,198C 182.513,199.791 182.513,201.125 180.5,202C 183.167,202.667 183.167,203.333 180.5,204C 181.833,205.333 181.833,206.667 180.5,208C 182.513,209.791 182.513,211.125 180.5,212C 183.167,212.667 183.167,213.333 180.5,214C 181.833,215.333 181.833,216.667 180.5,218C 182.513,219.791 182.513,221.125 180.5,222C 183.167,222.667 183.167,223.333 180.5,224C 181.833,225.333 181.833,226.667 180.5,228C 182.513,229.791 182.513,231.125 180.5,232C 183.167,232.667 183.167,233.333 180.5,234C 181.833,235.333 181.833,236.667 180.5,238C 182.513,239.791 182.513,241.125 180.5,242C 183.167,242.667 183.167,243.333 180.5,244C 181.833,245.333 181.833,246.667 180.5,248C 182.513,249.791 182.513,251.125 180.5,252C 183.167,252.667 183.167,253.333 180.5,254C 181.833,255.333 181.833,256.667 180.5,258C 182.513,259.791 182.513,261.125 180.5,262C 183.167,262.667 183.167,263.333 180.5,264C 181.833,265.333 181.833,266.667 180.5,268C 182.513,269.791 182.513,271.125 180.5,272C 183.167,272.667 183.167,273.333 180.5,274C 181.833,275.333 181.833,276.667 180.5,278C 180.689,280.295 182.023,282.295 184.5,284C 183.167,284.667 181.833,285.333 180.5,286C 180.689,288.295 182.023,290.295 184.5,292C 183.167,292.667 181.833,293.333 180.5,294C 181.737,294.232 182.737,294.732 183.5,295.5C 181.167,295.5 178.833,295.5 176.5,295.5C 170.47,292.33 168.97,287.664 172,281.5C 174.77,279.399 176.77,276.732 178,273.5C 178.5,233.168 178.667,192.835 178.5,152.5C 179.167,151.833 179.833,151.167 180.5,150.5 Z"/></g>
<g><path style="opacity:1" fill="#d7d6e8" d="M 273.5,158.5 C 259.404,156.967 249.238,162.634 243,175.5C 242.501,179.821 242.334,184.154 242.5,188.5C 237.575,186.743 234.075,183.41 232,178.5C 230.711,173.802 230.211,169.468 230.5,165.5C 232.23,163.207 233.563,160.707 234.5,158C 233.756,156.961 232.756,156.461 231.5,156.5C 238.112,150.595 245.945,147.595 255,147.5C 260.227,148.615 265.061,150.615 269.5,153.5C 270.857,155.186 272.19,156.852 273.5,158.5 Z"/></g>
<g><path style="opacity:1" fill="#edecf2" d="M 380.5,148.5 C 381.156,149.278 381.989,149.944 383,150.5C 386.293,149.894 389.627,149.561 393,149.5C 397.133,149.286 400.966,149.952 404.5,151.5C 403.761,151.369 403.094,151.536 402.5,152C 414.023,156.879 418.189,165.379 415,177.5C 412.402,178.68 410.736,180.68 410,183.5C 405.025,188.151 399.192,190.985 392.5,192C 391.833,193.667 391.167,195.333 390.5,197C 390.833,197.333 391.167,197.667 391.5,198C 390.833,200.667 390.167,203.333 389.5,206C 390.662,239.762 390.829,273.595 390,307.5C 389.315,313.869 385.982,316.869 380,316.5C 379.632,317.91 378.799,318.91 377.5,319.5C 374.05,319.108 370.884,319.108 368,319.5C 367.311,318.643 366.478,317.977 365.5,317.5C 343.438,317.613 320.938,317.613 298,317.5C 297.333,318.167 296.667,318.833 296,319.5C 295.333,318.167 294.667,318.167 294,319.5C 293.333,316.833 292.667,316.833 292,319.5C 291.333,316.833 290.667,316.833 290,319.5C 287.333,319.5 284.667,319.5 282,319.5C 281,318.833 280,318.167 279,317.5C 277.612,317.214 276.112,317.548 274.5,318.5C 273.292,319.234 271.959,319.567 270.5,319.5C 267.471,316.099 266.138,312.099 266.5,307.5C 267.922,308.925 269.589,309.925 271.5,310.5C 272.919,311.451 274.585,311.784 276.5,311.5C 303.662,312.498 330.995,312.831 358.5,312.5C 359.598,313.397 359.598,314.23 358.5,315C 361.758,315.212 364.924,315.712 368,316.5C 370.333,316.167 372.667,315.833 375,315.5C 375.667,316.167 376.333,316.833 377,317.5C 380.108,315.927 383.274,314.427 386.5,313C 385.366,311.984 385.699,311.317 387.5,311C 387.167,310.667 386.833,310.333 386.5,310C 387.43,308.806 388.097,307.473 388.5,306C 387.623,273.772 387.623,241.438 388.5,209C 388.167,208.167 387.833,207.333 387.5,206.5C 385.47,205.828 383.47,205.162 381.5,204.5C 381.5,201.5 381.5,198.5 381.5,195.5C 384.127,196.092 386.794,196.425 389.5,196.5C 389.755,193.984 390.589,191.65 392,189.5C 393.016,190.634 393.683,190.301 394,188.5C 395.333,188.5 396.667,188.5 398,188.5C 405.199,186.368 410.033,181.868 412.5,175C 412.5,173 412.5,171 412.5,169C 411.12,167.676 410.786,166.343 411.5,165C 407.199,160.463 402.366,156.629 397,153.5C 396.692,154.308 396.192,154.975 395.5,155.5C 393.724,155.282 391.891,155.282 390,155.5C 389.055,155.095 388.388,154.428 388,153.5C 387.311,154.357 386.478,155.023 385.5,155.5C 383.758,153.027 381.925,153.027 380,155.5C 378.622,153.787 376.955,152.453 375,151.5C 371.958,146.968 367.791,142.968 362.5,139.5C 363.552,139.649 364.552,139.483 365.5,139C 364.371,136.832 362.871,136.332 361,137.5C 359.087,134.592 356.754,133.926 354,135.5C 353.311,134.643 352.478,133.977 351.5,133.5C 348.665,136.182 347.498,135.516 348,131.5C 360.971,132.342 371.637,138.342 380,149.5C 380.399,149.272 380.565,148.938 380.5,148.5 Z"/></g>
<g><path style="opacity:0.031" fill="#3d2827" d="M 419.5,152.5 C 419.672,153.492 419.338,154.158 418.5,154.5C 418.328,153.508 418.662,152.842 419.5,152.5 Z"/></g>
<g><path style="opacity:1" fill="#b7b5ca" d="M 59.5,124.5 C 54.73,128.073 50.0634,131.906 45.5,136C 43.7699,138.933 41.9365,141.766 40,144.5C 39.3292,145.252 38.4959,145.586 37.5,145.5C 34.9354,147.618 33.1021,150.285 32,153.5C 31.3562,157.221 30.5228,160.887 29.5,164.5C 30.3202,182.456 30.8202,200.456 31,218.5C 31.9486,225.879 34.4486,232.546 38.5,238.5C 36.8073,237.525 35.3073,236.192 34,234.5C 31.9564,229.066 30.2898,223.399 29,217.5C 28.8316,199.662 28.3316,181.995 27.5,164.5C 30.5412,145.093 41.2079,131.759 59.5,124.5 Z"/></g>
<g><path style="opacity:1" fill="#f0eef2" d="M 358.5,139.5 C 356.485,140.924 354.152,141.59 351.5,141.5C 351.649,142.552 351.483,143.552 351,144.5C 350.147,146.125 349.147,146.458 348,145.5C 347.535,146.931 346.701,148.097 345.5,149C 345.833,150 346.167,151 346.5,152C 345.251,153.824 344.085,153.657 343,151.5C 340.887,153.271 341.053,154.771 343.5,156C 343.5,158 343.5,160 343.5,162C 342.196,162.804 341.529,163.971 341.5,165.5C 343.256,168.282 343.923,171.116 343.5,174C 340.833,175.667 340.833,177.333 343.5,179C 340.833,181 340.833,183 343.5,185C 343.063,187.449 343.063,189.783 343.5,192C 342.833,192.667 342.167,193.333 341.5,194C 342.883,195.461 342.549,196.294 340.5,196.5C 337.624,196.073 334.791,195.406 332,194.5C 328.985,197.348 326.151,200.348 323.5,203.5C 315.03,208.865 305.697,211.199 295.5,210.5C 291.777,209.59 288.111,208.257 284.5,206.5C 279.934,204.269 275.934,201.269 272.5,197.5C 271.204,192.512 268.537,191.512 264.5,194.5C 263.5,229.827 263.167,265.16 263.5,300.5C 262.833,265.664 262.167,230.664 261.5,195.5C 256.737,198.891 253.07,198.058 250.5,193C 248.323,191.798 245.989,191.298 243.5,191.5C 242.89,190.609 242.557,189.609 242.5,188.5C 242.334,184.154 242.501,179.821 243,175.5C 249.238,162.634 259.404,156.967 273.5,158.5C 274.5,158.5 275.5,158.5 276.5,158.5C 281.159,160.344 285.659,162.678 290,165.5C 291.789,165.377 293.622,165.377 295.5,165.5C 301.022,162.346 307.188,159.68 314,157.5C 319.68,159.124 325.18,158.624 330.5,156C 334.264,151.302 338.597,147.302 343.5,144C 342.167,143 340.833,142 339.5,141C 342.049,141.926 344.549,142.426 347,142.5C 347.324,140.431 348.158,140.098 349.5,141.5C 352.399,140.358 355.399,139.692 358.5,139.5 Z"/></g>
<g><path style="opacity:1" fill="#bab8cd" d="M 231.5,156.5 C 232.756,156.461 233.756,156.961 234.5,158C 233.563,160.707 232.23,163.207 230.5,165.5C 230.211,169.468 230.711,173.802 232,178.5C 234.075,183.41 237.575,186.743 242.5,188.5C 242.557,189.609 242.89,190.609 243.5,191.5C 244.925,192.922 245.925,194.589 246.5,196.5C 242.699,195.799 239.032,194.632 235.5,193C 222.444,182.091 221.11,169.925 231.5,156.5 Z"/></g>
<g><path style="opacity:1" fill="#bebdc4" d="M 107.5,135.5 C 107.5,136.167 107.5,136.833 107.5,137.5C 106.89,138.391 106.557,139.391 106.5,140.5C 97.399,141.12 88.5657,140.454 80,138.5C 74.3058,140.921 68.4725,143.255 62.5,145.5C 60.6558,147.843 58.6558,150.01 56.5,152C 57.056,152.383 57.3893,152.883 57.5,153.5C 57.6399,155.124 56.9733,156.29 55.5,157C 55.8333,157.333 56.1667,157.667 56.5,158C 55.5262,160.287 54.1929,162.287 52.5,164C 52.5,183 52.5,202 52.5,221C 54.8991,225.25 57.5658,229.75 60.5,234.5C 58.0676,233.25 55.7343,231.75 53.5,230C 53.8333,229.667 54.1667,229.333 54.5,229C 53.3147,227.647 51.9814,226.48 50.5,225.5C 52.0224,223.844 51.689,222.677 49.5,222C 49.8333,221.667 50.1667,221.333 50.5,221C 49.8206,203.042 49.1539,185.042 48.5,167C 48.9054,166.055 49.572,165.388 50.5,165C 49.1667,164 49.1667,163 50.5,162C 49.8333,161.333 49.1667,160.667 48.5,160C 48.8024,158.345 50.1358,157.012 52.5,156C 52.1667,155.667 51.8333,155.333 51.5,155C 53.2847,152.656 54.618,150.156 55.5,147.5C 56.552,147.649 57.552,147.483 58.5,147C 60.54,144.664 62.8733,142.831 65.5,141.5C 70.4902,138.894 75.8235,137.394 81.5,137C 90.2443,136.805 98.911,136.305 107.5,135.5 Z"/></g>
<g><path style="opacity:1" fill="#c4c3c9" d="M 419.5,169.5 C 419.327,185.345 411.327,194.345 395.5,196.5C 394.209,195.458 394.209,194.292 395.5,193C 409.363,190.969 417.363,183.135 419.5,169.5 Z"/></g>
<g><path style="opacity:1" fill="#ec893b" d="M 272.5,197.5 C 272.095,235.044 271.762,272.711 271.5,310.5C 269.589,309.925 267.922,308.925 266.5,307.5C 264.688,305.539 263.688,303.206 263.5,300.5C 263.167,265.16 263.5,229.827 264.5,194.5C 268.537,191.512 271.204,192.512 272.5,197.5 Z"/></g>
<g><path style="opacity:1" fill="#e4aa21" d="M 340.5,196.5 C 344.634,197.485 348.968,197.818 353.5,197.5C 354.239,197.369 354.906,197.536 355.5,198C 354.167,198.333 352.833,198.667 351.5,199C 352.672,199.419 353.672,200.085 354.5,201C 353.359,202.617 352.526,204.45 352,206.5C 351.374,204.009 350.541,204.009 349.5,206.5C 346.634,206.446 343.801,206.446 341,206.5C 338.583,205.648 336.083,204.981 333.5,204.5C 330.221,206.442 327.221,208.776 324.5,211.5C 322.419,209.578 322.419,207.411 324.5,205C 323.944,204.617 323.611,204.117 323.5,203.5C 326.151,200.348 328.985,197.348 332,194.5C 334.791,195.406 337.624,196.073 340.5,196.5 Z"/></g>
<g><path style="opacity:1" fill="#cccbe3" d="M 243.5,191.5 C 245.989,191.298 248.323,191.798 250.5,193C 253.07,198.058 256.737,198.891 261.5,195.5C 262.167,230.664 262.833,265.664 263.5,300.5C 263.688,303.206 264.688,305.539 266.5,307.5C 266.138,312.099 267.471,316.099 270.5,319.5C 270.5,319.833 270.5,320.167 270.5,320.5C 260.732,321.704 254.232,317.704 251,308.5C 250.824,304.312 250.324,300.312 249.5,296.5C 249.5,295.833 249.5,295.167 249.5,294.5C 249.5,294.167 249.5,293.833 249.5,293.5C 249.5,291.833 249.5,290.167 249.5,288.5C 249.5,285.5 249.5,282.5 249.5,279.5C 249.5,279.167 249.5,278.833 249.5,278.5C 249.5,255.833 249.5,233.167 249.5,210.5C 249.5,207.833 249.5,205.167 249.5,202.5C 249.913,199.68 248.913,197.68 246.5,196.5C 245.925,194.589 244.925,192.922 243.5,191.5 Z"/></g>
<g><path style="opacity:1" fill="#eb8d36" d="M 272.5,197.5 C 275.934,201.269 279.934,204.269 284.5,206.5C 281.412,208.365 281.079,210.531 283.5,213C 283.777,245.697 283.444,278.531 282.5,311.5C 280.5,311.5 278.5,311.5 276.5,311.5C 274.585,311.784 272.919,311.451 271.5,310.5C 271.762,272.711 272.095,235.044 272.5,197.5 Z"/></g>
<g><path style="opacity:1" fill="#eec956" d="M 381.5,204.5 C 381.667,237.168 381.5,269.835 381,302.5C 379.065,307.437 375.565,310.603 370.5,312C 366.514,312.499 362.514,312.666 358.5,312.5C 330.995,312.831 303.662,312.498 276.5,311.5C 278.5,311.5 280.5,311.5 282.5,311.5C 285.167,311.5 287.833,311.5 290.5,311.5C 293.833,311.5 297.167,311.5 300.5,311.5C 309.5,311.5 318.5,311.5 327.5,311.5C 340.171,311.667 352.838,311.5 365.5,311C 362.23,309.874 359.397,309.707 357,310.5C 356.5,310 356,309.5 355.5,309C 356.618,307.926 357.618,306.76 358.5,305.5C 359.726,306.363 361.06,306.363 362.5,305.5C 367.113,305.376 370.613,303.376 373,299.5C 374.13,286.053 374.63,272.553 374.5,259C 374.333,246.833 374.167,234.667 374,222.5C 372.271,216.211 368.105,213.211 361.5,213.5C 361.19,212.262 360.69,212.262 360,213.5C 358.276,211.103 358.276,208.769 360,206.5C 364,203.833 368,201.167 372,198.5C 374.83,201.188 377.996,203.188 381.5,204.5 Z"/></g>
<g><path style="opacity:1" fill="#e5a022" d="M 323.5,203.5 C 323.611,204.117 323.944,204.617 324.5,205C 322.419,207.411 322.419,209.578 324.5,211.5C 324.5,212.167 324.167,212.5 323.5,212.5C 322.711,212.783 322.044,213.283 321.5,214C 322.833,214.333 324.167,214.667 325.5,215C 324.328,215.419 323.328,216.085 322.5,217C 323.711,218.113 323.711,219.28 322.5,220.5C 322.977,221.478 323.643,222.311 324.5,223C 322.688,226.209 322.688,229.209 324.5,232C 323.707,233.085 323.04,234.252 322.5,235.5C 323.833,237.167 323.833,238.833 322.5,240.5C 324.539,242.448 324.539,244.615 322.5,247C 323.458,248.147 323.125,249.147 321.5,250C 324.167,251.333 324.167,252.667 321.5,254C 322.357,254.689 323.023,255.522 323.5,256.5C 322.675,260.576 322.675,264.91 323.5,269.5C 323.023,270.478 322.357,271.311 321.5,272C 322.357,272.689 323.023,273.522 323.5,274.5C 323.377,276.378 323.377,278.211 323.5,280C 320.833,281.333 320.833,282.667 323.5,284C 320.833,285.333 320.833,286.667 323.5,288C 321.027,289.402 321.027,290.902 323.5,292.5C 323.257,296.288 323.257,300.121 323.5,304C 316.46,304.965 312.126,301.965 310.5,295C 310.858,292.752 311.525,290.252 312.5,287.5C 310.425,279.451 310.425,272.118 312.5,265.5C 310.425,257.451 310.425,250.118 312.5,243.5C 311.863,239.3 311.196,235.134 310.5,231C 310.833,228.667 311.167,226.333 311.5,224C 311,220.833 309.167,219 306,218.5C 303.899,219.924 301.733,221.258 299.5,222.5C 300.167,223.833 300.833,225.167 301.5,226.5C 300.998,227.716 300.665,228.883 300.5,230C 302.815,232.476 302.482,234.809 299.5,237C 301.521,239.043 301.854,241.043 300.5,243C 303.167,244.333 303.167,245.667 300.5,247C 300.833,251.333 301.167,255.667 301.5,260C 299.078,261.888 299.078,263.888 301.5,266C 300.167,270.667 300.167,275.333 301.5,280C 299.078,281.888 299.078,283.888 301.5,286C 301.5,287.333 301.5,288.667 301.5,290C 299.078,291.888 299.078,293.888 301.5,296C 301.35,298.442 301.016,300.942 300.5,303.5C 302.263,306.036 302.263,308.703 300.5,311.5C 297.167,311.5 293.833,311.5 290.5,311.5C 289.569,309.967 288.902,308.3 288.5,306.5C 289.727,303.269 291.394,300.269 293.5,297.5C 293.254,272.963 292.92,248.463 292.5,224C 294.774,221.656 295.941,218.822 296,215.5C 296.333,216.833 296.667,218.167 297,219.5C 297.163,217.324 297.996,215.491 299.5,214C 298.531,212.242 297.364,211.742 296,212.5C 294.62,211.744 294.453,211.078 295.5,210.5C 305.697,211.199 315.03,208.865 323.5,203.5 Z"/></g>
<g><path style="opacity:1" fill="#f7f4f4" d="M 381.5,204.5 C 383.47,205.162 385.47,205.828 387.5,206.5C 387.833,207.333 388.167,208.167 388.5,209C 387.623,241.438 387.623,273.772 388.5,306C 388.097,307.473 387.43,308.806 386.5,310C 386.833,310.333 387.167,310.667 387.5,311C 385.699,311.317 385.366,311.984 386.5,313C 383.274,314.427 380.108,315.927 377,317.5C 376.333,316.833 375.667,316.167 375,315.5C 372.667,315.833 370.333,316.167 368,316.5C 364.924,315.712 361.758,315.212 358.5,315C 359.598,314.23 359.598,313.397 358.5,312.5C 362.514,312.666 366.514,312.499 370.5,312C 375.565,310.603 379.065,307.437 381,302.5C 381.5,269.835 381.667,237.168 381.5,204.5 Z"/></g>
<g><path style="opacity:1" fill="#e7b92e" d="M 381.5,195.5 C 381.5,198.5 381.5,201.5 381.5,204.5C 377.996,203.188 374.83,201.188 372,198.5C 368,201.167 364,203.833 360,206.5C 358.276,208.769 358.276,211.103 360,213.5C 360.69,212.262 361.19,212.262 361.5,213.5C 356.197,214.255 352.697,217.255 351,222.5C 350.333,247.167 350.333,271.833 351,296.5C 352.952,301.957 356.786,304.957 362.5,305.5C 361.06,306.363 359.726,306.363 358.5,305.5C 357.618,306.76 356.618,307.926 355.5,309C 356,309.5 356.5,310 357,310.5C 359.397,309.707 362.23,309.874 365.5,311C 352.838,311.5 340.171,311.667 327.5,311.5C 325.708,310.691 323.708,310.191 321.5,310C 320.167,309.333 320.167,308.667 321.5,308C 320.672,307.085 319.672,306.419 318.5,306C 327.21,306.328 332.543,302.328 334.5,294C 333.167,270.667 333.167,247.333 334.5,224C 332.684,218.351 329.017,214.518 323.5,212.5C 324.167,212.5 324.5,212.167 324.5,211.5C 327.221,208.776 330.221,206.442 333.5,204.5C 336.083,204.981 338.583,205.648 341,206.5C 343.801,206.446 346.634,206.446 349.5,206.5C 350.541,204.009 351.374,204.009 352,206.5C 352.526,204.45 353.359,202.617 354.5,201C 353.672,200.085 352.672,199.419 351.5,199C 352.833,198.667 354.167,198.333 355.5,198C 354.906,197.536 354.239,197.369 353.5,197.5C 359.725,195.356 365.892,192.689 372,189.5C 374.826,192.156 377.993,194.156 381.5,195.5 Z"/></g>
<g><path style="opacity:1" fill="#e99331" d="M 284.5,206.5 C 288.111,208.257 291.777,209.59 295.5,210.5C 294.453,211.078 294.62,211.744 296,212.5C 297.364,211.742 298.531,212.242 299.5,214C 297.996,215.491 297.163,217.324 297,219.5C 296.667,218.167 296.333,216.833 296,215.5C 295.941,218.822 294.774,221.656 292.5,224C 292.92,248.463 293.254,272.963 293.5,297.5C 291.394,300.269 289.727,303.269 288.5,306.5C 288.902,308.3 289.569,309.967 290.5,311.5C 287.833,311.5 285.167,311.5 282.5,311.5C 283.444,278.531 283.777,245.697 283.5,213C 281.079,210.531 281.412,208.365 284.5,206.5 Z"/></g>
<g><path style="opacity:1" fill="#e1dfe7" d="M 249.5,202.5 C 249.5,205.167 249.5,207.833 249.5,210.5C 243.581,211.291 237.581,211.791 231.5,212C 224.35,213.357 218.684,216.857 214.5,222.5C 213.761,222.631 213.094,222.464 212.5,222C 214.679,221.558 215.345,220.558 214.5,219C 215.126,218.25 215.626,217.416 216,216.5C 218.333,214.545 220.5,212.378 222.5,210C 221.324,207.699 219.99,207.366 218.5,209C 220.901,209.805 220.734,210.638 218,211.5C 216.732,211.384 215.398,211.051 214,210.5C 212.667,211.833 211.333,213.167 210,214.5C 209.617,213.944 209.117,213.611 208.5,213.5C 209.968,212.194 211.301,210.694 212.5,209C 215.956,207.519 219.289,205.852 222.5,204C 232.147,202.977 241.147,202.477 249.5,202.5 Z"/></g>
<g><path style="opacity:1" fill="#cfcfe4" d="M 214.5,222.5 C 213.338,223.678 212.338,224.845 211.5,226C 212.634,227.016 212.301,227.683 210.5,228C 213.167,228.667 213.167,229.333 210.5,230C 213.167,230.667 213.167,231.333 210.5,232C 213.167,233.333 213.167,234.667 210.5,236C 213.167,236.667 213.167,237.333 210.5,238C 213.167,239.333 213.167,240.667 210.5,242C 211.167,242.333 211.833,242.667 212.5,243C 209.833,244.333 209.833,245.667 212.5,247C 211.833,247.333 211.167,247.667 210.5,248C 211.833,248.667 211.833,249.333 210.5,250C 213.167,250.667 213.167,251.333 210.5,252C 210.5,253.333 210.5,254.667 210.5,256C 213.167,256.667 213.167,257.333 210.5,258C 211.044,258.717 211.711,259.217 212.5,259.5C 212.047,260.458 211.381,261.292 210.5,262C 210.296,270.674 213.796,278.174 221,284.5C 221.333,284.167 221.667,283.833 222,283.5C 222.483,284.448 222.649,285.448 222.5,286.5C 219.277,285.286 216.277,283.619 213.5,281.5C 211.871,278.374 209.705,275.707 207,273.5C 205.821,269.302 204.654,265.135 203.5,261C 204.833,251 204.833,241 203.5,231C 204.655,227.249 205.155,223.415 205,219.5C 204.617,220.056 204.117,220.389 203.5,220.5C 204.786,217.883 206.453,215.55 208.5,213.5C 209.117,213.611 209.617,213.944 210,214.5C 211.333,213.167 212.667,211.833 214,210.5C 215.398,211.051 216.732,211.384 218,211.5C 220.734,210.638 220.901,209.805 218.5,209C 219.99,207.366 221.324,207.699 222.5,210C 220.5,212.378 218.333,214.545 216,216.5C 215.626,217.416 215.126,218.25 214.5,219C 215.345,220.558 214.679,221.558 212.5,222C 213.094,222.464 213.761,222.631 214.5,222.5 Z"/></g>
<g><path style="opacity:1" fill="#e5b322" d="M 361.5,213.5 C 368.105,213.211 372.271,216.211 374,222.5C 374.167,234.667 374.333,246.833 374.5,259C 374.63,272.553 374.13,286.053 373,299.5C 370.613,303.376 367.113,305.376 362.5,305.5C 356.786,304.957 352.952,301.957 351,296.5C 350.333,271.833 350.333,247.167 351,222.5C 352.697,217.255 356.197,214.255 361.5,213.5 Z"/></g>
<g><path style="opacity:1" fill="#fefbee" d="M 249.5,278.5 C 249.5,278.833 249.5,279.167 249.5,279.5C 248.883,279.611 248.383,279.944 248,280.5C 242.583,279.691 237.083,279.191 231.5,279C 222.771,277.936 217.604,273.103 216,264.5C 215.5,253.839 215.333,243.172 215.5,232.5C 216.701,224.792 221.034,219.625 228.5,217C 235.081,216.813 241.581,216.313 248,215.5C 248.168,236.671 248.668,257.671 249.5,278.5 Z"/></g>
<g><path style="opacity:1" fill="#feeb7f" d="M 243.5,219.5 C 245.487,238.137 246.154,257.137 245.5,276.5C 242.941,276.802 240.607,276.468 238.5,275.5C 240.5,275.5 242.5,275.5 244.5,275.5C 244.82,256.757 244.486,238.09 243.5,219.5 Z"/></g>
<g><path style="opacity:1" fill="#e4a71b" d="M 323.5,212.5 C 329.017,214.518 332.684,218.351 334.5,224C 333.167,247.333 333.167,270.667 334.5,294C 332.543,302.328 327.21,306.328 318.5,306C 319.672,306.419 320.672,307.085 321.5,308C 320.167,308.667 320.167,309.333 321.5,310C 323.708,310.191 325.708,310.691 327.5,311.5C 318.5,311.5 309.5,311.5 300.5,311.5C 302.263,308.703 302.263,306.036 300.5,303.5C 301.016,300.942 301.35,298.442 301.5,296C 299.078,293.888 299.078,291.888 301.5,290C 301.5,288.667 301.5,287.333 301.5,286C 299.078,283.888 299.078,281.888 301.5,280C 300.167,275.333 300.167,270.667 301.5,266C 299.078,263.888 299.078,261.888 301.5,260C 301.167,255.667 300.833,251.333 300.5,247C 303.167,245.667 303.167,244.333 300.5,243C 301.854,241.043 301.521,239.043 299.5,237C 302.482,234.809 302.815,232.476 300.5,230C 300.665,228.883 300.998,227.716 301.5,226.5C 300.833,225.167 300.167,223.833 299.5,222.5C 301.733,221.258 303.899,219.924 306,218.5C 309.167,219 311,220.833 311.5,224C 311.167,226.333 310.833,228.667 310.5,231C 311.196,235.134 311.863,239.3 312.5,243.5C 310.425,250.118 310.425,257.451 312.5,265.5C 310.425,272.118 310.425,279.451 312.5,287.5C 311.525,290.252 310.858,292.752 310.5,295C 312.126,301.965 316.46,304.965 323.5,304C 323.257,300.121 323.257,296.288 323.5,292.5C 321.027,290.902 321.027,289.402 323.5,288C 320.833,286.667 320.833,285.333 323.5,284C 320.833,282.667 320.833,281.333 323.5,280C 323.377,278.211 323.377,276.378 323.5,274.5C 323.023,273.522 322.357,272.689 321.5,272C 322.357,271.311 323.023,270.478 323.5,269.5C 322.675,264.91 322.675,260.576 323.5,256.5C 323.023,255.522 322.357,254.689 321.5,254C 324.167,252.667 324.167,251.333 321.5,250C 323.125,249.147 323.458,248.147 322.5,247C 324.539,244.615 324.539,242.448 322.5,240.5C 323.833,238.833 323.833,237.167 322.5,235.5C 323.04,234.252 323.707,233.085 324.5,232C 322.688,229.209 322.688,226.209 324.5,223C 323.643,222.311 322.977,221.478 322.5,220.5C 323.711,219.28 323.711,218.113 322.5,217C 323.328,216.085 324.328,215.419 325.5,215C 324.167,214.667 322.833,214.333 321.5,214C 322.044,213.283 322.711,212.783 323.5,212.5 Z"/></g>
<g><path style="opacity:1" fill="#fecf0e" d="M 242.5,219.5 C 240.052,220.473 237.385,220.806 234.5,220.5C 234.187,236.282 234.187,252.115 234.5,268C 234.769,271.318 233.436,273.485 230.5,274.5C 225.049,273.305 221.549,269.972 220,264.5C 219.333,253.5 219.333,242.5 220,231.5C 223.937,221.44 231.437,217.44 242.5,219.5 Z"/></g>
<g><path style="opacity:1" fill="#fdd602" d="M 242.5,219.5 C 242.833,219.5 243.167,219.5 243.5,219.5C 244.486,238.09 244.82,256.757 244.5,275.5C 242.5,275.5 240.5,275.5 238.5,275.5C 235.615,275.806 232.948,275.473 230.5,274.5C 233.436,273.485 234.769,271.318 234.5,268C 234.187,252.115 234.187,236.282 234.5,220.5C 237.385,220.806 240.052,220.473 242.5,219.5 Z"/></g>
<g><path style="opacity:1" fill="#cccbd2" d="M 249.5,210.5 C 249.5,233.167 249.5,255.833 249.5,278.5C 248.668,257.671 248.168,236.671 248,215.5C 241.581,216.313 235.081,216.813 228.5,217C 221.034,219.625 216.701,224.792 215.5,232.5C 214.67,242.659 214.17,252.992 214,263.5C 213.79,261.942 213.29,260.609 212.5,259.5C 211.711,259.217 211.044,258.717 210.5,258C 213.167,257.333 213.167,256.667 210.5,256C 210.5,254.667 210.5,253.333 210.5,252C 213.167,251.333 213.167,250.667 210.5,250C 211.833,249.333 211.833,248.667 210.5,248C 211.167,247.667 211.833,247.333 212.5,247C 209.833,245.667 209.833,244.333 212.5,243C 211.833,242.667 211.167,242.333 210.5,242C 213.167,240.667 213.167,239.333 210.5,238C 213.167,237.333 213.167,236.667 210.5,236C 213.167,234.667 213.167,233.333 210.5,232C 213.167,231.333 213.167,230.667 210.5,230C 213.167,229.333 213.167,228.667 210.5,228C 212.301,227.683 212.634,227.016 211.5,226C 212.338,224.845 213.338,223.678 214.5,222.5C 218.684,216.857 224.35,213.357 231.5,212C 237.581,211.791 243.581,211.291 249.5,210.5 Z"/></g>
<g><path style="opacity:1" fill="#eae9f1" d="M 106.5,244.5 C 107.488,249.64 107.821,254.974 107.5,260.5C 97.5804,261.017 87.5804,261.017 77.5,260.5C 76.209,260.737 75.209,260.404 74.5,259.5C 61.5806,253.531 52.2473,243.198 46.5,228.5C 46.3505,227.448 46.5172,226.448 47,225.5C 48.3811,227.635 49.3811,229.968 50,232.5C 50.3333,232.167 50.6667,231.833 51,231.5C 52.5862,233.67 53.9196,236.004 55,238.5C 56.0884,235.007 57.255,234.841 58.5,238C 64.4861,239.998 70.1528,242.498 75.5,245.5C 80.1618,246.626 84.4951,246.459 88.5,245C 94.4908,244.501 100.491,244.334 106.5,244.5 Z"/></g>
<g><path style="opacity:1" fill="#a7a5b5" d="M 27.5,164.5 C 28.3316,181.995 28.8316,199.662 29,217.5C 30.2898,223.399 31.9564,229.066 34,234.5C 35.3073,236.192 36.8073,237.525 38.5,238.5C 39.577,241.378 41.2436,243.878 43.5,246C 50.8053,251.28 58.6386,255.78 67,259.5C 69.411,258.873 71.911,258.873 74.5,259.5C 75.209,260.404 76.209,260.737 77.5,260.5C 78.0076,262.233 78.841,262.566 80,261.5C 84.0553,264.126 88.5553,265.126 93.5,264.5C 87.013,265.654 80.3464,265.821 73.5,265C 52.3645,260.874 37.5312,249.04 29,229.5C 27.6076,207.863 27.1076,186.196 27.5,164.5 Z"/></g>
<g><path style="opacity:1" fill="#b7b6c7" d="M 77.5,260.5 C 87.5804,261.017 97.5804,261.017 107.5,260.5C 109.533,262.675 109.867,264.841 108.5,267C 109.317,275.088 109.817,283.255 110,291.5C 111.408,295.974 113.075,300.307 115,304.5C 118.268,305.608 120.768,307.608 122.5,310.5C 120.266,309.296 117.933,308.13 115.5,307C 113.617,303.954 111.284,301.454 108.5,299.5C 107.71,298.391 107.21,297.058 107,295.5C 106.5,285.172 106.334,274.839 106.5,264.5C 102.167,264.5 97.8333,264.5 93.5,264.5C 88.5553,265.126 84.0553,264.126 80,261.5C 78.841,262.566 78.0076,262.233 77.5,260.5 Z"/></g>
<g><path style="opacity:1" fill="#e2e1e8" d="M 215.5,232.5 C 215.333,243.172 215.5,253.839 216,264.5C 217.604,273.103 222.771,277.936 231.5,279C 237.083,279.191 242.583,279.691 248,280.5C 248.383,279.944 248.883,279.611 249.5,279.5C 249.5,282.5 249.5,285.5 249.5,288.5C 240.79,288.441 232.29,288.441 224,288.5C 223.722,287.584 223.222,286.918 222.5,286.5C 222.649,285.448 222.483,284.448 222,283.5C 221.667,283.833 221.333,284.167 221,284.5C 213.796,278.174 210.296,270.674 210.5,262C 211.381,261.292 212.047,260.458 212.5,259.5C 213.29,260.609 213.79,261.942 214,263.5C 214.17,252.992 214.67,242.659 215.5,232.5 Z"/></g>
<g><path style="opacity:1" fill="#b6b4c4" d="M 222.5,286.5 C 223.222,286.918 223.722,287.584 224,288.5C 232.29,288.441 240.79,288.441 249.5,288.5C 249.5,290.167 249.5,291.833 249.5,293.5C 240.883,293.937 232.216,293.437 223.5,292C 210.952,287.439 203.119,278.606 200,265.5C 199.333,253.5 199.333,241.5 200,229.5C 200.661,226.198 201.828,223.198 203.5,220.5C 204.117,220.389 204.617,220.056 205,219.5C 205.155,223.415 204.655,227.249 203.5,231C 204.833,241 204.833,251 203.5,261C 204.654,265.135 205.821,269.302 207,273.5C 209.705,275.707 211.871,278.374 213.5,281.5C 216.277,283.619 219.277,285.286 222.5,286.5 Z"/></g>
<g><path style="opacity:1" fill="#f7e09c" d="M 221.5,294.5 C 222.5,294.833 223.167,295.5 223.5,296.5C 198.328,296.831 173.328,296.498 148.5,295.5C 152.167,295.5 155.833,295.5 159.5,295.5C 165.167,295.5 170.833,295.5 176.5,295.5C 178.833,295.5 181.167,295.5 183.5,295.5C 185.833,295.5 188.167,295.5 190.5,295.5C 201.014,295.828 211.347,295.494 221.5,294.5 Z"/></g>
<g><path style="opacity:1" fill="#ebeaf2" d="M 133.5,287.5 C 135.974,290.31 138.974,292.31 142.5,293.5C 144.142,295.081 146.142,295.747 148.5,295.5C 173.328,296.498 198.328,296.831 223.5,296.5C 230.833,296.5 238.167,296.5 245.5,296.5C 245.5,301.5 245.5,306.5 245.5,311.5C 217.088,311.46 188.921,311.794 161,312.5C 155.789,310.62 150.622,309.954 145.5,310.5C 144.761,310.631 144.094,310.464 143.5,310C 136.989,303.984 133.655,296.484 133.5,287.5 Z"/></g>
<g><path style="opacity:1" fill="#c0bfc5" d="M 145.5,310.5 C 150.622,309.954 155.789,310.62 161,312.5C 188.921,311.794 217.088,311.46 245.5,311.5C 245.328,312.492 245.662,313.158 246.5,313.5C 246.5,313.833 246.5,314.167 246.5,314.5C 229.092,313.685 212.926,313.685 198,314.5C 197.333,311.833 196.667,311.833 196,314.5C 194.667,314.5 193.333,314.5 192,314.5C 191.667,313.833 191.333,313.167 191,312.5C 190.047,314.592 188.714,314.925 187,313.5C 185.667,314.167 184.333,314.833 183,315.5C 182.667,314.833 182.333,314.167 182,313.5C 181,314.833 180,314.833 179,313.5C 178.333,314.167 177.667,314.833 177,315.5C 175.434,316.061 174.101,315.394 173,313.5C 172.309,315.891 171.309,315.891 170,313.5C 164.364,313.91 158.364,314.243 152,314.5C 151.667,313.833 151.333,313.167 151,312.5C 149.382,312.598 147.882,312.598 146.5,312.5C 146.167,311.833 145.833,311.167 145.5,310.5 Z"/></g>
<g><path style="opacity:1" fill="#a6a5b6" d="M 108.5,299.5 C 111.284,301.454 113.617,303.954 115.5,307C 117.933,308.13 120.266,309.296 122.5,310.5C 124.827,310.665 126.993,311.331 129,312.5C 134.416,311.338 140.249,311.338 146.5,312.5C 147.882,312.598 149.382,312.598 151,312.5C 151.333,313.167 151.667,313.833 152,314.5C 158.364,314.243 164.364,313.91 170,313.5C 171.309,315.891 172.309,315.891 173,313.5C 174.101,315.394 175.434,316.061 177,315.5C 177.667,314.833 178.333,314.167 179,313.5C 180,314.833 181,314.833 182,313.5C 182.333,314.167 182.667,314.833 183,315.5C 184.333,314.833 185.667,314.167 187,313.5C 188.714,314.925 190.047,314.592 191,312.5C 191.333,313.167 191.667,313.833 192,314.5C 193.333,314.5 194.667,314.5 196,314.5C 196.667,311.833 197.333,311.833 198,314.5C 212.926,313.685 229.092,313.685 246.5,314.5C 246.5,314.833 246.5,315.167 246.5,315.5C 205.555,315.82 164.722,316.153 124,316.5C 120.217,313.268 116.217,310.268 112,307.5C 110.546,304.929 109.38,302.262 108.5,299.5 Z"/></g>
<g><path style="opacity:1" fill="#a8a7b8" d="M 249.5,296.5 C 250.324,300.312 250.824,304.312 251,308.5C 254.232,317.704 260.732,321.704 270.5,320.5C 273.612,321.689 276.778,322.689 280,323.5C 285.156,323.68 290.489,323.346 296,322.5C 296.717,323.044 297.217,323.711 297.5,324.5C 284.106,324.925 270.773,324.425 257.5,323C 254.781,321.403 252.614,319.237 251,316.5C 249.726,309.897 249.226,303.23 249.5,296.5 Z"/></g>
<g><path style="opacity:1" fill="#dedde2" d="M 404.5,151.5 C 412.8,154.776 417.8,160.776 419.5,169.5C 417.363,183.135 409.363,190.969 395.5,193C 394.209,194.292 394.209,195.458 395.5,196.5C 395.667,234.168 395.5,271.835 395,309.5C 394.802,311.382 394.302,313.048 393.5,314.5C 393.565,314.062 393.399,313.728 393,313.5C 389.736,317.382 385.57,319.549 380.5,320C 347.331,320.153 316.498,320.32 288,320.5C 284.5,320.333 281,320.167 277.5,320C 276.263,319.768 275.263,319.268 274.5,318.5C 276.112,317.548 277.612,317.214 279,317.5C 280,318.167 281,318.833 282,319.5C 284.667,319.5 287.333,319.5 290,319.5C 290.667,316.833 291.333,316.833 292,319.5C 292.667,316.833 293.333,316.833 294,319.5C 294.667,318.167 295.333,318.167 296,319.5C 296.667,318.833 297.333,318.167 298,317.5C 320.938,317.613 343.438,317.613 365.5,317.5C 366.478,317.977 367.311,318.643 368,319.5C 370.884,319.108 374.05,319.108 377.5,319.5C 378.799,318.91 379.632,317.91 380,316.5C 385.982,316.869 389.315,313.869 390,307.5C 390.829,273.595 390.662,239.762 389.5,206C 390.167,203.333 390.833,200.667 391.5,198C 391.167,197.667 390.833,197.333 390.5,197C 391.167,195.333 391.833,193.667 392.5,192C 399.192,190.985 405.025,188.151 410,183.5C 410.736,180.68 412.402,178.68 415,177.5C 418.189,165.379 414.023,156.879 402.5,152C 403.094,151.536 403.761,151.369 404.5,151.5 Z"/></g>
<g><path style="opacity:1" fill="#bdbcc1" d="M 393.5,314.5 C 393.291,315.922 392.791,317.255 392,318.5C 389.172,321.672 385.672,323.505 381.5,324C 353.502,324.5 325.502,324.667 297.5,324.5C 297.217,323.711 296.717,323.044 296,322.5C 290.489,323.346 285.156,323.68 280,323.5C 276.778,322.689 273.612,321.689 270.5,320.5C 270.5,320.167 270.5,319.833 270.5,319.5C 271.959,319.567 273.292,319.234 274.5,318.5C 275.263,319.268 276.263,319.768 277.5,320C 281,320.167 284.5,320.333 288,320.5C 316.498,320.32 347.331,320.153 380.5,320C 385.57,319.549 389.736,317.382 393,313.5C 393.399,313.728 393.565,314.062 393.5,314.5 Z"/></g>
<g><path style="opacity:1" fill="#474747" d="M 29.5,328.5 C 21.8333,328.5 14.1667,328.5 6.5,328.5C 6.5,326.833 6.5,325.167 6.5,323.5C 14.1667,323.5 21.8333,323.5 29.5,323.5C 29.5,325.167 29.5,326.833 29.5,328.5 Z"/></g>
</svg>
