<?xml version="1.0" encoding="UTF-8"?>
<!DOCTYPE svg PUBLIC "-//W3C//DTD SVG 1.1//EN" "http://www.w3.org/Graphics/SVG/1.1/DTD/svg11.dtd">
<svg xmlns="http://www.w3.org/2000/svg" version="1.1" width="462px" height="328px" style="shape-rendering:geometricPrecision; text-rendering:geometricPrecision; image-rendering:optimizeQuality; fill-rule:evenodd; clip-rule:evenodd" xmlns:xlink="http://www.w3.org/1999/xlink">
<g><path style="opacity:0.251" fill="#565d66" d="M 182.5,-0.5 C 192.167,-0.5 201.833,-0.5 211.5,-0.5C 207.214,0.743193 202.881,1.74319 198.5,2.5C 196.343,3.40666 194.01,4.07332 191.5,4.5C 190.054,3.38705 188.387,3.22039 186.5,4C 178.389,5.9261 171.055,8.09276 164.5,10.5C 161.199,12.5845 157.532,13.9178 153.5,14.5C 130.978,21.6743 111.811,34.0076 96,51.5C 91.273,57.8971 86.9396,64.5637 83,71.5C 80.3189,78.5855 78.8189,85.9189 78.5,93.5C 78.3334,120.502 78.5,147.502 79,174.5C 80.551,182.693 83.7177,190.026 88.5,196.5C 91.0667,202.993 95.0667,208.326 100.5,212.5C 102.884,215.391 105.551,218.224 108.5,221C 112.734,224.082 117.067,226.916 121.5,229.5C 132.373,237.603 144.373,243.603 157.5,247.5C 157.167,248.167 156.833,248.833 156.5,249.5C 145.284,251.948 134.95,256.281 125.5,262.5C 111.774,268.893 101.774,278.893 95.5,292.5C 92.6426,295.52 90.8092,299.187 90,303.5C 89.5003,311.493 89.3336,319.493 89.5,327.5C 87.8333,327.5 86.1667,327.5 84.5,327.5C 81.516,309.773 85.6826,293.44 97,278.5C 109.88,264.783 125.046,254.45 142.5,247.5C 121.023,238.184 102.856,224.517 88,206.5C 79.3124,193.784 74.1458,179.618 72.5,164C 72.9906,140.912 72.9906,117.245 72.5,93C 74.8567,75.7887 81.6901,60.6221 93,47.5C 111.768,28.434 133.934,14.6007 159.5,6C 167.345,4.00753 175.012,1.84086 182.5,-0.5 Z"/></g>
<g><path style="opacity:0.251" fill="#535b64" d="M 262.5,-0.5 C 272.167,-0.5 281.833,-0.5 291.5,-0.5C 312.263,4.54699 331.93,12.3803 350.5,23C 367.288,33.4544 381.121,46.9544 392,63.5C 397.672,74.846 400.672,86.846 401,99.5C 401.534,124.537 401.2,149.203 400,173.5C 398.274,181.013 395.94,188.346 393,195.5C 385.492,207.97 375.992,218.804 364.5,228C 353.966,235.434 342.966,242.1 331.5,248C 350.687,254.537 366.52,265.703 379,281.5C 388.533,295.311 392.033,310.644 389.5,327.5C 387.833,327.5 386.167,327.5 384.5,327.5C 384.666,319.826 384.5,312.159 384,304.5C 383.566,300.312 382.066,296.645 379.5,293.5C 379.167,292.833 378.833,292.167 378.5,291.5C 372.097,279.595 363.097,270.095 351.5,263C 340.238,257.031 328.571,252.197 316.5,248.5C 316.5,248.167 316.5,247.833 316.5,247.5C 316.5,246.833 316.833,246.5 317.5,246.5C 318.251,247.573 319.251,247.74 320.5,247C 324.778,245.096 328.778,242.929 332.5,240.5C 338.782,239.03 344.115,236.03 348.5,231.5C 348.5,230.833 348.833,230.5 349.5,230.5C 349.897,231.525 350.563,231.692 351.5,231C 362.263,224.736 371.263,216.569 378.5,206.5C 380.129,205.375 381.629,204.041 383,202.5C 388.606,193.944 392.606,184.611 395,174.5C 395.667,144.833 395.667,115.167 395,85.5C 389.505,67.0306 379.339,51.5306 364.5,39C 353.758,30.4453 342.092,23.2786 329.5,17.5C 328.893,17.6236 328.56,17.9569 328.5,18.5C 327.833,18.5 327.5,18.1667 327.5,17.5C 322.491,14.6676 317.158,12.3342 311.5,10.5C 310.893,10.6236 310.56,10.9569 310.5,11.5C 307.215,11.0719 304.215,10.0719 301.5,8.5C 299.775,7.34606 297.275,6.34606 294,5.5C 293.235,5.56993 292.735,5.90326 292.5,6.5C 283.433,4.49115 274.433,2.82448 265.5,1.5C 265.246,0.667923 264.246,0.0012563 262.5,-0.5 Z"/></g>
<g><path style="opacity:0.894" fill="#bcb9a2" d="M 258.5,-0.5 C 259.833,-0.5 261.167,-0.5 262.5,-0.5C 264.246,0.0012563 265.246,0.667923 265.5,1.5C 262.848,1.59047 260.515,0.923808 258.5,-0.5 Z"/></g>
<g><path style="opacity:1" fill="#9e9c92" d="M 211.5,-0.5 C 212.833,-0.5 214.167,-0.5 215.5,-0.5C 214.4,0.558465 213.066,1.3918 211.5,2C 207.179,2.49902 202.846,2.66568 198.5,2.5C 202.881,1.74319 207.214,0.743193 211.5,-0.5 Z"/></g>
<g><path style="opacity:0.953" fill="#a1a094" d="M 191.5,4.5 C 182.492,6.50377 173.492,8.50377 164.5,10.5C 171.055,8.09276 178.389,5.9261 186.5,4C 188.387,3.22039 190.054,3.38705 191.5,4.5 Z"/></g>
<g><path style="opacity:0.459" fill="#b1b09c" d="M 292.5,6.5 C 292.735,5.90326 293.235,5.56993 294,5.5C 297.275,6.34606 299.775,7.34606 301.5,8.5C 298.402,8.24444 295.402,7.57778 292.5,6.5 Z"/></g>
<g><path style="opacity:1" fill="#424e7e" d="M 215.5,-0.5 C 229.833,-0.5 244.167,-0.5 258.5,-0.5C 260.515,0.923808 262.848,1.59047 265.5,1.5C 274.433,2.82448 283.433,4.49115 292.5,6.5C 295.402,7.57778 298.402,8.24444 301.5,8.5C 304.215,10.0719 307.215,11.0719 310.5,11.5C 316.111,13.8127 321.778,15.8127 327.5,17.5C 327.5,18.1667 327.833,18.5 328.5,18.5C 347.555,26.9484 364.055,38.9484 378,54.5C 382.424,60.3424 386.091,66.6757 389,73.5C 390.416,79.2539 392.083,84.9206 394,90.5C 394.83,117.336 394.664,144.003 393.5,170.5C 392.603,169.402 391.77,169.402 391,170.5C 388.908,172.346 387.574,174.679 387,177.5C 385.625,175.063 385.125,172.397 385.5,169.5C 385.5,157.5 385.5,145.5 385.5,133.5C 385.667,120.829 385.5,108.162 385,95.5C 384.36,82.9182 380.36,71.5849 373,61.5C 370.915,59.9179 369.415,57.9179 368.5,55.5C 367.583,54.8728 366.583,54.5394 365.5,54.5C 365.5,54.1667 365.5,53.8333 365.5,53.5C 363.443,49.933 360.777,46.7663 357.5,44C 353.266,40.9178 348.933,38.0845 344.5,35.5C 342.516,32.8361 339.849,31.1695 336.5,30.5C 335.089,28.461 333.089,27.461 330.5,27.5C 330.158,26.6618 329.492,26.3284 328.5,26.5C 328.047,25.5416 327.381,24.7083 326.5,24C 321.899,22.1944 317.233,20.6944 312.5,19.5C 312.389,18.8826 312.056,18.3826 311.5,18C 301.859,14.01 291.859,11.51 281.5,10.5C 275.72,8.95694 269.72,7.95694 263.5,7.5C 262.081,6.54885 260.415,6.21552 258.5,6.5C 227.462,3.7791 197.128,6.94577 167.5,16C 166.058,16.3768 165.058,17.2101 164.5,18.5C 164.167,18.5 163.833,18.5 163.5,18.5C 161.801,18.3398 160.134,18.5065 158.5,19C 154.716,21.2593 150.716,22.9259 146.5,24C 142.572,26.2347 138.905,28.7347 135.5,31.5C 130.078,33.4152 125.078,36.0819 120.5,39.5C 119.326,40.5137 118.66,41.847 118.5,43.5C 115.5,43.1667 114.167,44.5 114.5,47.5C 111.5,47.1667 110.167,48.5 110.5,51.5C 107.926,52.4057 105.593,53.739 103.5,55.5C 102.055,53.9373 100.389,52.604 98.5,51.5C 106.075,43.4234 114.408,36.2567 123.5,30C 133.404,24.5485 143.404,19.3819 153.5,14.5C 157.532,13.9178 161.199,12.5845 164.5,10.5C 173.492,8.50377 182.492,6.50377 191.5,4.5C 194.01,4.07332 196.343,3.40666 198.5,2.5C 202.846,2.66568 207.179,2.49902 211.5,2C 213.066,1.3918 214.4,0.558465 215.5,-0.5 Z"/></g>
<g><path style="opacity:1" fill="#4e4153" d="M 258.5,6.5 C 260.415,6.21552 262.081,6.54885 263.5,7.5C 262.448,7.35055 261.448,7.51722 260.5,8C 267.436,9.40864 274.436,10.242 281.5,10.5C 281.611,11.1174 281.944,11.6174 282.5,12C 292.735,13.773 302.735,16.273 312.5,19.5C 316.221,22.0272 320.221,24.0272 324.5,25.5C 322.856,25.7135 321.356,25.3802 320,24.5C 319.308,25.0253 318.808,25.6919 318.5,26.5C 320.733,27.7422 322.899,29.0755 325,30.5C 325.591,31.4835 325.257,32.1501 324,32.5C 321.632,31.2827 319.132,30.4494 316.5,30C 315.743,28.4878 314.743,27.1545 313.5,26C 310.992,25.3456 308.826,24.179 307,22.5C 306.667,23.1667 306.333,23.8333 306,24.5C 305.667,23.1667 305.333,21.8333 305,20.5C 303.667,21.8333 302.333,21.8333 301,20.5C 300.333,23.1667 299.667,23.1667 299,20.5C 298,20.8333 297,21.1667 296,21.5C 295.667,20.8333 295.333,20.1667 295,19.5C 293.302,20.733 291.302,21.3996 289,21.5C 287.167,21.3333 285.333,21.1667 283.5,21C 286.691,19.9129 290.025,19.0796 293.5,18.5C 289.955,17.2086 286.455,17.2086 283,18.5C 277.791,16.3891 272.291,15.0558 266.5,14.5C 264.613,16.1329 263.113,15.7996 262,13.5C 260.417,13.493 258.751,13.8263 257,14.5C 256.311,13.6433 255.478,12.9767 254.5,12.5C 250.673,13.1742 246.506,13.5075 242,13.5C 241.333,10.8333 240.667,10.8333 240,13.5C 232.775,13.0105 226.108,12.6772 220,12.5C 217.204,13.2113 214.37,13.878 211.5,14.5C 210.158,13.0977 209.324,13.4311 209,15.5C 206.599,14.3977 204.099,14.231 201.5,15C 199.452,16.6811 197.285,18.1811 195,19.5C 191,20.8333 187,20.8333 183,19.5C 182.5,20 182,20.5 181.5,21C 182.956,21.4226 183.456,22.2559 183,23.5C 182,23.1667 181,22.8333 180,22.5C 178.47,23.636 177.137,24.636 176,25.5C 175.667,25.1667 175.333,24.8333 175,24.5C 173.215,25.2401 171.382,25.9067 169.5,26.5C 169.828,23.2647 168.161,21.2647 164.5,20.5C 163.833,20.8333 163.167,21.1667 162.5,21.5C 163.325,22.3857 164.325,22.719 165.5,22.5C 165.872,25.0217 165.039,27.0217 163,28.5C 162.667,28.1667 162.333,27.8333 162,27.5C 160.333,28.8333 158.667,30.1667 157,31.5C 154.522,30.5533 152.188,30.5533 150,31.5C 149.075,30.9535 148.242,30.2868 147.5,29.5C 151.511,28.7733 155.511,28.1066 159.5,27.5C 161.086,25.8273 161.753,23.8273 161.5,21.5C 159.784,21.6287 158.117,21.962 156.5,22.5C 158.72,21.021 161.054,19.6877 163.5,18.5C 163.833,18.5 164.167,18.5 164.5,18.5C 172.73,17.258 180.73,15.0914 188.5,12C 194.5,11 200.5,10 206.5,9C 224.125,7.75185 241.459,6.91851 258.5,6.5 Z"/></g>
<g><path style="opacity:1" fill="#8e8063" d="M 263.5,7.5 C 269.72,7.95694 275.72,8.95694 281.5,10.5C 274.436,10.242 267.436,9.40864 260.5,8C 261.448,7.51722 262.448,7.35055 263.5,7.5 Z"/></g>
<g><path style="opacity:1" fill="#82745e" d="M 258.5,6.5 C 241.459,6.91851 224.125,7.75185 206.5,9C 200.5,10 194.5,11 188.5,12C 180.73,15.0914 172.73,17.258 164.5,18.5C 165.058,17.2101 166.058,16.3768 167.5,16C 197.128,6.94577 227.462,3.7791 258.5,6.5 Z"/></g>
<g><path style="opacity:0.322" fill="#9e9e93" d="M 310.5,11.5 C 310.56,10.9569 310.893,10.6236 311.5,10.5C 317.158,12.3342 322.491,14.6676 327.5,17.5C 321.778,15.8127 316.111,13.8127 310.5,11.5 Z"/></g>
<g><path style="opacity:1" fill="#47384f" d="M 324.5,25.5 C 326.647,27.4695 328.98,29.3029 331.5,31C 330.027,31.7096 329.36,32.8762 329.5,34.5C 331.6,34.5228 333.433,33.8561 335,32.5C 337.136,34.4592 339.636,35.7926 342.5,36.5C 341.724,38.3559 340.391,39.6893 338.5,40.5C 339.333,40.8333 340.167,41.1667 341,41.5C 343.076,40.3884 345.243,39.8884 347.5,40C 349.715,41.9426 349.715,43.6093 347.5,45C 349.558,46.9334 351.725,48.7667 354,50.5C 354.333,52.1667 354.667,53.8333 355,55.5C 357.416,54.9655 359.916,54.6322 362.5,54.5C 365.419,57.6558 368.419,60.6558 371.5,63.5C 374.402,66.2895 376.568,69.6228 378,73.5C 378.892,79.4003 380.558,85.067 383,90.5C 383.5,106.83 383.667,123.163 383.5,139.5C 381.521,137.832 379.188,137.166 376.5,137.5C 375.395,136.4 374.062,135.733 372.5,135.5C 369.593,133.195 366.259,131.862 362.5,131.5C 359.833,129.833 357.167,128.167 354.5,126.5C 355.978,126.762 357.311,126.429 358.5,125.5C 356.833,124.167 355.167,122.833 353.5,121.5C 357.009,119.918 360.009,120.584 362.5,123.5C 364.278,130.578 368.945,133.911 376.5,133.5C 376.335,130.15 376.502,126.817 377,123.5C 377.5,123 378,122.5 378.5,122C 376.718,114.77 375.885,107.27 376,99.5C 375.667,102.833 375.333,106.167 375,109.5C 374.708,102.133 373.708,95.1326 372,88.5C 370.684,85.972 369.517,85.972 368.5,88.5C 367.712,85.1006 366.712,81.7672 365.5,78.5C 365.488,74.5078 366.155,70.5078 367.5,66.5C 366.325,66.281 365.325,66.6143 364.5,67.5C 365.59,68.6086 365.59,69.6086 364.5,70.5C 363.912,68.3272 362.412,66.3272 360,64.5C 357.683,64.391 355.183,64.7244 352.5,65.5C 350.701,65.423 349.034,64.923 347.5,64C 348.167,61.3333 348.833,58.6667 349.5,56C 348.552,55.5172 347.552,55.3505 346.5,55.5C 346.617,53.5165 345.95,51.8498 344.5,50.5C 330.173,41.1622 315.506,33.9955 300.5,29C 298.899,28.7266 297.399,28.2266 296,27.5C 294.853,28.4581 293.853,28.1247 293,26.5C 291,26.5 289,26.5 287,26.5C 286.333,25.8333 285.667,25.1667 285,24.5C 283,24.5 281,24.5 279,24.5C 277.667,23.8333 276.333,23.1667 275,22.5C 273.093,22.4205 271.093,22.7539 269,23.5C 266.391,22.8724 263.725,21.8724 261,20.5C 257.281,21.4883 253.281,21.1549 249,19.5C 241.932,20.0984 234.599,20.0984 227,19.5C 226.333,20.1667 225.667,20.8333 225,21.5C 218.333,20.1667 211.667,20.1667 205,21.5C 204,22.1667 203,22.8333 202,23.5C 199.333,23.5 196.667,23.5 194,23.5C 193,24.1667 192,24.8333 191,25.5C 189,25.5 187,25.5 185,25.5C 179.922,26.9988 175.255,28.6655 171,30.5C 170.667,30.1667 170.333,29.8333 170,29.5C 169.51,30.7932 169.343,32.1266 169.5,33.5C 167.549,33.7733 166.049,33.1066 165,31.5C 163.853,32.4581 162.853,32.1247 162,30.5C 160.933,31.1905 159.766,31.6905 158.5,32C 161.279,32.1492 161.779,32.9826 160,34.5C 159.667,34.1667 159.333,33.8333 159,33.5C 158.492,35.9042 157.325,36.5709 155.5,35.5C 152.203,36.2976 150.036,38.2976 149,41.5C 148.667,40.8333 148.333,40.1667 148,39.5C 148.141,43.8312 146.808,44.4978 144,41.5C 138.787,44.5584 133.287,47.8918 127.5,51.5C 129.672,52.2048 131.672,53.2048 133.5,54.5C 130.93,55.2229 128.597,56.3896 126.5,58C 123.329,61.7313 119.995,65.2313 116.5,68.5C 117.896,64.8463 116.562,62.513 112.5,61.5C 111.998,60.2836 111.665,59.1169 111.5,58C 112.618,56.9264 113.618,55.7598 114.5,54.5C 116.792,56.6685 118.625,56.0018 120,52.5C 121,52.8333 122,53.1667 123,53.5C 123.333,52.5 123.667,51.5 124,50.5C 124.333,50.8333 124.667,51.1667 125,51.5C 128.686,49.7208 130.519,47.0541 130.5,43.5C 129.833,43.1667 129.167,42.8333 128.5,42.5C 127.363,45.0495 125.029,47.0495 121.5,48.5C 120.692,48.1924 120.025,47.6924 119.5,47C 121.75,43.9906 124.083,41.1573 126.5,38.5C 129.681,36.4083 132.681,34.075 135.5,31.5C 142.544,28.7018 149.544,25.7018 156.5,22.5C 158.117,21.962 159.784,21.6287 161.5,21.5C 161.753,23.8273 161.086,25.8273 159.5,27.5C 155.511,28.1066 151.511,28.7733 147.5,29.5C 148.242,30.2868 149.075,30.9535 150,31.5C 152.188,30.5533 154.522,30.5533 157,31.5C 158.667,30.1667 160.333,28.8333 162,27.5C 162.333,27.8333 162.667,28.1667 163,28.5C 165.039,27.0217 165.872,25.0217 165.5,22.5C 164.325,22.719 163.325,22.3857 162.5,21.5C 163.167,21.1667 163.833,20.8333 164.5,20.5C 168.161,21.2647 169.828,23.2647 169.5,26.5C 171.382,25.9067 173.215,25.2401 175,24.5C 175.333,24.8333 175.667,25.1667 176,25.5C 177.137,24.636 178.47,23.636 180,22.5C 181,22.8333 182,23.1667 183,23.5C 183.456,22.2559 182.956,21.4226 181.5,21C 182,20.5 182.5,20 183,19.5C 187,20.8333 191,20.8333 195,19.5C 197.285,18.1811 199.452,16.6811 201.5,15C 204.099,14.231 206.599,14.3977 209,15.5C 209.324,13.4311 210.158,13.0977 211.5,14.5C 214.37,13.878 217.204,13.2113 220,12.5C 226.108,12.6772 232.775,13.0105 240,13.5C 240.667,10.8333 241.333,10.8333 242,13.5C 246.506,13.5075 250.673,13.1742 254.5,12.5C 255.478,12.9767 256.311,13.6433 257,14.5C 258.751,13.8263 260.417,13.493 262,13.5C 263.113,15.7996 264.613,16.1329 266.5,14.5C 272.291,15.0558 277.791,16.3891 283,18.5C 286.455,17.2086 289.955,17.2086 293.5,18.5C 290.025,19.0796 286.691,19.9129 283.5,21C 285.333,21.1667 287.167,21.3333 289,21.5C 291.302,21.3996 293.302,20.733 295,19.5C 295.333,20.1667 295.667,20.8333 296,21.5C 297,21.1667 298,20.8333 299,20.5C 299.667,23.1667 300.333,23.1667 301,20.5C 302.333,21.8333 303.667,21.8333 305,20.5C 305.333,21.8333 305.667,23.1667 306,24.5C 306.333,23.8333 306.667,23.1667 307,22.5C 308.826,24.179 310.992,25.3456 313.5,26C 314.743,27.1545 315.743,28.4878 316.5,30C 319.132,30.4494 321.632,31.2827 324,32.5C 325.257,32.1501 325.591,31.4835 325,30.5C 322.899,29.0755 320.733,27.7422 318.5,26.5C 318.808,25.6919 319.308,25.0253 320,24.5C 321.356,25.3802 322.856,25.7135 324.5,25.5 Z"/></g>
<g><path style="opacity:1" fill="#897f68" d="M 281.5,10.5 C 291.859,11.51 301.859,14.01 311.5,18C 312.056,18.3826 312.389,18.8826 312.5,19.5C 302.735,16.273 292.735,13.773 282.5,12C 281.944,11.6174 281.611,11.1174 281.5,10.5 Z"/></g>
<g><path style="opacity:1" fill="#897b63" d="M 312.5,19.5 C 317.233,20.6944 321.899,22.1944 326.5,24C 327.381,24.7083 328.047,25.5416 328.5,26.5C 327.167,26.1667 325.833,25.8333 324.5,25.5C 320.221,24.0272 316.221,22.0272 312.5,19.5 Z"/></g>
<g><path style="opacity:1" fill="#867960" d="M 163.5,18.5 C 161.054,19.6877 158.72,21.021 156.5,22.5C 149.544,25.7018 142.544,28.7018 135.5,31.5C 138.905,28.7347 142.572,26.2347 146.5,24C 150.716,22.9259 154.716,21.2593 158.5,19C 160.134,18.5065 161.801,18.3398 163.5,18.5 Z"/></g>
<g><path style="opacity:1" fill="#3e2e48" d="M 354.5,126.5 C 353.833,126.5 353.167,126.5 352.5,126.5C 351.791,125.596 350.791,125.263 349.5,125.5C 349.5,127.833 349.5,130.167 349.5,132.5C 348.504,132.414 347.671,132.748 347,133.5C 346.283,137.045 346.45,140.545 347.5,144C 346.127,146.147 344.46,147.147 342.5,147C 343.851,148.617 345.518,149.784 347.5,150.5C 347,150.833 346.5,151.167 346,151.5C 342.403,149.951 338.903,148.284 335.5,146.5C 336.025,145.808 336.692,145.308 337.5,145C 336.034,144.365 334.7,143.531 333.5,142.5C 332.201,143.09 331.368,144.09 331,145.5C 329.301,144.594 327.467,144.261 325.5,144.5C 325.167,144.5 324.833,144.5 324.5,144.5C 323.895,142.974 322.729,141.974 321,141.5C 320.517,140.552 320.351,139.552 320.5,138.5C 321.706,137.198 325.039,137.198 330.5,138.5C 330.5,137.167 330.5,135.833 330.5,134.5C 326.051,134.627 321.884,133.627 318,131.5C 316.274,132.576 314.441,132.743 312.5,132C 311.867,128.541 311.2,125.041 310.5,121.5C 309.914,121.291 309.414,120.957 309,120.5C 303.854,121.3 299.187,121.3 295,120.5C 294.326,121.578 293.326,122.245 292,122.5C 287.611,119.943 283.278,119.943 279,122.5C 277.596,122.491 276.43,121.991 275.5,121C 278.487,117.792 277.82,115.959 273.5,115.5C 273.5,116.5 273.5,117.5 273.5,118.5C 268.93,119.033 265.096,117.7 262,114.5C 260.56,115.148 259.06,115.481 257.5,115.5C 257.921,113.09 259.254,111.257 261.5,110C 254.839,110.19 248.339,110.024 242,109.5C 241.075,110.047 240.242,110.713 239.5,111.5C 240.016,114.058 240.35,116.558 240.5,119C 239.833,119.333 239.167,119.667 238.5,120C 239.973,120.71 240.64,121.876 240.5,123.5C 237.215,123.319 234.215,122.319 231.5,120.5C 227.911,121.648 224.244,122.315 220.5,122.5C 219.433,120.121 220.433,119.121 223.5,119.5C 223.5,118.167 223.5,116.833 223.5,115.5C 221.833,115.5 220.167,115.5 218.5,115.5C 218.5,116.5 218.5,117.5 218.5,118.5C 215.202,118.984 212.536,117.984 210.5,115.5C 214.914,114.257 219.247,112.757 223.5,111C 219.983,109.106 216.483,109.272 213,111.5C 209.648,110.166 206.315,108.833 203,107.5C 200.493,107.716 199.66,108.716 200.5,110.5C 199.277,111.614 197.944,111.781 196.5,111C 189.621,107.481 182.621,104.148 175.5,101C 180.176,101.215 184.843,101.882 189.5,103C 191.374,105.018 193.707,106.184 196.5,106.5C 199.014,105.078 201.681,103.912 204.5,103C 205.849,101.365 205.682,99.8646 204,98.5C 201.867,100.853 199.2,101.853 196,101.5C 192.561,101.197 189.395,100.197 186.5,98.5C 187.11,94.3652 186.277,90.6986 184,87.5C 178.476,88.2666 172.976,88.4332 167.5,88C 167.957,88.414 168.291,88.914 168.5,89.5C 164.097,90.1571 163.43,91.9904 166.5,95C 166.167,95.1667 165.833,95.3333 165.5,95.5C 160.249,94.4163 155.249,92.7496 150.5,90.5C 141.955,88.0962 133.622,85.0962 125.5,81.5C 125.5,80.8333 125.167,80.5 124.5,80.5C 121.017,78.5944 117.35,76.9278 113.5,75.5C 113.082,74.7784 112.416,74.2784 111.5,74C 112.762,71.724 114.429,69.8907 116.5,68.5C 119.995,65.2313 123.329,61.7313 126.5,58C 128.597,56.3896 130.93,55.2229 133.5,54.5C 131.672,53.2048 129.672,52.2048 127.5,51.5C 133.287,47.8918 138.787,44.5584 144,41.5C 146.808,44.4978 148.141,43.8312 148,39.5C 148.333,40.1667 148.667,40.8333 149,41.5C 150.036,38.2976 152.203,36.2976 155.5,35.5C 157.325,36.5709 158.492,35.9042 159,33.5C 159.333,33.8333 159.667,34.1667 160,34.5C 161.779,32.9826 161.279,32.1492 158.5,32C 159.766,31.6905 160.933,31.1905 162,30.5C 162.853,32.1247 163.853,32.4581 165,31.5C 166.049,33.1066 167.549,33.7733 169.5,33.5C 169.343,32.1266 169.51,30.7932 170,29.5C 170.333,29.8333 170.667,30.1667 171,30.5C 175.255,28.6655 179.922,26.9988 185,25.5C 187,25.5 189,25.5 191,25.5C 192,24.8333 193,24.1667 194,23.5C 196.667,23.5 199.333,23.5 202,23.5C 203,22.8333 204,22.1667 205,21.5C 211.667,20.1667 218.333,20.1667 225,21.5C 225.667,20.8333 226.333,20.1667 227,19.5C 234.599,20.0984 241.932,20.0984 249,19.5C 253.281,21.1549 257.281,21.4883 261,20.5C 263.725,21.8724 266.391,22.8724 269,23.5C 271.093,22.7539 273.093,22.4205 275,22.5C 276.333,23.1667 277.667,23.8333 279,24.5C 281,24.5 283,24.5 285,24.5C 285.667,25.1667 286.333,25.8333 287,26.5C 289,26.5 291,26.5 293,26.5C 293.853,28.1247 294.853,28.4581 296,27.5C 297.399,28.2266 298.899,28.7266 300.5,29C 315.506,33.9955 330.173,41.1622 344.5,50.5C 345.95,51.8498 346.617,53.5165 346.5,55.5C 347.552,55.3505 348.552,55.5172 349.5,56C 348.833,58.6667 348.167,61.3333 347.5,64C 349.034,64.923 350.701,65.423 352.5,65.5C 355.183,64.7244 357.683,64.391 360,64.5C 362.412,66.3272 363.912,68.3272 364.5,70.5C 365.59,69.6086 365.59,68.6086 364.5,67.5C 365.325,66.6143 366.325,66.281 367.5,66.5C 366.155,70.5078 365.488,74.5078 365.5,78.5C 366.712,81.7672 367.712,85.1006 368.5,88.5C 369.517,85.972 370.684,85.972 372,88.5C 373.708,95.1326 374.708,102.133 375,109.5C 375.333,106.167 375.667,102.833 376,99.5C 375.885,107.27 376.718,114.77 378.5,122C 378,122.5 377.5,123 377,123.5C 376.502,126.817 376.335,130.15 376.5,133.5C 368.945,133.911 364.278,130.578 362.5,123.5C 360.009,120.584 357.009,119.918 353.5,121.5C 355.167,122.833 356.833,124.167 358.5,125.5C 357.311,126.429 355.978,126.762 354.5,126.5 Z"/></g>
<g><path style="opacity:1" fill="#b8ac88" d="M 330.5,27.5 C 333.089,27.461 335.089,28.461 336.5,30.5C 334.181,30.0075 332.181,29.0075 330.5,27.5 Z"/></g>
<g><path style="opacity:1" fill="#a39778" d="M 135.5,31.5 C 132.681,34.075 129.681,36.4083 126.5,38.5C 124.614,39.3606 122.78,40.3606 121,41.5C 120.536,40.9056 120.369,40.2389 120.5,39.5C 125.078,36.0819 130.078,33.4152 135.5,31.5 Z"/></g>
<g><path style="opacity:1" fill="#998e76" d="M 344.5,35.5 C 348.933,38.0845 353.266,40.9178 357.5,44C 360.777,46.7663 363.443,49.933 365.5,53.5C 358.475,47.4707 351.475,41.4707 344.5,35.5 Z"/></g>
<g><path style="opacity:1" fill="#928363" d="M 118.5,43.5 C 117.144,47.5222 114.478,50.1889 110.5,51.5C 110.167,48.5 111.5,47.1667 114.5,47.5C 114.167,44.5 115.5,43.1667 118.5,43.5 Z"/></g>
<g><path style="opacity:1" fill="#51444b" d="M 324.5,25.5 C 325.833,25.8333 327.167,26.1667 328.5,26.5C 329.492,26.3284 330.158,26.6618 330.5,27.5C 332.181,29.0075 334.181,30.0075 336.5,30.5C 339.849,31.1695 342.516,32.8361 344.5,35.5C 351.475,41.4707 358.475,47.4707 365.5,53.5C 365.5,53.8333 365.5,54.1667 365.5,54.5C 367.758,57.3566 369.758,60.3566 371.5,63.5C 368.419,60.6558 365.419,57.6558 362.5,54.5C 359.916,54.6322 357.416,54.9655 355,55.5C 354.667,53.8333 354.333,52.1667 354,50.5C 351.725,48.7667 349.558,46.9334 347.5,45C 349.715,43.6093 349.715,41.9426 347.5,40C 345.243,39.8884 343.076,40.3884 341,41.5C 340.167,41.1667 339.333,40.8333 338.5,40.5C 340.391,39.6893 341.724,38.3559 342.5,36.5C 339.636,35.7926 337.136,34.4592 335,32.5C 333.433,33.8561 331.6,34.5228 329.5,34.5C 329.36,32.8762 330.027,31.7096 331.5,31C 328.98,29.3029 326.647,27.4695 324.5,25.5 Z"/></g>
<g><path style="opacity:1" fill="#9e9478" d="M 110.5,51.5 C 107.675,55.1366 104.842,58.8033 102,62.5C 101.667,63.8333 101.333,65.1667 101,66.5C 100.329,67.2524 99.4959,67.5858 98.5,67.5C 98.5,66.8333 98.1667,66.5 97.5,66.5C 99.5283,62.8164 101.528,59.1497 103.5,55.5C 105.593,53.739 107.926,52.4057 110.5,51.5 Z"/></g>
<g><path style="opacity:1" fill="#5d5663" d="M 126.5,38.5 C 124.083,41.1573 121.75,43.9906 119.5,47C 120.025,47.6924 120.692,48.1924 121.5,48.5C 125.029,47.0495 127.363,45.0495 128.5,42.5C 129.167,42.8333 129.833,43.1667 130.5,43.5C 130.519,47.0541 128.686,49.7208 125,51.5C 124.667,51.1667 124.333,50.8333 124,50.5C 123.667,51.5 123.333,52.5 123,53.5C 122,53.1667 121,52.8333 120,52.5C 118.625,56.0018 116.792,56.6685 114.5,54.5C 113.618,55.7598 112.618,56.9264 111.5,58C 111.665,59.1169 111.998,60.2836 112.5,61.5C 116.562,62.513 117.896,64.8463 116.5,68.5C 114.429,69.8907 112.762,71.724 111.5,74C 112.416,74.2784 113.082,74.7784 113.5,75.5C 112.5,75.5 111.5,75.5 110.5,75.5C 106.568,73.1955 102.568,70.8622 98.5,68.5C 98.5,68.1667 98.5,67.8333 98.5,67.5C 99.4959,67.5858 100.329,67.2524 101,66.5C 101.333,65.1667 101.667,63.8333 102,62.5C 104.842,58.8033 107.675,55.1366 110.5,51.5C 114.478,50.1889 117.144,47.5222 118.5,43.5C 118.66,41.847 119.326,40.5137 120.5,39.5C 120.369,40.2389 120.536,40.9056 121,41.5C 122.78,40.3606 124.614,39.3606 126.5,38.5 Z"/></g>
<g><path style="opacity:1" fill="#c6c8ad" d="M 97.5,66.5 C 98.1667,66.5 98.5,66.8333 98.5,67.5C 98.5,67.8333 98.5,68.1667 98.5,68.5C 97.6618,68.8417 97.3284,69.5084 97.5,70.5C 94.5341,75.4049 92.3675,80.7382 91,86.5C 90.6174,85.944 90.1174,85.6107 89.5,85.5C 91.0236,78.6612 93.6902,72.3279 97.5,66.5 Z"/></g>
<g><path style="opacity:0.902" fill="#b3b1a0" d="M 153.5,14.5 C 143.404,19.3819 133.404,24.5485 123.5,30C 114.408,36.2567 106.075,43.4234 98.5,51.5C 93.5046,57.693 89.0046,64.3596 85,71.5C 82.8909,75.9363 81.7243,80.6029 81.5,85.5C 80.5318,87.6074 80.1984,89.9407 80.5,92.5C 79.8333,92.5 79.5,92.8333 79.5,93.5C 79.1667,93.5 78.8333,93.5 78.5,93.5C 78.8189,85.9189 80.3189,78.5855 83,71.5C 86.9396,64.5637 91.273,57.8971 96,51.5C 111.811,34.0076 130.978,21.6743 153.5,14.5 Z"/></g>
<g><path style="opacity:1" fill="#5d8ec5" d="M 98.5,68.5 C 102.568,70.8622 106.568,73.1955 110.5,75.5C 109.386,78.8772 107.386,81.5438 104.5,83.5C 101.5,82.1667 98.5,80.8333 95.5,79.5C 95.8726,76.4261 96.5392,73.4261 97.5,70.5C 97.3284,69.5084 97.6618,68.8417 98.5,68.5 Z"/></g>
<g><path style="opacity:1" fill="#6e7b9f" d="M 98.5,51.5 C 100.389,52.604 102.055,53.9373 103.5,55.5C 101.528,59.1497 99.5283,62.8164 97.5,66.5C 93.6902,72.3279 91.0236,78.6612 89.5,85.5C 89.5,86.1667 89.5,86.8333 89.5,87.5C 89.5,88.1667 89.1667,88.5 88.5,88.5C 85.7594,88.9766 83.4261,87.9766 81.5,85.5C 81.7243,80.6029 82.8909,75.9363 85,71.5C 89.0046,64.3596 93.5046,57.693 98.5,51.5 Z"/></g>
<g><path style="opacity:0.898" fill="#b2b09c" d="M 328.5,18.5 C 328.56,17.9569 328.893,17.6236 329.5,17.5C 342.092,23.2786 353.758,30.4453 364.5,39C 379.339,51.5306 389.505,67.0306 395,85.5C 395.667,115.167 395.667,144.833 395,174.5C 392.606,184.611 388.606,193.944 383,202.5C 381.629,204.041 380.129,205.375 378.5,206.5C 386.209,195.735 391.209,183.735 393.5,170.5C 394.664,144.003 394.83,117.336 394,90.5C 392.083,84.9206 390.416,79.2539 389,73.5C 386.091,66.6757 382.424,60.3424 378,54.5C 364.055,38.9484 347.555,26.9484 328.5,18.5 Z"/></g>
<g><path style="opacity:1" fill="#402f41" d="M 220.5,122.5 C 198.084,113.028 175.751,103.361 153.5,93.5C 152.167,92.8333 151.167,91.8333 150.5,90.5C 155.249,92.7496 160.249,94.4163 165.5,95.5C 165.833,95.3333 166.167,95.1667 166.5,95C 163.43,91.9904 164.097,90.1571 168.5,89.5C 168.291,88.914 167.957,88.414 167.5,88C 172.976,88.4332 178.476,88.2666 184,87.5C 186.277,90.6986 187.11,94.3652 186.5,98.5C 189.395,100.197 192.561,101.197 196,101.5C 199.2,101.853 201.867,100.853 204,98.5C 205.682,99.8646 205.849,101.365 204.5,103C 201.681,103.912 199.014,105.078 196.5,106.5C 193.707,106.184 191.374,105.018 189.5,103C 184.843,101.882 180.176,101.215 175.5,101C 182.621,104.148 189.621,107.481 196.5,111C 197.944,111.781 199.277,111.614 200.5,110.5C 199.66,108.716 200.493,107.716 203,107.5C 206.315,108.833 209.648,110.166 213,111.5C 216.483,109.272 219.983,109.106 223.5,111C 219.247,112.757 214.914,114.257 210.5,115.5C 212.536,117.984 215.202,118.984 218.5,118.5C 218.5,117.5 218.5,116.5 218.5,115.5C 220.167,115.5 221.833,115.5 223.5,115.5C 223.5,116.833 223.5,118.167 223.5,119.5C 220.433,119.121 219.433,120.121 220.5,122.5 Z"/></g>
<g><path style="opacity:1" fill="#8ea7bb" d="M 97.5,70.5 C 96.5392,73.4261 95.8726,76.4261 95.5,79.5C 94.3939,82.3833 93.0606,85.2166 91.5,88C 92.1604,105.769 92.827,123.602 93.5,141.5C 95.6237,139.395 97.2904,137.061 98.5,134.5C 99.5,134.5 100.5,134.5 101.5,134.5C 96.9065,140.338 96.2398,146.672 99.5,153.5C 98.603,152.402 97.7697,152.402 97,153.5C 96.1369,150.041 94.9703,146.707 93.5,143.5C 92.5018,152.475 92.1685,161.475 92.5,170.5C 92.5,172.167 92.5,173.833 92.5,175.5C 91.6981,174.048 91.1981,172.382 91,170.5C 90.8323,142.664 90.3323,114.997 89.5,87.5C 89.5,86.8333 89.5,86.1667 89.5,85.5C 90.1174,85.6107 90.6174,85.944 91,86.5C 92.3675,80.7382 94.5341,75.4049 97.5,70.5 Z"/></g>
<g><path style="opacity:1" fill="#64667b" d="M 123.5,83.5 C 124.149,97.8733 123.482,111.873 121.5,125.5C 122.151,111.402 122.817,97.4018 123.5,83.5 Z"/></g>
<g><path style="opacity:1" fill="#7ca5d1" d="M 95.5,79.5 C 98.5,80.8333 101.5,82.1667 104.5,83.5C 104.611,84.1174 104.944,84.6174 105.5,85C 104.751,86.7337 104.251,88.567 104,90.5C 103.616,103.399 103.449,116.232 103.5,129C 103.836,130.03 104.503,130.53 105.5,130.5C 104.737,131.268 103.737,131.768 102.5,132C 101.748,132.671 101.414,133.504 101.5,134.5C 100.5,134.5 99.5,134.5 98.5,134.5C 97.2904,137.061 95.6237,139.395 93.5,141.5C 92.827,123.602 92.1604,105.769 91.5,88C 93.0606,85.2166 94.3939,82.3833 95.5,79.5 Z"/></g>
<g><path style="opacity:1" fill="#828cad" d="M 81.5,85.5 C 83.4261,87.9766 85.7594,88.9766 88.5,88.5C 88.5,91.1667 88.5,93.8333 88.5,96.5C 87.6679,119.33 87.1679,142.33 87,165.5C 85.5134,164.845 84.3467,163.845 83.5,162.5C 83.5693,160.722 83.9026,158.889 84.5,157C 83.8333,156 83.1667,155 82.5,154C 83.8333,150 83.8333,146 82.5,142C 85.1667,141.333 85.1667,140.667 82.5,140C 85.1667,139.333 85.1667,138.667 82.5,138C 84.9913,137.374 84.9913,136.541 82.5,135.5C 82.9767,134.522 83.6433,133.689 84.5,133C 84.5,131 84.5,129 84.5,127C 83.8333,126 83.1667,125 82.5,124C 83.8333,122 83.8333,120 82.5,118C 83.1667,117.667 83.8333,117.333 84.5,117C 83.1667,116.333 83.1667,115.667 84.5,115C 82.9907,113.326 82.3241,111.66 82.5,110C 84.3469,106.743 85.0136,103.743 84.5,101C 83.8333,100.667 83.1667,100.333 82.5,100C 82.6651,98.8831 82.9984,97.7164 83.5,96.5C 82.675,95.6143 81.675,95.281 80.5,95.5C 80.5,94.5 80.5,93.5 80.5,92.5C 80.1984,89.9407 80.5318,87.6074 81.5,85.5 Z"/></g>
<g><path style="opacity:1" fill="#2a6ab1" d="M 110.5,75.5 C 111.5,75.5 112.5,75.5 113.5,75.5C 117.35,76.9278 121.017,78.5944 124.5,80.5C 123.596,81.209 123.263,82.209 123.5,83.5C 122.817,97.4018 122.151,111.402 121.5,125.5C 117.475,125.63 113.809,126.63 110.5,128.5C 109.508,128.328 108.842,128.662 108.5,129.5C 107.391,129.557 106.391,129.89 105.5,130.5C 104.503,130.53 103.836,130.03 103.5,129C 103.449,116.232 103.616,103.399 104,90.5C 104.251,88.567 104.751,86.7337 105.5,85C 104.944,84.6174 104.611,84.1174 104.5,83.5C 107.386,81.5438 109.386,78.8772 110.5,75.5 Z"/></g>
<g><path style="opacity:1" fill="#f2894d" d="M 125.5,81.5 C 133.622,85.0962 141.955,88.0962 150.5,90.5C 151.167,91.8333 152.167,92.8333 153.5,93.5C 153.604,104.157 153.604,114.823 153.5,125.5C 145.16,125.666 136.827,125.5 128.5,125C 127.584,124.626 126.75,124.126 126,123.5C 125.5,109.837 125.333,96.1707 125.5,82.5C 125.5,82.1667 125.5,81.8333 125.5,81.5 Z"/></g>
<g><path style="opacity:1" fill="#978b6c" d="M 365.5,54.5 C 366.583,54.5394 367.583,54.8728 368.5,55.5C 369.415,57.9179 370.915,59.9179 373,61.5C 380.36,71.5849 384.36,82.9182 385,95.5C 385.5,108.162 385.667,120.829 385.5,133.5C 384.833,135.833 384.167,138.167 383.5,140.5C 383.5,140.167 383.5,139.833 383.5,139.5C 383.667,123.163 383.5,106.83 383,90.5C 380.558,85.067 378.892,79.4003 378,73.5C 376.568,69.6228 374.402,66.2895 371.5,63.5C 369.758,60.3566 367.758,57.3566 365.5,54.5 Z"/></g>
<g><path style="opacity:1" fill="#ab8880" d="M 124.5,80.5 C 125.167,80.5 125.5,80.8333 125.5,81.5C 125.5,81.8333 125.5,82.1667 125.5,82.5C 124.17,96.9021 124.17,111.402 125.5,126C 123.942,126.21 122.609,126.71 121.5,127.5C 117.785,127.423 114.119,127.756 110.5,128.5C 113.809,126.63 117.475,125.63 121.5,125.5C 123.482,111.873 124.149,97.8733 123.5,83.5C 123.263,82.209 123.596,81.209 124.5,80.5 Z"/></g>
<g><path style="opacity:1" fill="#412e41" d="M 324.5,144.5 C 318.943,141.979 313.276,139.645 307.5,137.5C 299.407,134.377 291.74,130.711 284.5,126.5C 278.5,124.167 272.5,121.834 266.5,119.5C 264.396,118.088 262.063,117.088 259.5,116.5C 259.5,124.167 259.5,131.833 259.5,139.5C 259.5,140.167 259.167,140.5 258.5,140.5C 249.911,135.708 240.911,131.708 231.5,128.5C 227.962,126.231 224.295,124.231 220.5,122.5C 224.244,122.315 227.911,121.648 231.5,120.5C 234.215,122.319 237.215,123.319 240.5,123.5C 240.64,121.876 239.973,120.71 238.5,120C 239.167,119.667 239.833,119.333 240.5,119C 240.35,116.558 240.016,114.058 239.5,111.5C 240.242,110.713 241.075,110.047 242,109.5C 248.339,110.024 254.839,110.19 261.5,110C 259.254,111.257 257.921,113.09 257.5,115.5C 259.06,115.481 260.56,115.148 262,114.5C 265.096,117.7 268.93,119.033 273.5,118.5C 273.5,117.5 273.5,116.5 273.5,115.5C 277.82,115.959 278.487,117.792 275.5,121C 276.43,121.991 277.596,122.491 279,122.5C 283.278,119.943 287.611,119.943 292,122.5C 293.326,122.245 294.326,121.578 295,120.5C 299.187,121.3 303.854,121.3 309,120.5C 309.414,120.957 309.914,121.291 310.5,121.5C 311.2,125.041 311.867,128.541 312.5,132C 314.441,132.743 316.274,132.576 318,131.5C 321.884,133.627 326.051,134.627 330.5,134.5C 330.5,135.833 330.5,137.167 330.5,138.5C 325.039,137.198 321.706,137.198 320.5,138.5C 320.351,139.552 320.517,140.552 321,141.5C 322.729,141.974 323.895,142.974 324.5,144.5 Z"/></g>
<g><path style="opacity:1" fill="#e3a481" d="M 266.5,119.5 C 265.167,119.5 263.833,119.5 262.5,119.5C 262.666,125.509 262.499,131.509 262,137.5C 261.292,138.381 260.458,139.047 259.5,139.5C 259.5,131.833 259.5,124.167 259.5,116.5C 262.063,117.088 264.396,118.088 266.5,119.5 Z"/></g>
<g><path style="opacity:1" fill="#78303e" d="M 284.5,126.5 C 291.74,130.711 299.407,134.377 307.5,137.5C 300.625,141.657 293.291,142.49 285.5,140C 283.323,138.503 281.99,136.503 281.5,134C 282.109,131.292 283.109,128.792 284.5,126.5 Z"/></g>
<g><path style="opacity:1" fill="#945b4b" d="M 352.5,126.5 C 350.528,135.44 349.861,144.773 350.5,154.5C 350.5,154.833 350.5,155.167 350.5,155.5C 350.167,155.5 349.833,155.5 349.5,155.5C 349.5,147.833 349.5,140.167 349.5,132.5C 349.5,130.167 349.5,127.833 349.5,125.5C 350.791,125.263 351.791,125.596 352.5,126.5 Z"/></g>
<g><path style="opacity:1" fill="#452d3a" d="M 349.5,132.5 C 349.5,140.167 349.5,147.833 349.5,155.5C 346.821,154.774 344.154,153.941 341.5,153C 335.947,150.392 330.613,147.559 325.5,144.5C 327.467,144.261 329.301,144.594 331,145.5C 331.368,144.09 332.201,143.09 333.5,142.5C 334.7,143.531 336.034,144.365 337.5,145C 336.692,145.308 336.025,145.808 335.5,146.5C 338.903,148.284 342.403,149.951 346,151.5C 346.5,151.167 347,150.833 347.5,150.5C 345.518,149.784 343.851,148.617 342.5,147C 344.46,147.147 346.127,146.147 347.5,144C 346.45,140.545 346.283,137.045 347,133.5C 347.671,132.748 348.504,132.414 349.5,132.5 Z"/></g>
<g><path style="opacity:0.765" fill="#d2d0b8" d="M 78.5,93.5 C 78.8333,93.5 79.1667,93.5 79.5,93.5C 79.0916,121.192 79.5916,148.859 81,176.5C 82.9481,183.53 85.4481,190.196 88.5,196.5C 83.7177,190.026 80.551,182.693 79,174.5C 78.5,147.502 78.3334,120.502 78.5,93.5 Z"/></g>
<g><path style="opacity:1" fill="#dbbcab" d="M 108.5,129.5 C 107.833,130.833 106.833,131.833 105.5,132.5C 103.224,134.331 101.391,136.664 100,139.5C 99.3333,142.5 99.3333,145.5 100,148.5C 101.82,150.132 102.986,152.132 103.5,154.5C 102.167,154.167 100.833,153.833 99.5,153.5C 96.2398,146.672 96.9065,140.338 101.5,134.5C 101.414,133.504 101.748,132.671 102.5,132C 103.737,131.768 104.737,131.268 105.5,130.5C 106.391,129.89 107.391,129.557 108.5,129.5 Z"/></g>
<g><path style="opacity:1" fill="#ea8b59" d="M 352.5,126.5 C 353.167,126.5 353.833,126.5 354.5,126.5C 357.167,128.167 359.833,129.833 362.5,131.5C 361.178,131.67 360.011,131.337 359,130.5C 358.5,139.827 358.334,149.161 358.5,158.5C 356.692,158.509 355.025,158.009 353.5,157C 354,156.5 354.5,156 355,155.5C 355.816,146.588 355.65,137.755 354.5,129C 353.551,128.383 352.718,128.549 352,129.5C 351.829,138.01 351.329,146.343 350.5,154.5C 349.861,144.773 350.528,135.44 352.5,126.5 Z"/></g>
<g><path style="opacity:1" fill="#fba76f" d="M 125.5,82.5 C 125.333,96.1707 125.5,109.837 126,123.5C 126.75,124.126 127.584,124.626 128.5,125C 136.827,125.5 145.16,125.666 153.5,125.5C 153.604,114.823 153.604,104.157 153.5,93.5C 175.751,103.361 198.084,113.028 220.5,122.5C 224.295,124.231 227.962,126.231 231.5,128.5C 228.557,128.353 225.724,127.687 223,126.5C 221.566,126.93 220.399,127.764 219.5,129C 220.601,131.292 219.768,132.792 217,133.5C 216.667,133.167 216.333,132.833 216,132.5C 214.077,138.921 214.077,145.254 216,151.5C 230.718,150.266 244.884,150.266 258.5,151.5C 258.06,150.047 258.726,148.881 260.5,148C 257.833,147.333 257.833,146.667 260.5,146C 259.833,145.667 259.167,145.333 258.5,145C 261.106,143.35 261.106,141.85 258.5,140.5C 259.167,140.5 259.5,140.167 259.5,139.5C 260.458,139.047 261.292,138.381 262,137.5C 262.499,131.509 262.666,125.509 262.5,119.5C 263.833,119.5 265.167,119.5 266.5,119.5C 272.5,121.834 278.5,124.167 284.5,126.5C 283.109,128.792 282.109,131.292 281.5,134C 281.99,136.503 283.323,138.503 285.5,140C 293.291,142.49 300.625,141.657 307.5,137.5C 313.276,139.645 318.943,141.979 324.5,144.5C 324.833,144.5 325.167,144.5 325.5,144.5C 330.613,147.559 335.947,150.392 341.5,153C 344.154,153.941 346.821,154.774 349.5,155.5C 349.833,155.5 350.167,155.5 350.5,155.5C 349.506,157.334 349.506,159.001 350.5,160.5C 347.844,169.028 345.51,177.695 343.5,186.5C 341.207,190.758 338.207,194.424 334.5,197.5C 330.632,199.616 327.299,202.449 324.5,206C 322.444,206.311 320.444,206.811 318.5,207.5C 317.614,208.325 317.281,209.325 317.5,210.5C 315.774,210.185 314.107,210.019 312.5,210C 311.359,210.741 311.359,211.575 312.5,212.5C 308.355,212.657 305.688,214.657 304.5,218.5C 299.597,220.1 294.931,222.1 290.5,224.5C 282.581,223.97 279.581,227.637 281.5,235.5C 281.522,238.59 282.188,241.257 283.5,243.5C 283.833,243.5 284.167,243.5 284.5,243.5C 287.833,244.167 291.167,244.833 294.5,245.5C 290.098,245.772 285.765,245.439 281.5,244.5C 280.833,238.833 280.167,233.167 279.5,227.5C 250.839,234.144 222.172,234.144 193.5,227.5C 192.609,226.89 191.609,226.557 190.5,226.5C 186.709,225.047 182.709,223.881 178.5,223C 177.944,222.617 177.611,222.117 177.5,221.5C 174.763,218.783 171.43,217.45 167.5,217.5C 162.023,215.597 157.023,212.93 152.5,209.5C 151.062,205.726 148.395,203.393 144.5,202.5C 143.748,198.567 141.581,195.567 138,193.5C 137.667,191.833 137.333,190.167 137,188.5C 135.817,189.731 134.651,189.731 133.5,188.5C 128.821,180.128 126.155,171.128 125.5,161.5C 124.167,161.5 122.833,161.5 121.5,161.5C 120.508,161.672 119.842,161.338 119.5,160.5C 120.833,160.5 122.167,160.5 123.5,160.5C 124.407,149.531 124.74,138.531 124.5,127.5C 123.5,127.5 122.5,127.5 121.5,127.5C 122.609,126.71 123.942,126.21 125.5,126C 124.17,111.402 124.17,96.9021 125.5,82.5 Z"/></g>
<g><path style="opacity:1" fill="#813330" d="M 178.5,125.5 C 175.731,126.709 173.231,128.376 171,130.5C 169.434,129.939 168.101,130.606 167,132.5C 166.333,133.5 166.333,134.5 167,135.5C 167.333,135.167 167.667,134.833 168,134.5C 169.921,136.963 172.254,138.963 175,140.5C 179.792,140.878 184.625,140.212 189.5,138.5C 188.571,139.315 187.571,140.148 186.5,141C 178.834,142.733 172,141.233 166,136.5C 166.09,128.59 170.257,124.923 178.5,125.5 Z"/></g>
<g><path style="opacity:1" fill="#fa8566" d="M 231.5,128.5 C 240.911,131.708 249.911,135.708 258.5,140.5C 261.106,141.85 261.106,143.35 258.5,145C 259.167,145.333 259.833,145.667 260.5,146C 257.833,146.667 257.833,147.333 260.5,148C 258.726,148.881 258.06,150.047 258.5,151.5C 244.884,150.266 230.718,150.266 216,151.5C 214.077,145.254 214.077,138.921 216,132.5C 216.333,132.833 216.667,133.167 217,133.5C 219.768,132.792 220.601,131.292 219.5,129C 220.399,127.764 221.566,126.93 223,126.5C 225.724,127.687 228.557,128.353 231.5,128.5 Z"/></g>
<g><path style="opacity:1" fill="#7a2f41" d="M 178.5,125.5 C 183.67,125.334 188.17,127.001 192,130.5C 193.166,133.927 192.332,136.593 189.5,138.5C 184.625,140.212 179.792,140.878 175,140.5C 172.254,138.963 169.921,136.963 168,134.5C 167.667,134.833 167.333,135.167 167,135.5C 166.333,134.5 166.333,133.5 167,132.5C 168.101,130.606 169.434,129.939 171,130.5C 173.231,128.376 175.731,126.709 178.5,125.5 Z"/></g>
<g><path style="opacity:1" fill="#c6927c" d="M 372.5,135.5 C 374.062,135.733 375.395,136.4 376.5,137.5C 377.527,141.446 377.694,145.446 377,149.5C 372.281,155.074 366.448,158.74 359.5,160.5C 365.255,158.189 370.088,154.522 374,149.5C 376.289,144.469 375.789,139.803 372.5,135.5 Z"/></g>
<g><path style="opacity:1" fill="#efa072" d="M 105.5,132.5 C 103.49,137.954 102.99,143.62 104,149.5C 105,148.167 106,146.833 107,145.5C 107.87,146.108 108.37,146.941 108.5,148C 106.8,150.231 105.8,152.731 105.5,155.5C 104.508,155.672 103.842,155.338 103.5,154.5C 102.986,152.132 101.82,150.132 100,148.5C 99.3333,145.5 99.3333,142.5 100,139.5C 101.391,136.664 103.224,134.331 105.5,132.5 Z"/></g>
<g><path style="opacity:1" fill="#f4894c" d="M 362.5,131.5 C 366.259,131.862 369.593,133.195 372.5,135.5C 375.789,139.803 376.289,144.469 374,149.5C 370.088,154.522 365.255,158.189 359.5,160.5C 358.833,160.5 358.167,160.5 357.5,160.5C 355.167,160.5 352.833,160.5 350.5,160.5C 349.506,159.001 349.506,157.334 350.5,155.5C 350.5,155.167 350.5,154.833 350.5,154.5C 351.329,146.343 351.829,138.01 352,129.5C 352.718,128.549 353.551,128.383 354.5,129C 355.65,137.755 355.816,146.588 355,155.5C 354.5,156 354,156.5 353.5,157C 355.025,158.009 356.692,158.509 358.5,158.5C 358.334,149.161 358.5,139.827 359,130.5C 360.011,131.337 361.178,131.67 362.5,131.5 Z"/></g>
<g><path style="opacity:1" fill="#f38b4e" d="M 121.5,127.5 C 122.5,127.5 123.5,127.5 124.5,127.5C 124.74,138.531 124.407,149.531 123.5,160.5C 122.167,160.5 120.833,160.5 119.5,160.5C 115.353,160.005 111.353,159.005 107.5,157.5C 107.167,157.5 106.833,157.5 106.5,157.5C 106.167,156.833 105.833,156.167 105.5,155.5C 105.8,152.731 106.8,150.231 108.5,148C 108.37,146.941 107.87,146.108 107,145.5C 106,146.833 105,148.167 104,149.5C 102.99,143.62 103.49,137.954 105.5,132.5C 106.833,131.833 107.833,130.833 108.5,129.5C 108.842,128.662 109.508,128.328 110.5,128.5C 114.119,127.756 117.785,127.423 121.5,127.5 Z"/></g>
<g><path style="opacity:1" fill="#696d8b" d="M 107.5,157.5 C 111.353,159.005 115.353,160.005 119.5,160.5C 119.842,161.338 120.508,161.672 121.5,161.5C 121.5,161.833 121.5,162.167 121.5,162.5C 119.167,162.5 116.833,162.5 114.5,162.5C 111.33,162.076 108.997,160.409 107.5,157.5 Z"/></g>
<g><path style="opacity:1" fill="#e6c4af" d="M 302.5,162.5 C 257.821,161.839 213.487,162.505 169.5,164.5C 168.596,163.791 168.263,162.791 168.5,161.5C 213.336,161.168 258.003,161.501 302.5,162.5 Z"/></g>
<g><path style="opacity:1" fill="#296db9" d="M 106.5,157.5 C 106.833,157.5 107.167,157.5 107.5,157.5C 108.997,160.409 111.33,162.076 114.5,162.5C 111.875,163.802 111.875,165.135 114.5,166.5C 116.302,165.014 118.302,164.014 120.5,163.5C 120.357,165.262 120.691,166.929 121.5,168.5C 120.302,168.94 119.135,169.273 118,169.5C 117.667,172.833 117.333,176.167 117,179.5C 115.984,180.634 115.317,180.301 115,178.5C 114.126,181.379 114.46,184.045 116,186.5C 117.742,183.784 119.575,181.117 121.5,178.5C 122.002,177.479 122.668,177.312 123.5,178C 124.554,179.388 124.72,180.888 124,182.5C 120.32,185.192 119.32,188.525 121,192.5C 122.41,190.116 124.41,188.45 127,187.5C 128.386,190.291 130.22,192.791 132.5,195C 135.401,197.3 138.401,199.467 141.5,201.5C 141.351,202.552 141.517,203.552 142,204.5C 143.609,205.147 145.109,205.98 146.5,207C 145.975,207.692 145.308,208.192 144.5,208.5C 142.5,207.5 140.5,206.5 138.5,205.5C 138.167,205.833 137.833,206.167 137.5,206.5C 139.482,207.216 141.149,208.383 142.5,210C 144.999,210.286 147.165,210.119 149,209.5C 149.354,211.807 150.354,212.141 152,210.5C 155.953,213.556 160.119,216.223 164.5,218.5C 163.5,219.333 162.5,220.167 161.5,221C 164.46,220.68 167.46,220.68 170.5,221C 170.833,221.333 171.167,221.667 171.5,222C 169.58,223.122 167.58,223.956 165.5,224.5C 146.133,217.307 129.133,206.307 114.5,191.5C 110.724,185.872 107.557,179.872 105,173.5C 104.677,168.134 104.177,162.801 103.5,157.5C 104.5,157.5 105.5,157.5 106.5,157.5 Z"/></g>
<g><path style="opacity:1" fill="#b6998c" d="M 350.5,160.5 C 352.833,160.5 355.167,160.5 357.5,160.5C 355.833,161.167 354.167,161.833 352.5,162.5C 351.275,163.152 350.608,164.319 350.5,166C 350.054,169.175 349.554,172.342 349,175.5C 347.684,179.465 345.851,183.132 343.5,186.5C 345.51,177.695 347.844,169.028 350.5,160.5 Z"/></g>
<g><path style="opacity:1" fill="#3667a7" d="M 114.5,162.5 C 116.833,162.5 119.167,162.5 121.5,162.5C 122.586,162.62 123.253,163.287 123.5,164.5C 124.103,172.798 126.603,180.465 131,187.5C 134.332,192.327 137.832,196.993 141.5,201.5C 138.401,199.467 135.401,197.3 132.5,195C 130.22,192.791 128.386,190.291 127,187.5C 124.41,188.45 122.41,190.116 121,192.5C 119.32,188.525 120.32,185.192 124,182.5C 124.72,180.888 124.554,179.388 123.5,178C 122.668,177.312 122.002,177.479 121.5,178.5C 119.575,181.117 117.742,183.784 116,186.5C 114.46,184.045 114.126,181.379 115,178.5C 115.317,180.301 115.984,180.634 117,179.5C 117.333,176.167 117.667,172.833 118,169.5C 119.135,169.273 120.302,168.94 121.5,168.5C 120.691,166.929 120.357,165.262 120.5,163.5C 118.302,164.014 116.302,165.014 114.5,166.5C 111.875,165.135 111.875,163.802 114.5,162.5 Z"/></g>
<g><path style="opacity:1" fill="#83aad4" d="M 99.5,153.5 C 100.833,153.833 102.167,154.167 103.5,154.5C 103.842,155.338 104.508,155.672 105.5,155.5C 105.833,156.167 106.167,156.833 106.5,157.5C 105.5,157.5 104.5,157.5 103.5,157.5C 104.177,162.801 104.677,168.134 105,173.5C 107.557,179.872 110.724,185.872 114.5,191.5C 113.199,192.64 112.032,193.973 111,195.5C 109.49,190.194 107.49,185.527 105,181.5C 103.266,182.638 101.432,183.138 99.5,183C 100.833,182.333 100.833,181.667 99.5,181C 103.422,178.677 103.088,178.177 98.5,179.5C 97.8333,178.5 97.1667,177.5 96.5,176.5C 95.914,176.709 95.414,177.043 95,177.5C 94.8442,174.809 94.0109,172.476 92.5,170.5C 92.1685,161.475 92.5018,152.475 93.5,143.5C 94.9703,146.707 96.1369,150.041 97,153.5C 97.7697,152.402 98.603,152.402 99.5,153.5 Z"/></g>
<g><path style="opacity:1" fill="#babd99" d="M 385.5,133.5 C 385.5,145.5 385.5,157.5 385.5,169.5C 382.173,185.365 375.006,199.365 364,211.5C 352.483,222.505 339.316,230.838 324.5,236.5C 325.984,234.926 327.651,233.593 329.5,232.5C 334.855,230.494 339.521,227.494 343.5,223.5C 353.865,219.119 362.199,212.119 368.5,202.5C 371.577,199.354 373.911,195.688 375.5,191.5C 379.438,185.873 381.938,179.54 383,172.5C 383.5,161.839 383.667,151.172 383.5,140.5C 384.167,138.167 384.833,135.833 385.5,133.5 Z"/></g>
<g><path style="opacity:1" fill="#f6f6f4" d="M 302.5,162.5 C 303.586,162.62 304.253,163.287 304.5,164.5C 303.733,168.067 302.733,171.567 301.5,175C 301.164,176.03 300.497,176.53 299.5,176.5C 257.833,176.5 216.167,176.5 174.5,176.5C 171.334,173.225 169.668,169.225 169.5,164.5C 213.487,162.505 257.821,161.839 302.5,162.5 Z"/></g>
<g><path style="opacity:1" fill="#fef8fe" d="M 186.5,169.5 C 223.481,169.538 258.981,169.538 293,169.5C 294.817,171.24 294.317,172.24 291.5,172.5C 257.197,171.179 223.197,171.179 189.5,172.5C 187.787,172.121 186.787,171.121 186.5,169.5 Z"/></g>
<g><path style="opacity:1" fill="#9e2d35" d="M 174.5,176.5 C 216.167,176.5 257.833,176.5 299.5,176.5C 297.471,181.036 294.471,184.869 290.5,188C 284.036,192.565 277.036,196.065 269.5,198.5C 266.752,197.525 264.752,195.692 263.5,193C 242.02,181.571 222.02,183.404 203.5,198.5C 191.17,194.682 181.17,187.515 173.5,177C 173.728,176.601 174.062,176.435 174.5,176.5 Z"/></g>
<g><path style="opacity:1" fill="#2a6cb5" d="M 375.5,187.5 C 373.62,189.776 372.287,189.109 371.5,185.5C 370.311,184.571 368.978,184.238 367.5,184.5C 367.5,186.833 367.5,189.167 367.5,191.5C 365.712,191.215 364.045,191.548 362.5,192.5C 360.859,195.231 358.859,196.897 356.5,197.5C 359.797,198.142 360.131,199.309 357.5,201C 356.004,201.507 354.837,201.007 354,199.5C 350.473,203.027 346.973,206.527 343.5,210C 339.664,212.084 335.997,214.417 332.5,217C 328.78,218.392 326.78,217.225 326.5,213.5C 323.972,214.011 321.472,214.678 319,215.5C 317.624,215.316 316.791,214.649 316.5,213.5C 323.394,209.278 329.394,203.945 334.5,197.5C 338.207,194.424 341.207,190.758 343.5,186.5C 345.851,183.132 347.684,179.465 349,175.5C 349.554,172.342 350.054,169.175 350.5,166C 350.608,164.319 351.275,163.152 352.5,162.5C 358.433,162.691 364.1,161.524 369.5,159C 372.547,155.74 375.88,152.74 379.5,150C 378.374,146.256 378.207,142.423 379,138.5C 379.925,139.047 380.758,139.713 381.5,140.5C 382.642,150.786 382.809,161.12 382,171.5C 381.586,171.043 381.086,170.709 380.5,170.5C 377.465,173.307 376.631,176.641 378,180.5C 377.667,180.833 377.333,181.167 377,181.5C 375.112,179.369 373.612,179.369 372.5,181.5C 374.376,183.048 375.376,185.048 375.5,187.5 Z"/></g>
<g><path style="opacity:1" fill="#53759a" d="M 376.5,137.5 C 379.188,137.166 381.521,137.832 383.5,139.5C 383.5,139.833 383.5,140.167 383.5,140.5C 383.667,151.172 383.5,161.839 383,172.5C 381.938,179.54 379.438,185.873 375.5,191.5C 375.5,190.167 375.5,188.833 375.5,187.5C 375.376,185.048 374.376,183.048 372.5,181.5C 373.612,179.369 375.112,179.369 377,181.5C 377.333,181.167 377.667,180.833 378,180.5C 376.631,176.641 377.465,173.307 380.5,170.5C 381.086,170.709 381.586,171.043 382,171.5C 382.809,161.12 382.642,150.786 381.5,140.5C 380.758,139.713 379.925,139.047 379,138.5C 378.207,142.423 378.374,146.256 379.5,150C 375.88,152.74 372.547,155.74 369.5,159C 364.1,161.524 358.433,162.691 352.5,162.5C 354.167,161.833 355.833,161.167 357.5,160.5C 358.167,160.5 358.833,160.5 359.5,160.5C 366.448,158.74 372.281,155.074 377,149.5C 377.694,145.446 377.527,141.446 376.5,137.5 Z"/></g>
<g><path style="opacity:1" fill="#c63a43" d="M 269.5,198.5 C 251.582,204.393 233.249,205.56 214.5,202C 210.573,201.276 206.906,200.109 203.5,198.5C 222.02,183.404 242.02,181.571 263.5,193C 264.752,195.692 266.752,197.525 269.5,198.5 Z"/></g>
<g><path style="opacity:1" fill="#94b4d5" d="M 92.5,170.5 C 94.0109,172.476 94.8442,174.809 95,177.5C 95.414,177.043 95.914,176.709 96.5,176.5C 97.1667,177.5 97.8333,178.5 98.5,179.5C 103.088,178.177 103.422,178.677 99.5,181C 100.833,181.667 100.833,182.333 99.5,183C 101.432,183.138 103.266,182.638 105,181.5C 107.49,185.527 109.49,190.194 111,195.5C 112.032,193.973 113.199,192.64 114.5,191.5C 114.484,193.629 115.151,195.462 116.5,197C 117.061,198.566 116.394,199.899 114.5,201C 115.333,201.833 116.167,202.667 117,203.5C 119.305,201.924 121.472,202.424 123.5,205C 121.027,206.925 121.027,208.758 123.5,210.5C 126.571,212.898 129.905,214.898 133.5,216.5C 130.904,218.1 129.57,220.433 129.5,223.5C 132.28,223.055 134.947,223.055 137.5,223.5C 137.833,223.833 138.167,224.167 138.5,224.5C 137.833,225.167 137.167,225.833 136.5,226.5C 137.612,227.265 138.279,228.265 138.5,229.5C 136.313,228.242 133.98,227.242 131.5,226.5C 125.378,221.881 119.712,216.714 114.5,211C 110.052,208.886 106.552,205.719 104,201.5C 100.961,197.055 98.2944,192.388 96,187.5C 93.9444,183.732 92.7777,179.732 92.5,175.5C 92.5,173.833 92.5,172.167 92.5,170.5 Z"/></g>
<g><path style="opacity:1" fill="#cca592" d="M 121.5,162.5 C 121.5,162.167 121.5,161.833 121.5,161.5C 122.833,161.5 124.167,161.5 125.5,161.5C 126.155,171.128 128.821,180.128 133.5,188.5C 134.651,189.731 135.817,189.731 137,188.5C 137.333,190.167 137.667,191.833 138,193.5C 141.581,195.567 143.748,198.567 144.5,202.5C 148.395,203.393 151.062,205.726 152.5,209.5C 148.833,206.833 145.167,204.167 141.5,201.5C 137.832,196.993 134.332,192.327 131,187.5C 126.603,180.465 124.103,172.798 123.5,164.5C 123.253,163.287 122.586,162.62 121.5,162.5 Z"/></g>
<g><path style="opacity:1" fill="#4279b9" d="M 375.5,187.5 C 375.5,188.833 375.5,190.167 375.5,191.5C 373.911,195.688 371.577,199.354 368.5,202.5C 365.437,204.051 362.771,206.218 360.5,209C 359.207,209.49 357.873,209.657 356.5,209.5C 356.5,208.5 356.5,207.5 356.5,206.5C 353.886,206.277 352.219,207.444 351.5,210C 352.563,211.188 353.897,211.688 355.5,211.5C 355.703,213.39 355.037,214.89 353.5,216C 349.476,218.368 345.476,220.035 341.5,221C 342.756,221.417 343.423,222.25 343.5,223.5C 339.521,227.494 334.855,230.494 329.5,232.5C 327.801,232.34 326.134,232.506 324.5,233C 320.89,234.957 317.556,237.124 314.5,239.5C 311.003,240.242 307.67,241.575 304.5,243.5C 304.414,242.504 304.748,241.671 305.5,241C 311.99,239.113 311.99,238.447 305.5,239C 302.369,241.584 299.369,242.417 296.5,241.5C 297.848,238.987 299.848,237.153 302.5,236C 301.483,234.951 301.316,233.784 302,232.5C 303,231.167 304,231.167 305,232.5C 305.36,230.579 306.194,228.912 307.5,227.5C 306.145,226.325 306.312,225.325 308,224.5C 308.196,226.286 309.029,227.619 310.5,228.5C 311.695,227.045 312.861,225.045 314,222.5C 315.779,225.276 316.779,224.943 317,221.5C 317.388,222.428 318.055,223.095 319,223.5C 321.397,221.715 323.897,220.049 326.5,218.5C 326.192,217.692 325.692,217.025 325,216.5C 322.243,218.795 319.077,219.795 315.5,219.5C 315.5,218.5 315.5,217.5 315.5,216.5C 308.652,218.048 302.319,220.882 296.5,225C 294.866,225.494 293.199,225.66 291.5,225.5C 291.36,227.124 292.027,228.29 293.5,229C 290.455,232.775 288.789,232.275 288.5,227.5C 287.5,227.5 286.5,227.5 285.5,227.5C 285.5,232.833 285.5,238.167 285.5,243.5C 285.167,243.5 284.833,243.5 284.5,243.5C 284.167,243.5 283.833,243.5 283.5,243.5C 283.5,237.833 283.5,232.167 283.5,226.5C 286.067,226.279 288.401,225.612 290.5,224.5C 294.931,222.1 299.597,220.1 304.5,218.5C 308.466,216.842 312.466,215.175 316.5,213.5C 316.791,214.649 317.624,215.316 319,215.5C 321.472,214.678 323.972,214.011 326.5,213.5C 326.78,217.225 328.78,218.392 332.5,217C 335.997,214.417 339.664,212.084 343.5,210C 346.973,206.527 350.473,203.027 354,199.5C 354.837,201.007 356.004,201.507 357.5,201C 360.131,199.309 359.797,198.142 356.5,197.5C 358.859,196.897 360.859,195.231 362.5,192.5C 364.045,191.548 365.712,191.215 367.5,191.5C 367.5,189.167 367.5,186.833 367.5,184.5C 368.978,184.238 370.311,184.571 371.5,185.5C 372.287,189.109 373.62,189.776 375.5,187.5 Z"/></g>
<g><path style="opacity:1" fill="#4d5985" d="M 385.5,169.5 C 385.125,172.397 385.625,175.063 387,177.5C 387.574,174.679 388.908,172.346 391,170.5C 391.77,169.402 392.603,169.402 393.5,170.5C 391.209,183.735 386.209,195.735 378.5,206.5C 374.676,209.824 371.009,213.324 367.5,217C 366.552,217.483 365.552,217.649 364.5,217.5C 364.5,218.5 364.5,219.5 364.5,220.5C 359.554,223.755 354.554,227.088 349.5,230.5C 348.833,230.5 348.5,230.833 348.5,231.5C 343.127,234.518 337.794,237.518 332.5,240.5C 327.353,242.105 322.353,244.105 317.5,246.5C 316.833,246.5 316.5,246.833 316.5,247.5C 316.167,247.5 315.833,247.5 315.5,247.5C 315.741,244.966 314.741,243.3 312.5,242.5C 314.964,241.433 317.297,240.1 319.5,238.5C 321.553,238.598 323.22,237.931 324.5,236.5C 339.316,230.838 352.483,222.505 364,211.5C 375.006,199.365 382.173,185.365 385.5,169.5 Z"/></g>
<g><path style="opacity:1" fill="#5980aa" d="M 368.5,202.5 C 362.199,212.119 353.865,219.119 343.5,223.5C 343.423,222.25 342.756,221.417 341.5,221C 345.476,220.035 349.476,218.368 353.5,216C 355.037,214.89 355.703,213.39 355.5,211.5C 353.897,211.688 352.563,211.188 351.5,210C 352.219,207.444 353.886,206.277 356.5,206.5C 356.5,207.5 356.5,208.5 356.5,209.5C 357.873,209.657 359.207,209.49 360.5,209C 362.771,206.218 365.437,204.051 368.5,202.5 Z"/></g>
<g><path style="opacity:1" fill="#d3d6bf" d="M 89.5,87.5 C 90.3323,114.997 90.8323,142.664 91,170.5C 91.1981,172.382 91.6981,174.048 92.5,175.5C 92.7777,179.732 93.9444,183.732 96,187.5C 98.2944,192.388 100.961,197.055 104,201.5C 106.552,205.719 110.052,208.886 114.5,211C 119.712,216.714 125.378,221.881 131.5,226.5C 110.86,215.594 97.027,198.928 90,176.5C 88.5356,149.884 88.0356,123.218 88.5,96.5C 88.5,93.8333 88.5,91.1667 88.5,88.5C 89.1667,88.5 89.5,88.1667 89.5,87.5 Z"/></g>
<g><path style="opacity:1" fill="#d9a689" d="M 334.5,197.5 C 329.394,203.945 323.394,209.278 316.5,213.5C 312.466,215.175 308.466,216.842 304.5,218.5C 305.688,214.657 308.355,212.657 312.5,212.5C 311.359,211.575 311.359,210.741 312.5,210C 314.107,210.019 315.774,210.185 317.5,210.5C 317.281,209.325 317.614,208.325 318.5,207.5C 320.444,206.811 322.444,206.311 324.5,206C 327.299,202.449 330.632,199.616 334.5,197.5 Z"/></g>
<g><path style="opacity:1" fill="#83aad5" d="M 114.5,191.5 C 129.133,206.307 146.133,217.307 165.5,224.5C 167.843,225.344 170.176,226.344 172.5,227.5C 176.801,230.806 179.467,235.14 180.5,240.5C 180.433,241.959 180.766,243.292 181.5,244.5C 181.167,244.5 180.833,244.5 180.5,244.5C 177.482,244.665 174.482,244.498 171.5,244C 160.357,239.24 149.357,234.407 138.5,229.5C 138.279,228.265 137.612,227.265 136.5,226.5C 137.167,225.833 137.833,225.167 138.5,224.5C 138.167,224.167 137.833,223.833 137.5,223.5C 134.947,223.055 132.28,223.055 129.5,223.5C 129.57,220.433 130.904,218.1 133.5,216.5C 129.905,214.898 126.571,212.898 123.5,210.5C 121.027,208.758 121.027,206.925 123.5,205C 121.472,202.424 119.305,201.924 117,203.5C 116.167,202.667 115.333,201.833 114.5,201C 116.394,199.899 117.061,198.566 116.5,197C 115.151,195.462 114.484,193.629 114.5,191.5 Z"/></g>
<g><path style="opacity:0.655" fill="#a5a596" d="M 378.5,206.5 C 371.263,216.569 362.263,224.736 351.5,231C 350.563,231.692 349.897,231.525 349.5,230.5C 354.554,227.088 359.554,223.755 364.5,220.5C 364.5,219.5 364.5,218.5 364.5,217.5C 365.552,217.649 366.552,217.483 367.5,217C 371.009,213.324 374.676,209.824 378.5,206.5 Z"/></g>
<g><path style="opacity:1" fill="#cca995" d="M 167.5,217.5 C 171.43,217.45 174.763,218.783 177.5,221.5C 173.703,221.128 170.37,219.794 167.5,217.5 Z"/></g>
<g><path style="opacity:1" fill="#3f679f" d="M 141.5,201.5 C 145.167,204.167 148.833,206.833 152.5,209.5C 157.023,212.93 162.023,215.597 167.5,217.5C 170.37,219.794 173.703,221.128 177.5,221.5C 177.611,222.117 177.944,222.617 178.5,223C 182.709,223.881 186.709,225.047 190.5,226.5C 191.452,232.075 191.786,237.741 191.5,243.5C 188.098,243.342 184.764,243.676 181.5,244.5C 180.766,243.292 180.433,241.959 180.5,240.5C 183.145,242.242 186.145,242.909 189.5,242.5C 189.5,237.5 189.5,232.5 189.5,227.5C 185.512,226.505 181.512,225.505 177.5,224.5C 175.423,224.692 173.423,225.192 171.5,226C 172.056,226.383 172.389,226.883 172.5,227.5C 170.176,226.344 167.843,225.344 165.5,224.5C 167.58,223.956 169.58,223.122 171.5,222C 171.167,221.667 170.833,221.333 170.5,221C 167.46,220.68 164.46,220.68 161.5,221C 162.5,220.167 163.5,219.333 164.5,218.5C 160.119,216.223 155.953,213.556 152,210.5C 150.354,212.141 149.354,211.807 149,209.5C 147.165,210.119 144.999,210.286 142.5,210C 141.149,208.383 139.482,207.216 137.5,206.5C 137.833,206.167 138.167,205.833 138.5,205.5C 140.5,206.5 142.5,207.5 144.5,208.5C 145.308,208.192 145.975,207.692 146.5,207C 145.109,205.98 143.609,205.147 142,204.5C 141.517,203.552 141.351,202.552 141.5,201.5 Z"/></g>
<g><path style="opacity:1" fill="#979db4" d="M 80.5,92.5 C 80.5,93.5 80.5,94.5 80.5,95.5C 81.675,95.281 82.675,95.6143 83.5,96.5C 82.9984,97.7164 82.6651,98.8831 82.5,100C 83.1667,100.333 83.8333,100.667 84.5,101C 85.0136,103.743 84.3469,106.743 82.5,110C 82.3241,111.66 82.9907,113.326 84.5,115C 83.1667,115.667 83.1667,116.333 84.5,117C 83.8333,117.333 83.1667,117.667 82.5,118C 83.8333,120 83.8333,122 82.5,124C 83.1667,125 83.8333,126 84.5,127C 84.5,129 84.5,131 84.5,133C 83.6433,133.689 82.9767,134.522 82.5,135.5C 84.9913,136.541 84.9913,137.374 82.5,138C 85.1667,138.667 85.1667,139.333 82.5,140C 85.1667,140.667 85.1667,141.333 82.5,142C 83.8333,146 83.8333,150 82.5,154C 83.1667,155 83.8333,156 84.5,157C 83.9026,158.889 83.5693,160.722 83.5,162.5C 84.3467,163.845 85.5134,164.845 87,165.5C 87.1679,142.33 87.6679,119.33 88.5,96.5C 88.0356,123.218 88.5356,149.884 90,176.5C 97.027,198.928 110.86,215.594 131.5,226.5C 134.079,229.135 137.079,231.301 140.5,233C 150.634,237.235 160.634,241.735 170.5,246.5C 168.58,247.065 166.913,248.065 165.5,249.5C 162.933,248.525 160.267,247.858 157.5,247.5C 144.373,243.603 132.373,237.603 121.5,229.5C 115.54,224.853 109.873,219.687 104.5,214C 103.099,213.59 101.766,213.09 100.5,212.5C 95.0667,208.326 91.0667,202.993 88.5,196.5C 85.4481,190.196 82.9481,183.53 81,176.5C 79.5916,148.859 79.0916,121.192 79.5,93.5C 79.5,92.8333 79.8333,92.5 80.5,92.5 Z"/></g>
<g><path style="opacity:0.784" fill="#c4c4b2" d="M 100.5,212.5 C 101.766,213.09 103.099,213.59 104.5,214C 109.873,219.687 115.54,224.853 121.5,229.5C 117.067,226.916 112.734,224.082 108.5,221C 105.551,218.224 102.884,215.391 100.5,212.5 Z"/></g>
<g><path style="opacity:1" fill="#276bb4" d="M 180.5,240.5 C 179.467,235.14 176.801,230.806 172.5,227.5C 172.389,226.883 172.056,226.383 171.5,226C 173.423,225.192 175.423,224.692 177.5,224.5C 181.512,225.505 185.512,226.505 189.5,227.5C 189.5,232.5 189.5,237.5 189.5,242.5C 186.145,242.909 183.145,242.242 180.5,240.5 Z"/></g>
<g><path style="opacity:1" fill="#296cb7" d="M 304.5,243.5 C 303.508,243.328 302.842,243.662 302.5,244.5C 296.855,243.866 291.189,243.532 285.5,243.5C 285.5,238.167 285.5,232.833 285.5,227.5C 286.5,227.5 287.5,227.5 288.5,227.5C 288.789,232.275 290.455,232.775 293.5,229C 292.027,228.29 291.36,227.124 291.5,225.5C 293.199,225.66 294.866,225.494 296.5,225C 302.319,220.882 308.652,218.048 315.5,216.5C 315.5,217.5 315.5,218.5 315.5,219.5C 319.077,219.795 322.243,218.795 325,216.5C 325.692,217.025 326.192,217.692 326.5,218.5C 323.897,220.049 321.397,221.715 319,223.5C 318.055,223.095 317.388,222.428 317,221.5C 316.779,224.943 315.779,225.276 314,222.5C 312.861,225.045 311.695,227.045 310.5,228.5C 309.029,227.619 308.196,226.286 308,224.5C 306.312,225.325 306.145,226.325 307.5,227.5C 306.194,228.912 305.36,230.579 305,232.5C 304,231.167 303,231.167 302,232.5C 301.316,233.784 301.483,234.951 302.5,236C 299.848,237.153 297.848,238.987 296.5,241.5C 299.369,242.417 302.369,241.584 305.5,239C 311.99,238.447 311.99,239.113 305.5,241C 304.748,241.671 304.414,242.504 304.5,243.5 Z"/></g>
<g><path style="opacity:1" fill="#c29380" d="M 190.5,226.5 C 191.609,226.557 192.609,226.89 193.5,227.5C 193.5,233.167 193.5,238.833 193.5,244.5C 189.865,245.114 186.198,245.448 182.5,245.5C 182.5,246.5 182.5,247.5 182.5,248.5C 180.847,248.34 179.514,247.674 178.5,246.5C 179.5,246.167 180.167,245.5 180.5,244.5C 180.833,244.5 181.167,244.5 181.5,244.5C 184.764,243.676 188.098,243.342 191.5,243.5C 191.786,237.741 191.452,232.075 190.5,226.5 Z"/></g>
<g><path style="opacity:1" fill="#f3894b" d="M 193.5,227.5 C 222.172,234.144 250.839,234.144 279.5,227.5C 280.167,233.167 280.833,238.833 281.5,244.5C 285.765,245.439 290.098,245.772 294.5,245.5C 295.506,245.938 295.506,246.604 294.5,247.5C 289.009,248.794 284.342,251.628 280.5,256C 275.061,257.987 270.061,260.82 265.5,264.5C 264.571,265.689 264.238,267.022 264.5,268.5C 262.517,268.157 261.183,268.824 260.5,270.5C 254.262,273.918 249.929,279.084 247.5,286C 247.645,286.772 247.978,287.439 248.5,288C 246.866,288.494 245.199,288.66 243.5,288.5C 243.296,290.685 242.63,292.685 241.5,294.5C 239.22,298.451 237.553,302.784 236.5,307.5C 235.818,306.757 235.151,306.091 234.5,305.5C 235.1,299.851 233.767,294.851 230.5,290.5C 225.372,281.872 219.038,274.038 211.5,267C 209.783,265.441 207.783,264.608 205.5,264.5C 205.489,262.983 204.823,261.816 203.5,261C 197.387,256.947 191.054,253.447 184.5,250.5C 183.833,249.833 183.167,249.167 182.5,248.5C 182.5,247.5 182.5,246.5 182.5,245.5C 186.198,245.448 189.865,245.114 193.5,244.5C 193.5,238.833 193.5,233.167 193.5,227.5 Z"/></g>
<g><path style="opacity:1" fill="#917a7c" d="M 290.5,224.5 C 288.401,225.612 286.067,226.279 283.5,226.5C 283.5,232.167 283.5,237.833 283.5,243.5C 282.188,241.257 281.522,238.59 281.5,235.5C 279.581,227.637 282.581,223.97 290.5,224.5 Z"/></g>
<g><path style="opacity:1" fill="#768ca1" d="M 329.5,232.5 C 327.651,233.593 325.984,234.926 324.5,236.5C 323.22,237.931 321.553,238.598 319.5,238.5C 317.784,238.629 316.117,238.962 314.5,239.5C 317.556,237.124 320.89,234.957 324.5,233C 326.134,232.506 327.801,232.34 329.5,232.5 Z"/></g>
<g><path style="opacity:1" fill="#c0c7bc" d="M 131.5,226.5 C 133.98,227.242 136.313,228.242 138.5,229.5C 149.357,234.407 160.357,239.24 171.5,244C 174.482,244.498 177.482,244.665 180.5,244.5C 180.167,245.5 179.5,246.167 178.5,246.5C 175.833,246.5 173.167,246.5 170.5,246.5C 160.634,241.735 150.634,237.235 140.5,233C 137.079,231.301 134.079,229.135 131.5,226.5 Z"/></g>
<g><path style="opacity:0.773" fill="#a8a797" d="M 348.5,231.5 C 344.115,236.03 338.782,239.03 332.5,240.5C 337.794,237.518 343.127,234.518 348.5,231.5 Z"/></g>
<g><path style="opacity:1" fill="#abab8e" d="M 319.5,238.5 C 317.297,240.1 314.964,241.433 312.5,242.5C 309.167,243.5 305.833,244.5 302.5,245.5C 302.5,245.167 302.5,244.833 302.5,244.5C 302.842,243.662 303.508,243.328 304.5,243.5C 307.67,241.575 311.003,240.242 314.5,239.5C 316.117,238.962 317.784,238.629 319.5,238.5 Z"/></g>
<g><path style="opacity:1" fill="#7f777a" d="M 284.5,243.5 C 284.833,243.5 285.167,243.5 285.5,243.5C 291.189,243.532 296.855,243.866 302.5,244.5C 302.5,244.833 302.5,245.167 302.5,245.5C 300.285,246.268 297.952,246.935 295.5,247.5C 295.167,247.5 294.833,247.5 294.5,247.5C 295.506,246.604 295.506,245.938 294.5,245.5C 291.167,244.833 287.833,244.167 284.5,243.5 Z"/></g>
<g><path style="opacity:0.388" fill="#a5a597" d="M 332.5,240.5 C 328.778,242.929 324.778,245.096 320.5,247C 319.251,247.74 318.251,247.573 317.5,246.5C 322.353,244.105 327.353,242.105 332.5,240.5 Z"/></g>
<g><path style="opacity:1" fill="#6c7698" d="M 170.5,246.5 C 173.167,246.5 175.833,246.5 178.5,246.5C 179.514,247.674 180.847,248.34 182.5,248.5C 183.167,249.167 183.833,249.833 184.5,250.5C 183.5,250.5 182.5,250.5 181.5,250.5C 181.5,252.5 181.5,254.5 181.5,256.5C 176.167,254.167 170.833,251.833 165.5,249.5C 166.913,248.065 168.58,247.065 170.5,246.5 Z"/></g>
<g><path style="opacity:0.984" fill="#b8c89b" d="M 315.5,247.5 C 315.833,247.5 316.167,247.5 316.5,247.5C 316.5,247.833 316.5,248.167 316.5,248.5C 314.586,249.185 312.586,249.685 310.5,250C 309.058,250.377 308.058,251.21 307.5,252.5C 306.167,252.5 304.833,252.5 303.5,252.5C 306.768,249.293 310.768,247.627 315.5,247.5 Z"/></g>
<g><path style="opacity:1" fill="#aec49d" d="M 303.5,252.5 C 301.308,254.67 298.642,256.004 295.5,256.5C 297.315,253.593 299.981,252.259 303.5,252.5 Z"/></g>
<g><path style="opacity:1" fill="#b2c89b" d="M 295.5,256.5 C 293.833,257.833 292.167,259.167 290.5,260.5C 289.167,260.833 287.833,261.167 286.5,261.5C 288.756,258.595 291.756,256.928 295.5,256.5 Z"/></g>
<g><path style="opacity:1" fill="#60c3ef" d="M 316.5,248.5 C 328.571,252.197 340.238,257.031 351.5,263C 363.097,270.095 372.097,279.595 378.5,291.5C 375.946,292.388 373.279,292.721 370.5,292.5C 333.337,291.502 296.004,291.168 258.5,291.5C 258.5,290.5 258.5,289.5 258.5,288.5C 259.777,286.05 261.277,283.717 263,281.5C 266.416,277.577 270.25,274.243 274.5,271.5C 274.36,273.124 275.027,274.29 276.5,275C 275.333,276.5 274.167,278 273,279.5C 272.577,278.044 271.744,277.544 270.5,278C 267.252,280.081 264.919,282.914 263.5,286.5C 264.729,287.281 266.062,287.781 267.5,288C 264.774,288.182 262.107,288.682 259.5,289.5C 295.162,290.667 330.829,290.833 366.5,290C 369.028,287.925 368.861,287.092 366,287.5C 365.724,282.821 363.224,279.321 358.5,277C 358.833,276.667 359.167,276.333 359.5,276C 356.587,276.29 353.587,276.457 350.5,276.5C 350.5,275.5 350.5,274.5 350.5,273.5C 351.822,273.67 352.989,273.337 354,272.5C 354.423,273.956 355.256,274.456 356.5,274C 354.389,271.188 351.722,270.188 348.5,271C 347.996,269.036 347.329,267.203 346.5,265.5C 344.275,266.101 342.109,266.434 340,266.5C 339.333,265.833 338.667,265.167 338,264.5C 335.923,263.622 333.59,263.622 331,264.5C 327.822,262.097 327.989,260.264 331.5,259C 329.335,257.661 327.335,256.161 325.5,254.5C 324.045,253.61 322.711,253.61 321.5,254.5C 320.201,253.91 319.368,252.91 319,251.5C 315.248,251.256 311.415,251.589 307.5,252.5C 308.058,251.21 309.058,250.377 310.5,250C 312.586,249.685 314.586,249.185 316.5,248.5 Z"/></g>
<g><path style="opacity:1" fill="#2f3863" d="M 294.5,247.5 C 294.833,247.5 295.167,247.5 295.5,247.5C 290.958,251.322 286.292,255.155 281.5,259C 280.216,259.684 279.049,259.517 278,258.5C 276.887,261.524 274.72,263.357 271.5,264C 272.337,265.011 272.67,266.178 272.5,267.5C 268.683,269.736 264.683,270.736 260.5,270.5C 261.183,268.824 262.517,268.157 264.5,268.5C 264.238,267.022 264.571,265.689 265.5,264.5C 270.061,260.82 275.061,257.987 280.5,256C 284.342,251.628 289.009,248.794 294.5,247.5 Z"/></g>
<g><path style="opacity:1" fill="#53c4fa" d="M 156.5,249.5 C 161.636,250.393 166.636,251.893 171.5,254C 175.955,256.288 180.288,258.788 184.5,261.5C 187.989,264.137 191.655,266.637 195.5,269C 197.706,271.037 199.706,273.203 201.5,275.5C 201.565,275.938 201.399,276.272 201,276.5C 199.209,274.587 197.209,272.92 195,271.5C 193.58,275.125 191.08,276.458 187.5,275.5C 190.799,273.484 190.966,271.484 188,269.5C 187.667,269.833 187.333,270.167 187,270.5C 186.506,268.866 186.34,267.199 186.5,265.5C 184.473,265.662 182.473,265.495 180.5,265C 181.973,264.29 182.64,263.124 182.5,261.5C 179.215,261.269 176.715,262.603 175,265.5C 171.807,260.97 167.807,258.303 163,257.5C 161.975,260.389 160.641,262.389 159,263.5C 158.667,262.833 158.333,262.167 158,261.5C 156.328,264.514 154.328,266.514 152,267.5C 151.026,265.122 150.359,265.456 150,268.5C 149.667,267.833 149.333,267.167 149,266.5C 147.666,268.503 146.166,270.003 144.5,271C 143.551,271.617 142.718,271.451 142,270.5C 140.333,271.833 138.667,273.167 137,274.5C 136.667,274.167 136.333,273.833 136,273.5C 135.667,274.5 135.333,275.5 135,276.5C 134.667,276.167 134.333,275.833 134,275.5C 131.516,276.886 129.183,278.553 127,280.5C 126.667,280.167 126.333,279.833 126,279.5C 125.667,281.833 125.333,284.167 125,286.5C 123.511,284.668 121.678,283.835 119.5,284C 121.196,286.982 123.863,288.316 127.5,288C 123.423,290.049 119.089,290.882 114.5,290.5C 110.416,291.055 109.749,290.055 112.5,287.5C 111.189,286.742 110.689,285.742 111,284.5C 111.979,282.68 113.479,281.513 115.5,281C 114.36,279.027 113.027,277.193 111.5,275.5C 115.375,271.461 119.708,267.961 124.5,265C 125.252,264.329 125.586,263.496 125.5,262.5C 134.95,256.281 145.284,251.948 156.5,249.5 Z"/></g>
<g><path style="opacity:1" fill="#bccaa2" d="M 157.5,247.5 C 160.267,247.858 162.933,248.525 165.5,249.5C 170.833,251.833 176.167,254.167 181.5,256.5C 192.911,262.887 203.244,270.887 212.5,280.5C 213.559,282.534 214.559,284.534 215.5,286.5C 207.976,277.48 199.31,269.647 189.5,263C 187.846,262.392 186.179,261.892 184.5,261.5C 180.288,258.788 175.955,256.288 171.5,254C 166.636,251.893 161.636,250.393 156.5,249.5C 156.833,248.833 157.167,248.167 157.5,247.5 Z"/></g>
<g><path style="opacity:1" fill="#3dbdfb" d="M 201.5,275.5 C 207.449,279.122 212.116,284.122 215.5,290.5C 181.84,291.5 148.173,291.833 114.5,291.5C 114.5,291.167 114.5,290.833 114.5,290.5C 119.089,290.882 123.423,290.049 127.5,288C 123.863,288.316 121.196,286.982 119.5,284C 121.678,283.835 123.511,284.668 125,286.5C 125.333,284.167 125.667,281.833 126,279.5C 126.333,279.833 126.667,280.167 127,280.5C 129.183,278.553 131.516,276.886 134,275.5C 134.333,275.833 134.667,276.167 135,276.5C 135.333,275.5 135.667,274.5 136,273.5C 136.333,273.833 136.667,274.167 137,274.5C 138.667,273.167 140.333,271.833 142,270.5C 142.718,271.451 143.551,271.617 144.5,271C 146.166,270.003 147.666,268.503 149,266.5C 149.333,267.167 149.667,267.833 150,268.5C 150.359,265.456 151.026,265.122 152,267.5C 154.328,266.514 156.328,264.514 158,261.5C 158.333,262.167 158.667,262.833 159,263.5C 160.641,262.389 161.975,260.389 163,257.5C 167.807,258.303 171.807,260.97 175,265.5C 176.715,262.603 179.215,261.269 182.5,261.5C 182.64,263.124 181.973,264.29 180.5,265C 182.473,265.495 184.473,265.662 186.5,265.5C 186.34,267.199 186.506,268.866 187,270.5C 187.333,270.167 187.667,269.833 188,269.5C 190.966,271.484 190.799,273.484 187.5,275.5C 191.08,276.458 193.58,275.125 195,271.5C 197.209,272.92 199.209,274.587 201,276.5C 201.399,276.272 201.565,275.938 201.5,275.5 Z"/></g>
<g><path style="opacity:1" fill="#56b9d5" d="M 290.5,260.5 C 287.008,263.429 283.675,266.595 280.5,270C 278.482,270.505 276.482,271.005 274.5,271.5C 278.208,267.79 282.208,264.457 286.5,261.5C 287.833,261.167 289.167,260.833 290.5,260.5 Z"/></g>
<g><path style="opacity:1" fill="#79cbf0" d="M 125.5,262.5 C 125.586,263.496 125.252,264.329 124.5,265C 119.708,267.961 115.375,271.461 111.5,275.5C 113.027,277.193 114.36,279.027 115.5,281C 113.479,281.513 111.979,282.68 111,284.5C 110.689,285.742 111.189,286.742 112.5,287.5C 109.749,290.055 110.416,291.055 114.5,290.5C 114.5,290.833 114.5,291.167 114.5,291.5C 108.045,292.433 101.711,292.767 95.5,292.5C 101.774,278.893 111.774,268.893 125.5,262.5 Z"/></g>
<g><path style="opacity:1" fill="#42befb" d="M 274.5,271.5 C 276.482,271.005 278.482,270.505 280.5,270C 283.675,266.595 287.008,263.429 290.5,260.5C 292.167,259.167 293.833,257.833 295.5,256.5C 298.642,256.004 301.308,254.67 303.5,252.5C 304.833,252.5 306.167,252.5 307.5,252.5C 311.415,251.589 315.248,251.256 319,251.5C 319.368,252.91 320.201,253.91 321.5,254.5C 322.711,253.61 324.045,253.61 325.5,254.5C 327.335,256.161 329.335,257.661 331.5,259C 327.989,260.264 327.822,262.097 331,264.5C 333.59,263.622 335.923,263.622 338,264.5C 338.667,265.167 339.333,265.833 340,266.5C 342.109,266.434 344.275,266.101 346.5,265.5C 347.329,267.203 347.996,269.036 348.5,271C 351.722,270.188 354.389,271.188 356.5,274C 355.256,274.456 354.423,273.956 354,272.5C 352.989,273.337 351.822,273.67 350.5,273.5C 350.5,274.5 350.5,275.5 350.5,276.5C 353.587,276.457 356.587,276.29 359.5,276C 359.167,276.333 358.833,276.667 358.5,277C 363.224,279.321 365.724,282.821 366,287.5C 368.861,287.092 369.028,287.925 366.5,290C 330.829,290.833 295.162,290.667 259.5,289.5C 262.107,288.682 264.774,288.182 267.5,288C 266.062,287.781 264.729,287.281 263.5,286.5C 264.919,282.914 267.252,280.081 270.5,278C 271.744,277.544 272.577,278.044 273,279.5C 274.167,278 275.333,276.5 276.5,275C 275.027,274.29 274.36,273.124 274.5,271.5 Z"/></g>
<g><path style="opacity:1" fill="#27386b" d="M 205.5,264.5 C 207.783,264.608 209.783,265.441 211.5,267C 219.038,274.038 225.372,281.872 230.5,290.5C 231.323,294.949 232.323,299.282 233.5,303.5C 194.996,303.832 156.663,303.499 118.5,302.5C 153.833,302.5 189.167,302.5 224.5,302.5C 224.5,301.167 224.5,299.833 224.5,298.5C 226.144,298.286 227.644,298.62 229,299.5C 229.5,299 230,298.5 230.5,298C 229.224,294.5 227.391,291.333 225,288.5C 224.834,292.511 224,293.011 222.5,290C 222.057,288.482 222.724,287.315 224.5,286.5C 222.098,280.069 218.098,275.902 212.5,274C 212.833,273.667 213.167,273.333 213.5,273C 211.31,270.976 208.977,269.143 206.5,267.5C 205.873,266.583 205.539,265.583 205.5,264.5 Z"/></g>
<g><path style="opacity:1" fill="#7bb7b0" d="M 184.5,261.5 C 186.179,261.892 187.846,262.392 189.5,263C 199.31,269.647 207.976,277.48 215.5,286.5C 215.751,288.17 216.418,289.67 217.5,291C 217.167,291.333 216.833,291.667 216.5,292C 183.168,292.5 149.835,292.667 116.5,292.5C 115.508,292.672 114.842,292.338 114.5,291.5C 148.173,291.833 181.84,291.5 215.5,290.5C 212.116,284.122 207.449,279.122 201.5,275.5C 199.706,273.203 197.706,271.037 195.5,269C 191.655,266.637 187.989,264.137 184.5,261.5 Z"/></g>
<g><path style="opacity:1" fill="#81b6aa" d="M 258.5,288.5 C 258.5,289.5 258.5,290.5 258.5,291.5C 296.004,291.168 333.337,291.502 370.5,292.5C 332.832,292.667 295.165,292.5 257.5,292C 256.713,290.687 257.046,289.52 258.5,288.5 Z"/></g>
<g><path style="opacity:1" fill="#b4ae7a" d="M 215.5,286.5 C 219.458,287.881 220.124,290.048 217.5,293C 183.835,293.5 150.168,293.667 116.5,293.5C 116.5,293.167 116.5,292.833 116.5,292.5C 149.835,292.667 183.168,292.5 216.5,292C 216.833,291.667 217.167,291.333 217.5,291C 216.418,289.67 215.751,288.17 215.5,286.5 Z"/></g>
<g><path style="opacity:1" fill="#b6b683" d="M 286.5,261.5 C 282.208,264.457 278.208,267.79 274.5,271.5C 270.25,274.243 266.416,277.577 263,281.5C 261.277,283.717 259.777,286.05 258.5,288.5C 257.046,289.52 256.713,290.687 257.5,292C 295.165,292.5 332.832,292.667 370.5,292.5C 373.279,292.721 375.946,292.388 378.5,291.5C 378.833,292.167 379.167,292.833 379.5,293.5C 374.167,293.5 368.833,293.5 363.5,293.5C 327.498,293.667 291.498,293.5 255.5,293C 254.692,292.692 254.025,292.192 253.5,291.5C 261.959,278.708 272.959,268.708 286.5,261.5 Z"/></g>
<g><path style="opacity:1" fill="#142b67" d="M 312.5,242.5 C 314.741,243.3 315.741,244.966 315.5,247.5C 310.768,247.627 306.768,249.293 303.5,252.5C 299.981,252.259 297.315,253.593 295.5,256.5C 291.756,256.928 288.756,258.595 286.5,261.5C 272.959,268.708 261.959,278.708 253.5,291.5C 254.025,292.192 254.692,292.692 255.5,293C 291.498,293.5 327.498,293.667 363.5,293.5C 362.883,295.229 361.883,296.729 360.5,298C 361.167,298.667 361.833,299.333 362.5,300C 362.413,301.75 361.746,303.583 360.5,305.5C 358.217,305.392 356.217,304.559 354.5,303C 316.168,302.5 277.835,302.333 239.5,302.5C 240.639,299.996 241.306,297.33 241.5,294.5C 242.63,292.685 243.296,290.685 243.5,288.5C 245.199,288.66 246.866,288.494 248.5,288C 247.978,287.439 247.645,286.772 247.5,286C 249.929,279.084 254.262,273.918 260.5,270.5C 264.683,270.736 268.683,269.736 272.5,267.5C 272.67,266.178 272.337,265.011 271.5,264C 274.72,263.357 276.887,261.524 278,258.5C 279.049,259.517 280.216,259.684 281.5,259C 286.292,255.155 290.958,251.322 295.5,247.5C 297.952,246.935 300.285,246.268 302.5,245.5C 305.833,244.5 309.167,243.5 312.5,242.5 Z"/></g>
<g><path style="opacity:1" fill="#31467c" d="M 363.5,293.5 C 368.833,293.5 374.167,293.5 379.5,293.5C 380.095,297.615 381.095,301.615 382.5,305.5C 382.666,312.508 382.5,319.508 382,326.5C 378.631,322.963 375.131,319.629 371.5,316.5C 370.5,314.833 369.167,313.5 367.5,312.5C 365.781,309.781 363.447,307.781 360.5,306.5C 360.5,306.167 360.5,305.833 360.5,305.5C 361.746,303.583 362.413,301.75 362.5,300C 361.833,299.333 361.167,298.667 360.5,298C 361.883,296.729 362.883,295.229 363.5,293.5 Z"/></g>
<g><path style="opacity:1" fill="#122b68" d="M 184.5,250.5 C 191.054,253.447 197.387,256.947 203.5,261C 204.823,261.816 205.489,262.983 205.5,264.5C 205.539,265.583 205.873,266.583 206.5,267.5C 208.977,269.143 211.31,270.976 213.5,273C 213.167,273.333 212.833,273.667 212.5,274C 218.098,275.902 222.098,280.069 224.5,286.5C 222.724,287.315 222.057,288.482 222.5,290C 224,293.011 224.834,292.511 225,288.5C 227.391,291.333 229.224,294.5 230.5,298C 230,298.5 229.5,299 229,299.5C 227.644,298.62 226.144,298.286 224.5,298.5C 224.5,299.833 224.5,301.167 224.5,302.5C 189.167,302.5 153.833,302.5 118.5,302.5C 118.678,301.305 119.011,300.138 119.5,299C 118.368,297.235 117.368,295.402 116.5,293.5C 150.168,293.667 183.835,293.5 217.5,293C 220.124,290.048 219.458,287.881 215.5,286.5C 214.559,284.534 213.559,282.534 212.5,280.5C 203.244,270.887 192.911,262.887 181.5,256.5C 181.5,254.5 181.5,252.5 181.5,250.5C 182.5,250.5 183.5,250.5 184.5,250.5 Z"/></g>
<g><path style="opacity:0.655" fill="#c7c4ab" d="M 114.5,291.5 C 114.842,292.338 115.508,292.672 116.5,292.5C 116.5,292.833 116.5,293.167 116.5,293.5C 109.313,293.175 102.313,293.509 95.5,294.5C 94.596,295.209 94.2627,296.209 94.5,297.5C 92.9044,299.887 91.7378,302.553 91,305.5C 90.5003,312.826 90.3337,320.159 90.5,327.5C 90.1667,327.5 89.8333,327.5 89.5,327.5C 89.3336,319.493 89.5003,311.493 90,303.5C 90.8092,299.187 92.6426,295.52 95.5,292.5C 101.711,292.767 108.045,292.433 114.5,291.5 Z"/></g>
<g><path style="opacity:1" fill="#4a5f8d" d="M 230.5,290.5 C 233.767,294.851 235.1,299.851 234.5,305.5C 232.827,306.343 231.66,307.676 231,309.5C 228.618,306.138 225.951,305.805 223,308.5C 222.667,307.833 222.333,307.167 222,306.5C 186.985,306.618 151.318,306.618 115,306.5C 107.867,303.535 101.367,299.535 95.5,294.5C 102.313,293.509 109.313,293.175 116.5,293.5C 117.368,295.402 118.368,297.235 119.5,299C 119.011,300.138 118.678,301.305 118.5,302.5C 156.663,303.499 194.996,303.832 233.5,303.5C 232.323,299.282 231.323,294.949 230.5,290.5 Z"/></g>
<g><path style="opacity:1" fill="#3d5586" d="M 239.5,302.5 C 277.835,302.333 316.168,302.5 354.5,303C 356.217,304.559 358.217,305.392 360.5,305.5C 360.5,305.833 360.5,306.167 360.5,306.5C 354.799,306.277 348.966,305.611 343,304.5C 309.37,305.424 276.037,305.757 243,305.5C 241.855,304.364 240.688,303.364 239.5,302.5 Z"/></g>
<g><path style="opacity:0.655" fill="#b9b59e" d="M 379.5,293.5 C 382.066,296.645 383.566,300.312 384,304.5C 384.5,312.159 384.666,319.826 384.5,327.5C 384.167,327.5 383.833,327.5 383.5,327.5C 383.825,319.981 383.492,312.648 382.5,305.5C 381.095,301.615 380.095,297.615 379.5,293.5 Z"/></g>
<g><path style="opacity:1" fill="#5d7099" d="M 95.5,294.5 C 101.367,299.535 107.867,303.535 115,306.5C 151.318,306.618 186.985,306.618 222,306.5C 222.333,307.167 222.667,307.833 223,308.5C 225.951,305.805 228.618,306.138 231,309.5C 231.66,307.676 232.827,306.343 234.5,305.5C 235.151,306.091 235.818,306.757 236.5,307.5C 237.553,302.784 239.22,298.451 241.5,294.5C 241.306,297.33 240.639,299.996 239.5,302.5C 240.688,303.364 241.855,304.364 243,305.5C 276.037,305.757 309.37,305.424 343,304.5C 348.966,305.611 354.799,306.277 360.5,306.5C 363.447,307.781 365.781,309.781 367.5,312.5C 362.591,315.16 357.258,316.827 351.5,317.5C 349.665,316.808 347.832,317.142 346,318.5C 344.667,318.5 343.333,318.5 342,318.5C 341,317.833 340,317.167 339,316.5C 336.816,315.892 334.816,316.559 333,318.5C 330.563,318.132 327.897,317.466 325,316.5C 307.021,316.563 288.854,316.563 270.5,316.5C 265.013,318.294 259.347,318.294 253.5,316.5C 251.945,316.722 250.611,317.389 249.5,318.5C 248.481,317.313 247.314,316.313 246,315.5C 245.667,316.167 245.333,316.833 245,317.5C 243.028,315.558 240.861,315.224 238.5,316.5C 236.568,315.855 235.401,314.521 235,312.5C 234.333,316.5 233.667,316.5 233,312.5C 232.626,313.416 232.126,314.25 231.5,315C 229.355,316.954 227.188,318.121 225,318.5C 223.13,317.257 220.964,316.59 218.5,316.5C 214.562,317.158 211.062,317.158 208,316.5C 205.923,317.017 203.923,317.684 202,318.5C 201.333,317.833 200.667,317.167 200,316.5C 181.569,316.596 162.569,316.596 143,316.5C 140.729,318.434 138.729,318.434 137,316.5C 129.764,316.246 122.431,316.579 115,317.5C 112.333,316.167 109.667,314.833 107,313.5C 106.837,311.613 107.671,310.113 109.5,309C 106.386,307.017 103.053,305.517 99.5,304.5C 97.5654,303.19 95.5654,301.857 93.5,300.5C 95.1173,300.331 96.784,299.997 98.5,299.5C 97.4231,298.295 96.0898,297.628 94.5,297.5C 94.2627,296.209 94.596,295.209 95.5,294.5 Z"/></g>
<g><path style="opacity:1" fill="#6779a0" d="M 99.5,304.5 C 103.053,305.517 106.386,307.017 109.5,309C 107.671,310.113 106.837,311.613 107,313.5C 109.667,314.833 112.333,316.167 115,317.5C 122.431,316.579 129.764,316.246 137,316.5C 138.729,318.434 140.729,318.434 143,316.5C 162.569,316.596 181.569,316.596 200,316.5C 200.667,317.167 201.333,317.833 202,318.5C 203.923,317.684 205.923,317.017 208,316.5C 211.062,317.158 214.562,317.158 218.5,316.5C 220.964,316.59 223.13,317.257 225,318.5C 227.188,318.121 229.355,316.954 231.5,315C 232.126,314.25 232.626,313.416 233,312.5C 233.667,316.5 234.333,316.5 235,312.5C 235.401,314.521 236.568,315.855 238.5,316.5C 240.861,315.224 243.028,315.558 245,317.5C 245.333,316.833 245.667,316.167 246,315.5C 247.314,316.313 248.481,317.313 249.5,318.5C 250.611,317.389 251.945,316.722 253.5,316.5C 259.347,318.294 265.013,318.294 270.5,316.5C 288.854,316.563 307.021,316.563 325,316.5C 327.897,317.466 330.563,318.132 333,318.5C 334.816,316.559 336.816,315.892 339,316.5C 340,317.167 341,317.833 342,318.5C 343.333,318.5 344.667,318.5 346,318.5C 347.832,317.142 349.665,316.808 351.5,317.5C 357.258,316.827 362.591,315.16 367.5,312.5C 369.167,313.5 370.5,314.833 371.5,316.5C 369.434,317.877 366.934,319.544 364,321.5C 363.667,321.167 363.333,320.833 363,320.5C 361.333,321.167 359.667,321.833 358,322.5C 356.602,321.949 355.268,321.616 354,321.5C 349.333,322.167 344.667,322.833 340,323.5C 338,322.833 336,322.167 334,321.5C 311.995,322.696 288.995,322.696 265,321.5C 262.101,321.977 259.434,322.977 257,324.5C 255.846,323.257 254.512,322.257 253,321.5C 251.111,322.089 249.111,322.423 247,322.5C 246.667,321.833 246.333,321.167 246,320.5C 244.143,324.38 242.81,324.046 242,319.5C 241.333,321.5 240,322.833 238,323.5C 236.333,322.5 234.667,321.5 233,320.5C 232.333,321.833 231.667,321.833 231,320.5C 230.667,321.167 230.333,321.833 230,322.5C 229,322.167 228,321.833 227,321.5C 219.461,323.375 211.794,323.375 204,321.5C 183.36,322.781 162.027,322.781 140,321.5C 137.667,322.167 135.333,322.833 133,323.5C 132.333,322.833 131.667,322.167 131,321.5C 122.876,323.226 114.376,322.393 105.5,319C 102.314,316.12 102.647,313.12 106.5,310C 102.768,309.753 100.435,307.919 99.5,304.5 Z"/></g>
<g><path style="opacity:1" fill="#7281a6" d="M 94.5,297.5 C 96.0898,297.628 97.4231,298.295 98.5,299.5C 96.784,299.997 95.1173,300.331 93.5,300.5C 95.5654,301.857 97.5654,303.19 99.5,304.5C 100.435,307.919 102.768,309.753 106.5,310C 102.647,313.12 102.314,316.12 105.5,319C 114.376,322.393 122.876,323.226 131,321.5C 131.667,322.167 132.333,322.833 133,323.5C 135.333,322.833 137.667,322.167 140,321.5C 162.027,322.781 183.36,322.781 204,321.5C 211.794,323.375 219.461,323.375 227,321.5C 228,321.833 229,322.167 230,322.5C 230.333,321.833 230.667,321.167 231,320.5C 231.667,321.833 232.333,321.833 233,320.5C 234.667,321.5 236.333,322.5 238,323.5C 240,322.833 241.333,321.5 242,319.5C 242.81,324.046 244.143,324.38 246,320.5C 246.333,321.167 246.667,321.833 247,322.5C 249.111,322.423 251.111,322.089 253,321.5C 254.512,322.257 255.846,323.257 257,324.5C 259.434,322.977 262.101,321.977 265,321.5C 288.995,322.696 311.995,322.696 334,321.5C 336,322.167 338,322.833 340,323.5C 344.667,322.833 349.333,322.167 354,321.5C 355.268,321.616 356.602,321.949 358,322.5C 359.667,321.833 361.333,321.167 363,320.5C 363.333,320.833 363.667,321.167 364,321.5C 366.934,319.544 369.434,317.877 371.5,316.5C 375.131,319.629 378.631,322.963 382,326.5C 382.5,319.508 382.666,312.508 382.5,305.5C 383.492,312.648 383.825,319.981 383.5,327.5C 285.833,327.5 188.167,327.5 90.5,327.5C 90.3337,320.159 90.5003,312.826 91,305.5C 91.7378,302.553 92.9044,299.887 94.5,297.5 Z"/></g>
</svg>
