<?xml version="1.0" encoding="UTF-8"?>
<!DOCTYPE svg PUBLIC "-//W3C//DTD SVG 1.1//EN" "http://www.w3.org/Graphics/SVG/1.1/DTD/svg11.dtd">
<svg xmlns="http://www.w3.org/2000/svg" version="1.1" width="462px" height="329px" style="shape-rendering:geometricPrecision; text-rendering:geometricPrecision; image-rendering:optimizeQuality; fill-rule:evenodd; clip-rule:evenodd" xmlns:xlink="http://www.w3.org/1999/xlink">
<g><path style="opacity:0.612" fill="#ffbdbb" d="M 109.5,26.5 C 111.121,29.8279 113.787,32.8279 117.5,35.5C 115.167,36.1667 112.833,36.8333 110.5,37.5C 106.504,39.1641 102.504,40.8307 98.5,42.5C 99.1481,40.9142 99.6481,39.2475 100,37.5C 100.333,38.1667 100.667,38.8333 101,39.5C 103.314,37.6313 103.647,35.6313 102,33.5C 101.444,35.5951 100.944,35.7618 100.5,34C 101.627,32.9433 102.127,31.7766 102,30.5C 99.1217,31.6886 96.2883,33.0219 93.5,34.5C 92.8933,34.3764 92.56,34.0431 92.5,33.5C 98.0482,30.893 103.715,28.5597 109.5,26.5 Z"/></g>
<g><path style="opacity:0.592" fill="#ffa9a7" d="M 98.5,42.5 C 97.8333,42.5 97.5,42.8333 97.5,43.5C 96.8826,43.3893 96.3826,43.056 96,42.5C 92.8949,45.2935 89.7283,47.9602 86.5,50.5C 85.8333,50.5 85.1667,50.5 84.5,50.5C 80.4573,48.9919 78.4573,46.3252 78.5,42.5C 82.7904,39.015 87.457,36.015 92.5,33.5C 92.56,34.0431 92.8933,34.3764 93.5,34.5C 96.2883,33.0219 99.1217,31.6886 102,30.5C 102.127,31.7766 101.627,32.9433 100.5,34C 100.944,35.7618 101.444,35.5951 102,33.5C 103.647,35.6313 103.314,37.6313 101,39.5C 100.667,38.8333 100.333,38.1667 100,37.5C 99.6481,39.2475 99.1481,40.9142 98.5,42.5 Z"/></g>
<g><path style="opacity:1" fill="#ffe9e8" d="M 211.5,51.5 C 210.778,51.9175 210.278,52.5842 210,53.5C 205.808,50.6321 200.975,47.9654 195.5,45.5C 194.914,45.7093 194.414,46.0426 194,46.5C 191.235,44.7991 188.235,43.4658 185,42.5C 183.732,42.6158 182.398,42.9491 181,43.5C 179.981,42.3128 178.814,41.3128 177.5,40.5C 175.398,40.4793 173.232,40.8126 171,41.5C 170.311,40.6433 169.478,39.9767 168.5,39.5C 166.22,38.689 163.72,38.689 161,39.5C 160.333,36.8333 159.667,36.8333 159,39.5C 156.275,37.2423 153.275,36.9089 150,38.5C 149.309,36.1088 148.309,36.1088 147,38.5C 145.667,35.8333 144.333,35.8333 143,38.5C 135.617,37.7539 128.45,37.4206 121.5,37.5C 119.622,38.6422 117.788,39.6422 116,40.5C 114.921,38.6063 113.587,38.273 112,39.5C 111.283,38.9558 110.783,38.2891 110.5,37.5C 112.833,36.8333 115.167,36.1667 117.5,35.5C 142.998,28.9927 167.998,30.4927 192.5,40C 199.02,42.9126 205.353,46.7459 211.5,51.5 Z"/></g>
<g><path style="opacity:0.999" fill="#ffd4d3" d="M 376.5,30.5 C 376.297,32.3904 376.963,33.8904 378.5,35C 378.167,35.3333 377.833,35.6667 377.5,36C 378.701,36.9025 379.535,38.0692 380,39.5C 381.16,37.203 382.16,37.5363 383,40.5C 383.333,39.8333 383.667,39.1667 384,38.5C 384.615,40.1161 385.615,41.4495 387,42.5C 387.614,44.3134 387.281,44.6467 386,43.5C 385.5,44.5 385,45.5 384.5,46.5C 387.219,48.2193 389.219,50.5526 390.5,53.5C 388.309,54.6706 386.142,54.3373 384,52.5C 382.176,53.2383 380.176,53.5716 378,53.5C 377,52.8333 376,52.1667 375,51.5C 372.408,51.601 369.741,51.9343 367,52.5C 365.333,51.5 363.667,50.5 362,49.5C 360.333,49.8333 358.667,50.1667 357,50.5C 356.196,49.1955 355.029,48.5288 353.5,48.5C 350.85,47.8609 348.016,47.8609 345,48.5C 343.011,46.6161 341.011,46.2828 339,47.5C 338.667,46.8333 338.333,46.1667 338,45.5C 335.667,45.8333 333.333,46.1667 331,46.5C 330.333,43.8333 329.667,43.8333 329,46.5C 328.333,43.8333 327.667,43.8333 327,46.5C 325,45.1667 323,45.1667 321,46.5C 320.667,45.8333 320.333,45.1667 320,44.5C 316.94,45.5683 313.607,45.5683 310,44.5C 309.667,45.1667 309.333,45.8333 309,46.5C 305.536,46.628 302.203,46.2946 299,45.5C 297.667,46.1667 296.333,46.8333 295,47.5C 292.333,47.5 289.667,47.5 287,47.5C 286.683,49.3008 286.016,49.6341 285,48.5C 274.4,53.7196 264.067,60.053 254,67.5C 252.984,66.3659 252.317,66.6992 252,68.5C 251.667,68.1667 251.333,67.8333 251,67.5C 249.863,68.364 248.53,69.364 247,70.5C 246.626,69.5838 246.126,68.7504 245.5,68C 259.236,52.6199 275.902,41.4532 295.5,34.5C 293.199,34.1644 291.032,32.8311 289,30.5C 288.818,28.6698 289.318,27.0031 290.5,25.5C 319.727,17.6257 348.394,19.2924 376.5,30.5 Z"/></g>
<g><path style="opacity:0.999" fill="#ffdfde" d="M 211.5,51.5 C 213.865,53.8603 216.532,55.8603 219.5,57.5C 221.354,59.4652 223.021,61.4652 224.5,63.5C 222.978,63.7898 221.478,63.7898 220,63.5C 218.738,61.6972 217.071,60.3639 215,59.5C 213.984,60.6341 213.317,60.3008 213,58.5C 211.984,59.6341 211.317,59.3008 211,57.5C 209.984,58.6341 209.317,58.3008 209,56.5C 208,56.5 207,56.5 206,56.5C 205.085,55.6721 204.419,54.6721 204,53.5C 203.667,54.1667 203.333,54.8333 203,55.5C 201.345,55.1976 200.012,53.8642 199,51.5C 197.667,51.5 196.333,51.5 195,51.5C 194.676,49.4311 193.842,49.0977 192.5,50.5C 191.808,49.9747 191.308,49.3081 191,48.5C 189.221,49.4791 187.555,49.1458 186,47.5C 185.667,47.8333 185.333,48.1667 185,48.5C 182.566,46.9767 179.899,45.9767 177,45.5C 175.984,46.6341 175.317,46.3008 175,44.5C 173.667,47.1667 172.333,47.1667 171,44.5C 166.104,44.0399 161.104,44.0399 156,44.5C 155.333,43.8333 154.667,43.1667 154,42.5C 146.667,43.8333 139.333,43.8333 132,42.5C 131.333,45.1667 130.667,45.1667 130,42.5C 129.333,45.1667 128.667,45.1667 128,42.5C 125.667,43.1667 123.333,43.8333 121,44.5C 119.853,43.5419 118.853,43.8753 118,45.5C 116.691,43.1088 115.691,43.1088 115,45.5C 112.215,44.799 109.548,44.4657 107,44.5C 105.667,45.1667 104.333,45.8333 103,46.5C 100.667,45.1667 98.3333,45.1667 96,46.5C 95.7613,45.212 96.2613,44.212 97.5,43.5C 97.5,42.8333 97.8333,42.5 98.5,42.5C 102.504,40.8307 106.504,39.1641 110.5,37.5C 110.783,38.2891 111.283,38.9558 112,39.5C 113.587,38.273 114.921,38.6063 116,40.5C 117.788,39.6422 119.622,38.6422 121.5,37.5C 128.45,37.4206 135.617,37.7539 143,38.5C 144.333,35.8333 145.667,35.8333 147,38.5C 148.309,36.1088 149.309,36.1088 150,38.5C 153.275,36.9089 156.275,37.2423 159,39.5C 159.667,36.8333 160.333,36.8333 161,39.5C 163.72,38.689 166.22,38.689 168.5,39.5C 169.478,39.9767 170.311,40.6433 171,41.5C 173.232,40.8126 175.398,40.4793 177.5,40.5C 178.814,41.3128 179.981,42.3128 181,43.5C 182.398,42.9491 183.732,42.6158 185,42.5C 188.235,43.4658 191.235,44.7991 194,46.5C 194.414,46.0426 194.914,45.7093 195.5,45.5C 200.975,47.9654 205.808,50.6321 210,53.5C 210.278,52.5842 210.778,51.9175 211.5,51.5 Z"/></g>
<g><path style="opacity:0.643" fill="#ffd5d4" d="M 234.5,57.5 C 235.028,58.8474 235.195,60.1807 235,61.5C 234,60.1667 233,60.1667 232,61.5C 231.333,58.8333 230.667,58.8333 230,61.5C 229.667,60.8333 229.333,60.1667 229,59.5C 227.284,60.0111 225.784,61.3444 224.5,63.5C 223.021,61.4652 221.354,59.4652 219.5,57.5C 216.532,55.8603 213.865,53.8603 211.5,51.5C 205.353,46.7459 199.02,42.9126 192.5,40C 167.998,30.4927 142.998,28.9927 117.5,35.5C 113.787,32.8279 111.121,29.8279 109.5,26.5C 152.109,13.324 190.776,20.4906 225.5,48C 228.704,51.0359 231.704,54.2026 234.5,57.5 Z"/></g>
<g><path style="opacity:1" fill="#ffd5d4" d="M 97.5,43.5 C 96.2613,44.212 95.7613,45.212 96,46.5C 98.3333,45.1667 100.667,45.1667 103,46.5C 104.333,45.8333 105.667,45.1667 107,44.5C 109.548,44.4657 112.215,44.799 115,45.5C 115.691,43.1088 116.691,43.1088 118,45.5C 118.853,43.8753 119.853,43.5419 121,44.5C 123.333,43.8333 125.667,43.1667 128,42.5C 128.667,45.1667 129.333,45.1667 130,42.5C 130.667,45.1667 131.333,45.1667 132,42.5C 139.333,43.8333 146.667,43.8333 154,42.5C 154.667,43.1667 155.333,43.8333 156,44.5C 161.104,44.0399 166.104,44.0399 171,44.5C 172.333,47.1667 173.667,47.1667 175,44.5C 175.317,46.3008 175.984,46.6341 177,45.5C 179.899,45.9767 182.566,46.9767 185,48.5C 185.333,48.1667 185.667,47.8333 186,47.5C 187.555,49.1458 189.221,49.4791 191,48.5C 191.308,49.3081 191.808,49.9747 192.5,50.5C 193.842,49.0977 194.676,49.4311 195,51.5C 196.333,51.5 197.667,51.5 199,51.5C 200.012,53.8642 201.345,55.1976 203,55.5C 203.333,54.8333 203.667,54.1667 204,53.5C 204.419,54.6721 205.085,55.6721 206,56.5C 207,56.5 208,56.5 209,56.5C 209.317,58.3008 209.984,58.6341 211,57.5C 211.317,59.3008 211.984,59.6341 213,58.5C 213.317,60.3008 213.984,60.6341 215,59.5C 217.071,60.3639 218.738,61.6972 220,63.5C 221.478,63.7898 222.978,63.7898 224.5,63.5C 225.933,64.8333 227.267,66.3333 228.5,68C 226.433,68.5356 224.599,68.0356 223,66.5C 221.853,67.4581 220.853,67.1247 220,65.5C 218.667,65.5 217.333,65.5 216,65.5C 207.238,59.9339 197.572,55.2672 187,51.5C 185.984,52.6341 185.317,52.3008 185,50.5C 184.667,50.8333 184.333,51.1667 184,51.5C 180.613,50.0948 177.28,49.0948 174,48.5C 172.984,49.6341 172.317,49.3008 172,47.5C 164.872,46.5831 158.539,46.5831 153,47.5C 150.333,46.8333 147.667,46.1667 145,45.5C 139.532,46.1883 134.032,46.855 128.5,47.5C 127.284,46.9984 126.117,46.6651 125,46.5C 122.333,47.1667 119.667,47.8333 117,48.5C 114.385,48.2356 111.385,47.9023 108,47.5C 107.667,48.1667 107.333,48.8333 107,49.5C 102.996,49.3105 98.6623,49.3105 94,49.5C 93.3333,52.1667 92.6667,52.1667 92,49.5C 91.3333,50.1667 90.6667,50.8333 90,51.5C 88.7913,51.3474 87.6246,51.0141 86.5,50.5C 89.7283,47.9602 92.8949,45.2935 96,42.5C 96.3826,43.056 96.8826,43.3893 97.5,43.5 Z"/></g>
<g><path style="opacity:0.579" fill="#ff8f8e" d="M 78.5,42.5 C 78.4573,46.3252 80.4573,48.9919 84.5,50.5C 84.6068,52.3786 84.1068,52.7119 83,51.5C 82.3029,53.9228 80.8029,55.5895 78.5,56.5C 77.9348,58.42 76.9348,60.0867 75.5,61.5C 72.9317,57.7328 70.265,54.7328 67.5,52.5C 70.5425,48.4564 74.2092,45.1231 78.5,42.5 Z"/></g>
<g><path style="opacity:1" fill="#ffbcbc" d="M 389.5,37.5 C 394.765,40.4347 399.432,44.1014 403.5,48.5C 402.761,48.369 402.094,48.5357 401.5,49C 405.236,51.5776 405.736,54.4109 403,57.5C 402.333,54.8333 401.667,54.8333 401,57.5C 400.016,55.2053 399.183,55.5386 398.5,58.5C 400.861,61.2793 403.194,63.946 405.5,66.5C 403.533,66.2606 401.699,66.5939 400,67.5C 398.445,65.8542 396.779,65.5209 395,66.5C 394.309,64.1088 393.309,64.1088 392,66.5C 391.147,64.8753 390.147,64.5419 389,65.5C 386.391,64.8724 383.725,63.8724 381,62.5C 377.242,63.7692 373.909,63.1025 371,60.5C 369,60.5 367,60.5 365,60.5C 364.333,59.8333 363.667,59.1667 363,58.5C 359.658,60.0393 356.658,59.3726 354,56.5C 353.667,56.8333 353.333,57.1667 353,57.5C 346.465,54.9878 339.798,54.3211 333,55.5C 332.333,54.8333 331.667,54.1667 331,53.5C 322.192,53.9753 313.192,53.9753 304,53.5C 287.373,56.4518 271.706,63.4518 257,74.5C 253.334,74.3096 250,75.6429 247,78.5C 243.755,78.7451 240.422,78.7451 237,78.5C 235.518,80.7811 233.851,80.7811 232,78.5C 225.458,78.4456 219.124,76.7789 213,73.5C 212.667,73.8333 212.333,74.1667 212,74.5C 208.424,72.3101 204.757,70.3101 201,68.5C 199.984,69.6341 199.317,69.3008 199,67.5C 197.853,68.4581 196.853,68.1247 196,66.5C 195.667,66.8333 195.333,67.1667 195,67.5C 192.744,65.9645 189.911,64.6311 186.5,63.5C 184.671,64.2824 183.171,63.6157 182,61.5C 181.667,61.8333 181.333,62.1667 181,62.5C 178.467,61.1276 175.8,60.1276 173,59.5C 171.657,60.2135 170.324,59.8802 169,58.5C 167.093,58.4205 165.093,58.7539 163,59.5C 162.667,58.8333 162.333,58.1667 162,57.5C 151.558,58.1522 140.891,58.1522 130,57.5C 129.333,58.1667 128.667,58.8333 128,59.5C 126.249,58.8263 124.583,58.493 123,58.5C 121.619,60.4219 119.786,60.7552 117.5,59.5C 113.765,59.8107 110.265,60.8107 107,62.5C 100.803,63.4479 95.1359,63.4479 90,62.5C 88.9822,64.5644 87.6489,64.8977 86,63.5C 84.5272,63.9031 83.1939,64.5697 82,65.5C 80.3528,64.86 78.5195,64.86 76.5,65.5C 74.9623,65.5466 73.9623,64.8799 73.5,63.5C 74.5,63.1667 75.1667,62.5 75.5,61.5C 76.9348,60.0867 77.9348,58.42 78.5,56.5C 78.6257,59.5576 80.1257,59.8909 83,57.5C 84.3333,60.1667 85.6667,60.1667 87,57.5C 88.6667,57.8333 90.3333,58.1667 92,58.5C 93.7635,57.0563 95.7635,56.0563 98,55.5C 100.333,55.8333 102.667,56.1667 105,56.5C 107.71,54.4451 110.376,54.1117 113,55.5C 114.261,55.2409 115.261,54.5742 116,53.5C 121.599,52.9014 126.932,52.9014 132,53.5C 132.667,50.8333 133.333,50.8333 134,53.5C 135.667,52.8333 137.333,52.1667 139,51.5C 144.136,52.4479 149.803,52.4479 156,51.5C 157.333,52.1667 158.667,52.8333 160,53.5C 162.667,53.5 165.333,53.5 168,53.5C 168.667,54.1667 169.333,54.8333 170,55.5C 172.176,55.5716 174.176,55.2383 176,54.5C 178.605,56.3195 181.272,56.9862 184,56.5C 184.853,58.1247 185.853,58.4581 187,57.5C 188.667,58.5 190.333,59.5 192,60.5C 192.333,60.1667 192.667,59.8333 193,59.5C 196.11,62.0787 199.443,63.412 203,63.5C 204.657,65.5669 206.324,66.9002 208,67.5C 208.333,67.1667 208.667,66.8333 209,66.5C 211,67.8333 213,69.1667 215,70.5C 216.016,69.3659 216.683,69.6992 217,71.5C 217.333,71.1667 217.667,70.8333 218,70.5C 220.269,72.2687 222.602,72.9353 225,72.5C 225.333,73.1667 225.667,73.8333 226,74.5C 227,74.1667 228,73.8333 229,73.5C 231.897,74.4657 234.563,75.1324 237,75.5C 239.725,74.1276 242.391,73.1276 245,72.5C 246.147,73.4581 247.147,73.1247 248,71.5C 249.147,72.4581 250.147,72.1247 251,70.5C 252.016,71.6341 252.683,71.3008 253,69.5C 254,69.5 255,69.5 256,69.5C 259.998,67.2612 263.998,64.2612 268,60.5C 272.86,58.4728 277.86,55.8061 283,52.5C 284.016,53.6341 284.683,53.3008 285,51.5C 287,50.1667 289,50.1667 291,51.5C 291.333,50.8333 291.667,50.1667 292,49.5C 294.111,49.5773 296.111,49.9106 298,50.5C 299,49.8333 300,49.1667 301,48.5C 314.162,49.1475 327.162,49.1475 340,48.5C 340.333,49.1667 340.667,49.8333 341,50.5C 342.398,49.9491 343.732,49.6158 345,49.5C 348.667,50.5 352.333,51.5 356,52.5C 357.779,51.5209 359.445,51.8542 361,53.5C 361.333,53.1667 361.667,52.8333 362,52.5C 366.585,54.0131 370.918,55.3464 375,56.5C 376,56.1667 377,55.8333 378,55.5C 379.555,57.1458 381.221,57.4791 383,56.5C 383.667,57.1667 384.333,57.8333 385,58.5C 387.176,58.5716 389.176,58.2383 391,57.5C 392.101,59.3939 393.434,60.0606 395,59.5C 397.734,58.6383 397.901,57.805 395.5,57C 395.833,56.6667 396.167,56.3333 396.5,56C 394.208,54.7101 392.208,53.0435 390.5,51C 392.225,50.1354 393.892,49.4687 395.5,49C 394.802,48.0293 394.802,46.8626 395.5,45.5C 394.194,43.5273 392.527,41.8606 390.5,40.5C 389.873,39.5832 389.539,38.5832 389.5,37.5 Z"/></g>
<g><path style="opacity:1" fill="#ffc8c7" d="M 290.5,25.5 C 289.318,27.0031 288.818,28.6698 289,30.5C 291.032,32.8311 293.199,34.1644 295.5,34.5C 275.902,41.4532 259.236,52.6199 245.5,68C 246.126,68.7504 246.626,69.5838 247,70.5C 248.53,69.364 249.863,68.364 251,67.5C 251.333,67.8333 251.667,68.1667 252,68.5C 252.317,66.6992 252.984,66.3659 254,67.5C 264.067,60.053 274.4,53.7196 285,48.5C 286.016,49.6341 286.683,49.3008 287,47.5C 289.667,47.5 292.333,47.5 295,47.5C 296.333,46.8333 297.667,46.1667 299,45.5C 302.203,46.2946 305.536,46.628 309,46.5C 309.333,45.8333 309.667,45.1667 310,44.5C 313.607,45.5683 316.94,45.5683 320,44.5C 320.333,45.1667 320.667,45.8333 321,46.5C 323,45.1667 325,45.1667 327,46.5C 327.667,43.8333 328.333,43.8333 329,46.5C 329.667,43.8333 330.333,43.8333 331,46.5C 333.333,46.1667 335.667,45.8333 338,45.5C 338.333,46.1667 338.667,46.8333 339,47.5C 341.011,46.2828 343.011,46.6161 345,48.5C 348.016,47.8609 350.85,47.8609 353.5,48.5C 355.029,48.5288 356.196,49.1955 357,50.5C 358.667,50.1667 360.333,49.8333 362,49.5C 363.667,50.5 365.333,51.5 367,52.5C 369.741,51.9343 372.408,51.601 375,51.5C 376,52.1667 377,52.8333 378,53.5C 380.176,53.5716 382.176,53.2383 384,52.5C 386.142,54.3373 388.309,54.6706 390.5,53.5C 389.219,50.5526 387.219,48.2193 384.5,46.5C 385,45.5 385.5,44.5 386,43.5C 387.281,44.6467 387.614,44.3134 387,42.5C 385.615,41.4495 384.615,40.1161 384,38.5C 383.667,39.1667 383.333,39.8333 383,40.5C 382.16,37.5363 381.16,37.203 380,39.5C 379.535,38.0692 378.701,36.9025 377.5,36C 377.833,35.6667 378.167,35.3333 378.5,35C 376.963,33.8904 376.297,32.3904 376.5,30.5C 380.993,32.579 385.326,34.9123 389.5,37.5C 389.539,38.5832 389.873,39.5832 390.5,40.5C 392.527,41.8606 394.194,43.5273 395.5,45.5C 394.802,46.8626 394.802,48.0293 395.5,49C 393.892,49.4687 392.225,50.1354 390.5,51C 392.208,53.0435 394.208,54.7101 396.5,56C 396.167,56.3333 395.833,56.6667 395.5,57C 397.901,57.805 397.734,58.6383 395,59.5C 393.434,60.0606 392.101,59.3939 391,57.5C 389.176,58.2383 387.176,58.5716 385,58.5C 384.333,57.8333 383.667,57.1667 383,56.5C 381.221,57.4791 379.555,57.1458 378,55.5C 377,55.8333 376,56.1667 375,56.5C 370.918,55.3464 366.585,54.0131 362,52.5C 361.667,52.8333 361.333,53.1667 361,53.5C 359.445,51.8542 357.779,51.5209 356,52.5C 352.333,51.5 348.667,50.5 345,49.5C 343.732,49.6158 342.398,49.9491 341,50.5C 340.667,49.8333 340.333,49.1667 340,48.5C 327.162,49.1475 314.162,49.1475 301,48.5C 300,49.1667 299,49.8333 298,50.5C 296.111,49.9106 294.111,49.5773 292,49.5C 291.667,50.1667 291.333,50.8333 291,51.5C 289,50.1667 287,50.1667 285,51.5C 284.683,53.3008 284.016,53.6341 283,52.5C 277.86,55.8061 272.86,58.4728 268,60.5C 263.998,64.2612 259.998,67.2612 256,69.5C 255,69.5 254,69.5 253,69.5C 252.683,71.3008 252.016,71.6341 251,70.5C 250.147,72.1247 249.147,72.4581 248,71.5C 247.147,73.1247 246.147,73.4581 245,72.5C 242.391,73.1276 239.725,74.1276 237,75.5C 234.563,75.1324 231.897,74.4657 229,73.5C 228,73.8333 227,74.1667 226,74.5C 225.667,73.8333 225.333,73.1667 225,72.5C 222.602,72.9353 220.269,72.2687 218,70.5C 217.667,70.8333 217.333,71.1667 217,71.5C 216.683,69.6992 216.016,69.3659 215,70.5C 213,69.1667 211,67.8333 209,66.5C 208.667,66.8333 208.333,67.1667 208,67.5C 206.324,66.9002 204.657,65.5669 203,63.5C 199.443,63.412 196.11,62.0787 193,59.5C 192.667,59.8333 192.333,60.1667 192,60.5C 190.333,59.5 188.667,58.5 187,57.5C 185.853,58.4581 184.853,58.1247 184,56.5C 181.272,56.9862 178.605,56.3195 176,54.5C 174.176,55.2383 172.176,55.5716 170,55.5C 169.333,54.8333 168.667,54.1667 168,53.5C 165.333,53.5 162.667,53.5 160,53.5C 158.667,52.8333 157.333,52.1667 156,51.5C 149.803,52.4479 144.136,52.4479 139,51.5C 137.333,52.1667 135.667,52.8333 134,53.5C 133.333,50.8333 132.667,50.8333 132,53.5C 126.932,52.9014 121.599,52.9014 116,53.5C 115.261,54.5742 114.261,55.2409 113,55.5C 110.376,54.1117 107.71,54.4451 105,56.5C 102.667,56.1667 100.333,55.8333 98,55.5C 95.7635,56.0563 93.7635,57.0563 92,58.5C 90.3333,58.1667 88.6667,57.8333 87,57.5C 85.6667,60.1667 84.3333,60.1667 83,57.5C 80.1257,59.8909 78.6257,59.5576 78.5,56.5C 80.8029,55.5895 82.3029,53.9228 83,51.5C 84.1068,52.7119 84.6068,52.3786 84.5,50.5C 85.1667,50.5 85.8333,50.5 86.5,50.5C 87.6246,51.0141 88.7913,51.3474 90,51.5C 90.6667,50.8333 91.3333,50.1667 92,49.5C 92.6667,52.1667 93.3333,52.1667 94,49.5C 98.6623,49.3105 102.996,49.3105 107,49.5C 107.333,48.8333 107.667,48.1667 108,47.5C 111.385,47.9023 114.385,48.2356 117,48.5C 119.667,47.8333 122.333,47.1667 125,46.5C 126.117,46.6651 127.284,46.9984 128.5,47.5C 134.032,46.855 139.532,46.1883 145,45.5C 147.667,46.1667 150.333,46.8333 153,47.5C 158.539,46.5831 164.872,46.5831 172,47.5C 172.317,49.3008 172.984,49.6341 174,48.5C 177.28,49.0948 180.613,50.0948 184,51.5C 184.333,51.1667 184.667,50.8333 185,50.5C 185.317,52.3008 185.984,52.6341 187,51.5C 197.572,55.2672 207.238,59.9339 216,65.5C 217.333,65.5 218.667,65.5 220,65.5C 220.853,67.1247 221.853,67.4581 223,66.5C 224.599,68.0356 226.433,68.5356 228.5,68C 227.267,66.3333 225.933,64.8333 224.5,63.5C 225.784,61.3444 227.284,60.0111 229,59.5C 229.333,60.1667 229.667,60.8333 230,61.5C 230.667,58.8333 231.333,58.8333 232,61.5C 233,60.1667 234,60.1667 235,61.5C 235.195,60.1807 235.028,58.8474 234.5,57.5C 235.794,58.2899 236.961,59.2899 238,60.5C 252.283,43.9464 269.783,32.2797 290.5,25.5 Z"/></g>
<g><path style="opacity:0.549" fill="#ff716d" d="M 67.5,52.5 C 70.265,54.7328 72.9317,57.7328 75.5,61.5C 75.1667,62.5 74.5,63.1667 73.5,63.5C 71.567,63.7286 69.9003,64.5619 68.5,66C 67.6634,67.0113 67.33,68.1779 67.5,69.5C 65.8564,69.8102 64.8564,70.8102 64.5,72.5C 64.1667,72.5 63.8333,72.5 63.5,72.5C 62.307,70.9459 61.1404,69.2792 60,67.5C 59.6667,68.1667 59.3333,68.8333 59,69.5C 58.2432,67.6854 57.4098,66.0188 56.5,64.5C 59.4578,59.8744 63.1245,55.8744 67.5,52.5 Z"/></g>
<g><path style="opacity:1" fill="#ffa8a8" d="M 403.5,48.5 C 409.86,52.5278 414.86,57.8611 418.5,64.5C 417.778,64.9175 417.278,65.5842 417,66.5C 416.309,64.1088 415.309,64.1088 414,66.5C 413.667,66.1667 413.333,65.8333 413,65.5C 410.053,68.7833 409.887,72.1166 412.5,75.5C 408.253,74.5872 404.086,74.5872 400,75.5C 399.333,74.8333 398.667,74.1667 398,73.5C 396.732,73.6158 395.398,73.9491 394,74.5C 393.044,73.1059 391.711,72.4393 390,72.5C 387.356,72.5445 384.689,72.5445 382,72.5C 379.076,72.3743 376.409,71.041 374,68.5C 372.333,68.5 370.667,68.5 369,68.5C 364.528,66.6122 359.862,64.9455 355,63.5C 354.228,63.6448 353.561,63.9781 353,64.5C 351.237,63.0563 349.237,62.0563 347,61.5C 343.442,62.3806 339.775,62.3806 336,61.5C 335.333,58.8333 334.667,58.8333 334,61.5C 333.667,60.8333 333.333,60.1667 333,59.5C 332.333,60.8333 331.667,60.8333 331,59.5C 330.333,62.1667 329.667,62.1667 329,59.5C 323.667,59.5 318.333,59.5 313,59.5C 307.814,60.9742 302.48,61.9742 297,62.5C 295.853,61.5419 294.853,61.8753 294,63.5C 293.667,63.1667 293.333,62.8333 293,62.5C 290.895,63.3114 288.895,64.3114 287,65.5C 286.228,65.3552 285.561,65.0219 285,64.5C 282.377,66.4976 279.71,68.4976 277,70.5C 272.707,70.8211 269.04,72.8211 266,76.5C 265.586,76.0426 265.086,75.7093 264.5,75.5C 248.946,84.8731 233.112,86.5398 217,80.5C 215.333,80.5 213.667,80.5 212,80.5C 208.194,78.2639 204.194,76.2639 200,74.5C 198.984,75.6341 198.317,75.3008 198,73.5C 197.667,73.8333 197.333,74.1667 197,74.5C 195.559,73.13 193.892,72.13 192,71.5C 190.667,71.5 189.333,71.5 188,71.5C 187.147,69.8753 186.147,69.5419 185,70.5C 182.832,68.5455 180.498,67.8788 178,68.5C 177.147,66.8753 176.147,66.5419 175,67.5C 171.357,66.4285 167.357,65.4285 163,64.5C 160.976,65.294 158.976,64.9607 157,63.5C 149.548,63.6429 141.881,63.6429 134,63.5C 133.333,66.1667 132.667,66.1667 132,63.5C 131.667,64.1667 131.333,64.8333 131,65.5C 127.225,66.3806 123.558,66.3806 120,65.5C 116.378,67.7447 112.378,69.0781 108,69.5C 107.586,69.0426 107.086,68.7093 106.5,68.5C 100.752,68.8161 95.2523,69.8161 90,71.5C 89.3333,68.8333 88.6667,68.8333 88,71.5C 86.6015,70.9491 85.2682,70.6158 84,70.5C 82.5177,72.7811 80.851,72.7811 79,70.5C 78.6758,72.5689 77.8425,72.9023 76.5,71.5C 74.3855,72.0339 72.5522,73.0339 71,74.5C 69.1918,74.1119 67.5252,74.1119 66,74.5C 65.2828,73.9558 64.7828,73.2891 64.5,72.5C 64.8564,70.8102 65.8564,69.8102 67.5,69.5C 68.6885,70.0476 69.8552,70.3809 71,70.5C 75.2353,68.5149 79.5687,67.8482 84,68.5C 84.6667,67.8333 85.3333,67.1667 86,66.5C 89.2092,66.8166 92.7092,66.8166 96.5,66.5C 97.5174,63.972 98.6841,63.972 100,66.5C 101,65.1667 102,65.1667 103,66.5C 103.667,65.8333 104.333,65.1667 105,64.5C 108.52,63.9786 112.187,63.9786 116,64.5C 117.309,62.1088 118.309,62.1088 119,64.5C 119.317,62.6992 119.984,62.3659 121,63.5C 122.705,62.2367 124.372,61.9034 126,62.5C 129.333,61.8333 132.667,61.1667 136,60.5C 142.558,60.8769 149.725,61.0435 157.5,61C 158,61.5 158.5,62 159,62.5C 161.232,61.8126 163.398,61.4793 165.5,61.5C 180.824,64.2041 195.657,69.2041 210,76.5C 210.333,76.1667 210.667,75.8333 211,75.5C 214.086,77.1679 217.086,78.8346 220,80.5C 222.469,79.6042 225.302,79.9375 228.5,81.5C 230.345,80.0622 231.511,80.3956 232,82.5C 246.867,81.6848 260.867,76.3515 274,66.5C 275.016,67.6341 275.683,67.3008 276,65.5C 277.016,66.6341 277.683,66.3008 278,64.5C 278.333,64.8333 278.667,65.1667 279,65.5C 281.11,63.8755 283.443,62.5421 286,61.5C 286.333,61.8333 286.667,62.1667 287,62.5C 289.867,60.1111 293.2,58.7778 297,58.5C 299.308,58.8805 301.641,59.2138 304,59.5C 305.324,58.1198 306.657,57.7865 308,58.5C 310,57.8333 312,57.1667 314,56.5C 318.955,57.5849 324.288,57.5849 330,56.5C 330.333,57.1667 330.667,57.8333 331,58.5C 334.095,57.8127 337.095,57.4793 340,57.5C 343.178,58.8557 346.178,59.8557 349,60.5C 350.398,59.9491 351.732,59.6158 353,59.5C 354.555,61.1458 356.221,61.4791 358,60.5C 359.53,61.636 360.863,62.636 362,63.5C 364.6,62.6933 366.934,63.36 369,65.5C 369.414,65.0426 369.914,64.7093 370.5,64.5C 377.639,66.9002 384.973,68.4002 392.5,69C 393,69.5 393.5,70 394,70.5C 395.889,69.9026 397.722,69.5693 399.5,69.5C 402.86,70.5364 406.026,71.2031 409,71.5C 408.923,69.2285 407.757,67.5618 405.5,66.5C 403.194,63.946 400.861,61.2793 398.5,58.5C 399.183,55.5386 400.016,55.2053 401,57.5C 401.667,54.8333 402.333,54.8333 403,57.5C 405.736,54.4109 405.236,51.5776 401.5,49C 402.094,48.5357 402.761,48.369 403.5,48.5 Z"/></g>
<g><path style="opacity:1" fill="#ffb1b0" d="M 405.5,66.5 C 407.757,67.5618 408.923,69.2285 409,71.5C 406.026,71.2031 402.86,70.5364 399.5,69.5C 397.722,69.5693 395.889,69.9026 394,70.5C 393.5,70 393,69.5 392.5,69C 384.973,68.4002 377.639,66.9002 370.5,64.5C 369.914,64.7093 369.414,65.0426 369,65.5C 366.934,63.36 364.6,62.6933 362,63.5C 360.863,62.636 359.53,61.636 358,60.5C 356.221,61.4791 354.555,61.1458 353,59.5C 351.732,59.6158 350.398,59.9491 349,60.5C 346.178,59.8557 343.178,58.8557 340,57.5C 337.095,57.4793 334.095,57.8127 331,58.5C 330.667,57.8333 330.333,57.1667 330,56.5C 324.288,57.5849 318.955,57.5849 314,56.5C 312,57.1667 310,57.8333 308,58.5C 306.657,57.7865 305.324,58.1198 304,59.5C 301.641,59.2138 299.308,58.8805 297,58.5C 293.2,58.7778 289.867,60.1111 287,62.5C 286.667,62.1667 286.333,61.8333 286,61.5C 283.443,62.5421 281.11,63.8755 279,65.5C 278.667,65.1667 278.333,64.8333 278,64.5C 277.683,66.3008 277.016,66.6341 276,65.5C 275.683,67.3008 275.016,67.6341 274,66.5C 260.867,76.3515 246.867,81.6848 232,82.5C 231.511,80.3956 230.345,80.0622 228.5,81.5C 225.302,79.9375 222.469,79.6042 220,80.5C 217.086,78.8346 214.086,77.1679 211,75.5C 210.667,75.8333 210.333,76.1667 210,76.5C 195.657,69.2041 180.824,64.2041 165.5,61.5C 163.398,61.4793 161.232,61.8126 159,62.5C 158.5,62 158,61.5 157.5,61C 149.725,61.0435 142.558,60.8769 136,60.5C 132.667,61.1667 129.333,61.8333 126,62.5C 124.372,61.9034 122.705,62.2367 121,63.5C 119.984,62.3659 119.317,62.6992 119,64.5C 118.309,62.1088 117.309,62.1088 116,64.5C 112.187,63.9786 108.52,63.9786 105,64.5C 104.333,65.1667 103.667,65.8333 103,66.5C 102,65.1667 101,65.1667 100,66.5C 98.6841,63.972 97.5174,63.972 96.5,66.5C 92.7092,66.8166 89.2092,66.8166 86,66.5C 85.3333,67.1667 84.6667,67.8333 84,68.5C 79.5687,67.8482 75.2353,68.5149 71,70.5C 69.8552,70.3809 68.6885,70.0476 67.5,69.5C 67.33,68.1779 67.6634,67.0113 68.5,66C 69.9003,64.5619 71.567,63.7286 73.5,63.5C 73.9623,64.8799 74.9623,65.5466 76.5,65.5C 78.5195,64.86 80.3528,64.86 82,65.5C 83.1939,64.5697 84.5272,63.9031 86,63.5C 87.6489,64.8977 88.9822,64.5644 90,62.5C 95.1359,63.4479 100.803,63.4479 107,62.5C 110.265,60.8107 113.765,59.8107 117.5,59.5C 119.786,60.7552 121.619,60.4219 123,58.5C 124.583,58.493 126.249,58.8263 128,59.5C 128.667,58.8333 129.333,58.1667 130,57.5C 140.891,58.1522 151.558,58.1522 162,57.5C 162.333,58.1667 162.667,58.8333 163,59.5C 165.093,58.7539 167.093,58.4205 169,58.5C 170.324,59.8802 171.657,60.2135 173,59.5C 175.8,60.1276 178.467,61.1276 181,62.5C 181.333,62.1667 181.667,61.8333 182,61.5C 183.171,63.6157 184.671,64.2824 186.5,63.5C 189.911,64.6311 192.744,65.9645 195,67.5C 195.333,67.1667 195.667,66.8333 196,66.5C 196.853,68.1247 197.853,68.4581 199,67.5C 199.317,69.3008 199.984,69.6341 201,68.5C 204.757,70.3101 208.424,72.3101 212,74.5C 212.333,74.1667 212.667,73.8333 213,73.5C 219.124,76.7789 225.458,78.4456 232,78.5C 233.851,80.7811 235.518,80.7811 237,78.5C 240.422,78.7451 243.755,78.7451 247,78.5C 250,75.6429 253.334,74.3096 257,74.5C 271.706,63.4518 287.373,56.4518 304,53.5C 313.192,53.9753 322.192,53.9753 331,53.5C 331.667,54.1667 332.333,54.8333 333,55.5C 339.798,54.3211 346.465,54.9878 353,57.5C 353.333,57.1667 353.667,56.8333 354,56.5C 356.658,59.3726 359.658,60.0393 363,58.5C 363.667,59.1667 364.333,59.8333 365,60.5C 367,60.5 369,60.5 371,60.5C 373.909,63.1025 377.242,63.7692 381,62.5C 383.725,63.8724 386.391,64.8724 389,65.5C 390.147,64.5419 391.147,64.8753 392,66.5C 393.309,64.1088 394.309,64.1088 395,66.5C 396.779,65.5209 398.445,65.8542 400,67.5C 401.699,66.5939 403.533,66.2606 405.5,66.5 Z"/></g>
<g><path style="opacity:1" fill="#ffa1a0" d="M 412.5,75.5 C 414.476,76.4271 414.809,77.7605 413.5,79.5C 411.622,79.3775 409.789,79.3775 408,79.5C 405.132,77.5747 402.465,77.5747 400,79.5C 397.903,78.009 395.57,77.009 393,76.5C 389.89,77.3093 386.557,76.6426 383,74.5C 382.667,74.8333 382.333,75.1667 382,75.5C 376.463,73.3743 371.463,72.041 367,71.5C 365.333,70.5 363.667,69.5 362,68.5C 361.667,68.8333 361.333,69.1667 361,69.5C 355.628,67.4638 350.128,65.7971 344.5,64.5C 342.36,65.106 340.193,64.7726 338,63.5C 327.725,63.5991 317.725,63.5991 308,63.5C 303.804,63.5645 299.804,64.8978 296,67.5C 290.243,67.3046 284.91,68.9713 280,72.5C 279.667,72.1667 279.333,71.8333 279,71.5C 278.558,73.6785 277.558,74.3452 276,73.5C 264.446,79.9116 252.113,84.5783 239,87.5C 234.975,87.4508 230.975,87.4508 227,87.5C 208.19,80.6763 188.857,74.3429 169,68.5C 162.544,67.5704 156.211,67.5704 150,68.5C 149,67.8333 148,67.1667 147,66.5C 141.333,67.1667 135.667,67.8333 130,68.5C 127,68.1599 124,68.8266 121,70.5C 119.413,69.273 118.079,69.6063 117,71.5C 116.439,70.9781 115.772,70.6448 115,70.5C 112.017,71.5271 109.017,72.5271 106,73.5C 105,73.1667 104,72.8333 103,72.5C 102.667,73.1667 102.333,73.8333 102,74.5C 100.333,74.1667 98.6667,73.8333 97,73.5C 96.3333,74.1667 95.6667,74.8333 95,75.5C 93.6667,75.5 92.3333,75.5 91,75.5C 90.3333,74.8333 89.6667,74.1667 89,73.5C 86.101,73.9767 83.4343,74.9767 81,76.5C 79.2087,74.4873 77.8753,74.4873 77,76.5C 76.6667,76.1667 76.3333,75.8333 76,75.5C 71.9769,76.393 67.9769,77.393 64,78.5C 63.0494,78.1164 62.2161,77.7831 61.5,77.5C 61.8925,75.7162 62.5592,74.0495 63.5,72.5C 63.8333,72.5 64.1667,72.5 64.5,72.5C 64.7828,73.2891 65.2828,73.9558 66,74.5C 67.5252,74.1119 69.1918,74.1119 71,74.5C 72.5522,73.0339 74.3855,72.0339 76.5,71.5C 77.8425,72.9023 78.6758,72.5689 79,70.5C 80.851,72.7811 82.5177,72.7811 84,70.5C 85.2682,70.6158 86.6015,70.9491 88,71.5C 88.6667,68.8333 89.3333,68.8333 90,71.5C 95.2523,69.8161 100.752,68.8161 106.5,68.5C 107.086,68.7093 107.586,69.0426 108,69.5C 112.378,69.0781 116.378,67.7447 120,65.5C 123.558,66.3806 127.225,66.3806 131,65.5C 131.333,64.8333 131.667,64.1667 132,63.5C 132.667,66.1667 133.333,66.1667 134,63.5C 141.881,63.6429 149.548,63.6429 157,63.5C 158.976,64.9607 160.976,65.294 163,64.5C 167.357,65.4285 171.357,66.4285 175,67.5C 176.147,66.5419 177.147,66.8753 178,68.5C 180.498,67.8788 182.832,68.5455 185,70.5C 186.147,69.5419 187.147,69.8753 188,71.5C 189.333,71.5 190.667,71.5 192,71.5C 193.892,72.13 195.559,73.13 197,74.5C 197.333,74.1667 197.667,73.8333 198,73.5C 198.317,75.3008 198.984,75.6341 200,74.5C 204.194,76.2639 208.194,78.2639 212,80.5C 213.667,80.5 215.333,80.5 217,80.5C 233.112,86.5398 248.946,84.8731 264.5,75.5C 265.086,75.7093 265.586,76.0426 266,76.5C 269.04,72.8211 272.707,70.8211 277,70.5C 279.71,68.4976 282.377,66.4976 285,64.5C 285.561,65.0219 286.228,65.3552 287,65.5C 288.895,64.3114 290.895,63.3114 293,62.5C 293.333,62.8333 293.667,63.1667 294,63.5C 294.853,61.8753 295.853,61.5419 297,62.5C 302.48,61.9742 307.814,60.9742 313,59.5C 318.333,59.5 323.667,59.5 329,59.5C 329.667,62.1667 330.333,62.1667 331,59.5C 331.667,60.8333 332.333,60.8333 333,59.5C 333.333,60.1667 333.667,60.8333 334,61.5C 334.667,58.8333 335.333,58.8333 336,61.5C 339.775,62.3806 343.442,62.3806 347,61.5C 349.237,62.0563 351.237,63.0563 353,64.5C 353.561,63.9781 354.228,63.6448 355,63.5C 359.862,64.9455 364.528,66.6122 369,68.5C 370.667,68.5 372.333,68.5 374,68.5C 376.409,71.041 379.076,72.3743 382,72.5C 384.689,72.5445 387.356,72.5445 390,72.5C 391.711,72.4393 393.044,73.1059 394,74.5C 395.398,73.9491 396.732,73.6158 398,73.5C 398.667,74.1667 399.333,74.8333 400,75.5C 404.086,74.5872 408.253,74.5872 412.5,75.5 Z"/></g>
<g><path style="opacity:1" fill="#ff9796" d="M 412.5,75.5 C 409.887,72.1166 410.053,68.7833 413,65.5C 413.333,65.8333 413.667,66.1667 414,66.5C 415.309,64.1088 416.309,64.1088 417,66.5C 417.278,65.5842 417.778,64.9175 418.5,64.5C 420.975,66.7703 422.975,69.437 424.5,72.5C 423.732,73.2625 423.232,74.2625 423,75.5C 422.667,74.5 422.333,73.5 422,72.5C 422.121,75.9213 420.788,78.5879 418,80.5C 416.893,79.2881 416.393,79.6214 416.5,81.5C 415.216,83.6556 413.716,84.9889 412,85.5C 411.667,84.8333 411.333,84.1667 411,83.5C 407.94,82.4317 404.607,82.4317 401,83.5C 399.267,81.3985 397.267,81.0652 395,82.5C 392.139,81.0789 389.139,80.0789 386,79.5C 384.984,80.6341 384.317,80.3008 384,78.5C 383.667,78.8333 383.333,79.1667 383,79.5C 379.925,78.7506 376.925,77.7506 374,76.5C 373.667,76.8333 373.333,77.1667 373,77.5C 371.087,74.8776 368.754,73.8776 366,74.5C 360.462,71.8201 354.629,69.8201 348.5,68.5C 342.882,67.6902 337.049,67.6902 331,68.5C 330.261,67.4258 329.261,66.7591 328,66.5C 324.872,66.9122 321.872,66.9122 319,66.5C 317.667,69.1667 316.333,69.1667 315,66.5C 314.333,67.1667 313.667,67.8333 313,68.5C 310.439,66.9872 307.772,67.3205 305,69.5C 301.786,68.6497 298.786,68.6497 296,69.5C 293.12,71.2081 290.453,72.5414 288,73.5C 285.4,72.6933 283.066,73.36 281,75.5C 280.667,75.1667 280.333,74.8333 280,74.5C 278.345,74.8024 277.012,76.1358 276,78.5C 274.497,78.1654 273.164,78.1654 272,78.5C 271.683,80.3008 271.016,80.6341 270,79.5C 264.569,82.867 259.235,85.5336 254,87.5C 251.958,86.7146 249.958,87.048 248,88.5C 246.853,87.5419 245.853,87.8753 245,89.5C 244.667,89.1667 244.333,88.8333 244,88.5C 239,89.1667 234,89.8333 229,90.5C 228.333,89.8333 227.667,89.1667 227,88.5C 224.103,87.9026 221.436,87.9026 219,88.5C 218.667,87.8333 218.333,87.1667 218,86.5C 217,86.8333 216,87.1667 215,87.5C 213.54,85.5776 211.873,84.9109 210,85.5C 209.667,84.8333 209.333,84.1667 209,83.5C 208,83.8333 207,84.1667 206,84.5C 204.899,82.6061 203.566,81.9394 202,82.5C 199.441,81.0201 196.774,79.6867 194,78.5C 192.667,78.5 191.333,78.5 190,78.5C 188.333,77.5 186.667,76.5 185,75.5C 184,75.8333 183,76.1667 182,76.5C 179.934,74.36 177.6,73.6933 175,74.5C 174.667,73.8333 174.333,73.1667 174,72.5C 172.417,72.493 170.751,72.8263 169,73.5C 168.147,71.8753 167.147,71.5419 166,72.5C 164,71.8333 162,71.1667 160,70.5C 151.504,70.7342 143.171,70.7342 135,70.5C 134.333,71.1667 133.667,71.8333 133,72.5C 130.907,71.7539 128.907,71.4205 127,71.5C 125.667,72.1667 124.333,72.8333 123,73.5C 122,73.1667 121,72.8333 120,72.5C 119.667,73.1667 119.333,73.8333 119,74.5C 117.602,73.9491 116.268,73.6158 115,73.5C 114.147,75.1247 113.147,75.4581 112,74.5C 109.667,75.5 107.333,76.5 105,77.5C 103.984,76.3659 103.317,76.6992 103,78.5C 100.907,77.7539 98.9068,77.4205 97,77.5C 96.3333,78.1667 95.6667,78.8333 95,79.5C 88.3333,78.1667 81.6667,78.1667 75,79.5C 74.3333,82.1667 73.6667,82.1667 73,79.5C 70.2754,80.8724 67.6088,81.8724 65,82.5C 63.0517,81.8906 61.2184,81.224 59.5,80.5C 59.427,78.9731 60.0937,77.9731 61.5,77.5C 62.2161,77.7831 63.0494,78.1164 64,78.5C 67.9769,77.393 71.9769,76.393 76,75.5C 76.3333,75.8333 76.6667,76.1667 77,76.5C 77.8753,74.4873 79.2087,74.4873 81,76.5C 83.4343,74.9767 86.101,73.9767 89,73.5C 89.6667,74.1667 90.3333,74.8333 91,75.5C 92.3333,75.5 93.6667,75.5 95,75.5C 95.6667,74.8333 96.3333,74.1667 97,73.5C 98.6667,73.8333 100.333,74.1667 102,74.5C 102.333,73.8333 102.667,73.1667 103,72.5C 104,72.8333 105,73.1667 106,73.5C 109.017,72.5271 112.017,71.5271 115,70.5C 115.772,70.6448 116.439,70.9781 117,71.5C 118.079,69.6063 119.413,69.273 121,70.5C 124,68.8266 127,68.1599 130,68.5C 135.667,67.8333 141.333,67.1667 147,66.5C 148,67.1667 149,67.8333 150,68.5C 156.211,67.5704 162.544,67.5704 169,68.5C 188.857,74.3429 208.19,80.6763 227,87.5C 230.975,87.4508 234.975,87.4508 239,87.5C 252.113,84.5783 264.446,79.9116 276,73.5C 277.558,74.3452 278.558,73.6785 279,71.5C 279.333,71.8333 279.667,72.1667 280,72.5C 284.91,68.9713 290.243,67.3046 296,67.5C 299.804,64.8978 303.804,63.5645 308,63.5C 317.725,63.5991 327.725,63.5991 338,63.5C 340.193,64.7726 342.36,65.106 344.5,64.5C 350.128,65.7971 355.628,67.4638 361,69.5C 361.333,69.1667 361.667,68.8333 362,68.5C 363.667,69.5 365.333,70.5 367,71.5C 371.463,72.041 376.463,73.3743 382,75.5C 382.333,75.1667 382.667,74.8333 383,74.5C 386.557,76.6426 389.89,77.3093 393,76.5C 395.57,77.009 397.903,78.009 400,79.5C 402.465,77.5747 405.132,77.5747 408,79.5C 409.789,79.3775 411.622,79.3775 413.5,79.5C 414.809,77.7605 414.476,76.4271 412.5,75.5 Z"/></g>
<g><path style="opacity:0.999" fill="#ff8f8e" d="M 416.5,81.5 C 417.737,82.9649 418.737,84.6316 419.5,86.5C 418.25,86.5774 417.417,87.244 417,88.5C 413.667,88.5 410.333,88.5 407,88.5C 406.333,85.8333 405.667,85.8333 405,88.5C 404.667,87.8333 404.333,87.1667 404,86.5C 402.732,86.6158 401.398,86.9491 400,87.5C 399.333,86.8333 398.667,86.1667 398,85.5C 395.333,85.5 392.667,85.5 390,85.5C 389.333,82.8333 388.667,82.8333 388,85.5C 387.667,84.8333 387.333,84.1667 387,83.5C 385.221,84.4791 383.555,84.1458 382,82.5C 380.667,82.5 379.333,82.5 378,82.5C 377.683,80.6992 377.016,80.3659 376,81.5C 375.667,80.8333 375.333,80.1667 375,79.5C 374,79.8333 373,80.1667 372,80.5C 371.683,78.6992 371.016,78.3659 370,79.5C 369.683,77.6992 369.016,77.3659 368,78.5C 365.731,76.7313 363.398,76.0647 361,76.5C 360.667,75.8333 360.333,75.1667 360,74.5C 357.522,73.5533 355.188,73.5533 353,74.5C 352.667,73.8333 352.333,73.1667 352,72.5C 351,72.8333 350,73.1667 349,73.5C 348.667,72.8333 348.333,72.1667 348,71.5C 346.249,72.1737 344.583,72.507 343,72.5C 342,71.8333 341,71.1667 340,70.5C 338.111,71.0894 336.111,71.4227 334,71.5C 332.333,70.8333 330.667,70.1667 329,69.5C 324.528,69.8651 319.528,70.5317 314,71.5C 313,71.1667 312,70.8333 311,70.5C 303.842,71.4788 296.509,73.4788 289,76.5C 288.667,76.1667 288.333,75.8333 288,75.5C 284.603,76.6384 280.936,78.6384 277,81.5C 275.002,80.7286 273.335,81.3952 272,83.5C 270.984,82.3659 270.317,82.6992 270,84.5C 269.667,84.1667 269.333,83.8333 269,83.5C 267.54,85.4224 265.873,86.0891 264,85.5C 259.59,88.5806 254.924,90.2472 250,90.5C 247.957,92.5206 245.957,92.8539 244,91.5C 242.333,92.1667 240.667,92.8333 239,93.5C 234.782,93.2983 230.116,92.6316 225,91.5C 223.372,92.0966 221.705,91.7633 220,90.5C 219.667,90.8333 219.333,91.1667 219,91.5C 214.516,90.1147 209.85,88.1147 205,85.5C 204.667,85.8333 204.333,86.1667 204,86.5C 190.144,80.2143 175.144,75.8809 159,73.5C 150.392,73.5942 142.058,73.5942 134,73.5C 133.667,74.1667 133.333,74.8333 133,75.5C 132,75.1667 131,74.8333 130,74.5C 126.613,75.9052 123.28,76.9052 120,77.5C 119.667,77.1667 119.333,76.8333 119,76.5C 116.91,77.7935 114.91,78.7935 113,79.5C 109.703,78.9212 106.703,79.9212 104,82.5C 102.221,81.5209 100.555,81.8542 99,83.5C 95.8273,82.7672 92.494,82.4339 89,82.5C 88.3333,83.1667 87.6667,83.8333 87,84.5C 85.3333,84.5 83.6667,84.5 82,84.5C 81.3333,83.8333 80.6667,83.1667 80,82.5C 76.8221,83.8557 73.8221,84.8557 71,85.5C 69.984,84.3659 69.3173,84.6992 69,86.5C 68.3333,83.8333 67.6667,83.8333 67,86.5C 66.3086,84.1088 65.3086,84.1088 64,86.5C 63.1247,84.4873 61.7913,84.4873 60,86.5C 59.0494,86.1164 58.2161,85.7831 57.5,85.5C 57.7959,83.597 58.4625,81.9303 59.5,80.5C 61.2184,81.224 63.0517,81.8906 65,82.5C 67.6088,81.8724 70.2754,80.8724 73,79.5C 73.6667,82.1667 74.3333,82.1667 75,79.5C 81.6667,78.1667 88.3333,78.1667 95,79.5C 95.6667,78.8333 96.3333,78.1667 97,77.5C 98.9068,77.4205 100.907,77.7539 103,78.5C 103.317,76.6992 103.984,76.3659 105,77.5C 107.333,76.5 109.667,75.5 112,74.5C 113.147,75.4581 114.147,75.1247 115,73.5C 116.268,73.6158 117.602,73.9491 119,74.5C 119.333,73.8333 119.667,73.1667 120,72.5C 121,72.8333 122,73.1667 123,73.5C 124.333,72.8333 125.667,72.1667 127,71.5C 128.907,71.4205 130.907,71.7539 133,72.5C 133.667,71.8333 134.333,71.1667 135,70.5C 143.171,70.7342 151.504,70.7342 160,70.5C 162,71.1667 164,71.8333 166,72.5C 167.147,71.5419 168.147,71.8753 169,73.5C 170.751,72.8263 172.417,72.493 174,72.5C 174.333,73.1667 174.667,73.8333 175,74.5C 177.6,73.6933 179.934,74.36 182,76.5C 183,76.1667 184,75.8333 185,75.5C 186.667,76.5 188.333,77.5 190,78.5C 191.333,78.5 192.667,78.5 194,78.5C 196.774,79.6867 199.441,81.0201 202,82.5C 203.566,81.9394 204.899,82.6061 206,84.5C 207,84.1667 208,83.8333 209,83.5C 209.333,84.1667 209.667,84.8333 210,85.5C 211.873,84.9109 213.54,85.5776 215,87.5C 216,87.1667 217,86.8333 218,86.5C 218.333,87.1667 218.667,87.8333 219,88.5C 221.436,87.9026 224.103,87.9026 227,88.5C 227.667,89.1667 228.333,89.8333 229,90.5C 234,89.8333 239,89.1667 244,88.5C 244.333,88.8333 244.667,89.1667 245,89.5C 245.853,87.8753 246.853,87.5419 248,88.5C 249.958,87.048 251.958,86.7146 254,87.5C 259.235,85.5336 264.569,82.867 270,79.5C 271.016,80.6341 271.683,80.3008 272,78.5C 273.164,78.1654 274.497,78.1654 276,78.5C 277.012,76.1358 278.345,74.8024 280,74.5C 280.333,74.8333 280.667,75.1667 281,75.5C 283.066,73.36 285.4,72.6933 288,73.5C 290.453,72.5414 293.12,71.2081 296,69.5C 298.786,68.6497 301.786,68.6497 305,69.5C 307.772,67.3205 310.439,66.9872 313,68.5C 313.667,67.8333 314.333,67.1667 315,66.5C 316.333,69.1667 317.667,69.1667 319,66.5C 321.872,66.9122 324.872,66.9122 328,66.5C 329.261,66.7591 330.261,67.4258 331,68.5C 337.049,67.6902 342.882,67.6902 348.5,68.5C 354.629,69.8201 360.462,71.8201 366,74.5C 368.754,73.8776 371.087,74.8776 373,77.5C 373.333,77.1667 373.667,76.8333 374,76.5C 376.925,77.7506 379.925,78.7506 383,79.5C 383.333,79.1667 383.667,78.8333 384,78.5C 384.317,80.3008 384.984,80.6341 386,79.5C 389.139,80.0789 392.139,81.0789 395,82.5C 397.267,81.0652 399.267,81.3985 401,83.5C 404.607,82.4317 407.94,82.4317 411,83.5C 411.333,84.1667 411.667,84.8333 412,85.5C 413.716,84.9889 415.216,83.6556 416.5,81.5 Z"/></g>
<g><path style="opacity:0.518" fill="#ff443f" d="M 56.5,64.5 C 57.4098,66.0188 58.2432,67.6854 59,69.5C 59.3333,68.8333 59.6667,68.1667 60,67.5C 61.1404,69.2792 62.307,70.9459 63.5,72.5C 62.5592,74.0495 61.8925,75.7162 61.5,77.5C 60.0937,77.9731 59.427,78.9731 59.5,80.5C 58.4625,81.9303 57.7959,83.597 57.5,85.5C 57.1667,85.5 56.8333,85.5 56.5,85.5C 55.4415,84.3998 54.6082,83.0664 54,81.5C 53.3333,84.1667 52.6667,84.1667 52,81.5C 51.6667,81.8333 51.3333,82.1667 51,82.5C 48.9833,79.8728 49.1499,77.3728 51.5,75C 51.2716,74.6012 50.9382,74.4346 50.5,74.5C 52.0002,70.827 54.0002,67.4937 56.5,64.5 Z"/></g>
<g><path style="opacity:1" fill="#fd8383" d="M 419.5,86.5 C 419.557,87.609 419.89,88.609 420.5,89.5C 419.44,91.0433 417.94,92.0433 416,92.5C 413.214,91.6497 410.214,91.6497 407,92.5C 406.333,89.8333 405.667,89.8333 405,92.5C 404.667,91.8333 404.333,91.1667 404,90.5C 403.131,93.7626 401.797,94.0959 400,91.5C 399.333,94.1667 398.667,94.1667 398,91.5C 395.05,93.2905 392.883,92.4572 391.5,89C 387.515,88.2534 383.682,87.0867 380,85.5C 378.984,86.6341 378.317,86.3008 378,84.5C 377.026,86.8776 376.359,86.5443 376,83.5C 375.667,83.8333 375.333,84.1667 375,84.5C 364.04,78.848 352.373,75.1813 340,73.5C 338.417,73.493 336.751,73.8263 335,74.5C 334.333,73.8333 333.667,73.1667 333,72.5C 329.333,73.8333 325.667,73.8333 322,72.5C 319.333,73.1667 316.667,73.8333 314,74.5C 313,74.1667 312,73.8333 311,73.5C 307.72,74.0948 304.387,75.0948 301,76.5C 300.667,76.1667 300.333,75.8333 300,75.5C 297.667,76.5 295.333,77.5 293,78.5C 292.667,78.1667 292.333,77.8333 292,77.5C 280.179,82.3931 268.179,87.7265 256,93.5C 254.372,92.9034 252.705,93.2367 251,94.5C 250.667,94.1667 250.333,93.8333 250,93.5C 246.322,94.5813 242.322,95.5813 238,96.5C 234.445,96.1572 230.445,95.4905 226,94.5C 224.667,97.1667 223.333,97.1667 222,94.5C 211.677,92.3988 201.177,88.7322 190.5,83.5C 189.158,84.9023 188.324,84.5689 188,82.5C 186.333,82.5 184.667,82.5 183,82.5C 182.667,81.8333 182.333,81.1667 182,80.5C 180,80.5 178,80.5 176,80.5C 174.3,78.7011 172.467,78.3677 170.5,79.5C 157.647,78.4586 144.48,78.4586 131,79.5C 129.108,80.13 127.441,81.13 126,82.5C 124.249,81.8263 122.583,81.493 121,81.5C 118.91,82.7935 116.91,83.7935 115,84.5C 114.667,84.1667 114.333,83.8333 114,83.5C 112.345,83.8024 111.012,85.1358 110,87.5C 108.434,86.9394 107.101,87.6061 106,89.5C 104.434,88.9394 103.101,89.6061 102,91.5C 101.667,91.1667 101.333,90.8333 101,90.5C 100.333,94.5 99.6667,94.5 99,90.5C 97.4943,93.474 95.8276,93.8073 94,91.5C 93.0855,95.1851 92.4189,94.8518 92,90.5C 91.6411,93.5443 90.9745,93.8776 90,91.5C 89,95.1667 87.3333,95.5 85,92.5C 84.3333,93.8333 83.6667,93.8333 83,92.5C 82.6667,93.1667 82.3333,93.8333 82,94.5C 80.0074,93.3277 78.0074,92.3277 76,91.5C 75.3333,94.1667 74.6667,94.1667 74,91.5C 72.6667,92.1667 71.6667,93.1667 71,94.5C 70.6667,93.8333 70.3333,93.1667 70,92.5C 68.5701,92.6938 67.0701,92.6938 65.5,92.5C 64.4593,94.9913 63.6259,94.9913 63,92.5C 62.3333,93.1667 61.6667,93.8333 61,94.5C 59.6667,94.5 58.3333,94.5 57,94.5C 56.0053,93.9341 55.172,93.2674 54.5,92.5C 54.767,90.0347 55.4336,87.7014 56.5,85.5C 56.8333,85.5 57.1667,85.5 57.5,85.5C 58.2161,85.7831 59.0494,86.1164 60,86.5C 61.7913,84.4873 63.1247,84.4873 64,86.5C 65.3086,84.1088 66.3086,84.1088 67,86.5C 67.6667,83.8333 68.3333,83.8333 69,86.5C 69.3173,84.6992 69.984,84.3659 71,85.5C 73.8221,84.8557 76.8221,83.8557 80,82.5C 80.6667,83.1667 81.3333,83.8333 82,84.5C 83.6667,84.5 85.3333,84.5 87,84.5C 87.6667,83.8333 88.3333,83.1667 89,82.5C 92.494,82.4339 95.8273,82.7672 99,83.5C 100.555,81.8542 102.221,81.5209 104,82.5C 106.703,79.9212 109.703,78.9212 113,79.5C 114.91,78.7935 116.91,77.7935 119,76.5C 119.333,76.8333 119.667,77.1667 120,77.5C 123.28,76.9052 126.613,75.9052 130,74.5C 131,74.8333 132,75.1667 133,75.5C 133.333,74.8333 133.667,74.1667 134,73.5C 142.058,73.5942 150.392,73.5942 159,73.5C 175.144,75.8809 190.144,80.2143 204,86.5C 204.333,86.1667 204.667,85.8333 205,85.5C 209.85,88.1147 214.516,90.1147 219,91.5C 219.333,91.1667 219.667,90.8333 220,90.5C 221.705,91.7633 223.372,92.0966 225,91.5C 230.116,92.6316 234.782,93.2983 239,93.5C 240.667,92.8333 242.333,92.1667 244,91.5C 245.957,92.8539 247.957,92.5206 250,90.5C 254.924,90.2472 259.59,88.5806 264,85.5C 265.873,86.0891 267.54,85.4224 269,83.5C 269.333,83.8333 269.667,84.1667 270,84.5C 270.317,82.6992 270.984,82.3659 272,83.5C 273.335,81.3952 275.002,80.7286 277,81.5C 280.936,78.6384 284.603,76.6384 288,75.5C 288.333,75.8333 288.667,76.1667 289,76.5C 296.509,73.4788 303.842,71.4788 311,70.5C 312,70.8333 313,71.1667 314,71.5C 319.528,70.5317 324.528,69.8651 329,69.5C 330.667,70.1667 332.333,70.8333 334,71.5C 336.111,71.4227 338.111,71.0894 340,70.5C 341,71.1667 342,71.8333 343,72.5C 344.583,72.507 346.249,72.1737 348,71.5C 348.333,72.1667 348.667,72.8333 349,73.5C 350,73.1667 351,72.8333 352,72.5C 352.333,73.1667 352.667,73.8333 353,74.5C 355.188,73.5533 357.522,73.5533 360,74.5C 360.333,75.1667 360.667,75.8333 361,76.5C 363.398,76.0647 365.731,76.7313 368,78.5C 369.016,77.3659 369.683,77.6992 370,79.5C 371.016,78.3659 371.683,78.6992 372,80.5C 373,80.1667 374,79.8333 375,79.5C 375.333,80.1667 375.667,80.8333 376,81.5C 377.016,80.3659 377.683,80.6992 378,82.5C 379.333,82.5 380.667,82.5 382,82.5C 383.555,84.1458 385.221,84.4791 387,83.5C 387.333,84.1667 387.667,84.8333 388,85.5C 388.667,82.8333 389.333,82.8333 390,85.5C 392.667,85.5 395.333,85.5 398,85.5C 398.667,86.1667 399.333,86.8333 400,87.5C 401.398,86.9491 402.732,86.6158 404,86.5C 404.333,87.1667 404.667,87.8333 405,88.5C 405.667,85.8333 406.333,85.8333 407,88.5C 410.333,88.5 413.667,88.5 417,88.5C 417.417,87.244 418.25,86.5774 419.5,86.5 Z"/></g>
<g><path style="opacity:1" fill="#f87878" d="M 420.5,89.5 C 420.328,90.4916 420.662,91.1583 421.5,91.5C 422.167,94.1667 422.833,96.8333 423.5,99.5C 420.168,98.5503 417.002,98.217 414,98.5C 413.309,100.891 412.309,100.891 411,98.5C 410.085,99.3279 409.419,100.328 409,101.5C 407.314,97.5521 405.814,97.5521 404.5,101.5C 404.5,100.5 404.5,99.5 404.5,98.5C 400.855,97.9499 397.689,97.9499 395,98.5C 394.333,95.8333 393.667,95.8333 393,98.5C 392.667,97.8333 392.333,97.1667 392,96.5C 391,96.8333 390,97.1667 389,97.5C 388.333,94.8333 387.667,94.8333 387,97.5C 382.011,94.7729 376.511,91.2729 370.5,87C 364.959,84.9811 359.459,82.8144 354,80.5C 353.667,80.8333 353.333,81.1667 353,81.5C 339.676,77.5569 325.843,76.8903 311.5,79.5C 310.914,79.2907 310.414,78.9574 310,78.5C 308,79.1667 306,79.8333 304,80.5C 302.853,79.5419 301.853,79.8753 301,81.5C 300.667,81.1667 300.333,80.8333 300,80.5C 297.546,81.3437 295.046,82.3437 292.5,83.5C 291.914,83.2907 291.414,82.9574 291,82.5C 289.057,84.645 286.724,86.3117 284,87.5C 283.667,87.1667 283.333,86.8333 283,86.5C 282.558,88.6785 281.558,89.3452 280,88.5C 279.085,89.3279 278.419,90.3279 278,91.5C 277.026,89.1224 276.359,89.4557 276,92.5C 274.984,91.3659 274.317,91.6992 274,93.5C 273.026,91.1224 272.359,91.4557 272,94.5C 271.667,93.8333 271.333,93.1667 271,92.5C 270.558,94.6785 269.558,95.3452 268,94.5C 266.348,95.0678 264.682,96.4011 263,98.5C 261.896,98.9491 260.229,98.9491 258,98.5C 257,101.167 256,101.167 255,98.5C 254.641,101.544 253.974,101.878 253,99.5C 252.309,101.891 251.309,101.891 250,99.5C 248.863,100.364 247.53,101.364 246,102.5C 244.732,102.384 243.398,102.051 242,101.5C 241.667,102.167 241.333,102.833 241,103.5C 240,101.833 239,100.167 238,98.5C 237.333,101.167 236.667,101.167 236,98.5C 235.641,101.544 234.974,101.878 234,99.5C 233.374,101.991 232.541,101.991 231.5,99.5C 229.622,99.6225 227.789,99.6225 226,99.5C 225.333,96.8333 224.667,96.8333 224,99.5C 223,98.5 222,97.5 221,96.5C 220.692,97.3081 220.192,97.9747 219.5,98.5C 218.575,97.3595 217.741,97.3595 217,98.5C 216.085,97.6721 215.419,96.6721 215,95.5C 214.333,98.1667 213.667,98.1667 213,95.5C 212,95.8333 211,96.1667 210,96.5C 209,95.5 208,94.5 207,93.5C 206.667,94.1667 206.333,94.8333 206,95.5C 205,94.1667 204,92.8333 203,91.5C 201.602,92.0509 200.268,92.3842 199,92.5C 197.615,91.4495 196.615,90.1161 196,88.5C 195.667,89.1667 195.333,89.8333 195,90.5C 193.345,90.1976 192.012,88.8642 191,86.5C 190.026,88.8776 189.359,88.5443 189,85.5C 188.333,88.1667 187.667,88.1667 187,85.5C 186.667,85.8333 186.333,86.1667 186,86.5C 182.443,83.1455 178.443,81.8122 174,82.5C 173.147,80.8753 172.147,80.5419 171,81.5C 170.536,80.9056 170.369,80.2389 170.5,79.5C 172.467,78.3677 174.3,78.7011 176,80.5C 178,80.5 180,80.5 182,80.5C 182.333,81.1667 182.667,81.8333 183,82.5C 184.667,82.5 186.333,82.5 188,82.5C 188.324,84.5689 189.158,84.9023 190.5,83.5C 201.177,88.7322 211.677,92.3988 222,94.5C 223.333,97.1667 224.667,97.1667 226,94.5C 230.445,95.4905 234.445,96.1572 238,96.5C 242.322,95.5813 246.322,94.5813 250,93.5C 250.333,93.8333 250.667,94.1667 251,94.5C 252.705,93.2367 254.372,92.9034 256,93.5C 268.179,87.7265 280.179,82.3931 292,77.5C 292.333,77.8333 292.667,78.1667 293,78.5C 295.333,77.5 297.667,76.5 300,75.5C 300.333,75.8333 300.667,76.1667 301,76.5C 304.387,75.0948 307.72,74.0948 311,73.5C 312,73.8333 313,74.1667 314,74.5C 316.667,73.8333 319.333,73.1667 322,72.5C 325.667,73.8333 329.333,73.8333 333,72.5C 333.667,73.1667 334.333,73.8333 335,74.5C 336.751,73.8263 338.417,73.493 340,73.5C 352.373,75.1813 364.04,78.848 375,84.5C 375.333,84.1667 375.667,83.8333 376,83.5C 376.359,86.5443 377.026,86.8776 378,84.5C 378.317,86.3008 378.984,86.6341 380,85.5C 383.682,87.0867 387.515,88.2534 391.5,89C 392.883,92.4572 395.05,93.2905 398,91.5C 398.667,94.1667 399.333,94.1667 400,91.5C 401.797,94.0959 403.131,93.7626 404,90.5C 404.333,91.1667 404.667,91.8333 405,92.5C 405.667,89.8333 406.333,89.8333 407,92.5C 410.214,91.6497 413.214,91.6497 416,92.5C 417.94,92.0433 419.44,91.0433 420.5,89.5 Z"/></g>
<g><path style="opacity:0.549" fill="#ff6d6a" d="M 424.5,72.5 C 427.211,76.9563 429.544,81.6229 431.5,86.5C 428.644,87.414 426.144,89.0807 424,91.5C 422.608,89.1582 421.775,89.1582 421.5,91.5C 420.662,91.1583 420.328,90.4916 420.5,89.5C 419.89,88.609 419.557,87.609 419.5,86.5C 418.737,84.6316 417.737,82.9649 416.5,81.5C 416.393,79.6214 416.893,79.2881 418,80.5C 420.788,78.5879 422.121,75.9213 422,72.5C 422.333,73.5 422.667,74.5 423,75.5C 423.232,74.2625 423.732,73.2625 424.5,72.5 Z"/></g>
<g><path style="opacity:0.475" fill="#ff1008" d="M 50.5,74.5 C 50.9382,74.4346 51.2716,74.6012 51.5,75C 49.1499,77.3728 48.9833,79.8728 51,82.5C 51.3333,82.1667 51.6667,81.8333 52,81.5C 52.6667,84.1667 53.3333,84.1667 54,81.5C 54.6082,83.0664 55.4415,84.3998 56.5,85.5C 55.4336,87.7014 54.767,90.0347 54.5,92.5C 51.9436,96.7118 50.6102,101.378 50.5,106.5C 49.1667,115.5 49.1667,124.5 50.5,133.5C 51.9982,144.171 55.4982,154.171 61,163.5C 67.9494,173.451 75.2828,183.117 83,192.5C 85.087,193.794 87.2537,194.961 89.5,196C 94.8698,203.366 101.536,209.366 109.5,214C 111.795,217.297 114.462,220.297 117.5,223C 130.843,233.333 144.51,243.166 158.5,252.5C 181.788,268.823 204.788,285.657 227.5,303C 232.06,306.174 237.06,307.174 242.5,306C 247.935,303.056 252.935,299.556 257.5,295.5C 261.192,297.533 264.192,300.2 266.5,303.5C 260.591,308.23 254.257,312.397 247.5,316C 239.548,318.398 231.881,317.732 224.5,314C 181.123,283.644 138.456,252.31 96.5,220C 78.4162,205.259 63.2495,188.093 51,168.5C 33.3689,137.043 33.2023,105.709 50.5,74.5 Z"/></g>
<g><path style="opacity:1" fill="#fa6f6f" d="M 404.5,101.5 C 404.631,102.239 404.464,102.906 404,103.5C 403.333,99.5 402.667,99.5 402,103.5C 401.193,99.551 400.693,99.551 400.5,103.5C 399.5,103.5 398.5,103.5 397.5,103.5C 397.307,99.551 396.807,99.551 396,103.5C 395.333,100.833 394.667,100.833 394,103.5C 393.085,102.672 392.419,101.672 392,100.5C 391.385,102.116 390.385,103.449 389,104.5C 387.649,102.981 386.149,101.648 384.5,100.5C 383.808,101.025 383.308,101.692 383,102.5C 382.581,98.1482 381.914,97.8149 381,101.5C 380.667,100.5 380.333,99.5 380,98.5C 379.667,98.8333 379.333,99.1667 379,99.5C 377.786,97.9512 376.286,96.7845 374.5,96C 374.833,95.6667 375.167,95.3333 375.5,95C 373.061,94.2261 371.227,92.7261 370,90.5C 369,90.5 368,90.5 367,90.5C 366.085,89.6721 365.419,88.6721 365,87.5C 364.667,87.8333 364.333,88.1667 364,88.5C 361.716,86.7756 359.382,85.1089 357,83.5C 356.333,84.1667 355.667,84.8333 355,85.5C 352.663,84.9784 350.33,83.645 348,81.5C 347.667,81.8333 347.333,82.1667 347,82.5C 341.307,81.0334 335.474,80.3667 329.5,80.5C 323.241,81.0715 317.741,81.0715 313,80.5C 304.275,81.63 295.775,84.4633 287.5,89C 284.498,91.503 281.165,93.503 277.5,95C 278.654,95.9138 278.487,96.7471 277,97.5C 276.667,97.1667 276.333,96.8333 276,96.5C 274.686,97.3128 273.519,98.3128 272.5,99.5C 270.671,98.7176 269.171,99.3843 268,101.5C 267,101.167 266,100.833 265,100.5C 263.863,101.364 262.53,102.364 261,103.5C 258.333,103.5 255.667,103.5 253,103.5C 252.047,105.592 250.714,105.925 249,104.5C 247.559,105.26 246.059,105.926 244.5,106.5C 243.284,105.998 242.117,105.665 241,105.5C 240.333,106.167 239.667,106.833 239,107.5C 237.192,107.112 235.525,107.112 234,107.5C 233.667,106.167 233.333,104.833 233,103.5C 232.633,107.281 231.3,107.948 229,105.5C 227.883,105.665 226.716,105.998 225.5,106.5C 224.318,104.355 222.818,104.355 221,106.5C 220.333,105.167 219.667,103.833 219,102.5C 218.16,105.464 217.16,105.797 216,103.5C 215.667,104.167 215.333,104.833 215,105.5C 213.415,104.624 212.415,103.291 212,101.5C 210.333,102.167 208.667,102.833 207,103.5C 206.333,100.833 205.667,100.833 205,103.5C 204.667,102.833 204.333,102.167 204,101.5C 203.722,102.416 203.222,103.082 202.5,103.5C 202.052,100.513 200.552,99.5128 198,100.5C 197.779,97.0569 196.779,96.7236 195,99.5C 194.085,98.6721 193.419,97.6721 193,96.5C 192.667,96.8333 192.333,97.1667 192,97.5C 190.901,94.9613 189.234,94.2946 187,95.5C 185.396,95.0968 184.229,93.7635 183.5,91.5C 181.577,90.6922 179.577,90.1922 177.5,90C 176.874,89.2496 176.374,88.4162 176,87.5C 175.667,87.8333 175.333,88.1667 175,88.5C 173.333,87.5 171.667,86.5 170,85.5C 169.667,85.8333 169.333,86.1667 169,86.5C 166.75,83.6443 164.417,82.9777 162,84.5C 161.667,83.8333 161.333,83.1667 161,82.5C 153.661,83.8176 145.994,83.8176 138,82.5C 137.147,84.1247 136.147,84.4581 135,83.5C 133.691,85.8912 132.691,85.8912 132,83.5C 127.476,85.3989 122.976,87.3989 118.5,89.5C 117.172,92.4162 115.172,93.5829 112.5,93C 110.171,97.3305 106.671,100.831 102,103.5C 100.657,102.786 99.3236,103.12 98,104.5C 96.8872,102.2 95.3872,101.867 93.5,103.5C 92.3527,103.182 91.5194,102.516 91,101.5C 90.0255,103.878 89.3589,103.544 89,100.5C 87.3141,103.022 85.9808,102.689 85,99.5C 84.3333,102.167 83.6667,102.167 83,99.5C 82.6667,100.167 82.3333,100.833 82,101.5C 80.6667,100.167 79.3333,100.167 78,101.5C 76.4452,99.8542 74.7785,99.5209 73,100.5C 72.3333,97.8333 71.6667,97.8333 71,100.5C 70.3333,97.8333 69.6667,97.8333 69,100.5C 68.6667,99.8333 68.3333,99.1667 68,98.5C 64.335,100.828 61.0017,104.162 58,108.5C 57.5488,106.071 56.7155,105.904 55.5,108C 56.6537,108.914 56.487,109.747 55,110.5C 54.6667,110.167 54.3333,109.833 54,109.5C 53.3109,110.357 52.4776,111.023 51.5,111.5C 50.5481,109.955 50.2148,108.288 50.5,106.5C 50.6102,101.378 51.9436,96.7118 54.5,92.5C 55.172,93.2674 56.0053,93.9341 57,94.5C 58.3333,94.5 59.6667,94.5 61,94.5C 61.6667,93.8333 62.3333,93.1667 63,92.5C 63.6259,94.9913 64.4593,94.9913 65.5,92.5C 67.0701,92.6938 68.5701,92.6938 70,92.5C 70.3333,93.1667 70.6667,93.8333 71,94.5C 71.6667,93.1667 72.6667,92.1667 74,91.5C 74.6667,94.1667 75.3333,94.1667 76,91.5C 78.0074,92.3277 80.0074,93.3277 82,94.5C 82.3333,93.8333 82.6667,93.1667 83,92.5C 83.6667,93.8333 84.3333,93.8333 85,92.5C 87.3333,95.5 89,95.1667 90,91.5C 90.9745,93.8776 91.6411,93.5443 92,90.5C 92.4189,94.8518 93.0855,95.1851 94,91.5C 95.8276,93.8073 97.4943,93.474 99,90.5C 99.6667,94.5 100.333,94.5 101,90.5C 101.333,90.8333 101.667,91.1667 102,91.5C 103.101,89.6061 104.434,88.9394 106,89.5C 107.101,87.6061 108.434,86.9394 110,87.5C 111.012,85.1358 112.345,83.8024 114,83.5C 114.333,83.8333 114.667,84.1667 115,84.5C 116.91,83.7935 118.91,82.7935 121,81.5C 122.583,81.493 124.249,81.8263 126,82.5C 127.441,81.13 129.108,80.13 131,79.5C 144.48,78.4586 157.647,78.4586 170.5,79.5C 170.369,80.2389 170.536,80.9056 171,81.5C 172.147,80.5419 173.147,80.8753 174,82.5C 178.443,81.8122 182.443,83.1455 186,86.5C 186.333,86.1667 186.667,85.8333 187,85.5C 187.667,88.1667 188.333,88.1667 189,85.5C 189.359,88.5443 190.026,88.8776 191,86.5C 192.012,88.8642 193.345,90.1976 195,90.5C 195.333,89.8333 195.667,89.1667 196,88.5C 196.615,90.1161 197.615,91.4495 199,92.5C 200.268,92.3842 201.602,92.0509 203,91.5C 204,92.8333 205,94.1667 206,95.5C 206.333,94.8333 206.667,94.1667 207,93.5C 208,94.5 209,95.5 210,96.5C 211,96.1667 212,95.8333 213,95.5C 213.667,98.1667 214.333,98.1667 215,95.5C 215.419,96.6721 216.085,97.6721 217,98.5C 217.741,97.3595 218.575,97.3595 219.5,98.5C 220.192,97.9747 220.692,97.3081 221,96.5C 222,97.5 223,98.5 224,99.5C 224.667,96.8333 225.333,96.8333 226,99.5C 227.789,99.6225 229.622,99.6225 231.5,99.5C 232.541,101.991 233.374,101.991 234,99.5C 234.974,101.878 235.641,101.544 236,98.5C 236.667,101.167 237.333,101.167 238,98.5C 239,100.167 240,101.833 241,103.5C 241.333,102.833 241.667,102.167 242,101.5C 243.398,102.051 244.732,102.384 246,102.5C 247.53,101.364 248.863,100.364 250,99.5C 251.309,101.891 252.309,101.891 253,99.5C 253.974,101.878 254.641,101.544 255,98.5C 256,101.167 257,101.167 258,98.5C 260.229,98.9491 261.896,98.9491 263,98.5C 264.682,96.4011 266.348,95.0678 268,94.5C 269.558,95.3452 270.558,94.6785 271,92.5C 271.333,93.1667 271.667,93.8333 272,94.5C 272.359,91.4557 273.026,91.1224 274,93.5C 274.317,91.6992 274.984,91.3659 276,92.5C 276.359,89.4557 277.026,89.1224 278,91.5C 278.419,90.3279 279.085,89.3279 280,88.5C 281.558,89.3452 282.558,88.6785 283,86.5C 283.333,86.8333 283.667,87.1667 284,87.5C 286.724,86.3117 289.057,84.645 291,82.5C 291.414,82.9574 291.914,83.2907 292.5,83.5C 295.046,82.3437 297.546,81.3437 300,80.5C 300.333,80.8333 300.667,81.1667 301,81.5C 301.853,79.8753 302.853,79.5419 304,80.5C 306,79.8333 308,79.1667 310,78.5C 310.414,78.9574 310.914,79.2907 311.5,79.5C 325.843,76.8903 339.676,77.5569 353,81.5C 353.333,81.1667 353.667,80.8333 354,80.5C 359.459,82.8144 364.959,84.9811 370.5,87C 376.511,91.2729 382.011,94.7729 387,97.5C 387.667,94.8333 388.333,94.8333 389,97.5C 390,97.1667 391,96.8333 392,96.5C 392.333,97.1667 392.667,97.8333 393,98.5C 393.667,95.8333 394.333,95.8333 395,98.5C 397.689,97.9499 400.855,97.9499 404.5,98.5C 404.5,99.5 404.5,100.5 404.5,101.5 Z"/></g>
<g><path style="opacity:0.518" fill="#ff4541" d="M 431.5,86.5 C 431.5,87.1667 431.5,87.8333 431.5,88.5C 432.287,91.7672 432.954,94.7672 433.5,97.5C 432.817,100.461 431.984,100.795 431,98.5C 429.414,100.67 428.08,103.004 427,105.5C 426.221,102.903 425.721,102.903 425.5,105.5C 425.167,105.5 424.833,105.5 424.5,105.5C 424.483,103.435 424.15,101.435 423.5,99.5C 422.833,96.8333 422.167,94.1667 421.5,91.5C 421.775,89.1582 422.608,89.1582 424,91.5C 426.144,89.0807 428.644,87.414 431.5,86.5 Z"/></g>
<g><path style="opacity:1" fill="#ea6261" d="M 404.5,101.5 C 405.814,97.5521 407.314,97.5521 409,101.5C 409.419,100.328 410.085,99.3279 411,98.5C 412.309,100.891 413.309,100.891 414,98.5C 417.002,98.217 420.168,98.5503 423.5,99.5C 424.15,101.435 424.483,103.435 424.5,105.5C 424.607,107.379 424.107,107.712 423,106.5C 420.957,108.521 418.957,108.854 417,107.5C 411.044,108.799 405.044,109.799 399,110.5C 395.449,110.063 391.782,110.063 388,110.5C 380.383,106.764 373.883,102.264 368.5,97C 365.431,97.4859 363.431,95.9859 362.5,92.5C 361.167,92.5 359.833,92.5 358.5,92.5C 357.667,91.5 356.833,90.5 356,89.5C 354.984,90.6341 354.317,90.3008 354,88.5C 352.984,89.6341 352.317,89.3008 352,87.5C 350.002,88.2714 348.335,87.6048 347,85.5C 345,85.5 343,85.5 341,85.5C 340.333,84.8333 339.667,84.1667 339,83.5C 335.016,83.6804 331.016,84.0137 327,84.5C 326.692,83.6919 326.192,83.0253 325.5,82.5C 323.013,82.7824 320.347,82.7824 317.5,82.5C 317.649,83.552 317.483,84.552 317,85.5C 316.667,85.1667 316.333,84.8333 316,84.5C 312.905,85.7107 309.905,87.0441 307,88.5C 304.91,87.2092 303.576,87.8758 303,90.5C 302.586,90.0426 302.086,89.7093 301.5,89.5C 300.667,90.5 299.833,91.5 299,92.5C 298.667,92.1667 298.333,91.8333 298,91.5C 295.672,92.4862 293.672,94.4862 292,97.5C 291.667,97.1667 291.333,96.8333 291,96.5C 290.641,99.5443 289.974,99.8776 289,97.5C 288.333,98.8333 287.667,100.167 287,101.5C 286.667,100.833 286.333,100.167 286,99.5C 284.667,101.167 283.333,102.833 282,104.5C 281.667,104.167 281.333,103.833 281,103.5C 280,104.5 279,105.5 278,106.5C 277.026,104.122 276.359,104.456 276,107.5C 274.853,106.542 273.853,106.875 273,108.5C 272.667,108.167 272.333,107.833 272,107.5C 270.559,108.26 269.059,108.926 267.5,109.5C 266.284,108.998 265.117,108.665 264,108.5C 263.667,109.167 263.333,109.833 263,110.5C 262,110.167 261,109.833 260,109.5C 258.351,112.877 256.351,113.21 254,110.5C 253.581,114.852 252.914,115.185 252,111.5C 251.005,112.066 250.172,112.733 249.5,113.5C 247.292,111.857 245.459,112.19 244,114.5C 243.026,112.122 242.359,112.456 242,115.5C 241.641,112.456 240.974,112.122 240,114.5C 239.333,113.167 238.667,113.167 238,114.5C 237.333,111.833 236.667,111.833 236,114.5C 232.926,113.954 229.426,113.621 225.5,113.5C 225.274,110.236 223.774,109.236 221,110.5C 220.333,106.5 219.667,106.5 219,110.5C 218.692,109.692 218.192,109.025 217.5,108.5C 216.167,108.833 214.833,109.167 213.5,109.5C 211.428,107.567 209.095,107.567 206.5,109.5C 206.693,108.312 206.193,106.978 205,105.5C 204.333,108.167 203.667,108.167 203,105.5C 202.026,107.878 201.359,107.544 201,104.5C 200.667,105.5 200.333,106.5 200,107.5C 199.722,106.584 199.222,105.918 198.5,105.5C 199.195,103.15 200.528,102.483 202.5,103.5C 203.222,103.082 203.722,102.416 204,101.5C 204.333,102.167 204.667,102.833 205,103.5C 205.667,100.833 206.333,100.833 207,103.5C 208.667,102.833 210.333,102.167 212,101.5C 212.415,103.291 213.415,104.624 215,105.5C 215.333,104.833 215.667,104.167 216,103.5C 217.16,105.797 218.16,105.464 219,102.5C 219.667,103.833 220.333,105.167 221,106.5C 222.818,104.355 224.318,104.355 225.5,106.5C 226.716,105.998 227.883,105.665 229,105.5C 231.3,107.948 232.633,107.281 233,103.5C 233.333,104.833 233.667,106.167 234,107.5C 235.525,107.112 237.192,107.112 239,107.5C 239.667,106.833 240.333,106.167 241,105.5C 242.117,105.665 243.284,105.998 244.5,106.5C 246.059,105.926 247.559,105.26 249,104.5C 250.714,105.925 252.047,105.592 253,103.5C 255.667,103.5 258.333,103.5 261,103.5C 262.53,102.364 263.863,101.364 265,100.5C 266,100.833 267,101.167 268,101.5C 269.171,99.3843 270.671,98.7176 272.5,99.5C 273.519,98.3128 274.686,97.3128 276,96.5C 276.333,96.8333 276.667,97.1667 277,97.5C 278.487,96.7471 278.654,95.9138 277.5,95C 281.165,93.503 284.498,91.503 287.5,89C 295.775,84.4633 304.275,81.63 313,80.5C 317.741,81.0715 323.241,81.0715 329.5,80.5C 335.474,80.3667 341.307,81.0334 347,82.5C 347.333,82.1667 347.667,81.8333 348,81.5C 350.33,83.645 352.663,84.9784 355,85.5C 355.667,84.8333 356.333,84.1667 357,83.5C 359.382,85.1089 361.716,86.7756 364,88.5C 364.333,88.1667 364.667,87.8333 365,87.5C 365.419,88.6721 366.085,89.6721 367,90.5C 368,90.5 369,90.5 370,90.5C 371.227,92.7261 373.061,94.2261 375.5,95C 375.167,95.3333 374.833,95.6667 374.5,96C 376.286,96.7845 377.786,97.9512 379,99.5C 379.333,99.1667 379.667,98.8333 380,98.5C 380.333,99.5 380.667,100.5 381,101.5C 381.914,97.8149 382.581,98.1482 383,102.5C 383.308,101.692 383.808,101.025 384.5,100.5C 386.149,101.648 387.649,102.981 389,104.5C 390.385,103.449 391.385,102.116 392,100.5C 392.419,101.672 393.085,102.672 394,103.5C 394.667,100.833 395.333,100.833 396,103.5C 396.807,99.551 397.307,99.551 397.5,103.5C 398.5,103.5 399.5,103.5 400.5,103.5C 400.693,99.551 401.193,99.551 402,103.5C 402.667,99.5 403.333,99.5 404,103.5C 404.464,102.906 404.631,102.239 404.5,101.5 Z"/></g>
<g><path style="opacity:1" fill="#f05e5d" d="M 198.5,105.5 C 199.222,105.918 199.722,106.584 200,107.5C 200.333,106.5 200.667,105.5 201,104.5C 201.359,107.544 202.026,107.878 203,105.5C 203.667,108.167 204.333,108.167 205,105.5C 206.193,106.978 206.693,108.312 206.5,109.5C 209.095,107.567 211.428,107.567 213.5,109.5C 214.833,109.167 216.167,108.833 217.5,108.5C 218.192,109.025 218.692,109.692 219,110.5C 219.667,106.5 220.333,106.5 221,110.5C 223.774,109.236 225.274,110.236 225.5,113.5C 225.631,114.239 225.464,114.906 225,115.5C 224.581,114.328 223.915,113.328 223,112.5C 219.028,112.659 215.028,113.659 211,115.5C 209.26,114.284 208.26,112.618 208,110.5C 206.513,111.253 206.346,112.086 207.5,113C 206.5,113.333 205.5,113.667 204.5,114C 201.563,113.989 198.73,114.155 196,114.5C 195.692,113.692 195.192,113.025 194.5,112.5C 193.5,113.833 192.5,113.833 191.5,112.5C 189.866,112.968 188.7,113.968 188,115.5C 187.667,114.833 187.333,114.167 187,113.5C 184.546,115.013 182.879,114.346 182,111.5C 181.333,112.833 180.667,112.833 180,111.5C 179.667,112.5 179.333,113.5 179,114.5C 178.163,108.163 177.497,108.497 177,115.5C 174.818,118.078 172.651,119.912 170.5,121C 171.167,121.667 171.833,122.333 172.5,123C 171.333,124.167 170.167,125.333 169,126.5C 168,125.5 167,124.5 166,123.5C 164.194,125.306 162.36,127.14 160.5,129C 161.03,131.136 160.197,132.97 158,134.5C 157.085,133.672 156.419,132.672 156,131.5C 155.727,133.329 154.893,134.829 153.5,136C 153.833,137.667 154.167,139.333 154.5,141C 151.919,144.025 150.586,143.692 150.5,140C 149.448,138.881 148.281,138.381 147,138.5C 145.515,141.3 143.849,143.966 142,146.5C 141.28,144.745 140.113,143.911 138.5,144C 141.3,146.419 141.133,148.586 138,150.5C 136.456,147.736 135.289,147.903 134.5,151C 134.833,151.333 135.167,151.667 135.5,152C 134.333,153.167 133.167,154.333 132,155.5C 131.383,156.449 131.549,157.282 132.5,158C 131.667,158.833 130.833,159.667 130,160.5C 129.333,159.167 128.667,159.167 128,160.5C 124.394,156.901 123.56,157.401 125.5,162C 123.584,165.161 121.75,164.994 120,161.5C 119.837,163.387 120.671,164.887 122.5,166C 120.745,166.72 119.911,167.887 120,169.5C 121.978,168.184 123.478,168.684 124.5,171C 123.529,172.204 122.529,172.704 121.5,172.5C 123.973,174.098 123.973,175.598 121.5,177C 122.258,178.364 121.758,179.531 120,180.5C 118.622,178.787 116.955,177.453 115,176.5C 114.626,177.416 114.126,178.25 113.5,179C 113.411,180.716 113.744,182.549 114.5,184.5C 113.975,185.192 113.308,185.692 112.5,186C 113.833,187.333 115.167,188.667 116.5,190C 116.5,191.333 116.5,192.667 116.5,194C 121.104,196.434 124.438,199.934 126.5,204.5C 126.804,205.15 127.137,205.817 127.5,206.5C 127.154,207.696 126.654,207.696 126,206.5C 125.536,207.094 125.369,207.761 125.5,208.5C 123.833,207.833 122.167,207.167 120.5,206.5C 120.414,205.504 120.748,204.671 121.5,204C 120.007,202.632 118.507,202.465 117,203.5C 115.363,199.565 113.029,196.898 110,195.5C 106.507,191.007 102.673,186.841 98.5,183C 98.8333,182.667 99.1667,182.333 99.5,182C 98.1667,181.333 96.8333,180.667 95.5,180C 96.1667,179.667 96.8333,179.333 97.5,179C 94.8333,176.333 91.8333,173.333 88.5,170C 89.1667,169.667 89.8333,169.333 90.5,169C 88.2542,167.743 86.9209,165.91 86.5,163.5C 84.8967,163.688 83.5634,163.188 82.5,162C 84.8912,161.309 84.8912,160.309 82.5,159C 83.1667,158.667 83.8333,158.333 84.5,158C 83.0716,155.815 81.4049,153.815 79.5,152C 82.1667,151.333 82.1667,150.667 79.5,150C 79.8333,149.667 80.1667,149.333 80.5,149C 79.4258,148.261 78.7591,147.261 78.5,146C 79.2534,143.742 79.2534,141.742 78.5,140C 77.6383,137.266 76.805,137.099 76,139.5C 75.5348,138.069 74.7014,136.903 73.5,136C 74.1905,134.933 74.6905,133.766 75,132.5C 75.3589,135.544 76.0255,135.878 77,133.5C 77.805,135.901 78.6383,135.734 79.5,133C 77.0566,130.442 77.5566,129.608 81,130.5C 81.6667,123.833 82.3333,123.833 83,130.5C 83.3333,129.5 83.6667,128.5 84,127.5C 84.3333,127.833 84.6667,128.167 85,128.5C 85.4561,127.256 84.9561,126.423 83.5,126C 84.3081,125.692 84.9747,125.192 85.5,124.5C 85.1543,123.304 84.6543,123.304 84,124.5C 83.2935,122.919 82.4601,121.419 81.5,120C 82.6667,116.833 84.1667,116.667 86,119.5C 87.487,118.747 87.6537,117.914 86.5,117C 87.9308,116.535 89.0975,115.701 90,114.5C 91.3639,115.258 92.5305,114.758 93.5,113C 92.8333,112.333 92.1667,111.667 91.5,111C 93.1626,110.735 94.6626,111.235 96,112.5C 96.9138,111.346 97.7471,111.513 98.5,113C 97.6598,114.666 98.1598,114.833 100,113.5C 101.137,114.364 102.47,115.364 104,116.5C 104.465,115.069 105.299,113.903 106.5,113C 106.167,112.667 105.833,112.333 105.5,112C 106.744,111.544 107.577,112.044 108,113.5C 108.167,110.667 109.667,109.167 112.5,109C 112.167,108.667 111.833,108.333 111.5,108C 113.286,107.215 114.786,106.049 116,104.5C 116.333,104.833 116.667,105.167 117,105.5C 117.26,103.382 118.26,101.716 120,100.5C 120.333,100.833 120.667,101.167 121,101.5C 122.667,99.8333 124.333,98.1667 126,96.5C 126.915,97.3279 127.581,98.3279 128,99.5C 128.667,97.5 129.333,95.5 130,93.5C 131.333,93.5 132.667,93.5 134,93.5C 135.333,89.5 136.667,89.5 138,93.5C 138.442,91.3215 139.442,90.6548 141,91.5C 143.409,88.2248 146.076,87.5582 149,89.5C 152.876,87.5358 156.542,88.2025 160,91.5C 161.016,90.3659 161.683,90.6992 162,92.5C 162.333,91.8333 162.667,91.1667 163,90.5C 163.971,91.1984 165.137,91.1984 166.5,90.5C 167.647,90.8178 168.481,91.4844 169,92.5C 171.228,91.7007 172.561,92.7007 173,95.5C 173.667,92.8333 174.333,92.8333 175,95.5C 175.718,94.5494 176.551,94.3828 177.5,95C 178.304,96.7713 179.471,98.2713 181,99.5C 182.398,98.9491 183.732,98.6158 185,98.5C 187.333,100.5 189.667,102.5 192,104.5C 193.117,104.335 194.284,104.002 195.5,103.5C 196.506,103.938 196.506,104.604 195.5,105.5C 196.614,106.776 197.614,106.776 198.5,105.5 Z"/></g>
<g><path style="opacity:1" fill="#df5453" d="M 424.5,105.5 C 424.833,105.5 425.167,105.5 425.5,105.5C 425.5,106.833 425.5,108.167 425.5,109.5C 421.439,109.755 417.272,110.755 413,112.5C 411.221,111.521 409.555,111.854 408,113.5C 407.667,112.833 407.333,112.167 407,111.5C 404.472,112.955 401.805,114.622 399,116.5C 397.333,116.167 395.667,115.833 394,115.5C 392.333,117.167 390.667,118.833 389,120.5C 387.39,120.87 385.89,120.203 384.5,118.5C 383.808,119.025 383.308,119.692 383,120.5C 382.692,119.692 382.192,119.025 381.5,118.5C 379.275,119.101 377.109,119.434 375,119.5C 374.085,118.672 373.419,117.672 373,116.5C 372.667,116.833 372.333,117.167 372,117.5C 369.461,113.624 367.128,113.624 365,117.5C 361.992,115.532 358.992,112.866 356,109.5C 351.436,112.089 346.769,115.422 342,119.5C 341.667,119.167 341.333,118.833 341,118.5C 339.317,121.45 337.317,124.45 335,127.5C 334.667,126.833 334.333,126.167 334,125.5C 329.785,128.939 325.785,132.606 322,136.5C 321.667,136.167 321.333,135.833 321,135.5C 320.421,136.928 320.588,138.262 321.5,139.5C 308.343,143.8 297.843,151.8 290,163.5C 288.714,166.405 287.714,169.405 287,172.5C 286.311,173.357 285.478,174.023 284.5,174.5C 278.43,155.938 265.763,144.438 246.5,140C 237.712,139.039 229.046,139.539 220.5,141.5C 218.897,141.688 217.563,141.188 216.5,140C 218.295,139.743 220.295,139.077 222.5,138C 221.346,137.086 221.513,136.253 223,135.5C 223.333,135.833 223.667,136.167 224,136.5C 226.007,132.407 229.173,129.573 233.5,128C 237.233,124.626 240.4,121.459 243,118.5C 243.974,120.878 244.641,120.544 245,117.5C 246.008,117.018 247.175,116.852 248.5,117C 247.304,116.346 247.304,115.846 248.5,115.5C 252.02,117.813 252.353,117.147 249.5,113.5C 250.172,112.733 251.005,112.066 252,111.5C 252.914,115.185 253.581,114.852 254,110.5C 256.351,113.21 258.351,112.877 260,109.5C 261,109.833 262,110.167 263,110.5C 263.333,109.833 263.667,109.167 264,108.5C 265.117,108.665 266.284,108.998 267.5,109.5C 269.059,108.926 270.559,108.26 272,107.5C 272.333,107.833 272.667,108.167 273,108.5C 273.853,106.875 274.853,106.542 276,107.5C 276.359,104.456 277.026,104.122 278,106.5C 279,105.5 280,104.5 281,103.5C 281.333,103.833 281.667,104.167 282,104.5C 283.333,102.833 284.667,101.167 286,99.5C 286.333,100.167 286.667,100.833 287,101.5C 287.667,100.167 288.333,98.8333 289,97.5C 289.974,99.8776 290.641,99.5443 291,96.5C 291.333,96.8333 291.667,97.1667 292,97.5C 293.672,94.4862 295.672,92.4862 298,91.5C 298.333,91.8333 298.667,92.1667 299,92.5C 299.833,91.5 300.667,90.5 301.5,89.5C 302.086,89.7093 302.586,90.0426 303,90.5C 303.576,87.8758 304.91,87.2092 307,88.5C 309.905,87.0441 312.905,85.7107 316,84.5C 316.333,84.8333 316.667,85.1667 317,85.5C 317.483,84.552 317.649,83.552 317.5,82.5C 320.347,82.7824 323.013,82.7824 325.5,82.5C 326.192,83.0253 326.692,83.6919 327,84.5C 331.016,84.0137 335.016,83.6804 339,83.5C 339.667,84.1667 340.333,84.8333 341,85.5C 343,85.5 345,85.5 347,85.5C 348.335,87.6048 350.002,88.2714 352,87.5C 352.317,89.3008 352.984,89.6341 354,88.5C 354.317,90.3008 354.984,90.6341 356,89.5C 356.833,90.5 357.667,91.5 358.5,92.5C 359.833,92.5 361.167,92.5 362.5,92.5C 363.431,95.9859 365.431,97.4859 368.5,97C 373.883,102.264 380.383,106.764 388,110.5C 391.782,110.063 395.449,110.063 399,110.5C 405.044,109.799 411.044,108.799 417,107.5C 418.957,108.854 420.957,108.521 423,106.5C 424.107,107.712 424.607,107.379 424.5,105.5 Z"/></g>
<g><path style="opacity:1" fill="#f96665" d="M 202.5,103.5 C 200.528,102.483 199.195,103.15 198.5,105.5C 197.614,106.776 196.614,106.776 195.5,105.5C 196.506,104.604 196.506,103.938 195.5,103.5C 194.284,104.002 193.117,104.335 192,104.5C 189.667,102.5 187.333,100.5 185,98.5C 183.732,98.6158 182.398,98.9491 181,99.5C 179.471,98.2713 178.304,96.7713 177.5,95C 176.551,94.3828 175.718,94.5494 175,95.5C 174.333,92.8333 173.667,92.8333 173,95.5C 172.561,92.7007 171.228,91.7007 169,92.5C 168.481,91.4844 167.647,90.8178 166.5,90.5C 165.137,91.1984 163.971,91.1984 163,90.5C 162.667,91.1667 162.333,91.8333 162,92.5C 161.683,90.6992 161.016,90.3659 160,91.5C 156.542,88.2025 152.876,87.5358 149,89.5C 146.076,87.5582 143.409,88.2248 141,91.5C 139.442,90.6548 138.442,91.3215 138,93.5C 136.667,89.5 135.333,89.5 134,93.5C 132.667,93.5 131.333,93.5 130,93.5C 129.333,95.5 128.667,97.5 128,99.5C 127.581,98.3279 126.915,97.3279 126,96.5C 124.333,98.1667 122.667,99.8333 121,101.5C 120.667,101.167 120.333,100.833 120,100.5C 118.26,101.716 117.26,103.382 117,105.5C 116.667,105.167 116.333,104.833 116,104.5C 114.786,106.049 113.286,107.215 111.5,108C 111.833,108.333 112.167,108.667 112.5,109C 109.667,109.167 108.167,110.667 108,113.5C 107.577,112.044 106.744,111.544 105.5,112C 105.833,112.333 106.167,112.667 106.5,113C 105.299,113.903 104.465,115.069 104,116.5C 102.47,115.364 101.137,114.364 100,113.5C 98.1598,114.833 97.6598,114.666 98.5,113C 97.7471,111.513 96.9138,111.346 96,112.5C 94.6626,111.235 93.1626,110.735 91.5,111C 92.1667,111.667 92.8333,112.333 93.5,113C 92.5305,114.758 91.3639,115.258 90,114.5C 89.0975,115.701 87.9308,116.535 86.5,117C 87.6537,117.914 87.487,118.747 86,119.5C 84.1667,116.667 82.6667,116.833 81.5,120C 82.4601,121.419 83.2935,122.919 84,124.5C 84.6543,123.304 85.1543,123.304 85.5,124.5C 84.9747,125.192 84.3081,125.692 83.5,126C 84.9561,126.423 85.4561,127.256 85,128.5C 84.6667,128.167 84.3333,127.833 84,127.5C 83.6667,128.5 83.3333,129.5 83,130.5C 82.3333,123.833 81.6667,123.833 81,130.5C 77.5566,129.608 77.0566,130.442 79.5,133C 78.6383,135.734 77.805,135.901 77,133.5C 76.0255,135.878 75.3589,135.544 75,132.5C 74.6905,133.766 74.1905,134.933 73.5,136C 74.7014,136.903 75.5348,138.069 76,139.5C 76.805,137.099 77.6383,137.266 78.5,140C 79.2534,141.742 79.2534,143.742 78.5,146C 78.7591,147.261 79.4258,148.261 80.5,149C 80.1667,149.333 79.8333,149.667 79.5,150C 82.1667,150.667 82.1667,151.333 79.5,152C 81.4049,153.815 83.0716,155.815 84.5,158C 83.8333,158.333 83.1667,158.667 82.5,159C 84.8912,160.309 84.8912,161.309 82.5,162C 83.5634,163.188 84.8967,163.688 86.5,163.5C 86.9209,165.91 88.2542,167.743 90.5,169C 89.8333,169.333 89.1667,169.667 88.5,170C 91.8333,173.333 94.8333,176.333 97.5,179C 96.8333,179.333 96.1667,179.667 95.5,180C 96.8333,180.667 98.1667,181.333 99.5,182C 99.1667,182.333 98.8333,182.667 98.5,183C 102.673,186.841 106.507,191.007 110,195.5C 113.029,196.898 115.363,199.565 117,203.5C 118.507,202.465 120.007,202.632 121.5,204C 120.748,204.671 120.414,205.504 120.5,206.5C 121.443,208.001 121.109,209.335 119.5,210.5C 119.656,209.502 119.156,208.502 118,207.5C 117.667,207.833 117.333,208.167 117,208.5C 115.96,205.96 114.126,204.293 111.5,203.5C 111.709,202.914 112.043,202.414 112.5,202C 110.951,200.786 109.785,199.286 109,197.5C 108.667,198.167 108.333,198.833 108,199.5C 105.5,197.667 103,195.833 100.5,194C 101.167,193.667 101.833,193.333 102.5,193C 99.9906,191.579 97.6572,189.912 95.5,188C 95.8333,187.667 96.1667,187.333 96.5,187C 94.55,187.123 92.8834,186.123 91.5,184C 91.8333,183.667 92.1667,183.333 92.5,183C 89.3543,182.89 88.3543,181.557 89.5,179C 79.6928,169.624 72.1928,159.124 67,147.5C 66.6667,148.167 66.3333,148.833 66,149.5C 65.6824,147.939 64.8491,146.772 63.5,146C 64.3081,145.692 64.9747,145.192 65.5,144.5C 63.8744,143.01 62.2077,141.51 60.5,140C 60.8333,139.667 61.1667,139.333 61.5,139C 58.0366,136.083 54.5366,133.249 51,130.5C 50.5172,131.448 50.3505,132.448 50.5,133.5C 49.1667,124.5 49.1667,115.5 50.5,106.5C 50.2148,108.288 50.5481,109.955 51.5,111.5C 52.4776,111.023 53.3109,110.357 54,109.5C 54.3333,109.833 54.6667,110.167 55,110.5C 56.487,109.747 56.6537,108.914 55.5,108C 56.7155,105.904 57.5488,106.071 58,108.5C 61.0017,104.162 64.335,100.828 68,98.5C 68.3333,99.1667 68.6667,99.8333 69,100.5C 69.6667,97.8333 70.3333,97.8333 71,100.5C 71.6667,97.8333 72.3333,97.8333 73,100.5C 74.7785,99.5209 76.4452,99.8542 78,101.5C 79.3333,100.167 80.6667,100.167 82,101.5C 82.3333,100.833 82.6667,100.167 83,99.5C 83.6667,102.167 84.3333,102.167 85,99.5C 85.9808,102.689 87.3141,103.022 89,100.5C 89.3589,103.544 90.0255,103.878 91,101.5C 91.5194,102.516 92.3527,103.182 93.5,103.5C 95.3872,101.867 96.8872,102.2 98,104.5C 99.3236,103.12 100.657,102.786 102,103.5C 106.671,100.831 110.171,97.3305 112.5,93C 115.172,93.5829 117.172,92.4162 118.5,89.5C 122.976,87.3989 127.476,85.3989 132,83.5C 132.691,85.8912 133.691,85.8912 135,83.5C 136.147,84.4581 137.147,84.1247 138,82.5C 145.994,83.8176 153.661,83.8176 161,82.5C 161.333,83.1667 161.667,83.8333 162,84.5C 164.417,82.9777 166.75,83.6443 169,86.5C 169.333,86.1667 169.667,85.8333 170,85.5C 171.667,86.5 173.333,87.5 175,88.5C 175.333,88.1667 175.667,87.8333 176,87.5C 176.374,88.4162 176.874,89.2496 177.5,90C 179.577,90.1922 181.577,90.6922 183.5,91.5C 184.229,93.7635 185.396,95.0968 187,95.5C 189.234,94.2946 190.901,94.9613 192,97.5C 192.333,97.1667 192.667,96.8333 193,96.5C 193.419,97.6721 194.085,98.6721 195,99.5C 196.779,96.7236 197.779,97.0569 198,100.5C 200.552,99.5128 202.052,100.513 202.5,103.5 Z"/></g>
<g><path style="opacity:0.475" fill="#ff150b" d="M 431.5,88.5 C 441.25,115.974 439.084,142.641 425,168.5C 414.219,186.786 400.385,202.453 383.5,215.5C 382.876,215.083 382.543,214.416 382.5,213.5C 383.824,208.553 384.824,203.553 385.5,198.5C 402.218,183.927 414.718,166.26 423,145.5C 425.86,133.605 426.694,121.605 425.5,109.5C 425.5,108.167 425.5,106.833 425.5,105.5C 425.721,102.903 426.221,102.903 427,105.5C 428.08,103.004 429.414,100.67 431,98.5C 431.984,100.795 432.817,100.461 433.5,97.5C 432.954,94.7672 432.287,91.7672 431.5,88.5 Z"/></g>
<g><path style="opacity:1" fill="#e95a59" d="M 225.5,113.5 C 229.426,113.621 232.926,113.954 236,114.5C 236.667,111.833 237.333,111.833 238,114.5C 238.667,113.167 239.333,113.167 240,114.5C 240.974,112.122 241.641,112.456 242,115.5C 242.359,112.456 243.026,112.122 244,114.5C 245.459,112.19 247.292,111.857 249.5,113.5C 252.353,117.147 252.02,117.813 248.5,115.5C 247.304,115.846 247.304,116.346 248.5,117C 247.175,116.852 246.008,117.018 245,117.5C 244.641,120.544 243.974,120.878 243,118.5C 240.4,121.459 237.233,124.626 233.5,128C 229.173,129.573 226.007,132.407 224,136.5C 223.667,136.167 223.333,135.833 223,135.5C 221.513,136.253 221.346,137.086 222.5,138C 220.295,139.077 218.295,139.743 216.5,140C 217.563,141.188 218.897,141.688 220.5,141.5C 209.636,145.454 200.636,152.12 193.5,161.5C 191.469,160.961 189.969,161.961 189,164.5C 188.667,164.167 188.333,163.833 188,163.5C 186.954,165.09 185.787,166.59 184.5,168C 185.634,169.016 185.301,169.683 183.5,170C 183.833,170.333 184.167,170.667 184.5,171C 182.062,172.541 179.062,173.874 175.5,175C 174.167,175.667 174.167,176.333 175.5,177C 173.667,177.5 172.5,178.667 172,180.5C 170.915,178.343 169.749,178.176 168.5,180C 169.451,180.718 169.617,181.551 169,182.5C 166.232,183.208 165.399,184.708 166.5,187C 164.324,187.163 162.491,187.996 161,189.5C 159.535,188.631 158.369,189.131 157.5,191C 157.645,191.772 157.978,192.439 158.5,193C 156.616,193.216 154.949,193.883 153.5,195C 155.398,195.9 157.064,197.066 158.5,198.5C 157.391,200.385 156.557,202.385 156,204.5C 155.333,203.167 154.667,203.167 154,204.5C 151.314,200.64 149.814,200.806 149.5,205C 150.328,205.915 151.328,206.581 152.5,207C 143.387,209.966 143.387,213.299 152.5,217C 151.833,217.333 151.167,217.667 150.5,218C 152.027,220.439 154.027,222.439 156.5,224C 154.35,225.192 153.683,226.692 154.5,228.5C 153.069,228.119 152.236,227.119 152,225.5C 151.667,226.167 151.333,226.833 151,227.5C 149.35,226.109 148.85,224.609 149.5,223C 145.759,221.262 142.592,218.762 140,215.5C 139.667,215.833 139.333,216.167 139,216.5C 138.333,214.5 137.667,212.5 137,210.5C 136.333,213.167 135.667,213.167 135,210.5C 133.927,211.28 132.76,211.113 131.5,210C 130.475,207.929 129.642,205.762 129,203.5C 128.329,204.252 127.496,204.586 126.5,204.5C 124.438,199.934 121.104,196.434 116.5,194C 116.5,192.667 116.5,191.333 116.5,190C 115.167,188.667 113.833,187.333 112.5,186C 113.308,185.692 113.975,185.192 114.5,184.5C 113.744,182.549 113.411,180.716 113.5,179C 114.126,178.25 114.626,177.416 115,176.5C 116.955,177.453 118.622,178.787 120,180.5C 121.758,179.531 122.258,178.364 121.5,177C 123.973,175.598 123.973,174.098 121.5,172.5C 122.529,172.704 123.529,172.204 124.5,171C 123.478,168.684 121.978,168.184 120,169.5C 119.911,167.887 120.745,166.72 122.5,166C 120.671,164.887 119.837,163.387 120,161.5C 121.75,164.994 123.584,165.161 125.5,162C 123.56,157.401 124.394,156.901 128,160.5C 128.667,159.167 129.333,159.167 130,160.5C 130.833,159.667 131.667,158.833 132.5,158C 131.549,157.282 131.383,156.449 132,155.5C 133.167,154.333 134.333,153.167 135.5,152C 135.167,151.667 134.833,151.333 134.5,151C 135.289,147.903 136.456,147.736 138,150.5C 141.133,148.586 141.3,146.419 138.5,144C 140.113,143.911 141.28,144.745 142,146.5C 143.849,143.966 145.515,141.3 147,138.5C 148.281,138.381 149.448,138.881 150.5,140C 150.586,143.692 151.919,144.025 154.5,141C 154.167,139.333 153.833,137.667 153.5,136C 154.893,134.829 155.727,133.329 156,131.5C 156.419,132.672 157.085,133.672 158,134.5C 160.197,132.97 161.03,131.136 160.5,129C 162.36,127.14 164.194,125.306 166,123.5C 167,124.5 168,125.5 169,126.5C 170.167,125.333 171.333,124.167 172.5,123C 171.833,122.333 171.167,121.667 170.5,121C 172.651,119.912 174.818,118.078 177,115.5C 177.497,108.497 178.163,108.163 179,114.5C 179.333,113.5 179.667,112.5 180,111.5C 180.667,112.833 181.333,112.833 182,111.5C 182.879,114.346 184.546,115.013 187,113.5C 187.333,114.167 187.667,114.833 188,115.5C 188.7,113.968 189.866,112.968 191.5,112.5C 192.5,113.833 193.5,113.833 194.5,112.5C 195.192,113.025 195.692,113.692 196,114.5C 198.73,114.155 201.563,113.989 204.5,114C 205.5,113.667 206.5,113.333 207.5,113C 206.346,112.086 206.513,111.253 208,110.5C 208.26,112.618 209.26,114.284 211,115.5C 215.028,113.659 219.028,112.659 223,112.5C 223.915,113.328 224.581,114.328 225,115.5C 225.464,114.906 225.631,114.239 225.5,113.5 Z"/></g>
<g><path style="opacity:1" fill="#d84e4e" d="M 425.5,109.5 C 426.694,121.605 425.86,133.605 423,145.5C 414.718,166.26 402.218,183.927 385.5,198.5C 384.087,157.431 362.753,137.765 321.5,139.5C 320.588,138.262 320.421,136.928 321,135.5C 321.333,135.833 321.667,136.167 322,136.5C 325.785,132.606 329.785,128.939 334,125.5C 334.333,126.167 334.667,126.833 335,127.5C 337.317,124.45 339.317,121.45 341,118.5C 341.333,118.833 341.667,119.167 342,119.5C 346.769,115.422 351.436,112.089 356,109.5C 358.992,112.866 361.992,115.532 365,117.5C 367.128,113.624 369.461,113.624 372,117.5C 372.333,117.167 372.667,116.833 373,116.5C 373.419,117.672 374.085,118.672 375,119.5C 377.109,119.434 379.275,119.101 381.5,118.5C 382.192,119.025 382.692,119.692 383,120.5C 383.308,119.692 383.808,119.025 384.5,118.5C 385.89,120.203 387.39,120.87 389,120.5C 390.667,118.833 392.333,117.167 394,115.5C 395.667,115.833 397.333,116.167 399,116.5C 401.805,114.622 404.472,112.955 407,111.5C 407.333,112.167 407.667,112.833 408,113.5C 409.555,111.854 411.221,111.521 413,112.5C 417.272,110.755 421.439,109.755 425.5,109.5 Z"/></g>
<g><path style="opacity:1" fill="#fc7271" d="M 119.5,210.5 C 119.389,211.117 119.056,211.617 118.5,212C 120,213.5 121.5,215 123,216.5C 123.561,215.978 124.228,215.645 125,215.5C 127.667,219.167 131.167,221.667 135.5,223C 135.167,223.333 134.833,223.667 134.5,224C 138.099,224.764 140.099,226.93 140.5,230.5C 143.049,230.441 145.049,231.441 146.5,233.5C 147.664,236.495 148.83,239.495 150,242.5C 150.333,241.833 150.667,241.167 151,240.5C 151.84,243.464 152.84,243.797 154,241.5C 154.833,243.167 155.667,244.833 156.5,246.5C 155.975,247.192 155.308,247.692 154.5,248C 156.132,249.31 157.799,249.81 159.5,249.5C 158.873,250.417 158.539,251.417 158.5,252.5C 144.51,243.166 130.843,233.333 117.5,223C 114.462,220.297 111.795,217.297 109.5,214C 101.536,209.366 94.8698,203.366 89.5,196C 87.2537,194.961 85.087,193.794 83,192.5C 75.2828,183.117 67.9494,173.451 61,163.5C 55.4982,154.171 51.9982,144.171 50.5,133.5C 50.3505,132.448 50.5172,131.448 51,130.5C 54.5366,133.249 58.0366,136.083 61.5,139C 61.1667,139.333 60.8333,139.667 60.5,140C 62.2077,141.51 63.8744,143.01 65.5,144.5C 64.9747,145.192 64.3081,145.692 63.5,146C 64.8491,146.772 65.6824,147.939 66,149.5C 66.3333,148.833 66.6667,148.167 67,147.5C 72.1928,159.124 79.6928,169.624 89.5,179C 88.3543,181.557 89.3543,182.89 92.5,183C 92.1667,183.333 91.8333,183.667 91.5,184C 92.8834,186.123 94.55,187.123 96.5,187C 96.1667,187.333 95.8333,187.667 95.5,188C 97.6572,189.912 99.9906,191.579 102.5,193C 101.833,193.333 101.167,193.667 100.5,194C 103,195.833 105.5,197.667 108,199.5C 108.333,198.833 108.667,198.167 109,197.5C 109.785,199.286 110.951,200.786 112.5,202C 112.043,202.414 111.709,202.914 111.5,203.5C 114.126,204.293 115.96,205.96 117,208.5C 117.333,208.167 117.667,207.833 118,207.5C 119.156,208.502 119.656,209.502 119.5,210.5 Z"/></g>
<g><path style="opacity:1" fill="#9f4040" d="M 360.5,153.5 C 360.062,153.435 359.728,153.601 359.5,154C 371.399,171.136 372.565,188.636 363,206.5C 337.916,236.563 307.75,260.397 272.5,278C 262.165,279.373 252.165,278.206 242.5,274.5C 241.893,274.624 241.56,274.957 241.5,275.5C 234.943,269.142 227.943,263.142 220.5,257.5C 218.833,256.5 217.5,255.167 216.5,253.5C 214.57,249.9 211.903,246.9 208.5,244.5C 206.889,240.949 204.556,237.949 201.5,235.5C 199.896,234.713 199.229,233.38 199.5,231.5C 197.417,227 195.084,222.666 192.5,218.5C 185.151,197.27 187.985,177.603 201,159.5C 219.384,142.221 239.884,139.388 262.5,151C 270.978,157.777 277.145,166.277 281,176.5C 283.667,179.167 286.333,179.167 289,176.5C 301.763,147.461 323.263,137.961 353.5,148C 356.266,149.371 358.599,151.204 360.5,153.5 Z"/></g>
<g><path style="opacity:1" fill="#873434" d="M 360.5,153.5 C 362.99,155.16 365.49,156.827 368,158.5C 382.874,178.03 385.374,199.03 375.5,221.5C 367.034,238.243 355.367,252.41 340.5,264C 333.856,270.976 326.856,277.643 319.5,284C 310.833,290.333 302.167,296.667 293.5,303C 290.251,304.973 286.917,306.306 283.5,307C 274.588,302.113 266.255,296.613 258.5,290.5C 256.124,286.604 252.791,283.937 248.5,282.5C 246.473,279.806 244.139,277.473 241.5,275.5C 241.56,274.957 241.893,274.624 242.5,274.5C 252.165,278.206 262.165,279.373 272.5,278C 307.75,260.397 337.916,236.563 363,206.5C 372.565,188.636 371.399,171.136 359.5,154C 359.728,153.601 360.062,153.435 360.5,153.5 Z"/></g>
<g><path style="opacity:1" fill="#fb807f" d="M 321.5,139.5 C 362.753,137.765 384.087,157.431 385.5,198.5C 384.824,203.553 383.824,208.553 382.5,213.5C 382.543,214.416 382.876,215.083 383.5,215.5C 383.068,216.71 382.401,217.71 381.5,218.5C 381.44,217.957 381.107,217.624 380.5,217.5C 378.814,218.857 377.148,220.19 375.5,221.5C 385.374,199.03 382.874,178.03 368,158.5C 365.49,156.827 362.99,155.16 360.5,153.5C 358.599,151.204 356.266,149.371 353.5,148C 323.263,137.961 301.763,147.461 289,176.5C 286.333,179.167 283.667,179.167 281,176.5C 277.145,166.277 270.978,157.777 262.5,151C 239.884,139.388 219.384,142.221 201,159.5C 187.985,177.603 185.151,197.27 192.5,218.5C 190.712,215.452 189.212,212.118 188,208.5C 187.742,212.904 188.242,217.238 189.5,221.5C 186.932,216.233 185.432,210.567 185,204.5C 184.333,196.833 184.333,189.167 185,181.5C 187.037,174.435 189.87,167.768 193.5,161.5C 200.636,152.12 209.636,145.454 220.5,141.5C 229.046,139.539 237.712,139.039 246.5,140C 265.763,144.438 278.43,155.938 284.5,174.5C 285.478,174.023 286.311,173.357 287,172.5C 287.714,169.405 288.714,166.405 290,163.5C 297.843,151.8 308.343,143.8 321.5,139.5 Z"/></g>
<g><path style="opacity:1" fill="#a45f5e" d="M 220.5,152.5 C 225.763,151.263 229.43,153.096 231.5,158C 229.031,173.498 220.198,183.998 205,189.5C 203.376,189.43 201.543,188.93 199.5,188C 197.23,185.193 196.23,182.193 196.5,179C 200.533,166.472 208.533,157.639 220.5,152.5 Z"/></g>
<g><path style="opacity:1" fill="#e05554" d="M 193.5,161.5 C 189.87,167.768 187.037,174.435 185,181.5C 184.333,189.167 184.333,196.833 185,204.5C 185.432,210.567 186.932,216.233 189.5,221.5C 198.878,240.009 211.545,256.176 227.5,270C 233.198,274.841 238.865,279.675 244.5,284.5C 243.657,288.371 241.657,289.037 238.5,286.5C 237.158,287.902 236.324,287.569 236,285.5C 235.333,288.167 234.667,288.167 234,285.5C 233.333,288.167 232.667,288.167 232,285.5C 229.774,287.159 228.107,286.492 227,283.5C 224.512,284.412 222.845,283.412 222,280.5C 219.772,281.299 218.439,280.299 218,277.5C 217.667,277.833 217.333,278.167 217,278.5C 216.535,277.069 215.701,275.903 214.5,275C 206.355,269.526 198.688,263.526 191.5,257C 190.551,256.383 189.718,256.549 189,257.5C 188.544,256.256 189.044,255.423 190.5,255C 186.7,252.027 182.867,249.194 179,246.5C 178.055,246.905 177.388,247.572 177,248.5C 176.147,246.875 175.147,246.542 174,247.5C 173.667,246.167 173.333,244.833 173,243.5C 172.667,244.167 172.333,244.833 172,245.5C 170.187,243.239 168.687,240.905 167.5,238.5C 165.167,237.833 162.833,237.167 160.5,236.5C 160.649,235.448 160.483,234.448 160,233.5C 159.667,233.833 159.333,234.167 159,234.5C 156.873,232.886 155.373,230.886 154.5,228.5C 153.683,226.692 154.35,225.192 156.5,224C 154.027,222.439 152.027,220.439 150.5,218C 151.167,217.667 151.833,217.333 152.5,217C 143.387,213.299 143.387,209.966 152.5,207C 151.328,206.581 150.328,205.915 149.5,205C 149.814,200.806 151.314,200.64 154,204.5C 154.667,203.167 155.333,203.167 156,204.5C 156.557,202.385 157.391,200.385 158.5,198.5C 157.064,197.066 155.398,195.9 153.5,195C 154.949,193.883 156.616,193.216 158.5,193C 157.978,192.439 157.645,191.772 157.5,191C 158.369,189.131 159.535,188.631 161,189.5C 162.491,187.996 164.324,187.163 166.5,187C 165.399,184.708 166.232,183.208 169,182.5C 169.617,181.551 169.451,180.718 168.5,180C 169.749,178.176 170.915,178.343 172,180.5C 172.5,178.667 173.667,177.5 175.5,177C 174.167,176.333 174.167,175.667 175.5,175C 179.062,173.874 182.062,172.541 184.5,171C 184.167,170.667 183.833,170.333 183.5,170C 185.301,169.683 185.634,169.016 184.5,168C 185.787,166.59 186.954,165.09 188,163.5C 188.333,163.833 188.667,164.167 189,164.5C 189.969,161.961 191.469,160.961 193.5,161.5 Z"/></g>
<g><path style="opacity:1" fill="#ef6766" d="M 120.5,206.5 C 122.167,207.167 123.833,207.833 125.5,208.5C 125.669,210.289 126.836,211.955 129,213.5C 146.576,228.125 164.742,243.791 183.5,260.5C 185.507,261.171 187.34,262.171 189,263.5C 189.772,263.355 190.439,263.022 191,262.5C 192.867,266.002 196.034,268.835 200.5,271C 199.346,271.914 199.513,272.747 201,273.5C 201.333,273.167 201.667,272.833 202,272.5C 202.785,274.286 203.951,275.786 205.5,277C 204.549,277.718 204.383,278.551 205,279.5C 207.608,280.617 210.442,282.117 213.5,284C 212.608,287.443 213.442,287.943 216,285.5C 218.096,286.715 217.929,287.549 215.5,288C 216.833,288.333 218.167,288.667 219.5,289C 218.346,289.914 218.513,290.747 220,291.5C 220.667,287.5 221.333,287.5 222,291.5C 224.468,292.104 226.468,293.438 228,295.5C 229.398,294.949 230.732,294.616 232,294.5C 233.217,295.386 234.551,296.386 236,297.5C 238.24,297.91 240.407,297.243 242.5,295.5C 243.192,296.025 243.692,296.692 244,297.5C 245,296.167 246,296.167 247,297.5C 248.079,295.606 249.413,295.273 251,296.5C 252.085,295.264 252.918,293.931 253.5,292.5C 255.23,293.026 256.564,294.026 257.5,295.5C 252.935,299.556 247.935,303.056 242.5,306C 237.06,307.174 232.06,306.174 227.5,303C 204.788,285.657 181.788,268.823 158.5,252.5C 158.539,251.417 158.873,250.417 159.5,249.5C 157.799,249.81 156.132,249.31 154.5,248C 155.308,247.692 155.975,247.192 156.5,246.5C 155.667,244.833 154.833,243.167 154,241.5C 152.84,243.797 151.84,243.464 151,240.5C 150.667,241.167 150.333,241.833 150,242.5C 148.83,239.495 147.664,236.495 146.5,233.5C 145.049,231.441 143.049,230.441 140.5,230.5C 140.099,226.93 138.099,224.764 134.5,224C 134.833,223.667 135.167,223.333 135.5,223C 131.167,221.667 127.667,219.167 125,215.5C 124.228,215.645 123.561,215.978 123,216.5C 121.5,215 120,213.5 118.5,212C 119.056,211.617 119.389,211.117 119.5,210.5C 121.109,209.335 121.443,208.001 120.5,206.5 Z"/></g>
<g><path style="opacity:1" fill="#e55d5c" d="M 154.5,228.5 C 155.373,230.886 156.873,232.886 159,234.5C 159.333,234.167 159.667,233.833 160,233.5C 160.483,234.448 160.649,235.448 160.5,236.5C 162.833,237.167 165.167,237.833 167.5,238.5C 168.687,240.905 170.187,243.239 172,245.5C 172.333,244.833 172.667,244.167 173,243.5C 173.333,244.833 173.667,246.167 174,247.5C 175.147,246.542 176.147,246.875 177,248.5C 177.388,247.572 178.055,246.905 179,246.5C 182.867,249.194 186.7,252.027 190.5,255C 189.044,255.423 188.544,256.256 189,257.5C 189.718,256.549 190.551,256.383 191.5,257C 198.688,263.526 206.355,269.526 214.5,275C 215.701,275.903 216.535,277.069 217,278.5C 217.333,278.167 217.667,277.833 218,277.5C 218.439,280.299 219.772,281.299 222,280.5C 222.845,283.412 224.512,284.412 227,283.5C 228.107,286.492 229.774,287.159 232,285.5C 232.667,288.167 233.333,288.167 234,285.5C 234.667,288.167 235.333,288.167 236,285.5C 236.324,287.569 237.158,287.902 238.5,286.5C 241.657,289.037 243.657,288.371 244.5,284.5C 247.526,287.195 250.526,289.862 253.5,292.5C 252.918,293.931 252.085,295.264 251,296.5C 249.413,295.273 248.079,295.606 247,297.5C 246,296.167 245,296.167 244,297.5C 243.692,296.692 243.192,296.025 242.5,295.5C 240.407,297.243 238.24,297.91 236,297.5C 234.551,296.386 233.217,295.386 232,294.5C 230.732,294.616 229.398,294.949 228,295.5C 226.468,293.438 224.468,292.104 222,291.5C 221.333,287.5 220.667,287.5 220,291.5C 218.513,290.747 218.346,289.914 219.5,289C 218.167,288.667 216.833,288.333 215.5,288C 217.929,287.549 218.096,286.715 216,285.5C 213.442,287.943 212.608,287.443 213.5,284C 210.442,282.117 207.608,280.617 205,279.5C 204.383,278.551 204.549,277.718 205.5,277C 203.951,275.786 202.785,274.286 202,272.5C 201.667,272.833 201.333,273.167 201,273.5C 199.513,272.747 199.346,271.914 200.5,271C 196.034,268.835 192.867,266.002 191,262.5C 190.439,263.022 189.772,263.355 189,263.5C 187.34,262.171 185.507,261.171 183.5,260.5C 164.742,243.791 146.576,228.125 129,213.5C 126.836,211.955 125.669,210.289 125.5,208.5C 125.369,207.761 125.536,207.094 126,206.5C 126.654,207.696 127.154,207.696 127.5,206.5C 127.137,205.817 126.804,205.15 126.5,204.5C 127.496,204.586 128.329,204.252 129,203.5C 129.642,205.762 130.475,207.929 131.5,210C 132.76,211.113 133.927,211.28 135,210.5C 135.667,213.167 136.333,213.167 137,210.5C 137.667,212.5 138.333,214.5 139,216.5C 139.333,216.167 139.667,215.833 140,215.5C 142.592,218.762 145.759,221.262 149.5,223C 148.85,224.609 149.35,226.109 151,227.5C 151.333,226.833 151.667,226.167 152,225.5C 152.236,227.119 153.069,228.119 154.5,228.5 Z"/></g>
<g><path style="opacity:0.48" fill="#ffeded" d="M 192.5,218.5 C 192.372,220.655 192.872,222.655 194,224.5C 195.371,227.266 197.204,229.599 199.5,231.5C 199.229,233.38 199.896,234.713 201.5,235.5C 203.111,239.051 205.444,242.051 208.5,244.5C 210.43,248.1 213.097,251.1 216.5,253.5C 217.5,255.167 218.833,256.5 220.5,257.5C 221.203,259.716 222.536,261.549 224.5,263C 232.393,269.736 240.393,276.236 248.5,282.5C 251.095,286.126 254.428,288.792 258.5,290.5C 266.255,296.613 274.588,302.113 283.5,307C 286.917,306.306 290.251,304.973 293.5,303C 302.167,296.667 310.833,290.333 319.5,284C 326.856,277.643 333.856,270.976 340.5,264C 355.367,252.41 367.034,238.243 375.5,221.5C 377.148,220.19 378.814,218.857 380.5,217.5C 381.107,217.624 381.44,217.957 381.5,218.5C 377.383,230.069 371.216,240.402 363,249.5C 341.089,273.515 316.589,294.349 289.5,312C 288,312.5 286.5,313 285,313.5C 278.747,310.291 272.58,306.957 266.5,303.5C 264.192,300.2 261.192,297.533 257.5,295.5C 256.564,294.026 255.23,293.026 253.5,292.5C 250.526,289.862 247.526,287.195 244.5,284.5C 238.865,279.675 233.198,274.841 227.5,270C 211.545,256.176 198.878,240.009 189.5,221.5C 188.242,217.238 187.742,212.904 188,208.5C 189.212,212.118 190.712,215.452 192.5,218.5 Z"/></g>
<g><path style="opacity:1" fill="#ffa6a4" d="M 208.5,244.5 C 211.903,246.9 214.57,249.9 216.5,253.5C 213.097,251.1 210.43,248.1 208.5,244.5 Z"/></g>
<g><path style="opacity:1" fill="#fea1a0" d="M 201.5,235.5 C 204.556,237.949 206.889,240.949 208.5,244.5C 205.444,242.051 203.111,239.051 201.5,235.5 Z"/></g>
<g><path style="opacity:1" fill="#fd9392" d="M 192.5,218.5 C 195.084,222.666 197.417,227 199.5,231.5C 197.204,229.599 195.371,227.266 194,224.5C 192.872,222.655 192.372,220.655 192.5,218.5 Z"/></g>
<g><path style="opacity:1" fill="#fe9b99" d="M 220.5,257.5 C 227.943,263.142 234.943,269.142 241.5,275.5C 244.139,277.473 246.473,279.806 248.5,282.5C 240.393,276.236 232.393,269.736 224.5,263C 222.536,261.549 221.203,259.716 220.5,257.5 Z"/></g>
<g><path style="opacity:1" fill="#f69392" d="M 248.5,282.5 C 252.791,283.937 256.124,286.604 258.5,290.5C 254.428,288.792 251.095,286.126 248.5,282.5 Z"/></g>
</svg>
