<?xml version="1.0" encoding="UTF-8"?>
<!DOCTYPE svg PUBLIC "-//W3C//DTD SVG 1.1//EN" "http://www.w3.org/Graphics/SVG/1.1/DTD/svg11.dtd">
<svg xmlns="http://www.w3.org/2000/svg" version="1.1" width="462px" height="329px" style="shape-rendering:geometricPrecision; text-rendering:geometricPrecision; image-rendering:optimizeQuality; fill-rule:evenodd; clip-rule:evenodd" xmlns:xlink="http://www.w3.org/1999/xlink">
<g><path style="opacity:0.401" fill="#2196e1" d="M 166.5,-0.5 C 210.167,-0.5 253.833,-0.5 297.5,-0.5C 304.853,14.3747 312.853,28.8747 321.5,43C 363.5,43.3333 405.5,43.6667 447.5,44C 450.333,44.8333 452.167,46.6667 453,49.5C 453.667,139.5 453.667,229.5 453,319.5C 451.52,322.663 449.02,324.496 445.5,325C 303.167,325.667 160.833,325.667 18.5,325C 14.9798,324.496 12.4798,322.663 11,319.5C 10.3333,229.5 10.3333,139.5 11,49.5C 11.8333,46.6667 13.6667,44.8333 16.5,44C 58.8373,43.8333 101.171,43.3333 143.5,42.5C 151.742,28.4115 159.409,14.0781 166.5,-0.5 Z M 194.5,35.5 C 219.502,35.3334 244.502,35.5 269.5,36C 271.209,37.9157 272.543,40.0824 273.5,42.5C 245.833,43.8333 218.167,43.8333 190.5,42.5C 191.861,40.1495 193.194,37.8162 194.5,35.5 Z"/></g>
<g><path style="opacity:1" fill="#020e23" d="M 174.5,4.5 C 213.167,4.5 251.833,4.5 290.5,4.5C 298.784,19.4037 306.784,34.4037 314.5,49.5C 313.198,51.0276 311.531,52.0276 309.5,52.5C 307.833,51.1667 306.167,51.1667 304.5,52.5C 302.909,51.7811 301.409,50.7811 300,49.5C 294.245,38.9896 288.745,28.323 283.5,17.5C 282.041,17.5674 280.708,17.2341 279.5,16.5C 272.099,15.8185 264.599,15.1518 257,14.5C 248.912,15.6483 240.746,15.8149 232.5,15C 231.799,12.2148 231.466,9.5481 231.5,7C 212.503,6.50005 193.503,6.33338 174.5,6.5C 174.5,5.83333 174.5,5.16667 174.5,4.5 Z"/></g>
<g><path style="opacity:0.996" fill="#091b32" d="M 174.5,6.5 C 193.503,6.33338 212.503,6.50005 231.5,7C 231.466,9.5481 231.799,12.2148 232.5,15C 240.746,15.8149 248.912,15.6483 257,14.5C 264.599,15.1518 272.099,15.8185 279.5,16.5C 278.602,18.9052 277.102,20.9052 275,22.5C 274.517,23.448 274.351,24.448 274.5,25.5C 260.656,25.171 246.99,25.5043 233.5,26.5C 219.179,25.5102 204.846,25.3436 190.5,26C 189.944,26.3826 189.611,26.8826 189.5,27.5C 184.137,34.8898 179.803,42.8898 176.5,51.5C 172.5,51.5 168.5,51.5 164.5,51.5C 164.082,50.7784 163.416,50.2784 162.5,50C 163.717,48.3523 164.55,46.519 165,44.5C 170.487,35.5327 175.987,26.5327 181.5,17.5C 178.754,13.56 176.421,9.89338 174.5,6.5 Z"/></g>
<g><path style="opacity:0.996" fill="#13263e" d="M 174.5,4.5 C 174.5,5.16667 174.5,5.83333 174.5,6.5C 176.421,9.89338 178.754,13.56 181.5,17.5C 175.987,26.5327 170.487,35.5327 165,44.5C 164.55,46.519 163.717,48.3523 162.5,50C 163.416,50.2784 164.082,50.7784 164.5,51.5C 159.073,51.7825 153.74,51.4491 148.5,50.5C 157.184,35.1268 165.851,19.7935 174.5,4.5 Z"/></g>
<g><path style="opacity:0.996" fill="#222e44" d="M 279.5,16.5 C 280.708,17.2341 282.041,17.5674 283.5,17.5C 288.745,28.323 294.245,38.9896 300,49.5C 301.409,50.7811 302.909,51.7811 304.5,52.5C 276.939,52.7118 247.939,52.7118 217.5,52.5C 241.168,51.997 264.835,51.3304 288.5,50.5C 284.14,43.1035 279.807,35.7701 275.5,28.5C 261.873,26.5176 247.873,25.8509 233.5,26.5C 246.99,25.5043 260.656,25.171 274.5,25.5C 274.351,24.448 274.517,23.448 275,22.5C 277.102,20.9052 278.602,18.9052 279.5,16.5 Z"/></g>
<g><path style="opacity:0.553" fill="#437dac" d="M 233.5,26.5 C 247.873,25.8509 261.873,26.5176 275.5,28.5C 246.907,27.5087 218.24,27.1754 189.5,27.5C 189.611,26.8826 189.944,26.3826 190.5,26C 204.846,25.3436 219.179,25.5102 233.5,26.5 Z"/></g>
<g><path style="opacity:0.404" fill="#2195e1" d="M 189.5,27.5 C 218.24,27.1754 246.907,27.5087 275.5,28.5C 279.807,35.7701 284.14,43.1035 288.5,50.5C 264.835,51.3304 241.168,51.997 217.5,52.5C 217.167,52.5 216.833,52.5 216.5,52.5C 203.144,52.715 189.811,52.3817 176.5,51.5C 179.803,42.8898 184.137,34.8898 189.5,27.5 Z M 194.5,35.5 C 193.194,37.8162 191.861,40.1495 190.5,42.5C 218.167,43.8333 245.833,43.8333 273.5,42.5C 272.543,40.0824 271.209,37.9157 269.5,36C 244.502,35.5 219.502,35.3334 194.5,35.5 Z"/></g>
<g><path style="opacity:0.78" fill="#404c5c" d="M 314.5,49.5 C 358.118,51.1559 401.785,52.1559 445.5,52.5C 405.833,52.5 366.167,52.5 326.5,52.5C 320.833,52.5 315.167,52.5 309.5,52.5C 311.531,52.0276 313.198,51.0276 314.5,49.5 Z"/></g>
<g><path style="opacity:1" fill="#456a9b" d="M 148.5,52.5 C 157.5,52.5 166.5,52.5 175.5,52.5C 176.263,53.2679 177.263,53.7679 178.5,54C 196.164,54.4999 213.83,54.6666 231.5,54.5C 231.5,85.5 231.5,116.5 231.5,147.5C 222.651,147.174 213.984,147.507 205.5,148.5C 204.68,154.797 204.347,161.131 204.5,167.5C 177.215,164.401 149.882,160.401 122.5,155.5C 119.941,155.802 117.607,155.468 115.5,154.5C 116.991,154.099 118.658,153.932 120.5,154C 87.3988,121.246 54.5654,88.4131 22,55.5C 21.5357,56.0944 21.369,56.7611 21.5,57.5C 20.7326,56.828 20.0659,55.9947 19.5,55C 22.0385,53.9526 24.7052,53.4526 27.5,53.5C 67.0528,53.399 106.719,53.7323 146.5,54.5C 147.522,54.1445 148.189,53.4778 148.5,52.5 Z"/></g>
<g><path style="opacity:0.902" fill="#414358" d="M 148.5,50.5 C 153.74,51.4491 159.073,51.7825 164.5,51.5C 168.5,51.5 172.5,51.5 176.5,51.5C 189.811,52.3817 203.144,52.715 216.5,52.5C 202.987,53.7279 189.321,53.7279 175.5,52.5C 166.5,52.5 157.5,52.5 148.5,52.5C 148.5,52.1667 148.5,51.8333 148.5,51.5C 148.5,51.1667 148.5,50.8333 148.5,50.5 Z"/></g>
<g><path style="opacity:1" fill="#1e4278" d="M 309.5,52.5 C 315.167,52.5 320.833,52.5 326.5,52.5C 365.5,53.1667 404.5,53.8333 443.5,54.5C 426.412,85.1669 409.412,116 392.5,147C 372.346,150.664 352.179,154.164 332,157.5C 318.674,158.545 305.007,160.545 291,163.5C 290.667,163.167 290.333,162.833 290,162.5C 288.333,163.167 286.667,163.833 285,164.5C 284.667,164.167 284.333,163.833 284,163.5C 279.704,164.685 275.37,165.685 271,166.5C 269.372,165.903 267.705,166.237 266,167.5C 265.617,166.944 265.117,166.611 264.5,166.5C 261.887,165.905 261.887,165.071 264.5,164C 263.552,163.517 262.552,163.351 261.5,163.5C 261.649,164.552 261.483,165.552 261,166.5C 261.129,160.084 260.295,154.084 258.5,148.5C 249.599,147.676 240.599,147.343 231.5,147.5C 231.5,116.5 231.5,85.5 231.5,54.5C 213.83,54.6666 196.164,54.4999 178.5,54C 177.263,53.7679 176.263,53.2679 175.5,52.5C 189.321,53.7279 202.987,53.7279 216.5,52.5C 216.833,52.5 217.167,52.5 217.5,52.5C 247.939,52.7118 276.939,52.7118 304.5,52.5C 306.167,51.1667 307.833,51.1667 309.5,52.5 Z"/></g>
<g><path style="opacity:1" fill="#5576a5" d="M 115.5,154.5 C 100.525,152.87 85.6912,150.537 71,147.5C 54.9547,117.145 38.4547,87.1454 21.5,57.5C 21.369,56.7611 21.5357,56.0944 22,55.5C 54.5654,88.4131 87.3988,121.246 120.5,154C 118.658,153.932 116.991,154.099 115.5,154.5 Z"/></g>
<g><path style="opacity:1" fill="#031d48" d="M 443.5,54.5 C 443.501,140.833 443.501,227.5 443.5,314.5C 442.181,312.266 440.181,310.932 437.5,310.5C 396.429,267.595 354.429,225.429 311.5,184C 310.584,183.626 309.75,183.126 309,182.5C 303.898,183.551 298.898,183.551 294,182.5C 293.667,183.167 293.333,183.833 293,184.5C 290.766,184.626 288.432,184.293 286,183.5C 285.333,184.167 284.667,184.833 284,185.5C 277.156,184.598 270.489,184.598 264,185.5C 263.333,182.833 262.667,182.833 262,185.5C 261.333,184.167 260.667,184.167 260,185.5C 259.501,179.509 259.334,173.509 259.5,167.5C 261.415,167.784 263.081,167.451 264.5,166.5C 265.117,166.611 265.617,166.944 266,167.5C 267.705,166.237 269.372,165.903 271,166.5C 275.37,165.685 279.704,164.685 284,163.5C 284.333,163.833 284.667,164.167 285,164.5C 286.667,163.833 288.333,163.167 290,162.5C 290.333,162.833 290.667,163.167 291,163.5C 305.007,160.545 318.674,158.545 332,157.5C 352.179,154.164 372.346,150.664 392.5,147C 409.412,116 426.412,85.1669 443.5,54.5 Z"/></g>
<g><path style="opacity:1" fill="#345485" d="M 148.5,51.5 C 148.5,51.8333 148.5,52.1667 148.5,52.5C 148.189,53.4778 147.522,54.1445 146.5,54.5C 106.719,53.7323 67.0528,53.399 27.5,53.5C 24.7052,53.4526 22.0385,53.9526 19.5,55C 20.0659,55.9947 20.7326,56.828 21.5,57.5C 38.4547,87.1454 54.9547,117.145 71,147.5C 85.6912,150.537 100.525,152.87 115.5,154.5C 117.607,155.468 119.941,155.802 122.5,155.5C 122.5,156.5 122.5,157.5 122.5,158.5C 123.675,158.281 124.675,158.614 125.5,159.5C 133.749,168.083 142.082,176.416 150.5,184.5C 110.196,225.137 69.863,265.804 29.5,306.5C 27.8968,307.596 26.3968,308.93 25,310.5C 24.6667,310.167 24.3333,309.833 24,309.5C 23.6258,310.416 23.1258,311.25 22.5,312C 25.3004,313.232 28.3004,313.899 31.5,314C 27.8333,314.333 24.1667,314.667 20.5,315C 21.056,315.383 21.3893,315.883 21.5,316.5C 20.5,316.5 19.5,316.5 18.5,316.5C 18.5,228.167 18.5,139.833 18.5,51.5C 61.8333,51.5 105.167,51.5 148.5,51.5 Z"/></g>
<g><path style="opacity:1" fill="#fcc931" d="M 205.5,148.5 C 214.167,148.5 222.833,148.5 231.5,148.5C 231.402,165.637 231.735,181.637 232.5,196.5C 223.827,196.666 215.16,196.5 206.5,196C 206,195.5 205.5,195 205,194.5C 204.5,185.506 204.334,176.506 204.5,167.5C 204.347,161.131 204.68,154.797 205.5,148.5 Z"/></g>
<g><path style="opacity:1" fill="#f5960b" d="M 205.5,148.5 C 213.984,147.507 222.651,147.174 231.5,147.5C 240.599,147.343 249.599,147.676 258.5,148.5C 258.207,152.437 258.54,156.27 259.5,160C 258.678,171.758 258.178,183.591 258,195.5C 249.585,196.483 241.085,196.817 232.5,196.5C 231.735,181.637 231.402,165.637 231.5,148.5C 222.833,148.5 214.167,148.5 205.5,148.5 Z"/></g>
<g><path style="opacity:1" fill="#1f4278" d="M 122.5,155.5 C 149.882,160.401 177.215,164.401 204.5,167.5C 204.334,176.506 204.5,185.506 205,194.5C 205.5,195 206,195.5 206.5,196C 215.16,196.5 223.827,196.666 232.5,196.5C 232.167,199.833 231.833,203.167 231.5,206.5C 230.577,207.303 229.577,207.47 228.5,207C 226.765,204.98 225.265,202.813 224,200.5C 222.384,206.534 220.217,206.868 217.5,201.5C 205.655,203.781 200.488,198.448 202,185.5C 199.498,183.23 197.998,184.063 197.5,188C 197.645,188.772 197.978,189.439 198.5,190C 197.736,192.069 197.236,194.236 197,196.5C 195.387,197.622 194.22,197.122 193.5,195C 193.833,192 194.167,189 194.5,186C 193.667,185.167 192.833,184.333 192,183.5C 189.959,184.752 187.625,185.419 185,185.5C 176.869,185.156 168.869,184.156 161,182.5C 157.545,183.287 154.045,183.954 150.5,184.5C 142.082,176.416 133.749,168.083 125.5,159.5C 124.675,158.614 123.675,158.281 122.5,158.5C 122.5,157.5 122.5,156.5 122.5,155.5 Z"/></g>
<g><path style="opacity:1" fill="#294c80" d="M 231.5,206.5 C 232.169,242.508 232.169,278.508 231.5,314.5C 227.486,314.666 223.486,314.499 219.5,314C 218.941,313.275 218.608,312.442 218.5,311.5C 220.05,309.515 221.217,307.515 222,305.5C 219.923,306.958 217.59,307.624 215,307.5C 185.014,307.491 155.68,307.491 127,307.5C 126.333,304.833 125.667,304.833 125,307.5C 92.9332,307.302 61.0999,306.969 29.5,306.5C 69.863,265.804 110.196,225.137 150.5,184.5C 154.045,183.954 157.545,183.287 161,182.5C 168.869,184.156 176.869,185.156 185,185.5C 187.625,185.419 189.959,184.752 192,183.5C 192.833,184.333 193.667,185.167 194.5,186C 194.167,189 193.833,192 193.5,195C 194.22,197.122 195.387,197.622 197,196.5C 197.236,194.236 197.736,192.069 198.5,190C 197.978,189.439 197.645,188.772 197.5,188C 197.998,184.063 199.498,183.23 202,185.5C 200.488,198.448 205.655,203.781 217.5,201.5C 220.217,206.868 222.384,206.534 224,200.5C 225.265,202.813 226.765,204.98 228.5,207C 229.577,207.47 230.577,207.303 231.5,206.5 Z"/></g>
<g><path style="opacity:1" fill="#102851" d="M 258.5,148.5 C 260.295,154.084 261.129,160.084 261,166.5C 261.483,165.552 261.649,164.552 261.5,163.5C 262.552,163.351 263.552,163.517 264.5,164C 261.887,165.071 261.887,165.905 264.5,166.5C 263.081,167.451 261.415,167.784 259.5,167.5C 259.334,173.509 259.501,179.509 260,185.5C 260.667,184.167 261.333,184.167 262,185.5C 262.667,182.833 263.333,182.833 264,185.5C 270.489,184.598 277.156,184.598 284,185.5C 284.667,184.833 285.333,184.167 286,183.5C 288.432,184.293 290.766,184.626 293,184.5C 293.333,183.833 293.667,183.167 294,182.5C 298.898,183.551 303.898,183.551 309,182.5C 309.75,183.126 310.584,183.626 311.5,184C 354.429,225.429 396.429,267.595 437.5,310.5C 440.181,310.932 442.181,312.266 443.5,314.5C 373.357,315.157 305.857,315.157 241,314.5C 238.723,315.117 236.556,315.784 234.5,316.5C 233.5,316.5 232.5,316.5 231.5,316.5C 231.5,315.833 231.5,315.167 231.5,314.5C 232.169,278.508 232.169,242.508 231.5,206.5C 231.833,203.167 232.167,199.833 232.5,196.5C 241.085,196.817 249.585,196.483 258,195.5C 258.178,183.591 258.678,171.758 259.5,160C 258.54,156.27 258.207,152.437 258.5,148.5 Z"/></g>
<g><path style="opacity:1" fill="#26457c" d="M 231.5,314.5 C 231.5,315.167 231.5,315.833 231.5,316.5C 161.5,316.5 91.5,316.5 21.5,316.5C 21.3893,315.883 21.056,315.383 20.5,315C 24.1667,314.667 27.8333,314.333 31.5,314C 28.3004,313.899 25.3004,313.232 22.5,312C 23.1258,311.25 23.6258,310.416 24,309.5C 24.3333,309.833 24.6667,310.167 25,310.5C 26.3968,308.93 27.8968,307.596 29.5,306.5C 61.0999,306.969 92.9332,307.302 125,307.5C 125.667,304.833 126.333,304.833 127,307.5C 155.68,307.491 185.014,307.491 215,307.5C 217.59,307.624 219.923,306.958 222,305.5C 221.217,307.515 220.05,309.515 218.5,311.5C 218.608,312.442 218.941,313.275 219.5,314C 223.486,314.499 227.486,314.666 231.5,314.5 Z"/></g>
<g><path style="opacity:0.996" fill="#102139" d="M 326.5,52.5 C 366.167,52.5 405.833,52.5 445.5,52.5C 445.5,140.5 445.5,228.5 445.5,316.5C 375.167,316.5 304.833,316.5 234.5,316.5C 236.556,315.784 238.723,315.117 241,314.5C 305.857,315.157 373.357,315.157 443.5,314.5C 443.501,227.5 443.501,140.833 443.5,54.5C 404.5,53.8333 365.5,53.1667 326.5,52.5 Z"/></g>
</svg>
