<?xml version="1.0" encoding="UTF-8"?>
<!DOCTYPE svg PUBLIC "-//W3C//DTD SVG 1.1//EN" "http://www.w3.org/Graphics/SVG/1.1/DTD/svg11.dtd">
<svg xmlns="http://www.w3.org/2000/svg" version="1.1" width="462px" height="329px" style="shape-rendering:geometricPrecision; text-rendering:geometricPrecision; image-rendering:optimizeQuality; fill-rule:evenodd; clip-rule:evenodd" xmlns:xlink="http://www.w3.org/1999/xlink">
<g><path style="opacity:1" fill="#7ac14f" d="M 281.5,5.5 C 284.544,7.01136 287.878,7.67802 291.5,7.5C 296.73,9.78567 301.73,12.619 306.5,16C 307.793,16.49 309.127,16.6567 310.5,16.5C 311.167,16.8333 311.833,17.1667 312.5,17.5C 313.08,19.7488 314.413,21.4154 316.5,22.5C 319.38,26.9267 321.713,31.5934 323.5,36.5C 324.273,41.6838 322.773,46.0171 319,49.5C 301.938,32.1523 281.438,26.319 257.5,32C 251.156,33.6719 245.156,36.1719 239.5,39.5C 217.873,32.1593 197.54,34.6593 178.5,47C 176.833,48.6667 175.167,50.3333 173.5,52C 158.561,48.7121 144.561,51.0454 131.5,59C 126.288,63.3747 122.955,68.8747 121.5,75.5C 112.286,77.2924 103.62,80.2924 95.5,84.5C 93.1416,86.6782 90.4749,88.3449 87.5,89.5C 84.2212,75.0562 89.5545,65.3896 103.5,60.5C 109.804,59.505 115.804,58.1717 121.5,56.5C 122.323,53.023 122.823,49.3563 123,45.5C 123.653,42.8608 124.82,40.5274 126.5,38.5C 128.749,37.9202 130.415,36.5869 131.5,34.5C 134.161,31.4977 137.495,29.4977 141.5,28.5C 152.224,27.6175 162.557,27.2842 172.5,27.5C 175.089,26.5806 177.089,24.914 178.5,22.5C 183.123,17.6865 188.79,14.6865 195.5,13.5C 198.428,13.4349 201.095,12.7682 203.5,11.5C 209.184,12.0968 214.517,12.0968 219.5,11.5C 223.462,12.0875 227.296,13.0875 231,14.5C 232.699,13.5939 234.533,13.2606 236.5,13.5C 238.199,13.6602 239.866,13.4935 241.5,13C 254.074,6.08744 267.407,3.58744 281.5,5.5 Z"/></g>
<g><path style="opacity:0.38" fill="#567d40" d="M 281.5,5.5 C 285.122,5.32198 288.456,5.98864 291.5,7.5C 287.878,7.67802 284.544,7.01136 281.5,5.5 Z"/></g>
<g><path style="opacity:0.263" fill="#568341" d="M 291.5,7.5 C 298.802,8.6531 305.136,11.6531 310.5,16.5C 309.127,16.6567 307.793,16.49 306.5,16C 301.73,12.619 296.73,9.78567 291.5,7.5 Z"/></g>
<g><path style="opacity:1" fill="#5e9444" d="M 236.5,13.5 C 234.533,13.2606 232.699,13.5939 231,14.5C 227.296,13.0875 223.462,12.0875 219.5,11.5C 214.517,12.0968 209.184,12.0968 203.5,11.5C 214.681,8.66707 225.681,9.33374 236.5,13.5 Z"/></g>
<g><path style="opacity:0.38" fill="#5d8a44" d="M 203.5,11.5 C 201.095,12.7682 198.428,13.4349 195.5,13.5C 197.838,11.9605 200.505,11.2938 203.5,11.5 Z"/></g>
<g><path style="opacity:0.263" fill="#4c6538" d="M 312.5,17.5 C 314.587,18.5846 315.92,20.2512 316.5,22.5C 314.413,21.4154 313.08,19.7488 312.5,17.5 Z"/></g>
<g><path style="opacity:0.482" fill="#6a9548" d="M 178.5,22.5 C 177.089,24.914 175.089,26.5806 172.5,27.5C 173.911,25.086 175.911,23.4194 178.5,22.5 Z"/></g>
<g><path style="opacity:1" fill="#609846" d="M 172.5,27.5 C 162.557,27.2842 152.224,27.6175 141.5,28.5C 151.633,24.9259 161.967,24.5925 172.5,27.5 Z"/></g>
<g><path style="opacity:0.263" fill="#557c3f" d="M 316.5,22.5 C 320.935,26.0367 323.268,30.7034 323.5,36.5C 321.713,31.5934 319.38,26.9267 316.5,22.5 Z"/></g>
<g><path style="opacity:1" fill="#5cb24e" d="M 323.5,36.5 C 324.775,39.3962 324.775,42.3962 323.5,45.5C 329.497,47.2685 335.83,48.7685 342.5,50C 346.95,51.0612 350.95,52.8946 354.5,55.5C 354.217,56.2891 353.717,56.9558 353,57.5C 338.676,57.477 325.009,61.477 312,69.5C 285.396,54.4973 259.062,55.4973 233,72.5C 226.407,68.7012 219.407,66.0345 212,64.5C 192.358,62.01 174.691,67.3433 159,80.5C 147.177,74.6929 134.677,73.0263 121.5,75.5C 122.955,68.8747 126.288,63.3747 131.5,59C 144.561,51.0454 158.561,48.7121 173.5,52C 175.167,50.3333 176.833,48.6667 178.5,47C 197.54,34.6593 217.873,32.1593 239.5,39.5C 245.156,36.1719 251.156,33.6719 257.5,32C 281.438,26.319 301.938,32.1523 319,49.5C 322.773,46.0171 324.273,41.6838 323.5,36.5 Z"/></g>
<g><path style="opacity:0.482" fill="#668f46" d="M 131.5,34.5 C 130.415,36.5869 128.749,37.9202 126.5,38.5C 127.585,36.4131 129.251,35.0798 131.5,34.5 Z"/></g>
<g><path style="opacity:0.263" fill="#4f703b" d="M 323.5,45.5 C 338.339,45.7239 351.673,50.2239 363.5,59C 365.79,60.7772 367.457,62.9438 368.5,65.5C 363.896,61.9827 359.23,58.6494 354.5,55.5C 350.95,52.8946 346.95,51.0612 342.5,50C 335.83,48.7685 329.497,47.2685 323.5,45.5 Z"/></g>
<g><path style="opacity:1" fill="#52a147" d="M 354.5,55.5 C 359.23,58.6494 363.896,61.9827 368.5,65.5C 369.201,69.3008 370.368,72.9675 372,76.5C 372.825,80.2113 372.659,83.878 371.5,87.5C 352.54,83.4647 334.54,85.4647 317.5,93.5C 286.261,79.6907 256.261,81.8573 227.5,100C 222.585,104.244 218.419,109.077 215,114.5C 214.269,112.101 213.102,109.935 211.5,108C 204.452,103.656 196.786,101.323 188.5,101C 173.052,99.5326 157.719,101.199 142.5,106C 138.848,106.499 135.182,106.665 131.5,106.5C 131.02,103.349 129.354,101.015 126.5,99.5C 125.158,100.902 124.324,100.569 124,98.5C 122.234,100.596 120.901,102.929 120,105.5C 119.682,103.939 118.849,102.772 117.5,102C 118.956,101.577 119.456,100.744 119,99.5C 117.475,99.1119 115.808,99.1119 114,99.5C 108.155,97.1052 102.655,93.4385 97.5,88.5C 96.8201,87.1401 96.1534,85.8068 95.5,84.5C 103.62,80.2924 112.286,77.2924 121.5,75.5C 134.677,73.0263 147.177,74.6929 159,80.5C 174.691,67.3433 192.358,62.01 212,64.5C 219.407,66.0345 226.407,68.7012 233,72.5C 259.062,55.4973 285.396,54.4973 312,69.5C 325.009,61.477 338.676,57.477 353,57.5C 353.717,56.9558 354.217,56.2891 354.5,55.5 Z"/></g>
<g><path style="opacity:1" fill="#66a349" d="M 121.5,56.5 C 115.804,58.1717 109.804,59.505 103.5,60.5C 108.966,57.303 114.966,55.9697 121.5,56.5 Z"/></g>
<g><path style="opacity:1" fill="#6cab60" d="M 95.5,84.5 C 96.1534,85.8068 96.8201,87.1401 97.5,88.5C 102.655,93.4385 108.155,97.1052 114,99.5C 115.808,99.1119 117.475,99.1119 119,99.5C 119.456,100.744 118.956,101.577 117.5,102C 118.849,102.772 119.682,103.939 120,105.5C 120.901,102.929 122.234,100.596 124,98.5C 124.324,100.569 125.158,100.902 126.5,99.5C 129.354,101.015 131.02,103.349 131.5,106.5C 128.409,107.637 125.409,107.97 122.5,107.5C 107.306,108.071 95.6396,102.071 87.5,89.5C 90.4749,88.3449 93.1416,86.6782 95.5,84.5 Z"/></g>
<g><path style="opacity:1" fill="#44843b" d="M 368.5,65.5 C 378.223,80.7679 375.89,94.1013 361.5,105.5C 359.973,105.427 358.973,106.094 358.5,107.5C 357.833,108.167 357.167,108.833 356.5,109.5C 336.698,104.538 318.365,107.705 301.5,119C 291.561,126.376 287.228,136.21 288.5,148.5C 279.861,149.88 271.528,152.214 263.5,155.5C 248.257,140.266 229.924,135.099 208.5,140C 202.748,141.711 197.414,144.211 192.5,147.5C 191.726,146.853 190.726,146.52 189.5,146.5C 170.521,151.381 152.854,148.547 136.5,138C 129.905,133.267 125.571,127.101 123.5,119.5C 125.679,119.84 127.512,120.84 129,122.5C 129.667,121.833 130.333,121.167 131,120.5C 130.961,115.692 131.127,111.025 131.5,106.5C 135.182,106.665 138.848,106.499 142.5,106C 157.719,101.199 173.052,99.5326 188.5,101C 196.786,101.323 204.452,103.656 211.5,108C 213.102,109.935 214.269,112.101 215,114.5C 218.419,109.077 222.585,104.244 227.5,100C 256.261,81.8573 286.261,79.6907 317.5,93.5C 334.54,85.4647 352.54,83.4647 371.5,87.5C 372.659,83.878 372.825,80.2113 372,76.5C 370.368,72.9675 369.201,69.3008 368.5,65.5 Z"/></g>
<g><path style="opacity:0.078" fill="#494d32" d="M 361.5,105.5 C 361.027,106.906 360.027,107.573 358.5,107.5C 358.973,106.094 359.973,105.427 361.5,105.5 Z"/></g>
<g><path style="opacity:1" fill="#629859" d="M 131.5,106.5 C 131.127,111.025 130.961,115.692 131,120.5C 130.333,121.167 129.667,121.833 129,122.5C 127.512,120.84 125.679,119.84 123.5,119.5C 123.672,118.508 123.338,117.842 122.5,117.5C 122.5,114.167 122.5,110.833 122.5,107.5C 125.409,107.97 128.409,107.637 131.5,106.5 Z"/></g>
<g><path style="opacity:1" fill="#6ea94c" d="M 397.5,111.5 C 398.167,112.167 398.833,112.833 399.5,113.5C 386.711,109.114 373.711,108.448 360.5,111.5C 358.667,111.415 357.334,110.748 356.5,109.5C 357.416,109.982 358.416,110.315 359.5,110.5C 372.446,106.189 385.112,106.523 397.5,111.5 Z"/></g>
<g><path style="opacity:0.263" fill="#53773e" d="M 397.5,111.5 C 400.241,111.707 402.574,112.707 404.5,114.5C 402.784,114.371 401.117,114.038 399.5,113.5C 398.833,112.833 398.167,112.167 397.5,111.5 Z"/></g>
<g><path style="opacity:0.38" fill="#58783f" d="M 404.5,114.5 C 405.71,114.932 406.71,115.599 407.5,116.5C 405.821,116.715 404.821,116.048 404.5,114.5 Z"/></g>
<g><path style="opacity:0.263" fill="#5c8743" d="M 407.5,116.5 C 410.243,118.239 412.243,120.573 413.5,123.5C 410.757,121.761 408.757,119.427 407.5,116.5 Z"/></g>
<g><path style="opacity:1" fill="#233d1b" d="M 122.5,117.5 C 123.338,117.842 123.672,118.508 123.5,119.5C 125.571,127.101 129.905,133.267 136.5,138C 152.854,148.547 170.521,151.381 189.5,146.5C 190.726,146.52 191.726,146.853 192.5,147.5C 186.278,151.614 182.278,157.281 180.5,164.5C 168.699,163.446 157.365,165.113 146.5,169.5C 141.895,171.471 137.562,173.971 133.5,177C 130.152,179.501 127.818,182.668 126.5,186.5C 119.875,200.848 122.542,213.348 134.5,224C 137.528,225.844 140.528,227.678 143.5,229.5C 140.51,231.99 137.677,234.657 135,237.5C 134.586,237.043 134.086,236.709 133.5,236.5C 132.078,237.398 130.745,238.398 129.5,239.5C 128.833,238.167 128.167,238.167 127.5,239.5C 125.565,240.15 123.565,240.483 121.5,240.5C 122.303,236.831 121.136,234.164 118,232.5C 115.333,232.5 112.667,232.5 110,232.5C 104.452,229.907 98.9521,227.24 93.5,224.5C 91.7745,222.772 90.4411,220.772 89.5,218.5C 92.2632,215.28 95.5965,212.78 99.5,211C 92.6064,200.713 90.7731,189.547 94,177.5C 97.8333,168.333 104.333,161.833 113.5,158C 110.333,156.167 107.833,153.667 106,150.5C 102.745,144.992 99.7453,139.325 97,133.5C 95.0517,132.891 93.2184,132.224 91.5,131.5C 93.604,131.799 95.604,131.466 97.5,130.5C 98.848,127.987 100.848,126.153 103.5,125C 109.911,122.06 116.244,119.56 122.5,117.5 Z"/></g>
<g><path style="opacity:1" fill="#7bc14f" d="M 415.5,129.5 C 416.167,130.167 416.833,130.833 417.5,131.5C 418.961,139.124 416.961,145.791 411.5,151.5C 410.833,151.5 410.5,151.833 410.5,152.5C 404.573,166.34 393.906,174.174 378.5,176C 366.537,177.391 355.204,176.058 344.5,172C 341.059,170.224 337.892,168.057 335,165.5C 324.56,177.515 311.56,183.515 296,183.5C 292.21,184.136 288.377,184.803 284.5,185.5C 277.047,192.939 268.047,197.439 257.5,199C 238.575,201.982 222.075,197.149 208,184.5C 190.437,190.724 172.937,189.224 155.5,180C 151.665,177.129 148.665,173.629 146.5,169.5C 157.365,165.113 168.699,163.446 180.5,164.5C 179.878,167.687 179.545,171.187 179.5,175C 180.126,175.75 180.626,176.584 181,177.5C 184.808,168.359 191.308,161.859 200.5,158C 219.379,150.791 237.379,152.457 254.5,163C 257.667,165.5 260.5,168.333 263,171.5C 270.87,167.046 279.37,164.713 288.5,164.5C 286.939,150.453 292.272,139.62 304.5,132C 322.253,121.756 340.753,119.589 360,125.5C 375.595,120.452 390.762,121.952 405.5,130C 409.667,132.833 413.167,136.333 416,140.5C 416.198,136.548 416.032,132.881 415.5,129.5 Z"/></g>
<g><path style="opacity:1" fill="#669748" d="M 413.5,123.5 C 415.873,125.579 417.206,128.246 417.5,131.5C 416.833,130.833 416.167,130.167 415.5,129.5C 413.926,127.898 413.259,125.898 413.5,123.5 Z"/></g>
<g><path style="opacity:1" fill="#3b462a" d="M 87.5,130.5 C 79.0642,130.153 70.7309,130.819 62.5,132.5C 70.6459,128.637 78.9793,127.97 87.5,130.5 Z"/></g>
<g><path style="opacity:1" fill="#2f5224" d="M 87.5,130.5 C 89.099,130.232 90.4324,130.566 91.5,131.5C 93.2184,132.224 95.0517,132.891 97,133.5C 99.7453,139.325 102.745,144.992 106,150.5C 107.833,153.667 110.333,156.167 113.5,158C 104.333,161.833 97.8333,168.333 94,177.5C 90.7731,189.547 92.6064,200.713 99.5,211C 95.5965,212.78 92.2632,215.28 89.5,218.5C 86.6604,215.857 83.327,215.024 79.5,216C 79.4106,217.716 79.7439,219.549 80.5,221.5C 79.1521,223.461 77.8187,223.628 76.5,222C 76.493,220.417 76.8263,218.751 77.5,217C 73.8333,216.667 70.1667,216.333 66.5,216C 62.9647,215.337 59.9647,213.837 57.5,211.5C 58.796,206.072 60.796,200.906 63.5,196C 53.3745,193.287 48.0412,186.954 47.5,177C 51.3275,167.025 58.6608,161.858 69.5,161.5C 67.3809,157.262 65.2143,152.929 63,148.5C 61.4307,144.297 60.9307,140.13 61.5,136C 61.3158,134.624 60.6491,133.791 59.5,133.5C 60.209,132.596 61.209,132.263 62.5,132.5C 70.7309,130.819 79.0642,130.153 87.5,130.5 Z"/></g>
<g><path style="opacity:1" fill="#39622c" d="M 59.5,133.5 C 60.6491,133.791 61.3158,134.624 61.5,136C 60.9307,140.13 61.4307,144.297 63,148.5C 65.2143,152.929 67.3809,157.262 69.5,161.5C 58.6608,161.858 51.3275,167.025 47.5,177C 48.0412,186.954 53.3745,193.287 63.5,196C 60.796,200.906 58.796,206.072 57.5,211.5C 57.1667,211.5 56.8333,211.5 56.5,211.5C 53.3773,207.797 51.544,203.464 51,198.5C 46.6888,194.608 41.8554,191.441 36.5,189C 31.1909,184.817 29.5242,179.817 31.5,174C 31.2409,172.739 30.5742,171.739 29.5,171C 30.5,170.667 31.5,170.333 32.5,170C 31.3012,168.306 29.9678,166.806 28.5,165.5C 32.416,161.598 37.0826,158.931 42.5,157.5C 45.3492,157.733 47.5159,159.066 49,161.5C 51.6611,158.685 52.4945,155.519 51.5,152C 52.8802,150.676 53.2135,149.343 52.5,148C 53.8333,147.333 54.8333,146.333 55.5,145C 53.2338,143.574 51.5671,141.741 50.5,139.5C 52.9754,136.759 55.9754,134.759 59.5,133.5 Z"/></g>
<g><path style="opacity:1" fill="#8cde5a" d="M 356.5,109.5 C 357.334,110.748 358.667,111.415 360.5,111.5C 373.711,108.448 386.711,109.114 399.5,113.5C 401.117,114.038 402.784,114.371 404.5,114.5C 404.821,116.048 405.821,116.715 407.5,116.5C 408.757,119.427 410.757,121.761 413.5,123.5C 413.259,125.898 413.926,127.898 415.5,129.5C 416.032,132.881 416.198,136.548 416,140.5C 413.167,136.333 409.667,132.833 405.5,130C 390.762,121.952 375.595,120.452 360,125.5C 340.753,119.589 322.253,121.756 304.5,132C 292.272,139.62 286.939,150.453 288.5,164.5C 279.37,164.713 270.87,167.046 263,171.5C 260.5,168.333 257.667,165.5 254.5,163C 237.379,152.457 219.379,150.791 200.5,158C 191.308,161.859 184.808,168.359 181,177.5C 180.626,176.584 180.126,175.75 179.5,175C 179.545,171.187 179.878,167.687 180.5,164.5C 182.278,157.281 186.278,151.614 192.5,147.5C 197.414,144.211 202.748,141.711 208.5,140C 229.924,135.099 248.257,140.266 263.5,155.5C 271.528,152.214 279.861,149.88 288.5,148.5C 287.228,136.21 291.561,126.376 301.5,119C 318.365,107.705 336.698,104.538 356.5,109.5 Z"/></g>
<g><path style="opacity:1" fill="#537447" d="M 50.5,139.5 C 51.5671,141.741 53.2338,143.574 55.5,145C 54.8333,146.333 53.8333,147.333 52.5,148C 53.2135,149.343 52.8802,150.676 51.5,152C 52.4945,155.519 51.6611,158.685 49,161.5C 47.5159,159.066 45.3492,157.733 42.5,157.5C 42.4646,150.242 45.1312,144.242 50.5,139.5 Z"/></g>
<g><path style="opacity:1" fill="#5cb24e" d="M 410.5,152.5 C 414.586,155.268 418.92,157.768 423.5,160C 427.359,163.032 431.026,166.198 434.5,169.5C 435.338,169.842 435.672,170.508 435.5,171.5C 435.5,172.5 435.5,173.5 435.5,174.5C 424.684,187.159 410.851,194.159 394,195.5C 391.333,195.5 388.667,195.5 386,195.5C 371.899,194.801 359.566,189.801 349,180.5C 339.196,193.825 326.029,201.658 309.5,204C 303.207,205.023 296.874,205.689 290.5,206C 275.057,222.57 256.057,228.904 233.5,225C 219.317,222.497 207.484,215.997 198,205.5C 176.014,213.778 155.18,211.611 135.5,199C 132.667,196.167 129.833,193.333 127,190.5C 126.51,189.207 126.343,187.873 126.5,186.5C 127.818,182.668 130.152,179.501 133.5,177C 137.562,173.971 141.895,171.471 146.5,169.5C 148.665,173.629 151.665,177.129 155.5,180C 172.937,189.224 190.437,190.724 208,184.5C 222.075,197.149 238.575,201.982 257.5,199C 268.047,197.439 277.047,192.939 284.5,185.5C 288.377,184.803 292.21,184.136 296,183.5C 311.56,183.515 324.56,177.515 335,165.5C 337.892,168.057 341.059,170.224 344.5,172C 355.204,176.058 366.537,177.391 378.5,176C 393.906,174.174 404.573,166.34 410.5,152.5 Z"/></g>
<g><path style="opacity:0.263" fill="#50703c" d="M 411.5,151.5 C 416.437,154.306 421.437,157.139 426.5,160C 429.777,162.766 432.443,165.933 434.5,169.5C 431.026,166.198 427.359,163.032 423.5,160C 418.92,157.768 414.586,155.268 410.5,152.5C 410.5,151.833 410.833,151.5 411.5,151.5 Z"/></g>
<g><path style="opacity:1" fill="#45853b" d="M 435.5,174.5 C 437.949,179.502 438.949,184.835 438.5,190.5C 438.5,190.833 438.5,191.167 438.5,191.5C 435.593,193.315 434.259,195.981 434.5,199.5C 432.57,203.1 429.903,206.1 426.5,208.5C 424.973,208.427 423.973,209.094 423.5,210.5C 416.163,215.99 407.829,218.99 398.5,219.5C 395.482,219.665 392.482,219.498 389.5,219C 390.238,217.176 390.572,215.176 390.5,213C 389.584,212.626 388.75,212.126 388,211.5C 386.111,212.089 384.111,212.423 382,212.5C 372.357,210.595 363.857,206.428 356.5,200C 349.474,195.822 346.474,197.988 347.5,206.5C 347.068,207.71 346.401,208.71 345.5,209.5C 344.662,209.842 344.328,210.508 344.5,211.5C 342.434,213.717 340.1,215.717 337.5,217.5C 336.128,218.512 334.795,219.512 333.5,220.5C 331.847,220.66 330.514,221.326 329.5,222.5C 325.043,225.657 320.043,227.657 314.5,228.5C 309.354,229.622 304.188,230.622 299,231.5C 297.069,230.508 294.903,230.175 292.5,230.5C 290.423,231.323 288.756,232.656 287.5,234.5C 285.801,234.34 284.134,234.506 282.5,235C 282.833,235.333 283.167,235.667 283.5,236C 282.117,237.271 281.117,238.771 280.5,240.5C 280.5,240.833 280.5,241.167 280.5,241.5C 279.609,242.11 278.609,242.443 277.5,242.5C 274.515,243.326 271.849,244.659 269.5,246.5C 267.491,248.065 265.157,249.065 262.5,249.5C 263.028,248.279 263.695,247.113 264.5,246C 262.996,244.509 262.163,242.676 262,240.5C 261.333,241.833 260.667,241.833 260,240.5C 259,241.167 258,241.833 257,242.5C 255.249,241.826 253.583,241.493 252,241.5C 250.915,242.293 249.748,242.96 248.5,243.5C 245.947,243.294 243.447,242.961 241,242.5C 238.284,244.72 237.451,247.387 238.5,250.5C 237.833,250.5 237.167,250.5 236.5,250.5C 234.5,250.5 232.5,250.5 230.5,250.5C 230.5,250.167 230.5,249.833 230.5,249.5C 231.974,247.073 231.807,244.74 230,242.5C 225.106,239.3 219.939,236.467 214.5,234C 211.462,231.297 208.795,228.297 206.5,225C 199.614,220.602 197.281,222.269 199.5,230C 198.263,230.232 197.263,230.732 196.5,231.5C 195.209,231.263 194.209,231.596 193.5,232.5C 187.532,234.825 181.532,235.825 175.5,235.5C 173.981,232.979 172.314,230.479 170.5,228C 162.41,227.039 154.41,224.873 146.5,221.5C 145.914,221.709 145.414,222.043 145,222.5C 144.503,224.81 144.337,227.143 144.5,229.5C 144.167,229.5 143.833,229.5 143.5,229.5C 140.528,227.678 137.528,225.844 134.5,224C 122.542,213.348 119.875,200.848 126.5,186.5C 126.343,187.873 126.51,189.207 127,190.5C 129.833,193.333 132.667,196.167 135.5,199C 155.18,211.611 176.014,213.778 198,205.5C 207.484,215.997 219.317,222.497 233.5,225C 256.057,228.904 275.057,222.57 290.5,206C 296.874,205.689 303.207,205.023 309.5,204C 326.029,201.658 339.196,193.825 349,180.5C 359.566,189.801 371.899,194.801 386,195.5C 388.667,195.5 391.333,195.5 394,195.5C 410.851,194.159 424.684,187.159 435.5,174.5 Z"/></g>
<g><path style="opacity:1" fill="#4a6234" d="M 435.5,171.5 C 439.31,177.439 440.31,183.772 438.5,190.5C 438.949,184.835 437.949,179.502 435.5,174.5C 435.5,173.5 435.5,172.5 435.5,171.5 Z"/></g>
<g><path style="opacity:0.078" fill="#43462e" d="M 25.5,190.5 C 27.8333,192.167 29.8333,194.167 31.5,196.5C 28.5,195.5 26.5,193.5 25.5,190.5 Z"/></g>
<g><path style="opacity:1" fill="#4a6d38" d="M 438.5,191.5 C 437.721,194.545 436.387,197.211 434.5,199.5C 434.259,195.981 435.593,193.315 438.5,191.5 Z"/></g>
<g><path style="opacity:1" fill="#5a7a4e" d="M 28.5,165.5 C 29.9678,166.806 31.3012,168.306 32.5,170C 31.5,170.333 30.5,170.667 29.5,171C 30.5742,171.739 31.2409,172.739 31.5,174C 29.5242,179.817 31.1909,184.817 36.5,189C 41.8554,191.441 46.6888,194.608 51,198.5C 51.544,203.464 53.3773,207.797 56.5,211.5C 57.5656,215.066 56.5656,218.066 53.5,220.5C 46.4655,217.111 42.9655,211.445 43,203.5C 38.8529,201.518 35.0195,199.184 31.5,196.5C 29.8333,194.167 27.8333,192.167 25.5,190.5C 19.5191,181.347 20.5191,173.014 28.5,165.5 Z"/></g>
<g><path style="opacity:1" fill="#5f9254" d="M 398.5,219.5 C 379.789,222.239 362.789,217.905 347.5,206.5C 346.474,197.988 349.474,195.822 356.5,200C 363.857,206.428 372.357,210.595 382,212.5C 384.111,212.423 386.111,212.089 388,211.5C 388.75,212.126 389.584,212.626 390.5,213C 390.572,215.176 390.238,217.176 389.5,219C 392.482,219.498 395.482,219.665 398.5,219.5 Z"/></g>
<g><path style="opacity:0.078" fill="#494d32" d="M 426.5,208.5 C 426.027,209.906 425.027,210.573 423.5,210.5C 423.973,209.094 424.973,208.427 426.5,208.5 Z"/></g>
<g><path style="opacity:0.078" fill="#454830" d="M 345.5,209.5 C 345.667,220.172 345.5,230.839 345,241.5C 344.722,242.416 344.222,243.082 343.5,243.5C 344.43,232.872 344.763,222.205 344.5,211.5C 344.328,210.508 344.662,209.842 345.5,209.5 Z"/></g>
<g><path style="opacity:1" fill="#4b673f" d="M 56.5,211.5 C 56.8333,211.5 57.1667,211.5 57.5,211.5C 59.9647,213.837 62.9647,215.337 66.5,216C 70.1667,216.333 73.8333,216.667 77.5,217C 76.8263,218.751 76.493,220.417 76.5,222C 77.8187,223.628 79.1521,223.461 80.5,221.5C 79.7439,219.549 79.4106,217.716 79.5,216C 83.327,215.024 86.6604,215.857 89.5,218.5C 90.4411,220.772 91.7745,222.772 93.5,224.5C 93.4142,225.496 93.7476,226.329 94.5,227C 92.8222,228.591 91.8222,230.091 91.5,231.5C 89.079,229.066 86.4123,227.066 83.5,225.5C 82.1879,225.176 81.3546,224.509 81,223.5C 71.3855,225.457 62.2188,224.457 53.5,220.5C 56.5656,218.066 57.5656,215.066 56.5,211.5 Z"/></g>
<g><path style="opacity:1" fill="#5b2a1f" d="M 344.5,211.5 C 344.763,222.205 344.43,232.872 343.5,243.5C 342.118,246.394 340.118,248.894 337.5,251C 329.805,254.731 321.805,257.565 313.5,259.5C 312.5,259.5 311.5,259.5 310.5,259.5C 309.908,256.873 309.575,254.206 309.5,251.5C 310.791,251.737 311.791,251.404 312.5,250.5C 316.866,248.234 321.533,246.567 326.5,245.5C 328.514,245.608 330.18,244.942 331.5,243.5C 332.122,244.627 332.955,245.627 334,246.5C 335.829,244.844 337.163,242.844 338,240.5C 338.767,232.785 338.6,225.118 337.5,217.5C 340.1,215.717 342.434,213.717 344.5,211.5 Z"/></g>
<g><path style="opacity:1" fill="#7a4e39" d="M 337.5,217.5 C 338.6,225.118 338.767,232.785 338,240.5C 337.163,242.844 335.829,244.844 334,246.5C 332.955,245.627 332.122,244.627 331.5,243.5C 332.167,235.833 332.833,228.167 333.5,220.5C 334.795,219.512 336.128,218.512 337.5,217.5 Z"/></g>
<g><path style="opacity:0.176" fill="#565c39" d="M 333.5,220.5 C 332.833,228.167 332.167,235.833 331.5,243.5C 330.18,244.942 328.514,245.608 326.5,245.5C 331.019,242.319 332.685,237.819 331.5,232C 331.485,228.424 330.818,225.258 329.5,222.5C 330.514,221.326 331.847,220.66 333.5,220.5 Z"/></g>
<g><path style="opacity:1" fill="#445b38" d="M 93.5,224.5 C 98.9521,227.24 104.452,229.907 110,232.5C 112.667,232.5 115.333,232.5 118,232.5C 121.136,234.164 122.303,236.831 121.5,240.5C 119.5,240.833 117.5,241.167 115.5,241.5C 106.813,240.069 98.48,237.235 90.5,233C 87.9614,230.63 85.6281,228.13 83.5,225.5C 86.4123,227.066 89.079,229.066 91.5,231.5C 91.8222,230.091 92.8222,228.591 94.5,227C 93.7476,226.329 93.4142,225.496 93.5,224.5 Z"/></g>
<g><path style="opacity:1" fill="#5f9455" d="M 175.5,235.5 C 175.5,236.167 175.167,236.5 174.5,236.5C 171.721,236.721 169.054,236.388 166.5,235.5C 166.167,235.5 165.833,235.5 165.5,235.5C 163.05,235.702 160.717,235.369 158.5,234.5C 156.485,233.076 154.152,232.41 151.5,232.5C 148.759,232.293 146.426,231.293 144.5,229.5C 144.337,227.143 144.503,224.81 145,222.5C 145.414,222.043 145.914,221.709 146.5,221.5C 154.41,224.873 162.41,227.039 170.5,228C 172.314,230.479 173.981,232.979 175.5,235.5 Z"/></g>
<g><path style="opacity:1" fill="#629558" d="M 230.5,249.5 C 228.435,249.483 226.435,249.15 224.5,248.5C 224.167,248.5 223.833,248.5 223.5,248.5C 213.999,245.244 205.999,239.744 199.5,232C 198.552,231.517 197.552,231.351 196.5,231.5C 197.263,230.732 198.263,230.232 199.5,230C 197.281,222.269 199.614,220.602 206.5,225C 208.795,228.297 211.462,231.297 214.5,234C 219.939,236.467 225.106,239.3 230,242.5C 231.807,244.74 231.974,247.073 230.5,249.5 Z"/></g>
<g><path style="opacity:0.176" fill="#505435" d="M 151.5,232.5 C 154.152,232.41 156.485,233.076 158.5,234.5C 155.848,234.59 153.515,233.924 151.5,232.5 Z"/></g>
<g><path style="opacity:0.078" fill="#454830" d="M 196.5,231.5 C 194.575,239.899 193.908,248.566 194.5,257.5C 193.539,255.735 193.205,253.735 193.5,251.5C 193.5,245.167 193.5,238.833 193.5,232.5C 194.209,231.596 195.209,231.263 196.5,231.5 Z"/></g>
<g><path style="opacity:1" fill="#704027" d="M 193.5,232.5 C 193.5,238.833 193.5,245.167 193.5,251.5C 193.167,251.5 192.833,251.5 192.5,251.5C 187.274,250.465 183.274,252.132 180.5,256.5C 179.686,258.631 179.186,260.964 179,263.5C 177.989,262.663 176.822,262.33 175.5,262.5C 175.5,261.167 175.5,259.833 175.5,258.5C 174.698,251.196 174.365,243.862 174.5,236.5C 175.167,236.5 175.5,236.167 175.5,235.5C 181.532,235.825 187.532,234.825 193.5,232.5 Z"/></g>
<g><path style="opacity:1" fill="#6c915b" d="M 287.5,234.5 C 287.5,234.833 287.5,235.167 287.5,235.5C 285.427,237.58 283.093,239.246 280.5,240.5C 281.117,238.771 282.117,237.271 283.5,236C 283.167,235.667 282.833,235.333 282.5,235C 284.134,234.506 285.801,234.34 287.5,234.5 Z"/></g>
<g><path style="opacity:0.176" fill="#545a38" d="M 165.5,235.5 C 165.833,235.5 166.167,235.5 166.5,235.5C 166.233,243.222 166.566,250.889 167.5,258.5C 167.5,259.167 167.167,259.5 166.5,259.5C 165.833,259.5 165.167,259.5 164.5,259.5C 164.918,258.778 165.584,258.278 166.5,258C 165.519,250.587 165.186,243.087 165.5,235.5 Z"/></g>
<g><path style="opacity:1" fill="#89614a" d="M 166.5,235.5 C 169.054,236.388 171.721,236.721 174.5,236.5C 174.365,243.862 174.698,251.196 175.5,258.5C 174.842,259.398 174.176,260.398 173.5,261.5C 171.259,260.871 169.259,259.871 167.5,258.5C 166.566,250.889 166.233,243.222 166.5,235.5 Z"/></g>
<g><path style="opacity:1" fill="#825c45" d="M 287.5,235.5 C 288.961,237.352 289.961,239.518 290.5,242C 289.385,247.225 289.385,252.392 290.5,257.5C 290.309,262.546 288.476,266.879 285,270.5C 284.333,267.833 283.667,267.833 283,270.5C 282.365,266.898 281.032,266.232 279,268.5C 278.601,268.272 278.435,267.938 278.5,267.5C 279.942,266.18 280.608,264.514 280.5,262.5C 280.5,255.5 280.5,248.5 280.5,241.5C 280.5,241.167 280.5,240.833 280.5,240.5C 283.093,239.246 285.427,237.58 287.5,235.5 Z"/></g>
<g><path style="opacity:1" fill="#5b241c" d="M 127.5,239.5 C 128.167,239.5 128.833,239.5 129.5,239.5C 128.631,241.717 128.298,244.05 128.5,246.5C 129.215,248.755 130.548,250.588 132.5,252C 137.059,251.877 141.059,253.211 144.5,256C 148.44,257.015 152.44,257.515 156.5,257.5C 158.515,258.924 160.848,259.59 163.5,259.5C 163.833,259.5 164.167,259.5 164.5,259.5C 165.167,259.5 165.833,259.5 166.5,259.5C 167.153,260.807 167.82,262.14 168.5,263.5C 166.563,264.158 164.73,264.491 163,264.5C 152.267,260.773 141.433,257.273 130.5,254C 124.387,251.616 121.387,247.116 121.5,240.5C 123.565,240.483 125.565,240.15 127.5,239.5 Z"/></g>
<g><path style="opacity:1" fill="#518a45" d="M 262.5,249.5 C 254.608,251.16 246.608,251.827 238.5,251.5C 238.5,251.167 238.5,250.833 238.5,250.5C 237.451,247.387 238.284,244.72 241,242.5C 243.447,242.961 245.947,243.294 248.5,243.5C 249.748,242.96 250.915,242.293 252,241.5C 253.583,241.493 255.249,241.826 257,242.5C 258,241.833 259,241.167 260,240.5C 260.667,241.833 261.333,241.833 262,240.5C 262.163,242.676 262.996,244.509 264.5,246C 263.695,247.113 263.028,248.279 262.5,249.5 Z"/></g>
<g><path style="opacity:1" fill="#946848" d="M 309.5,240.5 C 309.5,243.833 309.5,247.167 309.5,250.5C 310.5,250.5 311.5,250.5 312.5,250.5C 311.791,251.404 310.791,251.737 309.5,251.5C 309.575,254.206 309.908,256.873 310.5,259.5C 311.5,259.5 312.5,259.5 313.5,259.5C 312.469,260.249 311.302,260.915 310,261.5C 306.298,274.204 298.131,282.704 285.5,287C 281.244,288.807 276.911,290.307 272.5,291.5C 272.804,290.85 273.137,290.183 273.5,289.5C 271.037,286.665 270.87,283.665 273,280.5C 277.956,276.224 283.456,272.724 289.5,270C 292.106,268.062 293.939,265.562 295,262.5C 292.598,250.113 297.431,242.78 309.5,240.5 Z"/></g>
<g><path style="opacity:0.176" fill="#525736" d="M 277.5,242.5 C 275.421,244.873 272.754,246.206 269.5,246.5C 271.849,244.659 274.515,243.326 277.5,242.5 Z"/></g>
<g><path style="opacity:0.176" fill="#525837" d="M 223.5,248.5 C 223.833,248.5 224.167,248.5 224.5,248.5C 224.5,251.833 224.5,255.167 224.5,258.5C 222.958,259.301 221.292,259.634 219.5,259.5C 220.531,258.751 221.698,258.085 223,257.5C 223.498,254.518 223.665,251.518 223.5,248.5 Z"/></g>
<g><path style="opacity:1" fill="#7a4d38" d="M 224.5,248.5 C 226.435,249.15 228.435,249.483 230.5,249.5C 230.5,249.833 230.5,250.167 230.5,250.5C 230.608,254.247 230.108,257.914 229,261.5C 228.586,261.957 228.086,262.291 227.5,262.5C 226.476,261.148 225.476,259.815 224.5,258.5C 224.5,255.167 224.5,251.833 224.5,248.5 Z"/></g>
<g><path style="opacity:1" fill="#5c281e" d="M 230.5,250.5 C 232.5,250.5 234.5,250.5 236.5,250.5C 236.5,254.5 236.5,258.5 236.5,262.5C 236.5,262.833 236.5,263.167 236.5,263.5C 234.632,264.263 232.965,265.263 231.5,266.5C 230.432,267.434 229.099,267.768 227.5,267.5C 224.549,267.287 221.882,267.954 219.5,269.5C 214.73,268.253 210.064,266.586 205.5,264.5C 206.167,263.833 206.833,263.167 207.5,262.5C 211.4,261.192 215.4,260.192 219.5,259.5C 221.292,259.634 222.958,259.301 224.5,258.5C 225.476,259.815 226.476,261.148 227.5,262.5C 228.086,262.291 228.586,261.957 229,261.5C 230.108,257.914 230.608,254.247 230.5,250.5 Z"/></g>
<g><path style="opacity:1" fill="#996948" d="M 192.5,251.5 C 191.063,257.003 193.063,261.503 198.5,265C 200.929,265.703 203.262,265.537 205.5,264.5C 210.064,266.586 214.73,268.253 219.5,269.5C 219.953,270.458 220.619,271.292 221.5,272C 228.526,274.039 235.359,276.539 242,279.5C 243.145,279.381 244.312,279.048 245.5,278.5C 249.845,284.538 254.179,290.538 258.5,296.5C 259.079,302.397 261.079,307.73 264.5,312.5C 258.71,312.904 253.044,312.404 247.5,311C 246.333,309.833 245.167,308.667 244,307.5C 241.69,300.925 239.69,294.258 238,287.5C 234.128,286.265 230.295,284.932 226.5,283.5C 224.454,282.035 222.62,282.368 221,284.5C 220.612,282.285 219.612,280.952 218,280.5C 210.19,278.554 202.357,275.721 194.5,272C 191.57,271.394 188.737,270.56 186,269.5C 185.667,269.833 185.333,270.167 185,270.5C 182.636,269.62 180.803,267.62 179.5,264.5C 180.473,262.052 180.806,259.385 180.5,256.5C 183.274,252.132 187.274,250.465 192.5,251.5 Z"/></g>
<g><path style="opacity:0.078" fill="#464930" d="M 236.5,250.5 C 237.167,250.5 237.833,250.5 238.5,250.5C 238.5,250.833 238.5,251.167 238.5,251.5C 237.833,255.167 237.167,258.833 236.5,262.5C 236.5,258.5 236.5,254.5 236.5,250.5 Z"/></g>
<g><path style="opacity:1" fill="#4d2c1e" d="M 128.5,246.5 C 129.627,247.122 130.627,247.955 131.5,249C 140.002,251.699 148.335,254.532 156.5,257.5C 152.44,257.515 148.44,257.015 144.5,256C 141.059,253.211 137.059,251.877 132.5,252C 130.548,250.588 129.215,248.755 128.5,246.5 Z"/></g>
<g><path style="opacity:0.176" fill="#4e5936" d="M 130.5,258.5 C 133.152,258.41 135.485,259.076 137.5,260.5C 134.848,260.59 132.515,259.924 130.5,258.5 Z"/></g>
<g><path style="opacity:1" fill="#754e37" d="M 121.5,240.5 C 121.387,247.116 124.387,251.616 130.5,254C 141.433,257.273 152.267,260.773 163,264.5C 164.73,264.491 166.563,264.158 168.5,263.5C 167.82,262.14 167.153,260.807 166.5,259.5C 167.167,259.5 167.5,259.167 167.5,258.5C 169.259,259.871 171.259,260.871 173.5,261.5C 174.176,260.398 174.842,259.398 175.5,258.5C 175.5,259.833 175.5,261.167 175.5,262.5C 176.822,262.33 177.989,262.663 179,263.5C 179.186,260.964 179.686,258.631 180.5,256.5C 180.806,259.385 180.473,262.052 179.5,264.5C 178.153,263.972 176.819,263.805 175.5,264C 176.536,266.07 176.536,268.236 175.5,270.5C 174.167,270.5 172.833,270.5 171.5,270.5C 169.095,269.232 166.428,268.565 163.5,268.5C 157.828,267.607 152.494,265.941 147.5,263.5C 145.485,262.076 143.152,261.41 140.5,261.5C 139.209,261.737 138.209,261.404 137.5,260.5C 135.485,259.076 133.152,258.41 130.5,258.5C 120.854,256.857 115.854,251.191 115.5,241.5C 117.5,241.167 119.5,240.833 121.5,240.5 Z"/></g>
<g><path style="opacity:0.078" fill="#484b31" d="M 156.5,257.5 C 159.152,257.41 161.485,258.076 163.5,259.5C 160.848,259.59 158.515,258.924 156.5,257.5 Z"/></g>
<g><path style="opacity:1" fill="#6d543b" d="M 192.5,251.5 C 192.833,251.5 193.167,251.5 193.5,251.5C 193.205,253.735 193.539,255.735 194.5,257.5C 197.399,263.466 201.733,265.132 207.5,262.5C 206.833,263.167 206.167,263.833 205.5,264.5C 203.262,265.537 200.929,265.703 198.5,265C 193.063,261.503 191.063,257.003 192.5,251.5 Z"/></g>
<g><path style="opacity:0.176" fill="#4e5936" d="M 140.5,261.5 C 143.152,261.41 145.485,262.076 147.5,263.5C 144.848,263.59 142.515,262.924 140.5,261.5 Z"/></g>
<g><path style="opacity:0.176" fill="#515736" d="M 236.5,263.5 C 235.7,265.741 234.034,266.741 231.5,266.5C 232.965,265.263 234.632,264.263 236.5,263.5 Z"/></g>
<g><path style="opacity:1" fill="#6f4128" d="M 314.5,228.5 C 313.122,229.234 311.622,229.901 310,230.5C 309.502,233.817 309.335,237.15 309.5,240.5C 297.431,242.78 292.598,250.113 295,262.5C 293.939,265.562 292.106,268.062 289.5,270C 283.456,272.724 277.956,276.224 273,280.5C 270.87,283.665 271.037,286.665 273.5,289.5C 273.137,290.183 272.804,290.85 272.5,291.5C 269.47,293.403 266.137,294.737 262.5,295.5C 261.041,295.433 259.708,295.766 258.5,296.5C 254.179,290.538 249.845,284.538 245.5,278.5C 246.5,277.833 247.5,277.167 248.5,276.5C 250.515,275.076 252.848,274.41 255.5,274.5C 258.152,274.59 260.485,273.924 262.5,272.5C 265.152,272.59 267.485,271.924 269.5,270.5C 272.792,270.353 275.792,269.353 278.5,267.5C 278.435,267.938 278.601,268.272 279,268.5C 281.032,266.232 282.365,266.898 283,270.5C 283.667,267.833 284.333,267.833 285,270.5C 288.476,266.879 290.309,262.546 290.5,257.5C 289.385,252.392 289.385,247.225 290.5,242C 289.961,239.518 288.961,237.352 287.5,235.5C 287.5,235.167 287.5,234.833 287.5,234.5C 288.756,232.656 290.423,231.323 292.5,230.5C 294.903,230.175 297.069,230.508 299,231.5C 304.188,230.622 309.354,229.622 314.5,228.5 Z"/></g>
<g><path style="opacity:0.176" fill="#505736" d="M 163.5,268.5 C 166.428,268.565 169.095,269.232 171.5,270.5C 168.505,270.706 165.838,270.04 163.5,268.5 Z"/></g>
<g><path style="opacity:0.176" fill="#4d5134" d="M 280.5,262.5 C 280.608,264.514 279.942,266.18 278.5,267.5C 275.792,269.353 272.792,270.353 269.5,270.5C 274.056,269.055 277.722,266.389 280.5,262.5 Z"/></g>
<g><path style="opacity:0.176" fill="#4d5134" d="M 269.5,270.5 C 267.485,271.924 265.152,272.59 262.5,272.5C 264.515,271.076 266.848,270.41 269.5,270.5 Z"/></g>
<g><path style="opacity:0.176" fill="#4d5134" d="M 262.5,272.5 C 260.485,273.924 258.152,274.59 255.5,274.5C 257.515,273.076 259.848,272.41 262.5,272.5 Z"/></g>
<g><path style="opacity:1" fill="#6d5139" d="M 227.5,267.5 C 225.842,268.181 224.175,269.015 222.5,270C 230.851,273.507 239.517,275.674 248.5,276.5C 247.5,277.167 246.5,277.833 245.5,278.5C 244.312,279.048 243.145,279.381 242,279.5C 235.359,276.539 228.526,274.039 221.5,272C 220.619,271.292 219.953,270.458 219.5,269.5C 221.882,267.954 224.549,267.287 227.5,267.5 Z"/></g>
<g><path style="opacity:1" fill="#886149" d="M 179.5,264.5 C 180.803,267.62 182.636,269.62 185,270.5C 185.333,270.167 185.667,269.833 186,269.5C 188.737,270.56 191.57,271.394 194.5,272C 202.357,275.721 210.19,278.554 218,280.5C 219.612,280.952 220.612,282.285 221,284.5C 222.62,282.368 224.454,282.035 226.5,283.5C 225.167,283.5 224.5,284.167 224.5,285.5C 224.832,295.855 224.499,306.188 223.5,316.5C 221.103,318.575 218.769,320.575 216.5,322.5C 216.667,310.829 216.5,299.162 216,287.5C 206.256,284.141 196.423,280.974 186.5,278C 182.106,276.418 178.439,273.918 175.5,270.5C 176.536,268.236 176.536,266.07 175.5,264C 176.819,263.805 178.153,263.972 179.5,264.5 Z"/></g>
<g><path style="opacity:1" fill="#714229" d="M 226.5,283.5 C 230.295,284.932 234.128,286.265 238,287.5C 239.69,294.258 241.69,300.925 244,307.5C 245.167,308.667 246.333,309.833 247.5,311C 253.044,312.404 258.71,312.904 264.5,312.5C 265.167,312.5 265.833,312.5 266.5,312.5C 268.083,314.663 269.416,316.996 270.5,319.5C 270.157,321.225 269.157,321.725 267.5,321C 264.167,319 260.833,317 257.5,315C 246.839,314.5 236.172,314.333 225.5,314.5C 225.827,304.652 225.494,294.986 224.5,285.5C 224.5,284.167 225.167,283.5 226.5,283.5 Z"/></g>
<g><path style="opacity:1" fill="#76503c" d="M 224.5,285.5 C 225.494,294.986 225.827,304.652 225.5,314.5C 236.172,314.333 246.839,314.5 257.5,315C 260.833,317 264.167,319 267.5,321C 269.157,321.725 270.157,321.225 270.5,319.5C 272.603,320.98 272.603,322.147 270.5,323C 252.329,323.829 234.329,323.662 216.5,322.5C 218.769,320.575 221.103,318.575 223.5,316.5C 224.499,306.188 224.832,295.855 224.5,285.5 Z"/></g>
<g><path style="opacity:1" fill="#6c583e" d="M 262.5,295.5 C 261.34,296.265 260.34,297.265 259.5,298.5C 261.892,303.2 264.225,307.867 266.5,312.5C 265.833,312.5 265.167,312.5 264.5,312.5C 261.079,307.73 259.079,302.397 258.5,296.5C 259.708,295.766 261.041,295.433 262.5,295.5 Z"/></g>
</svg>
