<?xml version="1.0" encoding="UTF-8"?>
<!DOCTYPE svg PUBLIC "-//W3C//DTD SVG 1.1//EN" "http://www.w3.org/Graphics/SVG/1.1/DTD/svg11.dtd">
<svg xmlns="http://www.w3.org/2000/svg" version="1.1" width="357px" height="267px" style="shape-rendering:geometricPrecision; text-rendering:geometricPrecision; image-rendering:optimizeQuality; fill-rule:evenodd; clip-rule:evenodd" xmlns:xlink="http://www.w3.org/1999/xlink">
<g><path style="opacity:0.233" fill="#2e3239" d="M 56.5,-0.5 C 92.1667,-0.5 127.833,-0.5 163.5,-0.5C 168.014,4.55881 169.681,10.5588 168.5,17.5C 173.726,17.7117 178.726,18.8784 183.5,21C 187.5,25.3333 187.5,29.6667 183.5,34C 180.774,35.6876 177.941,37.1876 175,38.5C 175.755,42.6591 175.588,46.8258 174.5,51C 176.054,54.4632 177.054,58.1298 177.5,62C 177.122,69.7148 173.122,74.3815 165.5,76C 162.213,81.6213 157.879,86.288 152.5,90C 158.533,94.2263 163.033,99.7263 166,106.5C 173.964,114.151 183.297,119.484 194,122.5C 204.219,118.281 211.885,111.281 217,101.5C 219.264,98.5665 222.098,96.3999 225.5,95C 218.755,87.6117 211.922,80.445 205,73.5C 204.094,71.2562 203.594,68.9228 203.5,66.5C 204.018,58.8678 204.018,51.2011 203.5,43.5C 195.528,43.035 190.528,39.035 188.5,31.5C 189.331,26.5053 192.331,23.672 197.5,23C 201.819,22.2401 206.152,21.5735 210.5,21C 218.07,10.9197 227.737,3.753 239.5,-0.5C 256.5,-0.5 273.5,-0.5 290.5,-0.5C 301.992,3.58361 311.325,10.5836 318.5,20.5C 323.134,21.4961 327.8,22.3294 332.5,23C 342.81,26.5243 344.144,32.191 336.5,40C 333.395,41.8681 330.062,43.0348 326.5,43.5C 326.174,47.8839 326.508,52.2172 327.5,56.5C 334.142,63.2515 334.142,70.0848 327.5,77C 324.052,78.9272 320.385,80.2606 316.5,81C 313.92,85.584 310.587,89.584 306.5,93C 325.212,100.379 338.712,113.213 347,131.5C 348.313,135.42 349.313,139.42 350,143.5C 350.5,95.5012 350.667,47.5012 350.5,-0.5C 352.5,-0.5 354.5,-0.5 356.5,-0.5C 356.5,87.1667 356.5,174.833 356.5,262.5C 353.487,260.5 350.154,259.5 346.5,259.5C 346.737,260.791 346.404,261.791 345.5,262.5C 345.667,235.498 345.5,208.498 345,181.5C 343.442,178.979 341.275,177.312 338.5,176.5C 338.167,175.167 337.833,173.833 337.5,172.5C 339.136,171.251 340.303,169.584 341,167.5C 348.902,144.535 343.402,125.368 324.5,110C 318.268,105.385 311.601,101.552 304.5,98.5C 299.93,97.559 295.263,97.2256 290.5,97.5C 290.5,97.1667 290.5,96.8333 290.5,96.5C 300.01,92.3279 307.343,85.6612 312.5,76.5C 315.441,75.478 318.441,74.6446 321.5,74C 329.832,67.8031 329.166,62.6364 319.5,58.5C 321.621,52.9517 321.954,47.285 320.5,41.5C 320.5,40.8333 320.5,40.1667 320.5,39.5C 326.942,38.9166 332.275,36.25 336.5,31.5C 335.91,30.2011 334.91,29.3678 333.5,29C 330.173,28.3897 326.839,27.8897 323.5,27.5C 321.052,26.5269 318.385,26.1936 315.5,26.5C 307.321,13.7255 295.655,5.89215 280.5,3C 260.172,-1.4008 241.505,2.26587 224.5,14C 221.629,16.7028 218.962,19.5361 216.5,22.5C 215.248,24.0009 214.248,25.6675 213.5,27.5C 208.489,27.3341 203.489,27.5007 198.5,28C 196.68,28.2004 195.347,29.0337 194.5,30.5C 193.201,32.1534 193.534,33.6534 195.5,35C 200.159,37.1579 204.825,38.9912 209.5,40.5C 208.141,47.2304 208.475,53.8971 210.5,60.5C 207.11,67.7334 209.277,72.7334 217,75.5C 222.105,85.1058 229.605,92.1058 239.5,96.5C 239.5,96.8333 239.5,97.1667 239.5,97.5C 232.907,97.1406 227.24,99.1406 222.5,103.5C 216.576,114.962 207.576,122.962 195.5,127.5C 192.097,127.149 188.763,126.482 185.5,125.5C 170.982,119.492 159.649,109.659 151.5,96C 147.078,93.8964 142.412,93.0631 137.5,93.5C 137.5,93.1667 137.5,92.8333 137.5,92.5C 148.167,88.3341 156.167,81.1674 161.5,71C 168.982,70.5277 172.482,66.6944 172,59.5C 170.629,57.9586 169.129,56.6253 167.5,55.5C 169.728,48.9633 170.061,42.2966 168.5,35.5C 171.403,33.3523 174.736,31.8523 178.5,31C 180.325,29.5341 180.825,27.7008 180,25.5C 174.652,23.8788 169.152,22.8788 163.5,22.5C 163.666,17.4889 163.499,12.4889 163,7.5C 161.164,4.82523 158.664,2.9919 155.5,2C 124.833,1.33333 94.1667,1.33333 63.5,2C 61.3395,2.9959 59.6728,4.4959 58.5,6.5C 57.8826,6.61071 57.3826,6.94404 57,7.5C 56.5007,12.4889 56.3341,17.4889 56.5,22.5C 52.3528,23.3247 48.0195,23.8247 43.5,24C 39.1104,25.222 38.4437,27.5554 41.5,31C 46.7578,33.4029 52.0911,35.2362 57.5,36.5C 56.2394,42.4939 56.2394,48.4939 57.5,54.5C 48.2289,59.7275 48.2289,64.8942 57.5,70C 59.8333,70.3333 62.1667,70.6667 64.5,71C 69.7972,80.8003 77.4639,87.967 87.5,92.5C 83.8183,92.3347 80.1516,92.5014 76.5,93C 73.4006,93.3874 70.734,94.5541 68.5,96.5C 57.3161,101.69 48.3161,109.357 41.5,119.5C 34.1499,129.245 31.6499,140.245 34,152.5C 34.9998,158.156 36.8331,163.49 39.5,168.5C 39.5,169.833 39.5,171.167 39.5,172.5C 37.246,173.124 35.5794,174.457 34.5,176.5C 33.6618,176.842 33.3284,177.508 33.5,178.5C 32.5021,205.328 32.1688,232.328 32.5,259.5C 21.5,259.5 10.5,259.5 -0.5,259.5C -0.5,257.833 -0.5,256.167 -0.5,254.5C 8.83333,254.5 18.1667,254.5 27.5,254.5C 27.3334,229.164 27.5,203.831 28,178.5C 29.0575,174.717 30.8908,171.383 33.5,168.5C 22.6313,141.923 28.2979,119.423 50.5,101C 57.0436,96.2274 64.0436,92.2274 71.5,89C 67.4518,85.5541 64.1184,81.5541 61.5,77C 55.366,76.1968 50.5327,73.3634 47,68.5C 44.1879,61.8451 45.5212,56.1785 51,51.5C 51.4988,47.5138 51.6655,43.5138 51.5,39.5C 45.0235,38.8451 39.5235,36.1784 35,31.5C 32.7253,27.3134 33.5587,23.8134 37.5,21C 41.9363,18.8909 46.6029,17.7243 51.5,17.5C 50.4374,10.6423 52.1041,4.64232 56.5,-0.5 Z M 194.5,147.5 C 201.51,147.668 208.51,148.001 215.5,148.5C 215.333,171.502 215.5,194.502 216,217.5C 217.995,219.747 220.495,220.747 223.5,220.5C 223.5,228.5 223.5,236.5 223.5,244.5C 216.44,244.859 211.107,248.026 207.5,254C 195.153,254.833 182.82,254.666 170.5,253.5C 166.734,247.115 161.067,244.115 153.5,244.5C 153.333,225.83 153.5,207.164 154,188.5C 157.933,184.971 160.6,180.637 162,175.5C 163.142,167.875 163.642,160.208 163.5,152.5C 174.242,152.587 184.575,150.92 194.5,147.5 Z M 349.5,155.5 C 350.657,163.656 350.823,171.99 350,180.5C 348.782,177.442 346.949,174.776 344.5,172.5C 347.185,167.113 348.852,161.446 349.5,155.5 Z M 61.5,183.5 C 62.764,185.27 64.264,186.937 66,188.5C 66.5,210.497 66.6666,232.497 66.5,254.5C 59.1667,254.5 51.8333,254.5 44.5,254.5C 44.5,231.5 44.5,208.5 44.5,185.5C 49.1785,185.666 53.8452,185.499 58.5,185C 59.7375,184.768 60.7375,184.268 61.5,183.5 Z M 333.5,188.5 C 334.497,210.327 334.831,232.327 334.5,254.5C 326.833,254.5 319.167,254.5 311.5,254.5C 311.5,243.167 311.5,231.833 311.5,220.5C 314.747,220.585 317.581,219.585 320,217.5C 320.5,208.173 320.666,198.839 320.5,189.5C 325.083,191.005 329.416,190.672 333.5,188.5 Z M 100.5,197.5 C 107.167,197.5 113.833,197.5 120.5,197.5C 120.667,214.17 120.5,230.837 120,247.5C 119.814,249.9 119.314,252.234 118.5,254.5C 114.865,247.014 108.865,243.68 100.5,244.5C 100.5,228.833 100.5,213.167 100.5,197.5 Z M 258.5,220.5 C 264.833,220.5 271.167,220.5 277.5,220.5C 277.5,228.5 277.5,236.5 277.5,244.5C 270.61,244.94 265.277,247.94 261.5,253.5C 260.277,254.614 258.944,254.781 257.5,254C 258.487,242.915 258.821,231.748 258.5,220.5 Z"/></g>
<g><path style="opacity:1" fill="#7a3d30" d="M 161.5,25.5 C 160.167,25.5 158.833,25.5 157.5,25.5C 153.039,21.8919 148.372,18.3919 143.5,15C 136.564,12.4142 129.397,10.9142 122,10.5C 112,10.5 102,10.5 92,10.5C 85.095,11.44 78.595,13.44 72.5,16.5C 70.5,14.8333 68.5,13.1667 66.5,11.5C 67.9869,10.1964 69.6536,9.02978 71.5,8C 77.2331,5.94201 83.0664,4.44201 89,3.5C 102.333,3.5 115.667,3.5 129,3.5C 144.261,4.36714 155.761,11.2005 163.5,24C 162.584,24.2784 161.918,24.7784 161.5,25.5 Z"/></g>
<g><path style="opacity:1" fill="#874b3e" d="M 168.5,35.5 C 166.097,35.448 163.764,35.7814 161.5,36.5C 161.167,36.5 160.833,36.5 160.5,36.5C 159.082,32.3055 156.082,30.6389 151.5,31.5C 155.031,30.7704 158.697,30.1037 162.5,29.5C 162.833,28.8333 163.167,28.1667 163.5,27.5C 163.253,26.2867 162.586,25.62 161.5,25.5C 161.918,24.7784 162.584,24.2784 163.5,24C 155.761,11.2005 144.261,4.36714 129,3.5C 115.667,3.5 102.333,3.5 89,3.5C 83.0664,4.44201 77.2331,5.94201 71.5,8C 69.6536,9.02978 67.9869,10.1964 66.5,11.5C 63.6483,10.131 60.9817,8.46434 58.5,6.5C 59.6728,4.4959 61.3395,2.9959 63.5,2C 94.1667,1.33333 124.833,1.33333 155.5,2C 158.664,2.9919 161.164,4.82523 163,7.5C 163.499,12.4889 163.666,17.4889 163.5,22.5C 169.152,22.8788 174.652,23.8788 180,25.5C 180.825,27.7008 180.325,29.5341 178.5,31C 174.736,31.8523 171.403,33.3523 168.5,35.5 Z"/></g>
<g><path style="opacity:1" fill="#a56367" d="M 315.5,26.5 C 314.432,27.4345 313.099,27.7678 311.5,27.5C 298.287,13.565 281.787,6.23169 262,5.5C 255.545,6.92432 249.045,8.09098 242.5,9C 235.315,11.9041 229.315,16.2375 224.5,22C 225.737,22.2321 226.737,22.7321 227.5,23.5C 224.762,22.9648 222.928,23.9648 222,26.5C 220.989,25.6634 219.822,25.33 218.5,25.5C 218.573,23.9731 217.906,22.9731 216.5,22.5C 218.962,19.5361 221.629,16.7028 224.5,14C 241.505,2.26587 260.172,-1.4008 280.5,3C 295.655,5.89215 307.321,13.7255 315.5,26.5 Z"/></g>
<g><path style="opacity:1" fill="#9c565c" d="M 311.5,27.5 C 308.713,28.4767 305.713,28.81 302.5,28.5C 287.246,15.6029 269.58,11.1029 249.5,15C 243.721,17.962 238.721,21.7954 234.5,26.5C 231.944,25.9488 229.611,24.9488 227.5,23.5C 226.737,22.7321 225.737,22.2321 224.5,22C 229.315,16.2375 235.315,11.9041 242.5,9C 249.045,8.09098 255.545,6.92432 262,5.5C 281.787,6.23169 298.287,13.565 311.5,27.5 Z"/></g>
<g><path style="opacity:1" fill="#9c675b" d="M 58.5,6.5 C 60.9817,8.46434 63.6483,10.131 66.5,11.5C 67.4738,16.0605 65.8072,19.5605 61.5,22C 59.8659,22.4935 58.1992,22.6602 56.5,22.5C 56.3341,17.4889 56.5007,12.4889 57,7.5C 57.3826,6.94404 57.8826,6.61071 58.5,6.5 Z"/></g>
<g><path style="opacity:1" fill="#91484e" d="M 302.5,28.5 C 300.708,29.3091 298.708,29.8091 296.5,30C 275.658,32.1204 254.991,31.9538 234.5,29.5C 235.833,28.5 235.833,27.5 234.5,26.5C 238.721,21.7954 243.721,17.962 249.5,15C 269.58,11.1029 287.246,15.6029 302.5,28.5 Z"/></g>
<g><path style="opacity:1" fill="#92584a" d="M 66.5,11.5 C 68.5,13.1667 70.5,14.8333 72.5,16.5C 75.8782,19.8761 78.8782,23.5428 81.5,27.5C 73.1034,27.5464 64.7701,26.8798 56.5,25.5C 56.2865,27.1439 56.6198,28.6439 57.5,30C 67.0934,31.7278 76.76,32.5612 86.5,32.5C 86.8417,33.3382 87.5084,33.6716 88.5,33.5C 90.8061,35.1394 92.8061,37.1394 94.5,39.5C 84.4214,39.7768 74.4214,39.1101 64.5,37.5C 62.139,37.3259 59.8056,36.9926 57.5,36.5C 52.0911,35.2362 46.7578,33.4029 41.5,31C 38.4437,27.5554 39.1104,25.222 43.5,24C 48.0195,23.8247 52.3528,23.3247 56.5,22.5C 58.1992,22.6602 59.8659,22.4935 61.5,22C 65.8072,19.5605 67.4738,16.0605 66.5,11.5 Z"/></g>
<g><path style="opacity:1" fill="#6c2e20" d="M 157.5,25.5 C 149.417,27.4219 141.084,28.5885 132.5,29C 115.789,29.8043 99.1226,29.6376 82.5,28.5C 81.8333,28.5 81.5,28.1667 81.5,27.5C 78.8782,23.5428 75.8782,19.8761 72.5,16.5C 78.595,13.44 85.095,11.44 92,10.5C 102,10.5 112,10.5 122,10.5C 129.397,10.9142 136.564,12.4142 143.5,15C 148.372,18.3919 153.039,21.8919 157.5,25.5 Z"/></g>
<g><path style="opacity:1" fill="#eab74c" d="M 216.5,22.5 C 217.906,22.9731 218.573,23.9731 218.5,25.5C 217.5,25.8333 216.833,26.5 216.5,27.5C 215.5,27.5 214.5,27.5 213.5,27.5C 214.248,25.6675 215.248,24.0009 216.5,22.5 Z"/></g>
<g><path style="opacity:1" fill="#fbf1e7" d="M 227.5,23.5 C 229.611,24.9488 231.944,25.9488 234.5,26.5C 235.833,27.5 235.833,28.5 234.5,29.5C 231.902,30.5278 231.902,31.5278 234.5,32.5C 234.5,33.5 234.5,34.5 234.5,35.5C 232.114,35.2587 230.114,35.9254 228.5,37.5C 227.735,37.9234 226.902,38.2568 226,38.5C 223.064,36.5924 219.897,35.259 216.5,34.5C 216.703,32.9557 217.37,31.6223 218.5,30.5C 217.388,29.7348 216.721,28.7348 216.5,27.5C 216.833,26.5 217.5,25.8333 218.5,25.5C 219.822,25.33 220.989,25.6634 222,26.5C 222.928,23.9648 224.762,22.9648 227.5,23.5 Z"/></g>
<g><path style="opacity:1" fill="#a56467" d="M 213.5,27.5 C 214.5,27.5 215.5,27.5 216.5,27.5C 216.721,28.7348 217.388,29.7348 218.5,30.5C 217.37,31.6223 216.703,32.9557 216.5,34.5C 208.821,34.7386 201.488,33.4053 194.5,30.5C 195.347,29.0337 196.68,28.2004 198.5,28C 203.489,27.5007 208.489,27.3341 213.5,27.5 Z"/></g>
<g><path style="opacity:1" fill="#fd3d3a" d="M 223.5,27.5 C 228.006,26.5272 230.172,28.1939 230,32.5C 227.599,33.6023 225.099,33.769 222.5,33C 221.156,30.8564 221.49,29.0231 223.5,27.5 Z"/></g>
<g><path style="opacity:1" fill="#e3af4b" d="M 81.5,27.5 C 81.5,28.1667 81.8333,28.5 82.5,28.5C 83.5274,30.1942 84.8608,31.5275 86.5,32.5C 76.76,32.5612 67.0934,31.7278 57.5,30C 56.6198,28.6439 56.2865,27.1439 56.5,25.5C 64.7701,26.8798 73.1034,27.5464 81.5,27.5 Z"/></g>
<g><path style="opacity:1" fill="#ac6c72" d="M 323.5,27.5 C 326.839,27.8897 330.173,28.3897 333.5,29C 334.91,29.3678 335.91,30.2011 336.5,31.5C 332.275,36.25 326.942,38.9166 320.5,39.5C 319.395,37.2869 319.395,35.1203 320.5,33C 319.627,31.955 318.627,31.1217 317.5,30.5C 317.586,29.5041 317.252,28.6708 316.5,28C 318.81,27.5034 321.143,27.3367 323.5,27.5 Z"/></g>
<g><path style="opacity:1" fill="#dd9520" d="M 157.5,25.5 C 158.833,25.5 160.167,25.5 161.5,25.5C 162.586,25.62 163.253,26.2867 163.5,27.5C 163.167,28.1667 162.833,28.8333 162.5,29.5C 158.697,30.1037 155.031,30.7704 151.5,31.5C 130.541,33.1658 109.541,33.8324 88.5,33.5C 87.5084,33.6716 86.8417,33.3382 86.5,32.5C 84.8608,31.5275 83.5274,30.1942 82.5,28.5C 99.1226,29.6376 115.789,29.8043 132.5,29C 141.084,28.5885 149.417,27.4219 157.5,25.5 Z"/></g>
<g><path style="opacity:1" fill="#6d3021" d="M 315.5,26.5 C 318.385,26.1936 321.052,26.5269 323.5,27.5C 321.143,27.3367 318.81,27.5034 316.5,28C 317.252,28.6708 317.586,29.5041 317.5,30.5C 315.438,31.7763 313.104,32.6097 310.5,33C 287.228,35.4348 263.894,36.1015 240.5,35C 238.155,34.7635 236.155,33.9302 234.5,32.5C 231.902,31.5278 231.902,30.5278 234.5,29.5C 254.991,31.9538 275.658,32.1204 296.5,30C 298.708,29.8091 300.708,29.3091 302.5,28.5C 305.713,28.81 308.713,28.4767 311.5,27.5C 313.099,27.7678 314.432,27.4345 315.5,26.5 Z"/></g>
<g><path style="opacity:1" fill="#6a2c1c" d="M 151.5,31.5 C 156.082,30.6389 159.082,32.3055 160.5,36.5C 152.851,37.608 145.185,38.608 137.5,39.5C 123.183,40.323 108.849,40.6564 94.5,40.5C 94.5,40.1667 94.5,39.8333 94.5,39.5C 92.8061,37.1394 90.8061,35.1394 88.5,33.5C 109.541,33.8324 130.541,33.1658 151.5,31.5 Z"/></g>
<g><path style="opacity:1" fill="#8f464b" d="M 317.5,30.5 C 318.627,31.1217 319.627,31.955 320.5,33C 319.395,35.1203 319.395,37.2869 320.5,39.5C 320.5,40.1667 320.5,40.8333 320.5,41.5C 316.896,40.4794 313.229,40.4794 309.5,41.5C 306.059,42.0965 302.725,42.7632 299.5,43.5C 281.845,44.283 264.178,44.6164 246.5,44.5C 244.139,44.3259 241.806,43.9926 239.5,43.5C 239.631,42.6236 239.298,41.9569 238.5,41.5C 235.692,40.0304 232.692,39.1971 229.5,39C 228.944,38.6174 228.611,38.1174 228.5,37.5C 230.114,35.9254 232.114,35.2587 234.5,35.5C 234.5,34.5 234.5,33.5 234.5,32.5C 236.155,33.9302 238.155,34.7635 240.5,35C 263.894,36.1015 287.228,35.4348 310.5,33C 313.104,32.6097 315.438,31.7763 317.5,30.5 Z"/></g>
<g><path style="opacity:1" fill="#b77c80" d="M 194.5,30.5 C 201.488,33.4053 208.821,34.7386 216.5,34.5C 219.897,35.259 223.064,36.5924 226,38.5C 226.902,38.2568 227.735,37.9234 228.5,37.5C 228.611,38.1174 228.944,38.6174 229.5,39C 232.692,39.1971 235.692,40.0304 238.5,41.5C 239.298,41.9569 239.631,42.6236 239.5,43.5C 232.444,43.2552 225.444,42.5885 218.5,41.5C 215.518,41.0371 212.518,40.7038 209.5,40.5C 204.825,38.9912 200.159,37.1579 195.5,35C 193.534,33.6534 193.201,32.1534 194.5,30.5 Z"/></g>
<g><path style="opacity:1" fill="#e5dfde" d="M 94.5,40.5 C 97.916,41.5372 100.583,43.5372 102.5,46.5C 98.133,44.7341 93.633,43.4007 89,42.5C 84.9185,42.7081 81.2518,44.0414 78,46.5C 77.5,46.1667 77,45.8333 76.5,45.5C 81.5876,40.988 87.5876,39.3213 94.5,40.5 Z"/></g>
<g><path style="opacity:1" fill="#ddd6d4" d="M 137.5,40.5 C 142.52,40.6759 146.854,42.5092 150.5,46C 149.207,46.49 147.873,46.6567 146.5,46.5C 145.942,45.2101 144.942,44.3768 143.5,44C 136.903,41.7386 130.737,42.572 125,46.5C 124.5,46.1667 124,45.8333 123.5,45.5C 127.35,41.5761 132.017,39.9094 137.5,40.5 Z"/></g>
<g><path style="opacity:1" fill="#e7e6e6" d="M 209.5,40.5 C 212.518,40.7038 215.518,41.0371 218.5,41.5C 217.152,42.1859 215.985,43.1859 215,44.5C 214.829,49.5329 214.329,54.5329 213.5,59.5C 212.583,60.1272 211.583,60.4606 210.5,60.5C 208.475,53.8971 208.141,47.2304 209.5,40.5 Z"/></g>
<g><path style="opacity:1" fill="#dfdedd" d="M 168.5,35.5 C 170.061,42.2966 169.728,48.9633 167.5,55.5C 166.623,58.2577 165.456,60.9244 164,63.5C 164.012,54.3689 163.178,45.3689 161.5,36.5C 163.764,35.7814 166.097,35.448 168.5,35.5 Z"/></g>
<g><path style="opacity:1" fill="#e7e7e7" d="M 57.5,36.5 C 59.8056,36.9926 62.139,37.3259 64.5,37.5C 64.0133,38.4734 63.5133,39.4734 63,40.5C 62.6667,47.8333 62.3333,55.1667 62,62.5C 60.3952,59.8085 58.8952,57.1418 57.5,54.5C 56.2394,48.4939 56.2394,42.4939 57.5,36.5 Z"/></g>
<g><path style="opacity:1" fill="#f39382" d="M 137.5,39.5 C 137.5,39.8333 137.5,40.1667 137.5,40.5C 132.017,39.9094 127.35,41.5761 123.5,45.5C 124,45.8333 124.5,46.1667 125,46.5C 130.737,42.572 136.903,41.7386 143.5,44C 144.942,44.3768 145.942,45.2101 146.5,46.5C 145.833,46.5 145.167,46.5 144.5,46.5C 136.345,44.4298 128.679,45.5965 121.5,50C 119.586,51.4133 118.253,53.2466 117.5,55.5C 115.955,56.4519 114.288,56.7852 112.5,56.5C 112.5,54.5 112.5,52.5 112.5,50.5C 108.57,50.3653 105.236,49.0319 102.5,46.5C 100.583,43.5372 97.916,41.5372 94.5,40.5C 108.849,40.6564 123.183,40.323 137.5,39.5 Z"/></g>
<g><path style="opacity:1" fill="#f49d8d" d="M 309.5,41.5 C 310.919,42.4511 312.585,42.7845 314.5,42.5C 315.329,47.453 315.663,52.453 315.5,57.5C 316.959,57.4326 318.292,57.7659 319.5,58.5C 329.166,62.6364 329.832,67.8031 321.5,74C 318.441,74.6446 315.441,75.478 312.5,76.5C 307.343,85.6612 300.01,92.3279 290.5,96.5C 287.319,96.8884 284.652,98.2218 282.5,100.5C 278.685,100.131 274.685,99.9647 270.5,100C 275.051,96.5626 279.384,92.8959 283.5,89C 286.053,85.945 286.053,82.945 283.5,80C 283,79.8333 282.5,79.6667 282,79.5C 279.293,82.1097 276.46,84.6097 273.5,87C 272.255,87.7914 270.922,88.2914 269.5,88.5C 269.833,87.8333 270.167,87.1667 270.5,86.5C 271.404,85.791 271.737,84.791 271.5,83.5C 269.167,83.5 266.833,83.5 264.5,83.5C 264.182,78.9677 264.515,74.6344 265.5,70.5C 267.713,72.8603 270.379,74.6937 273.5,76C 280.167,76.6667 286.833,76.6667 293.5,76C 302.126,73.6073 304.126,68.774 299.5,61.5C 300.787,59.3635 301.621,57.0301 302,54.5C 303.154,53.2567 304.488,52.2567 306,51.5C 305.917,48.8806 305.75,46.214 305.5,43.5C 303.5,43.5 301.5,43.5 299.5,43.5C 302.725,42.7632 306.059,42.0965 309.5,41.5 Z"/></g>
<g><path style="opacity:1" fill="#f39482" d="M 299.5,43.5 C 301.5,43.5 303.5,43.5 305.5,43.5C 305.75,46.214 305.917,48.8806 306,51.5C 304.488,52.2567 303.154,53.2567 302,54.5C 301.621,57.0301 300.787,59.3635 299.5,61.5C 296.079,59.6243 292.412,58.6243 288.5,58.5C 286.142,55.7636 283.142,54.9302 279.5,56C 278.619,56.7083 277.953,57.5416 277.5,58.5C 273.258,58.0792 269.258,58.7459 265.5,60.5C 265.167,60.5 264.833,60.5 264.5,60.5C 264.813,57.7531 264.48,55.0865 263.5,52.5C 258.284,51.9591 253.95,49.7924 250.5,46C 248.942,45.79 247.609,45.29 246.5,44.5C 264.178,44.6164 281.845,44.283 299.5,43.5 Z"/></g>
<g><path style="opacity:1" fill="#dad1d0" d="M 275.5,47.5 C 281.732,46.9386 287.732,47.772 293.5,50C 295.26,50.9653 295.594,52.132 294.5,53.5C 286.586,48.2441 278.752,48.2441 271,53.5C 269.743,53.1501 269.409,52.4835 270,51.5C 271.812,50.0229 273.645,48.6896 275.5,47.5 Z"/></g>
<g><path style="opacity:1" fill="#847e7d" d="M 112.5,56.5 C 113.802,58.0276 115.469,59.0276 117.5,59.5C 115.833,59.5 114.167,59.5 112.5,59.5C 111.022,59.238 109.689,59.5713 108.5,60.5C 107.363,63.4698 105.363,65.6365 102.5,67C 92.9654,70.6527 83.632,70.3193 74.5,66C 67.3273,58.843 68.3273,52.843 77.5,48C 86.8134,44.2707 95.8134,44.9374 104.5,50C 106.414,51.4133 107.747,53.2466 108.5,55.5C 109.689,56.4287 111.022,56.762 112.5,56.5 Z"/></g>
<g><path style="opacity:1" fill="#f4b2a5" d="M 83.5,48.5 C 90.1959,47.8487 96.5293,49.0154 102.5,52C 106.897,57.0277 106.23,61.361 100.5,65C 92.3149,68.6005 84.3149,68.2672 76.5,64C 73.8059,61.3466 72.9726,58.1799 74,54.5C 76.8552,51.7731 80.0219,49.7731 83.5,48.5 Z"/></g>
<g><path style="opacity:1" fill="#575453" d="M 85.5,51.5 C 88.6492,51.2114 91.6492,51.7114 94.5,53C 96.2233,56.4079 95.2233,58.7413 91.5,60C 84.4414,60.4641 82.4414,57.6308 85.5,51.5 Z"/></g>
<g><path style="opacity:1" fill="#5d5857" d="M 144.5,46.5 C 149.205,47.6729 153.039,50.3396 156,54.5C 156.514,62.0176 153.014,66.8509 145.5,69C 140.845,69.4992 136.179,69.6658 131.5,69.5C 124.81,68.7859 120.144,65.4526 117.5,59.5C 115.469,59.0276 113.802,58.0276 112.5,56.5C 114.288,56.7852 115.955,56.4519 117.5,55.5C 118.253,53.2466 119.586,51.4133 121.5,50C 128.679,45.5965 136.345,44.4298 144.5,46.5 Z"/></g>
<g><path style="opacity:1" fill="#302c2b" d="M 288.5,58.5 C 284.833,59.8333 281.167,59.8333 277.5,58.5C 277.953,57.5416 278.619,56.7083 279.5,56C 283.142,54.9302 286.142,55.7636 288.5,58.5 Z"/></g>
<g><path style="opacity:1" fill="#dadad9" d="M 320.5,41.5 C 321.954,47.285 321.621,52.9517 319.5,58.5C 318.292,57.7659 316.959,57.4326 315.5,57.5C 315.663,52.453 315.329,47.453 314.5,42.5C 312.585,42.7845 310.919,42.4511 309.5,41.5C 313.229,40.4794 316.896,40.4794 320.5,41.5 Z"/></g>
<g><path style="opacity:1" fill="#787878" d="M 230.5,57.5 C 233.625,58.4794 236.958,58.8128 240.5,58.5C 243.391,59.4025 246.391,59.7359 249.5,59.5C 246.833,60.1667 244.167,60.8333 241.5,61.5C 237.455,65.4875 233.455,65.4875 229.5,61.5C 232.977,60.6773 236.644,60.1773 240.5,60C 236.644,59.8227 232.977,59.3227 229.5,58.5C 229.5,57.8333 229.833,57.5 230.5,57.5 Z"/></g>
<g><path style="opacity:1" fill="#7a7271" d="M 277.5,58.5 C 281.167,59.8333 284.833,59.8333 288.5,58.5C 292.412,58.6243 296.079,59.6243 299.5,61.5C 304.126,68.774 302.126,73.6073 293.5,76C 286.833,76.6667 280.167,76.6667 273.5,76C 270.379,74.6937 267.713,72.8603 265.5,70.5C 264.89,69.609 264.557,68.609 264.5,67.5C 264.298,65.0504 264.631,62.717 265.5,60.5C 269.258,58.7459 273.258,58.0792 277.5,58.5 Z"/></g>
<g><path style="opacity:1" fill="#f19584" d="M 131.5,48.5 C 139.371,47.1816 146.205,49.1816 152,54.5C 153.156,61.7036 149.989,65.8703 142.5,67C 133.922,69.2033 126.755,67.0366 121,60.5C 120.132,56.3283 121.632,53.1617 125.5,51C 127.611,50.1553 129.611,49.322 131.5,48.5 Z"/></g>
<g><path style="opacity:1" fill="#2a2625" d="M 133.5,51.5 C 136.685,51.0196 139.519,51.6863 142,53.5C 141.906,60.2278 138.74,62.0612 132.5,59C 131.426,58.2613 130.759,57.2613 130.5,56C 131.315,54.3566 132.315,52.8566 133.5,51.5 Z"/></g>
<g><path style="opacity:1" fill="#9f9998" d="M 229.5,58.5 C 232.977,59.3227 236.644,59.8227 240.5,60C 236.644,60.1773 232.977,60.6773 229.5,61.5C 222.13,60.395 218.963,63.395 220,70.5C 223.399,73.95 227.566,75.2833 232.5,74.5C 238.469,74.9658 243.969,73.6325 249,70.5C 253.176,62.598 250.676,59.598 241.5,61.5C 244.167,60.8333 246.833,60.1667 249.5,59.5C 252.749,60.5979 255.915,60.2646 259,58.5C 261.009,58.7579 262.843,59.4245 264.5,60.5C 264.833,60.5 265.167,60.5 265.5,60.5C 264.631,62.717 264.298,65.0504 264.5,67.5C 264.167,67.5 263.833,67.5 263.5,67.5C 262.974,61.3574 260.14,60.0241 255,63.5C 254.51,64.7932 254.343,66.1266 254.5,67.5C 251.879,71.6138 248.212,74.4472 243.5,76C 236.833,76.6667 230.167,76.6667 223.5,76C 213.873,71.5452 213.206,66.2119 221.5,60C 224.063,58.9207 226.729,58.4207 229.5,58.5 Z"/></g>
<g><path style="opacity:1" fill="#f29483" d="M 277.5,61.5 C 280.469,65.1043 283.802,65.4376 287.5,62.5C 295.14,60.0503 298.64,62.717 298,70.5C 297.167,71.3333 296.333,72.1667 295.5,73C 287.342,75.284 279.342,74.9507 271.5,72C 263.937,63.6805 265.937,60.1805 277.5,61.5 Z"/></g>
<g><path style="opacity:1" fill="#242121" d="M 277.5,61.5 C 281.042,61.1872 284.375,61.5206 287.5,62.5C 283.802,65.4376 280.469,65.1043 277.5,61.5 Z"/></g>
<g><path style="opacity:1" fill="#f4a293" d="M 263.5,67.5 C 263.664,70.1873 263.497,72.854 263,75.5C 260.333,78.1667 257.667,78.1667 255,75.5C 254.503,72.854 254.336,70.1873 254.5,67.5C 254.343,66.1266 254.51,64.7932 255,63.5C 260.14,60.0241 262.974,61.3574 263.5,67.5 Z"/></g>
<g><path style="opacity:1" fill="#f5b8ac" d="M 229.5,61.5 C 233.455,65.4875 237.455,65.4875 241.5,61.5C 250.676,59.598 253.176,62.598 249,70.5C 243.969,73.6325 238.469,74.9658 232.5,74.5C 227.566,75.2833 223.399,73.95 220,70.5C 218.963,63.395 222.13,60.395 229.5,61.5 Z"/></g>
<g><path style="opacity:1" fill="#f39382" d="M 112.5,59.5 C 114.167,59.5 115.833,59.5 117.5,59.5C 120.144,65.4526 124.81,68.7859 131.5,69.5C 134.641,70.3213 137.975,70.8213 141.5,71C 138.437,72.0661 136.937,74.2328 137,77.5C 135.926,78.6184 134.76,79.6184 133.5,80.5C 135.039,83.7456 136.706,86.9123 138.5,90C 137.748,90.6708 137.414,91.5041 137.5,92.5C 135.716,92.8925 134.05,93.5592 132.5,94.5C 127.703,95.0141 123.036,96.0141 118.5,97.5C 116.735,96.5386 114.735,96.2053 112.5,96.5C 112.5,93.8333 112.5,91.1667 112.5,88.5C 118.602,88.6195 122.935,85.9529 125.5,80.5C 121.217,79.5078 116.884,79.1744 112.5,79.5C 112.5,72.8333 112.5,66.1667 112.5,59.5 Z"/></g>
<g><path style="opacity:1" fill="#fd4544" d="M 112.5,79.5 C 112.5,82.5 112.5,85.5 112.5,88.5C 106.15,88.522 102.484,85.522 101.5,79.5C 105.167,79.5 108.833,79.5 112.5,79.5 Z"/></g>
<g><path style="opacity:1" fill="#fd1816" d="M 112.5,79.5 C 116.884,79.1744 121.217,79.5078 125.5,80.5C 122.935,85.9529 118.602,88.6195 112.5,88.5C 112.5,85.5 112.5,82.5 112.5,79.5 Z"/></g>
<g><path style="opacity:1" fill="#f6b3a6" d="M 64.5,37.5 C 74.4214,39.1101 84.4214,39.7768 94.5,39.5C 94.5,39.8333 94.5,40.1667 94.5,40.5C 87.5876,39.3213 81.5876,40.988 76.5,45.5C 77,45.8333 77.5,46.1667 78,46.5C 81.2518,44.0414 84.9185,42.7081 89,42.5C 93.633,43.4007 98.133,44.7341 102.5,46.5C 105.236,49.0319 108.57,50.3653 112.5,50.5C 112.5,52.5 112.5,54.5 112.5,56.5C 111.022,56.762 109.689,56.4287 108.5,55.5C 107.747,53.2466 106.414,51.4133 104.5,50C 95.8134,44.9374 86.8134,44.2707 77.5,48C 68.3273,52.843 67.3273,58.843 74.5,66C 83.632,70.3193 92.9654,70.6527 102.5,67C 105.363,65.6365 107.363,63.4698 108.5,60.5C 109.689,59.5713 111.022,59.238 112.5,59.5C 112.5,66.1667 112.5,72.8333 112.5,79.5C 108.833,79.5 105.167,79.5 101.5,79.5C 102.484,85.522 106.15,88.522 112.5,88.5C 112.5,91.1667 112.5,93.8333 112.5,96.5C 110.585,96.2155 108.919,96.5489 107.5,97.5C 102.819,96.6867 98.1528,95.6867 93.5,94.5C 91.7028,93.2702 89.7028,92.6036 87.5,92.5C 77.4639,87.967 69.7972,80.8003 64.5,71C 62.1667,70.6667 59.8333,70.3333 57.5,70C 48.2289,64.8942 48.2289,59.7275 57.5,54.5C 58.8952,57.1418 60.3952,59.8085 62,62.5C 62.3333,55.1667 62.6667,47.8333 63,40.5C 63.5133,39.4734 64.0133,38.4734 64.5,37.5 Z"/></g>
<g><path style="opacity:1" fill="#fa6d66" d="M 247.5,84.5 C 252.975,83.5111 258.642,83.1778 264.5,83.5C 266.833,83.5 269.167,83.5 271.5,83.5C 271.737,84.791 271.404,85.791 270.5,86.5C 269.082,84.6921 267.082,84.0254 264.5,84.5C 258.833,84.5 253.167,84.5 247.5,84.5 Z"/></g>
<g><path style="opacity:1" fill="#f38e7c" d="M 282.5,100.5 C 277.834,104.166 272.501,105.832 266.5,105.5C 266.158,104.662 265.492,104.328 264.5,104.5C 264.5,101.833 264.5,99.1667 264.5,96.5C 264.768,94.901 264.434,93.5676 263.5,92.5C 263.5,91.8333 263.833,91.5 264.5,91.5C 266.411,90.925 268.078,89.925 269.5,88.5C 270.922,88.2914 272.255,87.7914 273.5,87C 276.46,84.6097 279.293,82.1097 282,79.5C 282.5,79.6667 283,79.8333 283.5,80C 286.053,82.945 286.053,85.945 283.5,89C 279.384,92.8959 275.051,96.5626 270.5,100C 274.685,99.9647 278.685,100.131 282.5,100.5 Z"/></g>
<g><path style="opacity:1" fill="#f39f8f" d="M 160.5,36.5 C 160.833,36.5 161.167,36.5 161.5,36.5C 163.178,45.3689 164.012,54.3689 164,63.5C 165.456,60.9244 166.623,58.2577 167.5,55.5C 169.129,56.6253 170.629,57.9586 172,59.5C 172.482,66.6944 168.982,70.5277 161.5,71C 156.167,81.1674 148.167,88.3341 137.5,92.5C 137.414,91.5041 137.748,90.6708 138.5,90C 136.706,86.9123 135.039,83.7456 133.5,80.5C 134.76,79.6184 135.926,78.6184 137,77.5C 136.937,74.2328 138.437,72.0661 141.5,71C 137.975,70.8213 134.641,70.3213 131.5,69.5C 136.179,69.6658 140.845,69.4992 145.5,69C 153.014,66.8509 156.514,62.0176 156,54.5C 153.039,50.3396 149.205,47.6729 144.5,46.5C 145.167,46.5 145.833,46.5 146.5,46.5C 147.873,46.6567 149.207,46.49 150.5,46C 146.854,42.5092 142.52,40.6759 137.5,40.5C 137.5,40.1667 137.5,39.8333 137.5,39.5C 145.185,38.608 152.851,37.608 160.5,36.5 Z"/></g>
<g><path style="opacity:1" fill="#f7b6a9" d="M 218.5,41.5 C 225.444,42.5885 232.444,43.2552 239.5,43.5C 241.806,43.9926 244.139,44.3259 246.5,44.5C 247.609,45.29 248.942,45.79 250.5,46C 253.95,49.7924 258.284,51.9591 263.5,52.5C 264.48,55.0865 264.813,57.7531 264.5,60.5C 262.843,59.4245 261.009,58.7579 259,58.5C 255.915,60.2646 252.749,60.5979 249.5,59.5C 246.391,59.7359 243.391,59.4025 240.5,58.5C 237.448,55.0205 234.114,54.6872 230.5,57.5C 229.833,57.5 229.5,57.8333 229.5,58.5C 226.729,58.4207 224.063,58.9207 221.5,60C 213.206,66.2119 213.873,71.5452 223.5,76C 230.167,76.6667 236.833,76.6667 243.5,76C 248.212,74.4472 251.879,71.6138 254.5,67.5C 254.336,70.1873 254.503,72.854 255,75.5C 257.667,78.1667 260.333,78.1667 263,75.5C 263.497,72.854 263.664,70.1873 263.5,67.5C 263.833,67.5 264.167,67.5 264.5,67.5C 264.557,68.609 264.89,69.609 265.5,70.5C 264.515,74.6344 264.182,78.9677 264.5,83.5C 258.642,83.1778 252.975,83.5111 247.5,84.5C 247.744,87.2626 249.077,89.4293 251.5,91C 255.363,92.3537 259.363,92.8537 263.5,92.5C 264.434,93.5676 264.768,94.901 264.5,96.5C 259.489,96.3341 254.489,96.5007 249.5,97C 248.429,97.8518 247.429,98.6851 246.5,99.5C 244.249,98.3052 241.915,97.3052 239.5,96.5C 229.605,92.1058 222.105,85.1058 217,75.5C 209.277,72.7334 207.11,67.7334 210.5,60.5C 211.583,60.4606 212.583,60.1272 213.5,59.5C 214.329,54.5329 214.829,49.5329 215,44.5C 215.985,43.1859 217.152,42.1859 218.5,41.5 Z"/></g>
<g><path style="opacity:1" fill="#514f4f" d="M 240.5,58.5 C 236.958,58.8128 233.625,58.4794 230.5,57.5C 234.114,54.6872 237.448,55.0205 240.5,58.5 Z"/></g>
<g><path style="opacity:1" fill="#e6e1e0" d="M 228.5,47.5 C 234.732,46.9386 240.732,47.772 246.5,50C 248.559,51.1855 248.726,52.3521 247,53.5C 239.152,48.1946 231.319,48.1946 223.5,53.5C 222.479,52.9984 222.312,52.3317 223,51.5C 224.812,50.0229 226.645,48.6896 228.5,47.5 Z"/></g>
<g><path style="opacity:1" fill="#fd4141" d="M 247.5,84.5 C 253.167,84.5 258.833,84.5 264.5,84.5C 264.5,86.8333 264.5,89.1667 264.5,91.5C 263.833,91.5 263.5,91.8333 263.5,92.5C 259.363,92.8537 255.363,92.3537 251.5,91C 249.077,89.4293 247.744,87.2626 247.5,84.5 Z"/></g>
<g><path style="opacity:1" fill="#fb1615" d="M 264.5,84.5 C 267.082,84.0254 269.082,84.6921 270.5,86.5C 270.167,87.1667 269.833,87.8333 269.5,88.5C 268.078,89.925 266.411,90.925 264.5,91.5C 264.5,89.1667 264.5,86.8333 264.5,84.5 Z"/></g>
<g><path style="opacity:1" fill="#f5a597" d="M 264.5,96.5 C 264.5,99.1667 264.5,101.833 264.5,104.5C 263.833,104.5 263.5,104.833 263.5,105.5C 256.873,106.011 251.207,104.011 246.5,99.5C 247.429,98.6851 248.429,97.8518 249.5,97C 254.489,96.5007 259.489,96.3341 264.5,96.5 Z"/></g>
<g><path style="opacity:1" fill="#f8f4f5" d="M 290.5,96.5 C 290.5,96.8333 290.5,97.1667 290.5,97.5C 289.757,101.915 287.424,105.248 283.5,107.5C 282.167,107.833 280.833,108.167 279.5,108.5C 275.064,108.79 270.73,108.29 266.5,107C 265.262,106.31 265.262,105.81 266.5,105.5C 272.501,105.832 277.834,104.166 282.5,100.5C 284.652,98.2218 287.319,96.8884 290.5,96.5 Z"/></g>
<g><path style="opacity:1" fill="#5b4889" d="M 290.5,97.5 C 295.263,97.2256 299.93,97.559 304.5,98.5C 304.196,99.1499 303.863,99.8165 303.5,100.5C 307.004,108.181 311.004,115.514 315.5,122.5C 315.5,139.167 315.5,155.833 315.5,172.5C 314.89,173.391 314.557,174.391 314.5,175.5C 313.167,175.5 311.833,175.5 310.5,175.5C 305.833,175.5 301.167,175.5 296.5,175.5C 298.091,174.781 299.591,173.781 301,172.5C 301.93,174.966 302.763,174.799 303.5,172C 303.392,157.451 303.392,143.117 303.5,129C 299.432,122.711 295.765,115.545 292.5,107.5C 291.635,106.417 290.635,106.251 289.5,107C 288.033,109.728 286.033,110.561 283.5,109.5C 283.5,108.833 283.5,108.167 283.5,107.5C 287.424,105.248 289.757,101.915 290.5,97.5 Z"/></g>
<g><path style="opacity:1" fill="#f9f5f6" d="M 239.5,96.5 C 241.915,97.3052 244.249,98.3052 246.5,99.5C 251.207,104.011 256.873,106.011 263.5,105.5C 264.738,105.81 264.738,106.31 263.5,107C 259.27,108.29 254.936,108.79 250.5,108.5C 249.833,108.5 249.167,108.5 248.5,108.5C 243.638,106.309 240.638,102.642 239.5,97.5C 239.5,97.1667 239.5,96.8333 239.5,96.5 Z"/></g>
<g><path style="opacity:1" fill="#778320" d="M 87.5,92.5 C 89.7028,92.6036 91.7028,93.2702 93.5,94.5C 97.2639,101.038 101.264,107.372 105.5,113.5C 107.191,118.547 109.691,123.213 113,127.5C 116.595,122.977 119.095,117.977 120.5,112.5C 124.96,106.947 128.96,100.947 132.5,94.5C 134.05,93.5592 135.716,92.8925 137.5,92.5C 137.5,92.8333 137.5,93.1667 137.5,93.5C 138.209,94.404 139.209,94.7373 140.5,94.5C 139.821,96.6682 138.821,98.6682 137.5,100.5C 137.482,105.064 138.982,106.064 142,103.5C 142.5,104 143,104.5 143.5,105C 140.4,106.668 139.9,108.835 142,111.5C 143.889,112.097 145.722,112.431 147.5,112.5C 146.833,113.833 146.167,115.167 145.5,116.5C 146.531,117.7 147.365,119.034 148,120.5C 149.627,118.688 151.127,118.521 152.5,120C 152.18,121.653 151.18,122.653 149.5,123C 150.293,124.085 150.96,125.252 151.5,126.5C 153.974,126.693 156.307,126.693 158.5,126.5C 157.833,126.5 157.5,126.833 157.5,127.5C 155.409,128.865 153.076,129.532 150.5,129.5C 152.91,134.49 154.91,139.657 156.5,145C 152.206,151.081 148.54,157.581 145.5,164.5C 139.833,165.833 134.167,165.833 128.5,164.5C 123.515,159.015 118.348,153.681 113,148.5C 111.906,146.922 111.072,145.255 110.5,143.5C 110.616,140.14 110.949,136.807 111.5,133.5C 109.04,133.301 106.707,132.635 104.5,131.5C 96.0013,124.507 87.3346,117.673 78.5,111C 74.1667,110 69.8333,109 65.5,108C 67.2907,105.586 68.9574,103.086 70.5,100.5C 70.0057,98.9745 69.339,97.6412 68.5,96.5C 70.734,94.5541 73.4006,93.3874 76.5,93C 80.1516,92.5014 83.8183,92.3347 87.5,92.5 Z"/></g>
<g><path style="opacity:1" fill="#ec403d" d="M 112.5,96.5 C 114.735,96.2053 116.735,96.5386 118.5,97.5C 118.5,99.1667 118.5,100.833 118.5,102.5C 117.596,101.791 117.263,100.791 117.5,99.5C 115.833,99.5 114.167,99.5 112.5,99.5C 112.799,101.604 112.466,103.604 111.5,105.5C 109.491,106.065 107.824,107.065 106.5,108.5C 106.647,105.557 107.313,102.724 108.5,100C 108.257,99.0979 107.923,98.2646 107.5,97.5C 108.919,96.5489 110.585,96.2155 112.5,96.5 Z"/></g>
<g><path style="opacity:1" fill="#dfdede" d="M 93.5,94.5 C 98.1528,95.6867 102.819,96.6867 107.5,97.5C 107.923,98.2646 108.257,99.0979 108.5,100C 107.313,102.724 106.647,105.557 106.5,108.5C 105.962,110.117 105.629,111.784 105.5,113.5C 101.264,107.372 97.2639,101.038 93.5,94.5 Z"/></g>
<g><path style="opacity:1" fill="#dad8d7" d="M 132.5,94.5 C 128.96,100.947 124.96,106.947 120.5,112.5C 120.041,109.123 119.374,105.789 118.5,102.5C 118.5,100.833 118.5,99.1667 118.5,97.5C 123.036,96.0141 127.703,95.0141 132.5,94.5 Z"/></g>
<g><path style="opacity:1" fill="#594586" d="M 239.5,97.5 C 240.638,102.642 243.638,106.309 248.5,108.5C 250.575,114.391 252.242,120.391 253.5,126.5C 253.5,127.5 253.5,128.5 253.5,129.5C 249.84,128.18 246.174,126.847 242.5,125.5C 239.594,120.422 236.094,115.756 232,111.5C 227.936,109.58 224.77,106.913 222.5,103.5C 227.24,99.1406 232.907,97.1406 239.5,97.5 Z"/></g>
<g><path style="opacity:1" fill="#539bf2" d="M 263.5,105.5 C 263.5,104.833 263.833,104.5 264.5,104.5C 265.492,104.328 266.158,104.662 266.5,105.5C 265.262,105.81 265.262,106.31 266.5,107C 270.73,108.29 275.064,108.79 279.5,108.5C 276.695,109.319 273.695,109.819 270.5,110C 268.841,111.841 266.841,113.008 264.5,113.5C 265.586,123.725 263.753,125.059 259,117.5C 255.25,115.253 252.417,112.253 250.5,108.5C 254.936,108.79 259.27,108.29 263.5,107C 264.738,106.31 264.738,105.81 263.5,105.5 Z"/></g>
<g><path style="opacity:1" fill="#e7231f" d="M 118.5,102.5 C 119.374,105.789 120.041,109.123 120.5,112.5C 119.095,117.977 116.595,122.977 113,127.5C 109.691,123.213 107.191,118.547 105.5,113.5C 105.629,111.784 105.962,110.117 106.5,108.5C 107.824,107.065 109.491,106.065 111.5,105.5C 112.466,103.604 112.799,101.604 112.5,99.5C 114.167,99.5 115.833,99.5 117.5,99.5C 117.263,100.791 117.596,101.791 118.5,102.5 Z"/></g>
<g><path style="opacity:0.236" fill="#2d3237" d="M 63.5,166.5 C 64.355,167.531 65.0217,168.697 65.5,170C 65.1639,171.03 64.4972,171.53 63.5,171.5C 62.5229,167.19 59.8562,164.523 55.5,163.5C 47.093,146.923 49.2597,131.923 62,118.5C 62.1686,134.672 62.6686,150.672 63.5,166.5 Z"/></g>
<g><path style="opacity:0.992" fill="#6e5b99" d="M 222.5,103.5 C 224.77,106.913 227.936,109.58 232,111.5C 236.094,115.756 239.594,120.422 242.5,125.5C 234.332,124.807 226.666,126.14 219.5,129.5C 211.257,129.935 203.257,129.269 195.5,127.5C 207.576,122.962 216.576,114.962 222.5,103.5 Z"/></g>
<g><path style="opacity:1" fill="#8a9435" d="M 137.5,93.5 C 142.412,93.0631 147.078,93.8964 151.5,96C 159.649,109.659 170.982,119.492 185.5,125.5C 185.062,125.435 184.728,125.601 184.5,126C 185.956,126.423 186.456,127.256 186,128.5C 182.617,130.381 180.117,133.048 178.5,136.5C 176.167,135.833 173.833,135.167 171.5,134.5C 167.189,131.868 162.856,129.201 158.5,126.5C 156.307,126.693 153.974,126.693 151.5,126.5C 150.96,125.252 150.293,124.085 149.5,123C 151.18,122.653 152.18,121.653 152.5,120C 151.127,118.521 149.627,118.688 148,120.5C 147.365,119.034 146.531,117.7 145.5,116.5C 146.167,115.167 146.833,113.833 147.5,112.5C 145.722,112.431 143.889,112.097 142,111.5C 139.9,108.835 140.4,106.668 143.5,105C 143,104.5 142.5,104 142,103.5C 138.982,106.064 137.482,105.064 137.5,100.5C 138.821,98.6682 139.821,96.6682 140.5,94.5C 139.209,94.7373 138.209,94.404 137.5,93.5 Z"/></g>
<g><path style="opacity:0.235" fill="#2d3239" d="M 315.5,122.5 C 315.833,122.5 316.167,122.5 316.5,122.5C 328.556,136.177 330.556,151.177 322.5,167.5C 320.028,168.909 317.695,170.576 315.5,172.5C 315.5,155.833 315.5,139.167 315.5,122.5 Z"/></g>
<g><path style="opacity:1" fill="#969f43" d="M 185.5,125.5 C 188.763,126.482 192.097,127.149 195.5,127.5C 203.257,129.269 211.257,129.935 219.5,129.5C 220.479,132.625 220.813,135.958 220.5,139.5C 220.5,140.5 220.5,141.5 220.5,142.5C 212.138,142.665 203.805,142.332 195.5,141.5C 189.511,140.59 183.845,138.924 178.5,136.5C 180.117,133.048 182.617,130.381 186,128.5C 186.456,127.256 185.956,126.423 184.5,126C 184.728,125.601 185.062,125.435 185.5,125.5 Z"/></g>
<g><path style="opacity:1" fill="#418ef2" d="M 283.5,107.5 C 283.5,108.167 283.5,108.833 283.5,109.5C 274.39,129.754 271.056,151.087 273.5,173.5C 271.5,171.833 269.5,170.167 267.5,168.5C 267.666,158.494 267.5,148.494 267,138.5C 263.784,134.468 259.617,131.801 254.5,130.5C 254.768,128.901 254.434,127.568 253.5,126.5C 252.242,120.391 250.575,114.391 248.5,108.5C 249.167,108.5 249.833,108.5 250.5,108.5C 252.417,112.253 255.25,115.253 259,117.5C 263.753,125.059 265.586,123.725 264.5,113.5C 266.841,113.008 268.841,111.841 270.5,110C 273.695,109.819 276.695,109.319 279.5,108.5C 280.833,108.167 282.167,107.833 283.5,107.5 Z"/></g>
<g><path style="opacity:1" fill="#292827" d="M 158.5,126.5 C 162.856,129.201 167.189,131.868 171.5,134.5C 166.833,134.5 162.167,134.5 157.5,134.5C 157.5,132.167 157.5,129.833 157.5,127.5C 157.5,126.833 157.833,126.5 158.5,126.5 Z"/></g>
<g><path style="opacity:1" fill="#97a245" d="M 68.5,96.5 C 69.339,97.6412 70.0057,98.9745 70.5,100.5C 68.9574,103.086 67.2907,105.586 65.5,108C 69.8333,109 74.1667,110 78.5,111C 87.3346,117.673 96.0013,124.507 104.5,131.5C 106.707,132.635 109.04,133.301 111.5,133.5C 110.949,136.807 110.616,140.14 110.5,143.5C 105.203,149.298 99.7029,154.965 94,160.5C 92.6063,162.388 91.4396,164.388 90.5,166.5C 81.5,166.5 72.5,166.5 63.5,166.5C 62.6686,150.672 62.1686,134.672 62,118.5C 49.2597,131.923 47.093,146.923 55.5,163.5C 52.5,163.5 49.5,163.5 46.5,163.5C 40.6736,152.244 40.0069,140.577 44.5,128.5C 42.7206,125.87 41.7206,122.87 41.5,119.5C 48.3161,109.357 57.3161,101.69 68.5,96.5 Z"/></g>
<g><path style="opacity:1" fill="#8c7ab0" d="M 331.5,167.5 C 328.5,167.5 325.5,167.5 322.5,167.5C 330.556,151.177 328.556,136.177 316.5,122.5C 316.5,120.5 316.5,118.5 316.5,116.5C 320.138,116.738 322.971,118.404 325,121.5C 336.336,135.52 338.502,150.854 331.5,167.5 Z"/></g>
<g><path style="opacity:1" fill="#7b67a3" d="M 157.5,134.5 C 162.167,134.5 166.833,134.5 171.5,134.5C 173.833,135.167 176.167,135.833 178.5,136.5C 183.845,138.924 189.511,140.59 195.5,141.5C 183.307,145.75 170.64,147.417 157.5,146.5C 157.5,142.5 157.5,138.5 157.5,134.5 Z"/></g>
<g><path style="opacity:0.226" fill="#2d3138" d="M 195.5,141.5 C 203.805,142.332 212.138,142.665 220.5,142.5C 220.5,153.5 220.5,164.5 220.5,175.5C 220.5,188.5 220.5,201.5 220.5,214.5C 223.713,214.19 226.713,214.523 229.5,215.5C 229.5,226.833 229.5,238.167 229.5,249.5C 229.5,249.833 229.5,250.167 229.5,250.5C 224.733,250.191 220.066,250.691 215.5,252C 212.976,253.883 211.642,256.383 211.5,259.5C 196.833,259.5 182.167,259.5 167.5,259.5C 167.737,260.791 167.404,261.791 166.5,262.5C 167.241,255.729 164.241,251.563 157.5,250C 154.518,249.502 151.518,249.335 148.5,249.5C 148.333,228.497 148.5,207.497 149,186.5C 155.387,181.723 157.887,175.389 156.5,167.5C 157.167,167.5 157.5,167.167 157.5,166.5C 157.5,159.833 157.5,153.167 157.5,146.5C 170.64,147.417 183.307,145.75 195.5,141.5 Z M 194.5,147.5 C 184.575,150.92 174.242,152.587 163.5,152.5C 163.642,160.208 163.142,167.875 162,175.5C 160.6,180.637 157.933,184.971 154,188.5C 153.5,207.164 153.333,225.83 153.5,244.5C 161.067,244.115 166.734,247.115 170.5,253.5C 182.82,254.666 195.153,254.833 207.5,254C 211.107,248.026 216.44,244.859 223.5,244.5C 223.5,236.5 223.5,228.5 223.5,220.5C 220.495,220.747 217.995,219.747 216,217.5C 215.5,194.502 215.333,171.502 215.5,148.5C 208.51,148.001 201.51,147.668 194.5,147.5 Z"/></g>
<g><path style="opacity:1" fill="#7a68a3" d="M 242.5,125.5 C 246.174,126.847 249.84,128.18 253.5,129.5C 253.5,128.5 253.5,127.5 253.5,126.5C 254.434,127.568 254.768,128.901 254.5,130.5C 256.713,145.572 257.046,160.572 255.5,175.5C 249.5,175.5 243.5,175.5 237.5,175.5C 237.304,167.032 236.137,158.699 234,150.5C 233.044,149.421 232.211,148.255 231.5,147C 234.112,145.003 236.778,143.003 239.5,141C 238.736,138.931 238.236,136.764 238,134.5C 236.511,136.332 234.678,137.165 232.5,137C 235.842,133.326 239.508,129.992 243.5,127C 239.409,125.773 235.909,126.606 233,129.5C 231.493,128.465 229.993,128.632 228.5,130C 225.696,133.145 223.03,136.312 220.5,139.5C 220.813,135.958 220.479,132.625 219.5,129.5C 226.666,126.14 234.332,124.807 242.5,125.5 Z"/></g>
<g><path style="opacity:1" fill="#8371ab" d="M 237.5,175.5 C 231.833,175.5 226.167,175.5 220.5,175.5C 220.5,164.5 220.5,153.5 220.5,142.5C 220.5,141.5 220.5,140.5 220.5,139.5C 223.03,136.312 225.696,133.145 228.5,130C 229.993,128.632 231.493,128.465 233,129.5C 235.909,126.606 239.409,125.773 243.5,127C 239.508,129.992 235.842,133.326 232.5,137C 234.678,137.165 236.511,136.332 238,134.5C 238.236,136.764 238.736,138.931 239.5,141C 236.778,143.003 234.112,145.003 231.5,147C 232.211,148.255 233.044,149.421 234,150.5C 236.137,158.699 237.304,167.032 237.5,175.5 Z"/></g>
<g><path style="opacity:1" fill="#554082" d="M 296.5,175.5 C 288.427,176.132 280.76,175.465 273.5,173.5C 271.056,151.087 274.39,129.754 283.5,109.5C 286.033,110.561 288.033,109.728 289.5,107C 290.635,106.251 291.635,106.417 292.5,107.5C 295.765,115.545 299.432,122.711 303.5,129C 303.392,143.117 303.392,157.451 303.5,172C 302.763,174.799 301.93,174.966 301,172.5C 299.591,173.781 298.091,174.781 296.5,175.5 Z"/></g>
<g><path style="opacity:1" fill="#6c5997" d="M 304.5,98.5 C 311.601,101.552 318.268,105.385 324.5,110C 343.402,125.368 348.902,144.535 341,167.5C 340.303,169.584 339.136,171.251 337.5,172.5C 335.5,170.833 333.5,169.167 331.5,167.5C 338.502,150.854 336.336,135.52 325,121.5C 322.971,118.404 320.138,116.738 316.5,116.5C 316.5,118.5 316.5,120.5 316.5,122.5C 316.167,122.5 315.833,122.5 315.5,122.5C 311.004,115.514 307.004,108.181 303.5,100.5C 303.863,99.8165 304.196,99.1499 304.5,98.5 Z"/></g>
<g><path style="opacity:1" fill="#879230" d="M 157.5,127.5 C 157.5,129.833 157.5,132.167 157.5,134.5C 157.5,138.5 157.5,142.5 157.5,146.5C 157.5,153.167 157.5,159.833 157.5,166.5C 135.167,166.5 112.833,166.5 90.5,166.5C 91.4396,164.388 92.6063,162.388 94,160.5C 99.7029,154.965 105.203,149.298 110.5,143.5C 111.072,145.255 111.906,146.922 113,148.5C 118.348,153.681 123.515,159.015 128.5,164.5C 134.167,165.833 139.833,165.833 145.5,164.5C 148.54,157.581 152.206,151.081 156.5,145C 154.91,139.657 152.91,134.49 150.5,129.5C 153.076,129.532 155.409,128.865 157.5,127.5 Z"/></g>
<g><path style="opacity:1" fill="#b0b868" d="M 41.5,119.5 C 41.7206,122.87 42.7206,125.87 44.5,128.5C 40.0069,140.577 40.6736,152.244 46.5,163.5C 46.5,163.833 46.5,164.167 46.5,164.5C 43.6967,164.961 41.3634,166.295 39.5,168.5C 36.8331,163.49 34.9998,158.156 34,152.5C 31.6499,140.245 34.1499,129.245 41.5,119.5 Z"/></g>
<g><path style="opacity:1" fill="#68adf6" d="M 254.5,130.5 C 259.617,131.801 263.784,134.468 267,138.5C 267.5,148.494 267.666,158.494 267.5,168.5C 262.837,173.996 257.67,178.996 252,183.5C 248.279,187.888 244.945,192.555 242,197.5C 241.501,203.157 241.334,208.824 241.5,214.5C 245.167,214.5 248.833,214.5 252.5,214.5C 252.5,215.167 252.5,215.833 252.5,216.5C 248.833,216.5 245.167,216.5 241.5,216.5C 240.184,209.666 240.184,202.833 241.5,196C 240.584,195.626 239.75,195.126 239,194.5C 238.214,191.551 237.047,189.551 235.5,188.5C 236.706,185.278 236.706,182.112 235.5,179C 236.167,178.667 236.833,178.333 237.5,178C 236.167,177.667 234.833,177.333 233.5,177C 241.011,176.829 248.345,176.329 255.5,175.5C 257.046,160.572 256.713,145.572 254.5,130.5 Z"/></g>
<g><path style="opacity:1" fill="#f3bdb2" d="M 46.5,164.5 C 47.5942,166.359 48.4275,168.359 49,170.5C 50.1096,172.037 51.6096,172.703 53.5,172.5C 53.1849,175.211 53.8516,177.544 55.5,179.5C 50.1754,181.42 45.5088,180.42 41.5,176.5C 40.3995,175.395 39.7329,174.062 39.5,172.5C 39.5,171.167 39.5,169.833 39.5,168.5C 41.3634,166.295 43.6967,164.961 46.5,164.5 Z"/></g>
<g><path style="opacity:1" fill="#343434" d="M 154.5,167.5 C 153.791,168.404 152.791,168.737 151.5,168.5C 149.298,175.245 146.798,181.911 144,188.5C 142.418,192.894 139.918,196.561 136.5,199.5C 137.089,192.778 136.089,186.444 133.5,180.5C 132.512,176.515 131.512,172.515 130.5,168.5C 128.833,168.5 127.167,168.5 125.5,168.5C 125.553,174.196 125.22,179.862 124.5,185.5C 115.103,185.773 105.77,185.773 96.5,185.5C 95.5258,187.743 95.1924,190.076 95.5,192.5C 95.6716,193.492 95.3382,194.158 94.5,194.5C 94.631,193.761 94.4643,193.094 94,192.5C 90.6773,194.706 87.1773,195.039 83.5,193.5C 83.5,192.5 83.5,191.5 83.5,190.5C 84.2512,182.829 86.2512,175.496 89.5,168.5C 111.156,167.5 132.823,167.167 154.5,167.5 Z"/></g>
<g><path style="opacity:1" fill="#f4a596" d="M 46.5,163.5 C 49.5,163.5 52.5,163.5 55.5,163.5C 59.8562,164.523 62.5229,167.19 63.5,171.5C 63.5674,172.959 63.2341,174.292 62.5,175.5C 60.6282,177.604 58.2948,178.937 55.5,179.5C 53.8516,177.544 53.1849,175.211 53.5,172.5C 51.6096,172.703 50.1096,172.037 49,170.5C 48.4275,168.359 47.5942,166.359 46.5,164.5C 46.5,164.167 46.5,163.833 46.5,163.5 Z"/></g>
<g><path style="opacity:1" fill="#585652" d="M 63.5,166.5 C 72.5,166.5 81.5,166.5 90.5,166.5C 112.833,166.5 135.167,166.5 157.5,166.5C 157.5,167.167 157.167,167.5 156.5,167.5C 155.833,167.5 155.167,167.5 154.5,167.5C 132.823,167.167 111.156,167.5 89.5,168.5C 86.2512,175.496 84.2512,182.829 83.5,190.5C 82.5233,193.287 82.19,196.287 82.5,199.5C 78.139,197.139 74.8057,193.806 72.5,189.5C 72.6567,188.127 72.49,186.793 72,185.5C 68.3306,182.465 65.1639,179.131 62.5,175.5C 63.2341,174.292 63.5674,172.959 63.5,171.5C 64.4972,171.53 65.1639,171.03 65.5,170C 65.0217,168.697 64.355,167.531 63.5,166.5 Z"/></g>
<g><path style="opacity:1" fill="#f5ab9d" d="M 322.5,167.5 C 325.5,167.5 328.5,167.5 331.5,167.5C 333.5,169.167 335.5,170.833 337.5,172.5C 337.833,173.833 338.167,175.167 338.5,176.5C 338.5,177.167 338.5,177.833 338.5,178.5C 337.5,178.833 336.833,179.5 336.5,180.5C 329.803,185.765 323.137,185.765 316.5,180.5C 315.058,179.18 314.392,177.514 314.5,175.5C 314.557,174.391 314.89,173.391 315.5,172.5C 317.695,170.576 320.028,168.909 322.5,167.5 Z"/></g>
<g><path style="opacity:1" fill="#529df2" d="M 267.5,168.5 C 269.5,170.167 271.5,171.833 273.5,173.5C 280.76,175.465 288.427,176.132 296.5,175.5C 301.167,175.5 305.833,175.5 310.5,175.5C 310.5,176.833 310.5,178.167 310.5,179.5C 309.596,178.791 309.263,177.791 309.5,176.5C 298.828,176.333 288.161,176.5 277.5,177C 279.334,179.663 281.334,182.163 283.5,184.5C 282.028,187.077 281.028,189.911 280.5,193C 277.607,193.631 274.774,194.464 272,195.5C 270.189,194.576 270.355,193.743 272.5,193C 265.451,191.114 259.618,192.947 255,198.5C 254.529,203.844 254.029,209.178 253.5,214.5C 253.167,214.5 252.833,214.5 252.5,214.5C 248.833,214.5 245.167,214.5 241.5,214.5C 241.334,208.824 241.501,203.157 242,197.5C 244.945,192.555 248.279,187.888 252,183.5C 257.67,178.996 262.837,173.996 267.5,168.5 Z"/></g>
<g><path style="opacity:0.217" fill="#2d3239" d="M 62.5,175.5 C 65.1639,179.131 68.3306,182.465 72,185.5C 72.49,186.793 72.6567,188.127 72.5,189.5C 72.5,209.5 72.5,229.5 72.5,249.5C 71.5206,252.625 71.1872,255.958 71.5,259.5C 60.8333,259.5 50.1667,259.5 39.5,259.5C 39.5,232.5 39.5,205.5 39.5,178.5C 39.8333,177.5 40.5,176.833 41.5,176.5C 45.5088,180.42 50.1754,181.42 55.5,179.5C 58.2948,178.937 60.6282,177.604 62.5,175.5 Z M 61.5,183.5 C 60.7375,184.268 59.7375,184.768 58.5,185C 53.8452,185.499 49.1785,185.666 44.5,185.5C 44.5,208.5 44.5,231.5 44.5,254.5C 51.8333,254.5 59.1667,254.5 66.5,254.5C 66.6666,232.497 66.5,210.497 66,188.5C 64.264,186.937 62.764,185.27 61.5,183.5 Z"/></g>
<g><path style="opacity:1" fill="#58362e" d="M 310.5,175.5 C 311.833,175.5 313.167,175.5 314.5,175.5C 314.392,177.514 315.058,179.18 316.5,180.5C 316.167,180.5 315.833,180.5 315.5,180.5C 315.167,180.5 314.833,180.5 314.5,180.5C 313.432,179.566 312.099,179.232 310.5,179.5C 310.5,178.167 310.5,176.833 310.5,175.5 Z"/></g>
<g><path style="opacity:0.945" fill="#414141" d="M 133.5,180.5 C 131.439,179.318 129.939,179.985 129,182.5C 128.252,184.332 127.252,185.999 126,187.5C 125.505,189.473 125.338,191.473 125.5,193.5C 115.582,192.526 105.582,192.193 95.5,192.5C 95.1924,190.076 95.5258,187.743 96.5,185.5C 105.77,185.773 115.103,185.773 124.5,185.5C 125.22,179.862 125.553,174.196 125.5,168.5C 127.167,168.5 128.833,168.5 130.5,168.5C 131.512,172.515 132.512,176.515 133.5,180.5 Z"/></g>
<g><path style="opacity:0.226" fill="#2c3138" d="M 315.5,180.5 C 315.833,180.5 316.167,180.5 316.5,180.5C 323.137,185.765 329.803,185.765 336.5,180.5C 337.609,180.557 338.609,180.89 339.5,181.5C 339.5,207.5 339.5,233.5 339.5,259.5C 328.5,259.5 317.5,259.5 306.5,259.5C 305.523,256.713 305.19,253.713 305.5,250.5C 305.5,250.167 305.5,249.833 305.5,249.5C 306.495,238.679 306.828,227.679 306.5,216.5C 306.5,215.833 306.5,215.167 306.5,214.5C 309.5,214.5 312.5,214.5 315.5,214.5C 315.5,203.167 315.5,191.833 315.5,180.5 Z M 333.5,188.5 C 329.416,190.672 325.083,191.005 320.5,189.5C 320.666,198.839 320.5,208.173 320,217.5C 317.581,219.585 314.747,220.585 311.5,220.5C 311.5,231.833 311.5,243.167 311.5,254.5C 319.167,254.5 326.833,254.5 334.5,254.5C 334.831,232.327 334.497,210.327 333.5,188.5 Z"/></g>
<g><path style="opacity:1" fill="#59a2f3" d="M 314.5,180.5 C 314.833,180.5 315.167,180.5 315.5,180.5C 315.5,191.833 315.5,203.167 315.5,214.5C 312.5,214.5 309.5,214.5 306.5,214.5C 305.5,214.5 304.5,214.5 303.5,214.5C 303.082,213.778 302.416,213.278 301.5,213C 304.39,209.581 304.057,206.581 300.5,204C 305.152,197.394 308.818,190.394 311.5,183C 311.355,182.228 311.022,181.561 310.5,181C 311.793,180.51 313.127,180.343 314.5,180.5 Z"/></g>
<g><path style="opacity:1" fill="#79b9f6" d="M 220.5,175.5 C 226.167,175.5 231.833,175.5 237.5,175.5C 243.5,175.5 249.5,175.5 255.5,175.5C 248.345,176.329 241.011,176.829 233.5,177C 234.833,177.333 236.167,177.667 237.5,178C 236.833,178.333 236.167,178.667 235.5,179C 236.706,182.112 236.706,185.278 235.5,188.5C 237.047,189.551 238.214,191.551 239,194.5C 239.75,195.126 240.584,195.626 241.5,196C 240.184,202.833 240.184,209.666 241.5,216.5C 241.167,216.5 240.833,216.5 240.5,216.5C 236.936,215.577 233.269,215.244 229.5,215.5C 226.713,214.523 223.713,214.19 220.5,214.5C 220.5,201.5 220.5,188.5 220.5,175.5 Z"/></g>
<g><path style="opacity:0.223" fill="#2f3237" d="M 95.5,192.5 C 105.582,192.193 115.582,192.526 125.5,193.5C 125.5,212.167 125.5,230.833 125.5,249.5C 125.5,253.833 125.5,258.167 125.5,262.5C 135.833,262.5 146.167,262.5 156.5,262.5C 159.833,262.5 163.167,262.5 166.5,262.5C 166.5,263.5 166.5,264.5 166.5,265.5C 165.209,265.263 164.209,265.596 163.5,266.5C 162.833,266.5 162.167,266.5 161.5,266.5C 161.423,265.25 160.756,264.417 159.5,264C 147.677,263.624 136.011,263.457 124.5,263.5C 124.5,262.167 124.5,260.833 124.5,259.5C 120.833,259.5 117.167,259.5 113.5,259.5C 113.5,260.833 113.5,262.167 113.5,263.5C 110.881,263.232 108.381,263.565 106,264.5C 94.4019,263.843 82.9019,263.176 71.5,262.5C 82.1667,262.5 92.8333,262.5 103.5,262.5C 106.5,262.5 109.5,262.5 112.5,262.5C 113.763,255.176 110.763,251.009 103.5,250C 100.518,249.502 97.5184,249.335 94.5,249.5C 94.5,231.167 94.5,212.833 94.5,194.5C 95.3382,194.158 95.6716,193.492 95.5,192.5 Z M 100.5,197.5 C 100.5,213.167 100.5,228.833 100.5,244.5C 108.865,243.68 114.865,247.014 118.5,254.5C 119.314,252.234 119.814,249.9 120,247.5C 120.5,230.837 120.667,214.17 120.5,197.5C 113.833,197.5 107.167,197.5 100.5,197.5 Z"/></g>
<g><path style="opacity:1" fill="#6daff6" d="M 285.5,187.5 C 293.958,194.477 296.958,203.477 294.5,214.5C 297.5,214.5 300.5,214.5 303.5,214.5C 304.5,214.5 305.5,214.5 306.5,214.5C 306.5,215.167 306.5,215.833 306.5,216.5C 302.167,216.5 297.833,216.5 293.5,216.5C 289.936,215.577 286.269,215.244 282.5,215.5C 273.348,214.506 264.015,214.173 254.5,214.5C 259.827,213.763 265.16,212.763 270.5,211.5C 273.452,212.366 276.452,212.866 279.5,213C 280.872,211.758 281.872,210.258 282.5,208.5C 282.702,204.418 282.369,200.252 281.5,196C 282.274,193.595 282.774,191.095 283,188.5C 283.671,187.748 284.504,187.414 285.5,187.5 Z"/></g>
<g><path style="opacity:1" fill="#4c98f2" d="M 310.5,179.5 C 312.099,179.232 313.432,179.566 314.5,180.5C 313.127,180.343 311.793,180.51 310.5,181C 311.022,181.561 311.355,182.228 311.5,183C 308.818,190.394 305.152,197.394 300.5,204C 304.057,206.581 304.39,209.581 301.5,213C 302.416,213.278 303.082,213.778 303.5,214.5C 300.5,214.5 297.5,214.5 294.5,214.5C 296.958,203.477 293.958,194.477 285.5,187.5C 285.573,185.973 284.906,184.973 283.5,184.5C 281.334,182.163 279.334,179.663 277.5,177C 288.161,176.5 298.828,176.333 309.5,176.5C 309.263,177.791 309.596,178.791 310.5,179.5 Z"/></g>
<g><path style="opacity:1" fill="#5f5f60" d="M 133.5,180.5 C 136.089,186.444 137.089,192.778 136.5,199.5C 136.5,216.167 136.5,232.833 136.5,249.5C 132.833,249.5 129.167,249.5 125.5,249.5C 125.5,230.833 125.5,212.167 125.5,193.5C 125.338,191.473 125.505,189.473 126,187.5C 127.252,185.999 128.252,184.332 129,182.5C 129.939,179.985 131.439,179.318 133.5,180.5 Z"/></g>
<g><path style="opacity:1" fill="#a6867d" d="M 34.5,176.5 C 35.4972,176.47 36.1639,176.97 36.5,178C 35.6792,205.47 35.1792,232.97 35,260.5C 34.6174,259.944 34.1174,259.611 33.5,259.5C 33.5,232.5 33.5,205.5 33.5,178.5C 33.3284,177.508 33.6618,176.842 34.5,176.5 Z"/></g>
<g><path style="opacity:1" fill="#646464" d="M 72.5,189.5 C 74.8057,193.806 78.139,197.139 82.5,199.5C 82.5,216.167 82.5,232.833 82.5,249.5C 79.1667,249.5 75.8333,249.5 72.5,249.5C 72.5,229.5 72.5,209.5 72.5,189.5 Z"/></g>
<g><path style="opacity:1" fill="#5ea6f5" d="M 283.5,184.5 C 284.906,184.973 285.573,185.973 285.5,187.5C 284.504,187.414 283.671,187.748 283,188.5C 282.774,191.095 282.274,193.595 281.5,196C 282.369,200.252 282.702,204.418 282.5,208.5C 281.872,210.258 280.872,211.758 279.5,213C 276.452,212.866 273.452,212.366 270.5,211.5C 265.16,212.763 259.827,213.763 254.5,214.5C 254.167,214.5 253.833,214.5 253.5,214.5C 254.029,209.178 254.529,203.844 255,198.5C 259.618,192.947 265.451,191.114 272.5,193C 270.355,193.743 270.189,194.576 272,195.5C 274.774,194.464 277.607,193.631 280.5,193C 281.028,189.911 282.028,187.077 283.5,184.5 Z"/></g>
<g><path style="opacity:1" fill="#3e3e3e" d="M 83.5,190.5 C 83.5,191.5 83.5,192.5 83.5,193.5C 87.1773,195.039 90.6773,194.706 94,192.5C 94.4643,193.094 94.631,193.761 94.5,194.5C 94.5,212.833 94.5,231.167 94.5,249.5C 90.5,249.5 86.5,249.5 82.5,249.5C 82.5,232.833 82.5,216.167 82.5,199.5C 82.19,196.287 82.5233,193.287 83.5,190.5 Z"/></g>
<g><path style="opacity:0.396" fill="#494547" d="M 339.5,181.5 C 340.498,207.328 340.831,233.328 340.5,259.5C 340.5,260.5 340.5,261.5 340.5,262.5C 342.167,262.5 343.833,262.5 345.5,262.5C 343.735,263.461 341.735,263.795 339.5,263.5C 339.5,262.167 339.5,260.833 339.5,259.5C 339.5,233.5 339.5,207.5 339.5,181.5 Z"/></g>
<g><path style="opacity:1" fill="#856057" d="M 39.5,172.5 C 39.7329,174.062 40.3995,175.395 41.5,176.5C 40.5,176.833 39.8333,177.5 39.5,178.5C 38.502,206.328 38.1687,234.328 38.5,262.5C 36.8333,262.5 35.1667,262.5 33.5,262.5C 33.5,261.5 33.5,260.5 33.5,259.5C 34.1174,259.611 34.6174,259.944 35,260.5C 35.1792,232.97 35.6792,205.47 36.5,178C 36.1639,176.97 35.4972,176.47 34.5,176.5C 35.5794,174.457 37.246,173.124 39.5,172.5 Z"/></g>
<g><path style="opacity:0.38" fill="#434144" d="M 33.5,178.5 C 33.5,205.5 33.5,232.5 33.5,259.5C 33.5,260.5 33.5,261.5 33.5,262.5C 35.1667,262.5 36.8333,262.5 38.5,262.5C 38.1687,234.328 38.502,206.328 39.5,178.5C 39.5,205.5 39.5,232.5 39.5,259.5C 39.5,260.833 39.5,262.167 39.5,263.5C 37.1667,263.5 34.8333,263.5 32.5,263.5C 32.5,262.167 32.5,260.833 32.5,259.5C 32.1688,232.328 32.5021,205.328 33.5,178.5 Z"/></g>
<g><path style="opacity:0.235" fill="#323439" d="M 252.5,214.5 C 252.833,214.5 253.167,214.5 253.5,214.5C 253.833,214.5 254.167,214.5 254.5,214.5C 264.015,214.173 273.348,214.506 282.5,215.5C 282.172,227.012 282.505,238.346 283.5,249.5C 285.454,252.293 287.621,254.959 290,257.5C 290.688,258.332 290.521,258.998 289.5,259.5C 280.581,264.001 273.748,262.001 269,253.5C 265.86,256.389 265.693,259.389 268.5,262.5C 267.5,262.5 266.5,262.5 265.5,262.5C 265.5,261.5 265.5,260.5 265.5,259.5C 261.167,259.5 256.833,259.5 252.5,259.5C 252.5,256.5 252.5,253.5 252.5,250.5C 252.5,250.167 252.5,249.833 252.5,249.5C 252.5,238.5 252.5,227.5 252.5,216.5C 252.5,215.833 252.5,215.167 252.5,214.5 Z M 258.5,220.5 C 258.821,231.748 258.487,242.915 257.5,254C 258.944,254.781 260.277,254.614 261.5,253.5C 265.277,247.94 270.61,244.94 277.5,244.5C 277.5,236.5 277.5,228.5 277.5,220.5C 271.167,220.5 264.833,220.5 258.5,220.5 Z"/></g>
<g><path style="opacity:1" fill="#f49182" d="M 240.5,216.5 C 240.833,216.5 241.167,216.5 241.5,216.5C 245.167,216.5 248.833,216.5 252.5,216.5C 252.5,227.5 252.5,238.5 252.5,249.5C 248.5,249.5 244.5,249.5 240.5,249.5C 240.5,238.5 240.5,227.5 240.5,216.5 Z"/></g>
<g><path style="opacity:1" fill="#f29284" d="M 293.5,216.5 C 297.833,216.5 302.167,216.5 306.5,216.5C 306.828,227.679 306.495,238.679 305.5,249.5C 301.5,249.5 297.5,249.5 293.5,249.5C 293.5,238.5 293.5,227.5 293.5,216.5 Z"/></g>
<g><path style="opacity:1" fill="#3c3c3d" d="M 154.5,167.5 C 155.167,167.5 155.833,167.5 156.5,167.5C 157.887,175.389 155.387,181.723 149,186.5C 148.5,207.497 148.333,228.497 148.5,249.5C 144.5,249.5 140.5,249.5 136.5,249.5C 136.5,232.833 136.5,216.167 136.5,199.5C 139.918,196.561 142.418,192.894 144,188.5C 146.798,181.911 149.298,175.245 151.5,168.5C 152.791,168.737 153.791,168.404 154.5,167.5 Z"/></g>
<g><path style="opacity:1" fill="#f7afa3" d="M 229.5,215.5 C 233.269,215.244 236.936,215.577 240.5,216.5C 240.5,227.5 240.5,238.5 240.5,249.5C 236.833,249.5 233.167,249.5 229.5,249.5C 229.5,238.167 229.5,226.833 229.5,215.5 Z"/></g>
<g><path style="opacity:1" fill="#957167" d="M 338.5,178.5 C 340.144,179.316 341.31,180.65 342,182.5C 342.667,208.5 342.667,234.5 342,260.5C 341.617,259.944 341.117,259.611 340.5,259.5C 340.831,233.328 340.498,207.328 339.5,181.5C 338.609,180.89 337.609,180.557 336.5,180.5C 336.833,179.5 337.5,178.833 338.5,178.5 Z"/></g>
<g><path style="opacity:1" fill="#f1aba0" d="M 282.5,215.5 C 286.269,215.244 289.936,215.577 293.5,216.5C 293.5,227.5 293.5,238.5 293.5,249.5C 290.167,249.5 286.833,249.5 283.5,249.5C 282.505,238.346 282.172,227.012 282.5,215.5 Z"/></g>
<g><path style="opacity:1" fill="#724b41" d="M 338.5,176.5 C 341.275,177.312 343.442,178.979 345,181.5C 345.5,208.498 345.667,235.498 345.5,262.5C 343.833,262.5 342.167,262.5 340.5,262.5C 340.5,261.5 340.5,260.5 340.5,259.5C 341.117,259.611 341.617,259.944 342,260.5C 342.667,234.5 342.667,208.5 342,182.5C 341.31,180.65 340.144,179.316 338.5,178.5C 338.5,177.833 338.5,177.167 338.5,176.5 Z"/></g>
<g><path style="opacity:1" fill="#7e4235" d="M 82.5,249.5 C 86.5,249.5 90.5,249.5 94.5,249.5C 97.5184,249.335 100.518,249.502 103.5,250C 110.763,251.009 113.763,255.176 112.5,262.5C 109.5,262.5 106.5,262.5 103.5,262.5C 103.389,261.883 103.056,261.383 102.5,261C 96.7222,260.906 91.0555,260.239 85.5,259C 84.0249,255.979 83.0249,252.812 82.5,249.5 Z"/></g>
<g><path style="opacity:1" fill="#82473a" d="M 136.5,249.5 C 140.5,249.5 144.5,249.5 148.5,249.5C 151.518,249.335 154.518,249.502 157.5,250C 164.241,251.563 167.241,255.729 166.5,262.5C 163.167,262.5 159.833,262.5 156.5,262.5C 149.679,261.671 142.679,261.171 135.5,261C 136.516,260.481 137.182,259.647 137.5,258.5C 136.698,255.551 136.364,252.551 136.5,249.5 Z"/></g>
<g><path style="opacity:1" fill="#9a6154" d="M 72.5,249.5 C 75.8333,249.5 79.1667,249.5 82.5,249.5C 83.0249,252.812 84.0249,255.979 85.5,259C 91.0555,260.239 96.7222,260.906 102.5,261C 103.056,261.383 103.389,261.883 103.5,262.5C 92.8333,262.5 82.1667,262.5 71.5,262.5C 70.8843,261.798 70.8843,260.798 71.5,259.5C 71.1872,255.958 71.5206,252.625 72.5,249.5 Z"/></g>
<g><path style="opacity:1" fill="#9a6154" d="M 125.5,249.5 C 129.167,249.5 132.833,249.5 136.5,249.5C 136.364,252.551 136.698,255.551 137.5,258.5C 137.182,259.647 136.516,260.481 135.5,261C 142.679,261.171 149.679,261.671 156.5,262.5C 146.167,262.5 135.833,262.5 125.5,262.5C 125.5,258.167 125.5,253.833 125.5,249.5 Z"/></g>
<g><path style="opacity:1" fill="#515050" d="M 229.5,250.5 C 229.5,250.167 229.5,249.833 229.5,249.5C 233.167,249.5 236.833,249.5 240.5,249.5C 244.5,249.5 248.5,249.5 252.5,249.5C 252.5,249.833 252.5,250.167 252.5,250.5C 248.167,250.5 243.833,250.5 239.5,250.5C 239.656,253.066 239.322,255.566 238.5,258C 239.101,259.605 240.101,260.938 241.5,262C 232.482,262.832 223.482,262.665 214.5,261.5C 212.227,257.952 213.061,254.952 217,252.5C 219.86,261.296 225.693,263.796 234.5,260C 235.956,259.577 236.456,258.744 236,257.5C 233.6,255.271 231.433,252.937 229.5,250.5 Z"/></g>
<g><path style="opacity:1" fill="#515050" d="M 283.5,249.5 C 286.833,249.5 290.167,249.5 293.5,249.5C 297.5,249.5 301.5,249.5 305.5,249.5C 305.5,249.833 305.5,250.167 305.5,250.5C 301.5,250.5 297.5,250.5 293.5,250.5C 293.557,252.884 293.223,255.218 292.5,257.5C 292.876,259.383 293.876,260.883 295.5,262C 286.84,262.5 278.173,262.666 269.5,262.5C 269.167,262.5 268.833,262.5 268.5,262.5C 265.693,259.389 265.86,256.389 269,253.5C 273.748,262.001 280.581,264.001 289.5,259.5C 290.521,258.998 290.688,258.332 290,257.5C 287.621,254.959 285.454,252.293 283.5,249.5 Z"/></g>
<g><path style="opacity:1" fill="#383838" d="M 229.5,250.5 C 231.433,252.937 233.6,255.271 236,257.5C 236.456,258.744 235.956,259.577 234.5,260C 225.693,263.796 219.86,261.296 217,252.5C 213.061,254.952 212.227,257.952 214.5,261.5C 223.482,262.665 232.482,262.832 241.5,262C 240.101,260.938 239.101,259.605 238.5,258C 239.322,255.566 239.656,253.066 239.5,250.5C 243.833,250.5 248.167,250.5 252.5,250.5C 252.5,253.5 252.5,256.5 252.5,259.5C 252.5,260.5 252.5,261.5 252.5,262.5C 250.833,262.5 249.167,262.5 247.5,262.5C 246.751,257.612 245.084,257.612 242.5,262.5C 243.5,263.333 244.5,264.167 245.5,265C 253.167,265.667 260.833,265.667 268.5,265C 270.619,264.658 270.953,263.825 269.5,262.5C 278.173,262.666 286.84,262.5 295.5,262C 293.876,260.883 292.876,259.383 292.5,257.5C 293.223,255.218 293.557,252.884 293.5,250.5C 297.5,250.5 301.5,250.5 305.5,250.5C 305.19,253.713 305.523,256.713 306.5,259.5C 306.5,260.5 306.5,261.5 306.5,262.5C 304.473,262.338 302.473,262.505 300.5,263C 302.878,263.974 302.544,264.641 299.5,265C 318.497,265.5 337.497,265.667 356.5,265.5C 356.5,265.833 356.5,266.167 356.5,266.5C 308.5,266.5 260.5,266.5 212.5,266.5C 211.571,265.685 210.571,264.852 209.5,264C 211.037,262.89 211.703,261.39 211.5,259.5C 211.642,256.383 212.976,253.883 215.5,252C 220.066,250.691 224.733,250.191 229.5,250.5 Z"/></g>
<g><path style="opacity:1" fill="#252525" d="M 252.5,259.5 C 256.833,259.5 261.167,259.5 265.5,259.5C 265.5,260.5 265.5,261.5 265.5,262.5C 266.5,262.5 267.5,262.5 268.5,262.5C 268.833,262.5 269.167,262.5 269.5,262.5C 270.953,263.825 270.619,264.658 268.5,265C 260.833,265.667 253.167,265.667 245.5,265C 244.5,264.167 243.5,263.333 242.5,262.5C 245.084,257.612 246.751,257.612 247.5,262.5C 249.167,262.5 250.833,262.5 252.5,262.5C 252.5,261.5 252.5,260.5 252.5,259.5 Z"/></g>
<g><path style="opacity:0.004" fill="#2e2f2e" d="M 107.5,264.5 C 108.833,265.167 108.833,265.167 107.5,264.5 Z"/></g>
<g><path style="opacity:0.004" fill="#2b2c2b" d="M 126.5,264.5 C 127.833,265.167 127.833,265.167 126.5,264.5 Z"/></g>
<g><path style="opacity:0.522" fill="#464646" d="M -0.5,260.5 C 0.836207,262.307 2.50287,263.807 4.5,265C 23.3378,265.168 42.0045,265.668 60.5,266.5C 40.1667,266.5 19.8333,266.5 -0.5,266.5C -0.5,264.5 -0.5,262.5 -0.5,260.5 Z"/></g>
<g><path style="opacity:0.38" fill="#3e3e3e" d="M 172.5,266.5 C 183.5,265.167 194.5,265.167 205.5,266.5C 194.5,266.5 183.5,266.5 172.5,266.5 Z"/></g>
</svg>
