<?xml version="1.0" encoding="UTF-8"?>
<!DOCTYPE svg PUBLIC "-//W3C//DTD SVG 1.1//EN" "http://www.w3.org/Graphics/SVG/1.1/DTD/svg11.dtd">
<svg xmlns="http://www.w3.org/2000/svg" version="1.1" width="462px" height="321px" style="shape-rendering:geometricPrecision; text-rendering:geometricPrecision; image-rendering:optimizeQuality; fill-rule:evenodd; clip-rule:evenodd" xmlns:xlink="http://www.w3.org/1999/xlink">
<g><path style="opacity:0.403" fill="#483528" d="M 27.5,12.5 C 137.153,12.5274 243.986,12.5274 348,12.5C 349.892,13.13 351.559,14.13 353,15.5C 353.5,29.1626 353.667,42.8293 353.5,56.5C 369.503,56.3334 385.503,56.5001 401.5,57C 426.798,63.3026 443.298,78.8026 451,103.5C 452.659,118.821 451.326,133.821 447,148.5C 439.703,165.447 429.036,179.78 415,191.5C 419.478,217.031 410.978,236.864 389.5,251C 406.5,251.333 423.5,251.667 440.5,252C 443.913,256.071 444.413,260.571 442,265.5C 438.032,275.466 430.865,281.966 420.5,285C 413.218,286.135 405.885,286.801 398.5,287C 394.91,300.593 386.243,308.593 372.5,311C 279.5,311.667 186.5,311.667 93.5,311C 79.994,308.667 71.3274,300.833 67.5,287.5C 52.6106,288.838 39.7773,284.505 29,274.5C 25.0776,269.74 22.9109,264.24 22.5,258C 22.7029,255.594 23.7029,253.594 25.5,252C 60.8333,251.667 96.1667,251.333 131.5,251C 72.7054,229.106 36.7054,187.439 23.5,126C 23.9574,125.586 24.2907,125.086 24.5,124.5C 23.7315,120.555 23.2315,116.555 23,112.5C 22.3333,80.5 22.3333,48.5 23,16.5C 23.9066,14.3909 25.4066,13.0576 27.5,12.5 Z M 353.5,82.5 C 366.504,82.3334 379.504,82.5001 392.5,83C 417.636,89.0868 427.803,104.92 423,130.5C 418.108,146.631 409.441,160.298 397,171.5C 394,170.167 391,168.833 388,167.5C 387.667,167.833 387.333,168.167 387,168.5C 380.006,166.656 373.006,165.989 366,166.5C 351.926,169.967 339.926,176.967 330,187.5C 334.335,177.825 339.002,168.158 344,158.5C 352.844,133.564 356.011,108.231 353.5,82.5 Z M 330.5,250.5 C 322.354,250.875 314.354,250.875 306.5,250.5C 311.561,245.609 316.061,240.275 320,234.5C 321.769,241.057 325.269,246.39 330.5,250.5 Z M 248.5,249.5 C 249.289,249.783 249.956,250.283 250.5,251C 249.167,251.667 247.833,251.667 246.5,251C 247.416,250.722 248.082,250.222 248.5,249.5 Z"/></g>
<g><path style="opacity:0.984" fill="#dbd9d7" d="M 27.5,18.5 C 134.665,17.5005 241.999,17.1672 349.5,17.5C 349.5,31.8333 349.5,46.1667 349.5,60.5C 348.504,47.3438 348.171,34.0105 348.5,20.5C 328.194,18.5115 307.527,17.8449 286.5,18.5C 265.5,18.5 244.5,18.5 223.5,18.5C 175.833,18.5 128.167,18.5 80.5,18.5C 62.8333,18.5 45.1667,18.5 27.5,18.5 Z"/></g>
<g><path style="opacity:1" fill="#eeedec" d="M 27.5,18.5 C 45.1667,18.5 62.8333,18.5 80.5,18.5C 81.1541,36.4359 81.8207,54.4359 82.5,72.5C 84.1792,73.782 86.0126,74.782 88,75.5C 91.3333,74.1667 94.6667,74.1667 98,75.5C 98.6667,72.8333 99.3333,72.8333 100,75.5C 102,75.5 104,75.5 106,75.5C 106.667,72.8333 107.333,72.8333 108,75.5C 110,75.5 112,75.5 114,75.5C 114.667,72.8333 115.333,72.8333 116,75.5C 117.791,73.4873 119.125,73.4873 120,75.5C 122,75.5 124,75.5 126,75.5C 126.667,72.8333 127.333,72.8333 128,75.5C 129.791,73.4873 131.125,73.4873 132,75.5C 134,75.5 136,75.5 138,75.5C 138.667,72.8333 139.333,72.8333 140,75.5C 142,75.5 144,75.5 146,75.5C 146.667,72.8333 147.333,72.8333 148,75.5C 150,75.5 152,75.5 154,75.5C 154.667,72.8333 155.333,72.8333 156,75.5C 159.333,74.1667 162.667,74.1667 166,75.5C 166.667,72.8333 167.333,72.8333 168,75.5C 169.791,73.4873 171.125,73.4873 172,75.5C 172.667,74.1667 173.333,74.1667 174,75.5C 174.667,72.8333 175.333,72.8333 176,75.5C 178,75.5 180,75.5 182,75.5C 182.667,72.8333 183.333,72.8333 184,75.5C 185.791,73.4873 187.125,73.4873 188,75.5C 191.333,74.1667 194.667,74.1667 198,75.5C 198.667,72.8333 199.333,72.8333 200,75.5C 202,74.1667 204,74.1667 206,75.5C 206.667,72.8333 207.333,72.8333 208,75.5C 211.462,74.9556 215.129,74.6222 219,74.5C 220.986,74.5687 222.486,75.2353 223.5,76.5C 176.162,76.8333 128.829,76.4999 81.5,75.5C 80.8333,73.8333 80.1667,72.1667 79.5,70.5C 62.1518,53.9853 45.3185,36.9853 29,19.5C 28.8324,50.3361 28.3324,81.0027 27.5,111.5C 27.5,80.5 27.5,49.5 27.5,18.5 Z"/></g>
<g><path style="opacity:1" fill="#f7f7f6" d="M 80.5,18.5 C 128.167,18.5 175.833,18.5 223.5,18.5C 223.273,37.4548 223.606,56.7882 224.5,76.5C 224.167,76.5 223.833,76.5 223.5,76.5C 222.486,75.2353 220.986,74.5687 219,74.5C 215.129,74.6222 211.462,74.9556 208,75.5C 207.333,72.8333 206.667,72.8333 206,75.5C 204,74.1667 202,74.1667 200,75.5C 199.333,72.8333 198.667,72.8333 198,75.5C 194.667,74.1667 191.333,74.1667 188,75.5C 187.125,73.4873 185.791,73.4873 184,75.5C 183.333,72.8333 182.667,72.8333 182,75.5C 180,75.5 178,75.5 176,75.5C 175.333,72.8333 174.667,72.8333 174,75.5C 173.333,74.1667 172.667,74.1667 172,75.5C 171.125,73.4873 169.791,73.4873 168,75.5C 167.333,72.8333 166.667,72.8333 166,75.5C 162.667,74.1667 159.333,74.1667 156,75.5C 155.333,72.8333 154.667,72.8333 154,75.5C 152,75.5 150,75.5 148,75.5C 147.333,72.8333 146.667,72.8333 146,75.5C 144,75.5 142,75.5 140,75.5C 139.333,72.8333 138.667,72.8333 138,75.5C 136,75.5 134,75.5 132,75.5C 131.125,73.4873 129.791,73.4873 128,75.5C 127.333,72.8333 126.667,72.8333 126,75.5C 124,75.5 122,75.5 120,75.5C 119.125,73.4873 117.791,73.4873 116,75.5C 115.333,72.8333 114.667,72.8333 114,75.5C 112,75.5 110,75.5 108,75.5C 107.333,72.8333 106.667,72.8333 106,75.5C 104,75.5 102,75.5 100,75.5C 99.3333,72.8333 98.6667,72.8333 98,75.5C 94.6667,74.1667 91.3333,74.1667 88,75.5C 86.0126,74.782 84.1792,73.782 82.5,72.5C 81.8207,54.4359 81.1541,36.4359 80.5,18.5 Z"/></g>
<g><path style="opacity:1" fill="#fefffe" d="M 223.5,18.5 C 244.5,18.5 265.5,18.5 286.5,18.5C 286.5,37.8333 286.5,57.1667 286.5,76.5C 265.833,76.5 245.167,76.5 224.5,76.5C 223.606,56.7882 223.273,37.4548 223.5,18.5 Z"/></g>
<g><path style="opacity:1" fill="#f7f7f6" d="M 286.5,18.5 C 307.527,17.8449 328.194,18.5115 348.5,20.5C 347.883,20.3893 347.383,20.056 347,19.5C 331.947,33.4339 317.113,48.2672 302.5,64C 302.833,64.3333 303.167,64.6667 303.5,65C 302.5,65.3333 301.5,65.6667 300.5,66C 301.684,67.1455 301.684,68.3121 300.5,69.5C 296.891,73.9713 292.224,76.3046 286.5,76.5C 286.5,57.1667 286.5,37.8333 286.5,18.5 Z"/></g>
<g><path style="opacity:1" fill="#c6c5c3" d="M 223.5,76.5 C 223.5,76.8333 223.5,77.1667 223.5,77.5C 166.998,77.1677 110.664,77.501 54.5,78.5C 54.5,90.1667 54.5,101.833 54.5,113.5C 54.5,115.167 54.5,116.833 54.5,118.5C 47.3792,117.739 40.0458,117.572 32.5,118C 30.867,118.48 29.5336,119.313 28.5,120.5C 27.5233,117.713 27.19,114.713 27.5,111.5C 28.3324,81.0027 28.8324,50.3361 29,19.5C 45.3185,36.9853 62.1518,53.9853 79.5,70.5C 80.1667,72.1667 80.8333,73.8333 81.5,75.5C 128.829,76.4999 176.162,76.8333 223.5,76.5 Z"/></g>
<g><path style="opacity:1" fill="#eeedec" d="M 348.5,20.5 C 348.171,34.0105 348.504,47.3438 349.5,60.5C 365.503,60.3334 381.503,60.5001 397.5,61C 417.756,65.2564 432.923,76.4231 443,94.5C 444.276,98.8232 445.442,103.156 446.5,107.5C 444.266,107.38 442.099,107.713 440,108.5C 438.274,105.08 436.108,102.08 433.5,99.5C 430.327,92.1246 425.661,85.6246 419.5,80C 418.906,79.5357 418.239,79.369 417.5,79.5C 410.86,75.0202 403.526,71.8535 395.5,70C 379.17,69.5001 362.837,69.3334 346.5,69.5C 331.167,69.5 315.833,69.5 300.5,69.5C 301.684,68.3121 301.684,67.1455 300.5,66C 301.5,65.6667 302.5,65.3333 303.5,65C 303.167,64.6667 302.833,64.3333 302.5,64C 317.113,48.2672 331.947,33.4339 347,19.5C 347.383,20.056 347.883,20.3893 348.5,20.5 Z"/></g>
<g><path style="opacity:1" fill="#b3b1af" d="M 346.5,69.5 C 362.837,69.3334 379.17,69.5001 395.5,70C 403.526,71.8535 410.86,75.0202 417.5,79.5C 417.428,82.5525 416.428,85.2192 414.5,87.5C 408.079,83.2934 401.079,80.1267 393.5,78C 378.837,77.5001 364.17,77.3334 349.5,77.5C 349.829,90.3443 349.495,103.011 348.5,115.5C 348.5,114.833 348.5,114.167 348.5,113.5C 348.5,101.5 348.5,89.5 348.5,77.5C 348.868,74.4669 348.202,71.8002 346.5,69.5 Z"/></g>
<g><path style="opacity:1" fill="#776355" d="M 223.5,77.5 C 244.5,77.5 265.5,77.5 286.5,77.5C 265.833,78.1667 245.167,78.8333 224.5,79.5C 224.5,105.5 224.5,131.5 224.5,157.5C 223.502,131.005 223.169,104.339 223.5,77.5 Z"/></g>
<g><path style="opacity:1" fill="#524032" d="M 286.5,77.5 C 298.5,77.5 310.5,77.5 322.5,77.5C 322.667,88.1719 322.5,98.8385 322,109.5C 321.967,115.762 321.134,121.762 319.5,127.5C 319.657,126.127 319.49,124.793 319,123.5C 318.184,128.193 316.684,128.526 314.5,124.5C 317.394,121.182 316.56,119.182 312,118.5C 310.667,121.167 309.333,121.167 308,118.5C 306.667,121.167 305.333,121.167 304,118.5C 303.085,119.328 302.419,120.328 302,121.5C 301.626,120.584 301.126,119.75 300.5,119C 299.175,119.148 298.008,118.982 297,118.5C 296.833,116.459 297,114.792 297.5,113.5C 298.478,113.977 299.311,114.643 300,115.5C 304,115.5 308,115.5 312,115.5C 314.122,114.78 314.622,113.613 313.5,112C 305.668,111.692 298.334,111.859 291.5,112.5C 291.167,112.5 290.833,112.5 290.5,112.5C 289.713,110.896 288.38,110.229 286.5,110.5C 286.5,100.167 286.5,89.8333 286.5,79.5C 265.833,79.5 245.167,79.5 224.5,79.5C 245.167,78.8333 265.833,78.1667 286.5,77.5 Z"/></g>
<g><path style="opacity:1" fill="#ebeae9" d="M 348.5,77.5 C 348.5,89.5 348.5,101.5 348.5,113.5C 346.628,112.489 344.628,111.655 342.5,111C 336.327,110.61 330.327,110.444 324.5,110.5C 323.334,99.5151 323.168,88.5151 324,77.5C 324.333,78.1667 324.667,78.8333 325,79.5C 331.549,78.3282 337.883,78.3282 344,79.5C 345.47,78.7334 346.97,78.0668 348.5,77.5 Z"/></g>
<g><path style="opacity:1" fill="#301c18" d="M 54.5,78.5 C 63.1667,78.5 71.8333,78.5 80.5,78.5C 80.5,107.5 80.5,136.5 80.5,165.5C 80.9651,169.399 81.6318,173.233 82.5,177C 81.9558,177.717 81.2891,178.217 80.5,178.5C 74.6741,171.009 69.6741,163.009 65.5,154.5C 63.0398,147.561 60.5398,140.561 58,133.5C 56.9958,126.663 55.8292,119.996 54.5,113.5C 54.5,101.833 54.5,90.1667 54.5,78.5 Z"/></g>
<g><path style="opacity:1" fill="#513f31" d="M 54.5,78.5 C 110.664,77.501 166.998,77.1677 223.5,77.5C 223.169,104.339 223.502,131.005 224.5,157.5C 224.833,157.5 225.167,157.5 225.5,157.5C 210.509,165.847 201.176,178.514 197.5,195.5C 197.5,195.833 197.5,196.167 197.5,196.5C 193.154,196.334 188.821,196.501 184.5,197C 183.429,197.852 182.429,198.685 181.5,199.5C 180.833,200.167 180.167,200.833 179.5,201.5C 159.56,196.687 140.893,188.854 123.5,178C 110.566,167.486 100.4,155.653 93,142.5C 90.0165,144.707 89.8498,144.207 92.5,141C 91.8742,140.25 91.3742,139.416 91,138.5C 89.4702,139.636 88.1369,140.636 87,141.5C 86.6667,140.833 86.3333,140.167 86,139.5C 84.78,142.003 84.4467,144.669 85,147.5C 84.0853,148.328 83.4186,149.328 83,150.5C 82.6667,149.833 82.3333,149.167 82,148.5C 81.4719,151.219 81.9719,153.719 83.5,156C 82.4269,159.26 81.4269,162.426 80.5,165.5C 80.5,136.5 80.5,107.5 80.5,78.5C 71.8333,78.5 63.1667,78.5 54.5,78.5 Z"/></g>
<g><path style="opacity:0.403" fill="#493729" d="M 414.5,87.5 C 420.926,93.3599 425.593,100.36 428.5,108.5C 429.942,115.53 429.776,122.53 428,129.5C 426.656,134.181 425.323,138.847 424,143.5C 420.971,147.562 418.471,151.895 416.5,156.5C 410.384,163.762 404.05,170.762 397.5,177.5C 385.555,170.092 372.889,168.758 359.5,173.5C 355.571,174.588 351.904,176.254 348.5,178.5C 345.128,181.277 341.628,183.943 338,186.5C 337.383,187.449 337.549,188.282 338.5,189C 336.03,189.989 333.697,191.155 331.5,192.5C 327.988,192.076 324.655,191.076 321.5,189.5C 329.494,177.178 336.161,164.178 341.5,150.5C 345.644,139.214 347.978,127.547 348.5,115.5C 349.495,103.011 349.829,90.3443 349.5,77.5C 364.17,77.3334 378.837,77.5001 393.5,78C 401.079,80.1267 408.079,83.2934 414.5,87.5 Z M 353.5,82.5 C 356.011,108.231 352.844,133.564 344,158.5C 339.002,168.158 334.335,177.825 330,187.5C 339.926,176.967 351.926,169.967 366,166.5C 373.006,165.989 380.006,166.656 387,168.5C 387.333,168.167 387.667,167.833 388,167.5C 391,168.833 394,170.167 397,171.5C 409.441,160.298 418.108,146.631 423,130.5C 427.803,104.92 417.636,89.0868 392.5,83C 379.504,82.5001 366.504,82.3334 353.5,82.5 Z"/></g>
<g><path style="opacity:1" fill="#665041" d="M 224.5,79.5 C 245.167,79.5 265.833,79.5 286.5,79.5C 286.5,89.8333 286.5,100.167 286.5,110.5C 288.38,110.229 289.713,110.896 290.5,112.5C 284.044,110.127 279.544,112.127 277,118.5C 273.987,125.266 275.153,131.099 280.5,136C 282.473,136.495 284.473,136.662 286.5,136.5C 286.782,141.927 286.449,147.26 285.5,152.5C 285.167,152.5 284.833,152.5 284.5,152.5C 282.651,146.696 278.651,144.529 272.5,146C 268.504,148.494 265.837,151.994 264.5,156.5C 262.696,156.424 260.696,156.757 258.5,157.5C 247.467,153.575 236.467,153.575 225.5,157.5C 225.167,157.5 224.833,157.5 224.5,157.5C 224.5,131.5 224.5,105.5 224.5,79.5 Z"/></g>
<g><path style="opacity:1" fill="#c8c6c5" d="M 417.5,79.5 C 418.239,79.369 418.906,79.5357 419.5,80C 425.661,85.6246 430.327,92.1246 433.5,99.5C 434.576,102.302 435.576,105.135 436.5,108C 434.039,108.029 431.372,108.196 428.5,108.5C 425.593,100.36 420.926,93.3599 414.5,87.5C 416.428,85.2192 417.428,82.5525 417.5,79.5 Z"/></g>
<g><path style="opacity:1" fill="#f4f3f2" d="M 290.5,112.5 C 290.833,112.5 291.167,112.5 291.5,112.5C 296,117.836 296.834,123.836 294,130.5C 292.488,133.857 289.988,135.857 286.5,136.5C 284.473,136.662 282.473,136.495 280.5,136C 275.153,131.099 273.987,125.266 277,118.5C 279.544,112.127 284.044,110.127 290.5,112.5 Z"/></g>
<g><path style="opacity:1" fill="#e0dedc" d="M 300.5,69.5 C 315.833,69.5 331.167,69.5 346.5,69.5C 348.202,71.8002 348.868,74.4669 348.5,77.5C 346.97,78.0668 345.47,78.7334 344,79.5C 337.883,78.3282 331.549,78.3282 325,79.5C 324.667,78.8333 324.333,78.1667 324,77.5C 323.168,88.5151 323.334,99.5151 324.5,110.5C 330.327,110.444 336.327,110.61 342.5,111C 344.628,111.655 346.628,112.489 348.5,113.5C 348.5,114.167 348.5,114.833 348.5,115.5C 347.978,127.547 345.644,139.214 341.5,150.5C 334.615,147.057 327.282,143.391 319.5,139.5C 318.808,140.025 318.308,140.692 318,141.5C 317.982,139.203 318.149,136.869 318.5,134.5C 319.219,132.236 319.552,129.903 319.5,127.5C 321.134,121.762 321.967,115.762 322,109.5C 322.5,98.8385 322.667,88.1719 322.5,77.5C 310.5,77.5 298.5,77.5 286.5,77.5C 265.5,77.5 244.5,77.5 223.5,77.5C 223.5,77.1667 223.5,76.8333 223.5,76.5C 223.833,76.5 224.167,76.5 224.5,76.5C 245.167,76.5 265.833,76.5 286.5,76.5C 292.224,76.3046 296.891,73.9713 300.5,69.5 Z"/></g>
<g><path style="opacity:1" fill="#4c3b2f" d="M 319.5,127.5 C 319.552,129.903 319.219,132.236 318.5,134.5C 315.295,144.918 310.961,154.918 305.5,164.5C 302.659,162.939 299.992,161.105 297.5,159C 293.577,157.537 289.577,156.37 285.5,155.5C 285.5,154.5 285.5,153.5 285.5,152.5C 286.449,147.26 286.782,141.927 286.5,136.5C 289.988,135.857 292.488,133.857 294,130.5C 296.834,123.836 296,117.836 291.5,112.5C 298.334,111.859 305.668,111.692 313.5,112C 314.622,113.613 314.122,114.78 312,115.5C 308,115.5 304,115.5 300,115.5C 299.311,114.643 298.478,113.977 297.5,113.5C 297,114.792 296.833,116.459 297,118.5C 298.008,118.982 299.175,119.148 300.5,119C 301.126,119.75 301.626,120.584 302,121.5C 302.419,120.328 303.085,119.328 304,118.5C 305.333,121.167 306.667,121.167 308,118.5C 309.333,121.167 310.667,121.167 312,118.5C 316.56,119.182 317.394,121.182 314.5,124.5C 316.684,128.526 318.184,128.193 319,123.5C 319.49,124.793 319.657,126.127 319.5,127.5 Z"/></g>
<g><path style="opacity:1" fill="#413128" d="M 179.5,201.5 C 178.431,206.543 180.097,210.377 184.5,213C 188.821,213.499 193.154,213.666 197.5,213.5C 197.5,209.167 197.5,204.833 197.5,200.5C 197.5,199.167 197.5,197.833 197.5,196.5C 197.5,196.167 197.5,195.833 197.5,195.5C 198.167,195.5 198.5,195.833 198.5,196.5C 198.144,206.288 198.977,215.955 201,225.5C 201.374,226.416 201.874,227.25 202.5,228C 204.81,228.497 207.143,228.663 209.5,228.5C 197.345,229.495 185.011,229.829 172.5,229.5C 137.246,225.209 107.913,209.876 84.5,183.5C 83.1667,181.833 81.8333,180.167 80.5,178.5C 81.2891,178.217 81.9558,177.717 82.5,177C 81.6318,173.233 80.9651,169.399 80.5,165.5C 81.4269,162.426 82.4269,159.26 83.5,156C 81.9719,153.719 81.4719,151.219 82,148.5C 82.3333,149.167 82.6667,149.833 83,150.5C 83.4186,149.328 84.0853,148.328 85,147.5C 84.4467,144.669 84.78,142.003 86,139.5C 86.3333,140.167 86.6667,140.833 87,141.5C 88.1369,140.636 89.4702,139.636 91,138.5C 91.3742,139.416 91.8742,140.25 92.5,141C 89.8498,144.207 90.0165,144.707 93,142.5C 100.4,155.653 110.566,167.486 123.5,178C 140.893,188.854 159.56,196.687 179.5,201.5 Z"/></g>
<g><path style="opacity:1" fill="#bab8b6" d="M 54.5,113.5 C 55.8292,119.996 56.9958,126.663 58,133.5C 60.5398,140.561 63.0398,147.561 65.5,154.5C 65.5,155.5 65.5,156.5 65.5,157.5C 59.0404,161.061 52.3738,164.561 45.5,168C 44.3044,168.654 44.3044,169.154 45.5,169.5C 47.1055,169.519 48.7722,169.353 50.5,169C 49.4366,170.188 48.1033,170.688 46.5,170.5C 46.7678,172.099 46.4345,173.432 45.5,174.5C 36.1591,157.486 30.4924,139.486 28.5,120.5C 29.5336,119.313 30.867,118.48 32.5,118C 40.0458,117.572 47.3792,117.739 54.5,118.5C 54.5,116.833 54.5,115.167 54.5,113.5 Z"/></g>
<g><path style="opacity:1" fill="#ebeae8" d="M 284.5,152.5 C 281.663,154.402 278.329,155.069 274.5,154.5C 270.963,154.311 267.63,154.977 264.5,156.5C 265.837,151.994 268.504,148.494 272.5,146C 278.651,144.529 282.651,146.696 284.5,152.5 Z"/></g>
<g><path style="opacity:1" fill="#e2e0df" d="M 433.5,99.5 C 436.108,102.08 438.274,105.08 440,108.5C 442.099,107.713 444.266,107.38 446.5,107.5C 449.058,130.282 443.392,150.615 429.5,168.5C 429.129,164.795 427.129,162.795 423.5,162.5C 424.953,161.175 424.619,160.342 422.5,160C 424.168,157.94 425.334,155.773 426,153.5C 425.667,153.833 425.333,154.167 425,154.5C 423.43,153.386 422.097,152.053 421,150.5C 421.175,153.818 419.675,155.818 416.5,156.5C 418.471,151.895 420.971,147.562 424,143.5C 425.323,138.847 426.656,134.181 428,129.5C 429.776,122.53 429.942,115.53 428.5,108.5C 431.372,108.196 434.039,108.029 436.5,108C 435.576,105.135 434.576,102.302 433.5,99.5 Z"/></g>
<g><path style="opacity:1" fill="#26120f" d="M 258.5,157.5 C 248.741,164.101 241.241,172.767 236,183.5C 235.187,185.436 234.687,187.436 234.5,189.5C 233.662,189.842 233.328,190.508 233.5,191.5C 232.883,191.389 232.383,191.056 232,190.5C 221.592,194.636 210.925,197.969 200,200.5C 199.79,198.942 199.29,197.609 198.5,196.5C 198.5,195.833 198.167,195.5 197.5,195.5C 201.176,178.514 210.509,165.847 225.5,157.5C 236.467,153.575 247.467,153.575 258.5,157.5 Z"/></g>
<g><path style="opacity:1" fill="#755a4b" d="M 284.5,152.5 C 284.833,152.5 285.167,152.5 285.5,152.5C 285.5,153.5 285.5,154.5 285.5,155.5C 289.577,156.37 293.577,157.537 297.5,159C 299.992,161.105 302.659,162.939 305.5,164.5C 309.446,169.296 313.279,174.296 317,179.5C 317.991,181.808 318.824,184.141 319.5,186.5C 319.5,187.5 319.5,188.5 319.5,189.5C 318.5,189.5 317.5,189.5 316.5,189.5C 314.817,183.801 312.317,178.467 309,173.5C 304.872,169.155 301.705,169.822 299.5,175.5C 301.858,180.181 304.191,184.847 306.5,189.5C 297.827,189.334 289.16,189.5 280.5,190C 282.458,192.748 284.291,195.582 286,198.5C 286.74,199.749 286.573,200.749 285.5,201.5C 282.161,201.11 278.827,200.61 275.5,200C 272.236,196.227 268.57,193.06 264.5,190.5C 269.316,189.674 274.316,189.174 279.5,189C 269.97,181.741 266.803,172.241 270,160.5C 271.332,158.34 272.832,156.34 274.5,154.5C 278.329,155.069 281.663,154.402 284.5,152.5 Z"/></g>
<g><path style="opacity:0.992" fill="#d4d2d0" d="M 318.5,134.5 C 318.149,136.869 317.982,139.203 318,141.5C 318.308,140.692 318.808,140.025 319.5,139.5C 327.282,143.391 334.615,147.057 341.5,150.5C 336.161,164.178 329.494,177.178 321.5,189.5C 321.98,194.822 322.313,200.155 322.5,205.5C 322.167,205.5 321.833,205.5 321.5,205.5C 317.688,204.676 313.688,204.176 309.5,204C 308.554,201.339 308.22,198.505 308.5,195.5C 311.005,195.02 313.338,194.02 315.5,192.5C 316.799,193.09 317.632,194.09 318,195.5C 320.288,192.597 320.788,189.597 319.5,186.5C 318.824,184.141 317.991,181.808 317,179.5C 313.279,174.296 309.446,169.296 305.5,164.5C 310.961,154.918 315.295,144.918 318.5,134.5 Z"/></g>
<g><path style="opacity:1" fill="#5b473b" d="M 274.5,154.5 C 272.832,156.34 271.332,158.34 270,160.5C 266.803,172.241 269.97,181.741 279.5,189C 274.316,189.174 269.316,189.674 264.5,190.5C 259.087,189.767 253.587,188.434 248,186.5C 244.209,187.908 240.375,189.241 236.5,190.5C 235.584,190.457 234.917,190.124 234.5,189.5C 234.687,187.436 235.187,185.436 236,183.5C 241.241,172.767 248.741,164.101 258.5,157.5C 260.696,156.757 262.696,156.424 264.5,156.5C 267.63,154.977 270.963,154.311 274.5,154.5 Z"/></g>
<g><path style="opacity:1" fill="#edeceb" d="M 423.5,162.5 C 417.888,170.112 411.221,176.779 403.5,182.5C 401.5,180.833 399.5,179.167 397.5,177.5C 404.05,170.762 410.384,163.762 416.5,156.5C 419.675,155.818 421.175,153.818 421,150.5C 422.097,152.053 423.43,153.386 425,154.5C 425.333,154.167 425.667,153.833 426,153.5C 425.334,155.773 424.168,157.94 422.5,160C 424.619,160.342 424.953,161.175 423.5,162.5 Z"/></g>
<g><path style="opacity:1" fill="#987767" d="M 316.5,189.5 C 313.167,189.5 309.833,189.5 306.5,189.5C 304.191,184.847 301.858,180.181 299.5,175.5C 301.705,169.822 304.872,169.155 309,173.5C 312.317,178.467 314.817,183.801 316.5,189.5 Z"/></g>
<g><path style="opacity:1" fill="#bfb7b3" d="M 397.5,177.5 C 399.5,179.167 401.5,180.833 403.5,182.5C 403.5,182.833 403.5,183.167 403.5,183.5C 400.5,185.833 397.833,188.5 395.5,191.5C 390.514,196.089 385.514,200.755 380.5,205.5C 378.901,205.232 377.568,205.566 376.5,206.5C 376.167,206.5 375.833,206.5 375.5,206.5C 372.566,205.711 370.732,203.711 370,200.5C 369.019,203.655 367.685,203.988 366,201.5C 364.059,197.278 361.892,193.278 359.5,189.5C 357.846,185.521 356.179,181.521 354.5,177.5C 355.391,176.41 356.391,176.41 357.5,177.5C 358.362,176.234 359.029,174.901 359.5,173.5C 372.889,168.758 385.555,170.092 397.5,177.5 Z"/></g>
<g><path style="opacity:1" fill="#c8c6c5" d="M 423.5,162.5 C 427.129,162.795 429.129,164.795 429.5,168.5C 426.306,172.719 423.14,177.053 420,181.5C 416.291,184.715 412.458,187.715 408.5,190.5C 407.251,187.91 405.584,185.576 403.5,183.5C 403.5,183.167 403.5,182.833 403.5,182.5C 411.221,176.779 417.888,170.112 423.5,162.5 Z"/></g>
<g><path style="opacity:1" fill="#aa9e98" d="M 359.5,189.5 C 361.892,193.278 364.059,197.278 366,201.5C 367.685,203.988 369.019,203.655 370,200.5C 370.732,203.711 372.566,205.711 375.5,206.5C 372.358,208.58 369.358,210.914 366.5,213.5C 364.528,212.549 362.528,211.549 360.5,210.5C 352.791,203.458 345.791,195.792 339.5,187.5C 340.365,186.417 341.365,186.251 342.5,187C 345.023,191.205 348.356,194.205 352.5,196C 349.219,192.559 346.552,188.726 344.5,184.5C 344.833,184.167 345.167,183.833 345.5,183.5C 349.005,184.498 351.838,186.498 354,189.5C 354.667,188.5 354.667,187.5 354,186.5C 352.445,184.557 351.278,182.39 350.5,180C 350.833,179.5 351.167,179 351.5,178.5C 354.421,182.019 357.087,185.686 359.5,189.5 Z"/></g>
<g><path style="opacity:1" fill="#7b5e4f" d="M 403.5,183.5 C 405.584,185.576 407.251,187.91 408.5,190.5C 408.5,190.833 408.5,191.167 408.5,191.5C 404.212,192.804 399.879,192.804 395.5,191.5C 397.833,188.5 400.5,185.833 403.5,183.5 Z"/></g>
<g><path style="opacity:1" fill="#aeaba9" d="M 65.5,154.5 C 69.6741,163.009 74.6741,171.009 80.5,178.5C 81.8333,180.167 83.1667,181.833 84.5,183.5C 83.9033,183.735 83.5699,184.235 83.5,185C 91.6708,211.324 107.671,230.991 131.5,244C 130.584,244.278 129.918,244.778 129.5,245.5C 93.2072,231.681 65.2072,208.014 45.5,174.5C 46.4345,173.432 46.7678,172.099 46.5,170.5C 48.1033,170.688 49.4366,170.188 50.5,169C 48.7722,169.353 47.1055,169.519 45.5,169.5C 44.3044,169.154 44.3044,168.654 45.5,168C 52.3738,164.561 59.0404,161.061 65.5,157.5C 65.5,156.5 65.5,155.5 65.5,154.5 Z"/></g>
<g><path style="opacity:1" fill="#4d3d31" d="M 264.5,190.5 C 268.57,193.06 272.236,196.227 275.5,200C 278.827,200.61 282.161,201.11 285.5,201.5C 285.5,202.167 285.833,202.5 286.5,202.5C 286.429,208.378 284.762,213.711 281.5,218.5C 280.5,219.167 279.5,219.833 278.5,220.5C 276.9,219.318 276.567,217.985 277.5,216.5C 275.571,211.316 274.071,205.983 273,200.5C 271,198.5 269,196.5 267,194.5C 272.203,207.319 268.203,215.652 255,219.5C 251.295,219.653 247.462,218.32 243.5,215.5C 240.169,211.508 237.336,207.175 235,202.5C 234.768,203.737 234.268,204.737 233.5,205.5C 232.342,201.12 232.342,196.453 233.5,191.5C 233.328,190.508 233.662,189.842 234.5,189.5C 234.917,190.124 235.584,190.457 236.5,190.5C 240.375,189.241 244.209,187.908 248,186.5C 253.587,188.434 259.087,189.767 264.5,190.5 Z"/></g>
<g><path style="opacity:1" fill="#96796b" d="M 306.5,189.5 C 307.363,191.421 308.029,193.421 308.5,195.5C 306.574,196.242 304.741,197.242 303,198.5C 302.667,198.167 302.333,197.833 302,197.5C 301.082,199.632 299.749,200.299 298,199.5C 297.683,201.301 297.016,201.634 296,200.5C 295.683,202.301 295.016,202.634 294,201.5C 293.536,202.094 293.369,202.761 293.5,203.5C 291.194,203.007 288.861,202.674 286.5,202.5C 285.833,202.5 285.5,202.167 285.5,201.5C 286.573,200.749 286.74,199.749 286,198.5C 284.291,195.582 282.458,192.748 280.5,190C 289.16,189.5 297.827,189.334 306.5,189.5 Z"/></g>
<g><path style="opacity:1" fill="#b3978b" d="M 319.5,186.5 C 320.788,189.597 320.288,192.597 318,195.5C 317.632,194.09 316.799,193.09 315.5,192.5C 313.338,194.02 311.005,195.02 308.5,195.5C 308.029,193.421 307.363,191.421 306.5,189.5C 309.833,189.5 313.167,189.5 316.5,189.5C 317.5,189.5 318.5,189.5 319.5,189.5C 319.5,188.5 319.5,187.5 319.5,186.5 Z"/></g>
<g><path style="opacity:1" fill="#988c85" d="M 359.5,173.5 C 359.029,174.901 358.362,176.234 357.5,177.5C 356.391,176.41 355.391,176.41 354.5,177.5C 356.179,181.521 357.846,185.521 359.5,189.5C 357.087,185.686 354.421,182.019 351.5,178.5C 351.167,179 350.833,179.5 350.5,180C 351.278,182.39 352.445,184.557 354,186.5C 354.667,187.5 354.667,188.5 354,189.5C 351.838,186.498 349.005,184.498 345.5,183.5C 345.167,183.833 344.833,184.167 344.5,184.5C 346.552,188.726 349.219,192.559 352.5,196C 348.356,194.205 345.023,191.205 342.5,187C 341.365,186.251 340.365,186.417 339.5,187.5C 345.791,195.792 352.791,203.458 360.5,210.5C 362.528,211.549 364.528,212.549 366.5,213.5C 364.196,215.657 361.529,217.324 358.5,218.5C 351.746,216.59 345.412,213.923 339.5,210.5C 340.552,210.649 341.552,210.483 342.5,210C 339.949,205.729 337.782,201.229 336,196.5C 334.871,194.859 333.371,193.859 331.5,193.5C 331.5,193.167 331.5,192.833 331.5,192.5C 333.697,191.155 336.03,189.989 338.5,189C 337.549,188.282 337.383,187.449 338,186.5C 341.628,183.943 345.128,181.277 348.5,178.5C 351.904,176.254 355.571,174.588 359.5,173.5 Z"/></g>
<g><path style="opacity:1" fill="#1d0d0a" d="M 233.5,191.5 C 232.342,196.453 232.342,201.12 233.5,205.5C 233.217,206.216 232.884,207.049 232.5,208C 233.315,212.37 234.315,216.704 235.5,221C 234.944,221.383 234.611,221.883 234.5,222.5C 226.458,225.604 218.124,227.604 209.5,228.5C 207.143,228.663 204.81,228.497 202.5,228C 201.874,227.25 201.374,226.416 201,225.5C 198.977,215.955 198.144,206.288 198.5,196.5C 199.29,197.609 199.79,198.942 200,200.5C 210.925,197.969 221.592,194.636 232,190.5C 232.383,191.056 232.883,191.389 233.5,191.5 Z"/></g>
<g><path style="opacity:1" fill="#ebeae8" d="M 321.5,189.5 C 324.655,191.076 327.988,192.076 331.5,192.5C 331.5,192.833 331.5,193.167 331.5,193.5C 328.925,197.647 326.591,201.98 324.5,206.5C 324.5,206.833 324.5,207.167 324.5,207.5C 324.44,208.043 324.107,208.376 323.5,208.5C 322.614,207.675 322.281,206.675 322.5,205.5C 322.313,200.155 321.98,194.822 321.5,189.5 Z"/></g>
<g><path style="opacity:1" fill="#9c7d6e" d="M 408.5,191.5 C 409.771,193.109 410.771,194.942 411.5,197C 410.272,198.49 410.272,199.99 411.5,201.5C 408.675,202.274 406.508,203.941 405,206.5C 402.63,211.079 400.297,216.413 398,222.5C 395.382,226.639 391.715,229.306 387,230.5C 385.941,230.37 385.108,229.87 384.5,229C 389.034,221.773 391.701,213.94 392.5,205.5C 388.664,205.126 384.664,205.126 380.5,205.5C 385.514,200.755 390.514,196.089 395.5,191.5C 399.879,192.804 404.212,192.804 408.5,191.5 Z"/></g>
<g><path style="opacity:1" fill="#45352b" d="M 278.5,220.5 C 274.235,224.855 270.569,229.688 267.5,235C 268.447,237.478 268.447,239.812 267.5,242C 269.154,245.197 269.321,248.364 268,251.5C 267.667,250.833 267.333,250.167 267,249.5C 266.5,251.333 265.333,252.5 263.5,253C 263.833,253.333 264.167,253.667 264.5,254C 250.327,254.169 236.327,254.669 222.5,255.5C 220.833,255.5 219.167,255.5 217.5,255.5C 214.167,255.5 210.833,255.5 207.5,255.5C 209.5,254.833 211.5,254.167 213.5,253.5C 214.833,253.5 216.167,253.5 217.5,253.5C 219.379,252.659 221.379,252.325 223.5,252.5C 225.201,252.034 226.701,252.034 228,252.5C 232.362,250.778 236.695,249.111 241,247.5C 242.016,248.634 242.683,248.301 243,246.5C 243.414,246.957 243.914,247.291 244.5,247.5C 246.305,246.528 247.972,245.361 249.5,244C 243.331,237.442 238.331,230.276 234.5,222.5C 234.611,221.883 234.944,221.383 235.5,221C 234.315,216.704 233.315,212.37 232.5,208C 232.884,207.049 233.217,206.216 233.5,205.5C 234.268,204.737 234.768,203.737 235,202.5C 237.336,207.175 240.169,211.508 243.5,215.5C 247.462,218.32 251.295,219.653 255,219.5C 268.203,215.652 272.203,207.319 267,194.5C 269,196.5 271,198.5 273,200.5C 274.071,205.983 275.571,211.316 277.5,216.5C 276.567,217.985 276.9,219.318 278.5,220.5 Z M 248.5,249.5 C 248.082,250.222 247.416,250.722 246.5,251C 247.833,251.667 249.167,251.667 250.5,251C 249.956,250.283 249.289,249.783 248.5,249.5 Z"/></g>
<g><path style="opacity:1" fill="#f7f6f6" d="M 197.5,196.5 C 197.5,197.833 197.5,199.167 197.5,200.5C 194.515,201.326 191.849,202.659 189.5,204.5C 186.066,203.797 183.399,202.131 181.5,199.5C 182.429,198.685 183.429,197.852 184.5,197C 188.821,196.501 193.154,196.334 197.5,196.5 Z"/></g>
<g><path style="opacity:1" fill="#b8b4b1" d="M 331.5,193.5 C 333.371,193.859 334.871,194.859 336,196.5C 337.782,201.229 339.949,205.729 342.5,210C 341.552,210.483 340.552,210.649 339.5,210.5C 334.483,209.16 329.483,207.827 324.5,206.5C 326.591,201.98 328.925,197.647 331.5,193.5 Z"/></g>
<g><path style="opacity:1" fill="#b0998f" d="M 308.5,195.5 C 308.22,198.505 308.554,201.339 309.5,204C 313.688,204.176 317.688,204.676 321.5,205.5C 320.5,205.5 319.5,205.5 318.5,205.5C 315.145,205.091 312.145,205.758 309.5,207.5C 309.489,205.983 308.823,204.816 307.5,204C 302.845,203.501 298.179,203.334 293.5,203.5C 293.369,202.761 293.536,202.094 294,201.5C 295.016,202.634 295.683,202.301 296,200.5C 297.016,201.634 297.683,201.301 298,199.5C 299.749,200.299 301.082,199.632 302,197.5C 302.333,197.833 302.667,198.167 303,198.5C 304.741,197.242 306.574,196.242 308.5,195.5 Z"/></g>
<g><path style="opacity:1" fill="#c7c5c3" d="M 181.5,199.5 C 183.399,202.131 186.066,203.797 189.5,204.5C 191.849,202.659 194.515,201.326 197.5,200.5C 197.5,204.833 197.5,209.167 197.5,213.5C 193.154,213.666 188.821,213.499 184.5,213C 180.097,210.377 178.431,206.543 179.5,201.5C 180.167,200.833 180.833,200.167 181.5,199.5 Z"/></g>
<g><path style="opacity:1" fill="#725646" d="M 286.5,202.5 C 288.861,202.674 291.194,203.007 293.5,203.5C 298.179,203.334 302.845,203.501 307.5,204C 308.823,204.816 309.489,205.983 309.5,207.5C 308.749,212.41 307.416,217.076 305.5,221.5C 304.153,222.171 302.986,222.171 302,221.5C 301.276,223.959 299.943,224.959 298,224.5C 295.511,226.358 293.011,227.358 290.5,227.5C 288.879,225.847 287.712,223.847 287,221.5C 286.667,222.167 286.333,222.833 286,223.5C 285.004,221.34 283.504,219.673 281.5,218.5C 284.762,213.711 286.429,208.378 286.5,202.5 Z"/></g>
<g><path style="opacity:1" fill="#4e3d31" d="M 324.5,207.5 C 324.5,207.167 324.5,206.833 324.5,206.5C 329.483,207.827 334.483,209.16 339.5,210.5C 345.412,213.923 351.746,216.59 358.5,218.5C 361.529,217.324 364.196,215.657 366.5,213.5C 369.358,210.914 372.358,208.58 375.5,206.5C 375.833,206.5 376.167,206.5 376.5,206.5C 377.649,206.791 378.316,207.624 378.5,209C 376.265,216.236 371.598,221.236 364.5,224C 360.179,224.499 355.846,224.666 351.5,224.5C 347.346,224.942 343.346,225.942 339.5,227.5C 339.649,228.552 339.483,229.552 339,230.5C 334.403,233.396 331.57,237.396 330.5,242.5C 329.496,241.317 328.662,239.984 328,238.5C 326.869,239.604 326.035,239.271 325.5,237.5C 325.709,236.914 326.043,236.414 326.5,236C 323.666,230.498 322.5,224.665 323,218.5C 323.333,218.833 323.667,219.167 324,219.5C 324.684,217.641 325.684,215.974 327,214.5C 327.914,215.654 328.747,215.487 329.5,214C 328.672,213.085 327.672,212.419 326.5,212C 328.689,211.323 329.022,210.156 327.5,208.5C 326.675,207.614 325.675,207.281 324.5,207.5 Z"/></g>
<g><path style="opacity:1" fill="#7e6253" d="M 318.5,205.5 C 317.037,210.629 317.203,215.629 319,220.5C 319.333,219.5 319.667,218.5 320,217.5C 320.428,220.322 319.928,222.988 318.5,225.5C 317.312,224.316 316.145,224.316 315,225.5C 312.759,231.054 309.426,235.721 305,239.5C 302.168,238.668 300.335,236.835 299.5,234C 301.903,230.027 303.903,225.86 305.5,221.5C 307.416,217.076 308.749,212.41 309.5,207.5C 312.145,205.758 315.145,205.091 318.5,205.5 Z"/></g>
<g><path style="opacity:1" fill="#6d5344" d="M 411.5,201.5 C 411.251,205.62 411.251,209.62 411.5,213.5C 408.942,220.282 406.109,226.949 403,233.5C 401.027,234.64 399.193,235.973 397.5,237.5C 396.915,239.865 395.748,241.865 394,243.5C 393.667,243.167 393.333,242.833 393,242.5C 392.195,245.219 390.695,246.219 388.5,245.5C 387.668,244.671 388.001,243.838 389.5,243C 387.833,242.167 386.167,241.333 384.5,240.5C 381.786,239.747 379.286,239.747 377,240.5C 375.352,239.283 373.519,238.45 371.5,238C 370.929,236.795 370.262,235.628 369.5,234.5C 368.237,237.254 366.404,236.92 364,233.5C 363.667,233.833 363.333,234.167 363,234.5C 359.632,232.587 356.799,230.087 354.5,227C 353.216,226.316 352.049,226.483 351,227.5C 350.53,226.423 350.697,225.423 351.5,224.5C 355.846,224.666 360.179,224.499 364.5,224C 371.598,221.236 376.265,216.236 378.5,209C 378.316,207.624 377.649,206.791 376.5,206.5C 377.568,205.566 378.901,205.232 380.5,205.5C 384.664,205.126 388.664,205.126 392.5,205.5C 391.701,213.94 389.034,221.773 384.5,229C 385.108,229.87 385.941,230.37 387,230.5C 391.715,229.306 395.382,226.639 398,222.5C 400.297,216.413 402.63,211.079 405,206.5C 406.508,203.941 408.675,202.274 411.5,201.5 Z"/></g>
<g><path style="opacity:1" fill="#b5b3b1" d="M 84.5,183.5 C 107.913,209.876 137.246,225.209 172.5,229.5C 173.209,230.404 174.209,230.737 175.5,230.5C 176.952,231.302 178.618,231.802 180.5,232C 173.35,238.317 166.683,245.15 160.5,252.5C 159.833,252.5 159.167,252.5 158.5,252.5C 154.798,252.579 151.132,252.246 147.5,251.5C 141.349,249.617 135.349,247.617 129.5,245.5C 129.918,244.778 130.584,244.278 131.5,244C 107.671,230.991 91.6708,211.324 83.5,185C 83.5699,184.235 83.9033,183.735 84.5,183.5 Z"/></g>
<g><path style="opacity:1" fill="#7c7875" d="M 234.5,222.5 C 238.331,230.276 243.331,237.442 249.5,244C 247.972,245.361 246.305,246.528 244.5,247.5C 243.914,247.291 243.414,246.957 243,246.5C 242.683,248.301 242.016,248.634 241,247.5C 236.695,249.111 232.362,250.778 228,252.5C 226.701,252.034 225.201,252.034 223.5,252.5C 215.401,246.893 208.735,239.727 203.5,231C 194.173,230.5 184.839,230.334 175.5,230.5C 174.209,230.737 173.209,230.404 172.5,229.5C 185.011,229.829 197.345,229.495 209.5,228.5C 218.124,227.604 226.458,225.604 234.5,222.5 Z"/></g>
<g><path style="opacity:1" fill="#5d473b" d="M 351.5,224.5 C 350.697,225.423 350.53,226.423 351,227.5C 352.049,226.483 353.216,226.316 354.5,227C 356.799,230.087 359.632,232.587 363,234.5C 363.333,234.167 363.667,233.833 364,233.5C 366.404,236.92 368.237,237.254 369.5,234.5C 370.262,235.628 370.929,236.795 371.5,238C 373.519,238.45 375.352,239.283 377,240.5C 379.286,239.747 381.786,239.747 384.5,240.5C 386.167,241.333 387.833,242.167 389.5,243C 388.001,243.838 387.668,244.671 388.5,245.5C 388.459,247.745 387.625,248.412 386,247.5C 385.683,249.301 385.016,249.634 384,248.5C 379.853,250.601 375.686,252.601 371.5,254.5C 362.214,253.693 352.881,253.193 343.5,253C 337.499,251.162 333.165,247.662 330.5,242.5C 331.57,237.396 334.403,233.396 339,230.5C 339.483,229.552 339.649,228.552 339.5,227.5C 343.346,225.942 347.346,224.942 351.5,224.5 Z"/></g>
<g><path style="opacity:1" fill="#5e483c" d="M 281.5,218.5 C 283.504,219.673 285.004,221.34 286,223.5C 286.333,222.833 286.667,222.167 287,221.5C 287.712,223.847 288.879,225.847 290.5,227.5C 293.011,227.358 295.511,226.358 298,224.5C 299.943,224.959 301.276,223.959 302,221.5C 302.986,222.171 304.153,222.171 305.5,221.5C 303.903,225.86 301.903,230.027 299.5,234C 300.335,236.835 302.168,238.668 305,239.5C 309.426,235.721 312.759,231.054 315,225.5C 316.145,224.316 317.312,224.316 318.5,225.5C 309.244,248.544 292.41,257.877 268,253.5C 267.283,254.044 266.783,254.711 266.5,255.5C 266.167,255.5 265.833,255.5 265.5,255.5C 251.167,255.5 236.833,255.5 222.5,255.5C 236.327,254.669 250.327,254.169 264.5,254C 264.167,253.667 263.833,253.333 263.5,253C 265.333,252.5 266.5,251.333 267,249.5C 267.333,250.167 267.667,250.833 268,251.5C 269.321,248.364 269.154,245.197 267.5,242C 268.447,239.812 268.447,237.478 267.5,235C 270.569,229.688 274.235,224.855 278.5,220.5C 279.5,219.833 280.5,219.167 281.5,218.5 Z"/></g>
<g><path style="opacity:1" fill="#c9c8c6" d="M 175.5,230.5 C 184.839,230.334 194.173,230.5 203.5,231C 208.735,239.727 215.401,246.893 223.5,252.5C 221.379,252.325 219.379,252.659 217.5,253.5C 215.901,251.396 214.068,249.396 212,247.5C 210.667,248.167 209.333,248.833 208,249.5C 202.073,245.785 195.906,242.452 189.5,239.5C 188.508,243.783 188.174,248.116 188.5,252.5C 179.024,251.982 169.69,251.982 160.5,252.5C 166.683,245.15 173.35,238.317 180.5,232C 178.618,231.802 176.952,231.302 175.5,230.5 Z"/></g>
<g><path style="opacity:0.984" fill="#e1dfde" d="M 217.5,253.5 C 216.167,253.5 214.833,253.5 213.5,253.5C 196.833,253.5 180.167,253.5 163.5,253.5C 161.585,253.784 159.919,253.451 158.5,252.5C 159.167,252.5 159.833,252.5 160.5,252.5C 169.69,251.982 179.024,251.982 188.5,252.5C 188.174,248.116 188.508,243.783 189.5,239.5C 195.906,242.452 202.073,245.785 208,249.5C 209.333,248.833 210.667,248.167 212,247.5C 214.068,249.396 215.901,251.396 217.5,253.5 Z"/></g>
<g><path style="opacity:1" fill="#906856" d="M 163.5,253.5 C 180.167,253.5 196.833,253.5 213.5,253.5C 211.5,254.167 209.5,254.833 207.5,255.5C 201.167,255.5 194.833,255.5 188.5,255.5C 188.666,259.846 188.499,264.179 188,268.5C 187.667,268.833 187.333,269.167 187,269.5C 184.765,267.798 182.265,266.798 179.5,266.5C 173.637,262.401 167.304,259.067 160.5,256.5C 160.5,256.167 160.5,255.833 160.5,255.5C 163.518,255.665 166.518,255.498 169.5,255C 167.292,254.809 165.292,254.309 163.5,253.5 Z"/></g>
<g><path style="opacity:0.875" fill="#b8aaa5" d="M 160.5,255.5 C 160.5,255.833 160.5,256.167 160.5,256.5C 116.33,256.168 72.3302,256.501 28.5,257.5C 28.1667,257.5 27.8333,257.5 27.5,257.5C 71.4874,255.505 115.821,254.839 160.5,255.5 Z"/></g>
<g><path style="opacity:1" fill="#d3c1ba" d="M 28.5,257.5 C 72.3302,256.501 116.33,256.168 160.5,256.5C 164.969,263.771 168.635,271.438 171.5,279.5C 167.613,279.646 163.946,280.313 160.5,281.5C 139.121,281.811 117.788,281.478 96.5,280.5C 92.5832,276.094 87.9166,272.594 82.5,270C 71.8914,268.763 61.2247,268.097 50.5,268C 42.2067,266.352 34.8734,262.852 28.5,257.5 Z"/></g>
<g><path style="opacity:1" fill="#a17e6f" d="M 207.5,255.5 C 210.833,255.5 214.167,255.5 217.5,255.5C 217.5,255.833 217.5,256.167 217.5,256.5C 217.167,256.5 216.833,256.5 216.5,256.5C 207.262,260.119 198.262,264.285 189.5,269C 187.494,271.434 185.66,271.601 184,269.5C 182.913,271.932 182.413,271.598 182.5,268.5C 180.821,268.715 179.821,268.048 179.5,266.5C 182.265,266.798 184.765,267.798 187,269.5C 187.333,269.167 187.667,268.833 188,268.5C 188.499,264.179 188.666,259.846 188.5,255.5C 194.833,255.5 201.167,255.5 207.5,255.5 Z"/></g>
<g><path style="opacity:1" fill="#d5c4bd" d="M 217.5,255.5 C 219.167,255.5 220.833,255.5 222.5,255.5C 236.833,255.5 251.167,255.5 265.5,255.5C 266.728,257.01 266.728,258.51 265.5,260C 268.167,260.667 268.167,261.333 265.5,262C 268.167,263.333 268.167,264.667 265.5,266C 268.167,266.667 268.167,267.333 265.5,268C 265.833,269 266.167,270 266.5,271C 265.892,271.87 265.059,272.37 264,272.5C 249.574,272.334 235.241,272.001 221,271.5C 216.948,273.942 212.781,274.109 208.5,272C 211.145,266.533 214.145,261.366 217.5,256.5C 217.5,256.167 217.5,255.833 217.5,255.5 Z"/></g>
<g><path style="opacity:1" fill="#ccbab3" d="M 265.5,255.5 C 265.833,255.5 266.167,255.5 266.5,255.5C 266.833,255.5 267.167,255.5 267.5,255.5C 269.502,258.334 272.002,260.667 275,262.5C 279.797,260.52 284.297,258.187 288.5,255.5C 307.833,255.5 327.167,255.5 346.5,255.5C 346.5,255.833 346.5,256.167 346.5,256.5C 327.497,256.333 308.497,256.5 289.5,257C 288.333,258.167 287.167,259.333 286,260.5C 284.486,264.855 282.986,269.188 281.5,273.5C 285.584,273.957 289.417,273.29 293,271.5C 309.988,271.983 327.488,272.15 345.5,272C 345.5,270.667 345.5,269.333 345.5,268C 348.167,267.333 348.167,266.667 345.5,266C 346.833,265.333 346.833,264.667 345.5,264C 348.167,263.333 348.167,262.667 345.5,262C 346.38,260.644 346.714,259.144 346.5,257.5C 350.592,264.017 354.425,270.684 358,277.5C 358.128,274.486 358.128,271.486 358,268.5C 362.041,265.294 365.541,261.627 368.5,257.5C 369.5,257.167 370.167,256.5 370.5,255.5C 393.525,254.844 416.191,255.51 438.5,257.5C 432.544,261.976 425.878,265.143 418.5,267C 407.882,268.208 397.215,268.875 386.5,269C 384.051,269.725 381.717,270.725 379.5,272C 376.113,275.053 372.447,277.72 368.5,280C 341.879,280.345 315.212,280.512 288.5,280.5C 281.463,279.079 274.463,279.245 267.5,281C 250.167,281.667 232.833,281.667 215.5,281C 209.929,280.75 204.596,279.584 199.5,277.5C 199.389,276.883 199.056,276.383 198.5,276C 204.706,269.63 210.706,263.13 216.5,256.5C 216.833,256.5 217.167,256.5 217.5,256.5C 214.145,261.366 211.145,266.533 208.5,272C 212.781,274.109 216.948,273.942 221,271.5C 235.241,272.001 249.574,272.334 264,272.5C 265.059,272.37 265.892,271.87 266.5,271C 266.167,270 265.833,269 265.5,268C 268.167,267.333 268.167,266.667 265.5,266C 268.167,264.667 268.167,263.333 265.5,262C 268.167,261.333 268.167,260.667 265.5,260C 266.728,258.51 266.728,257.01 265.5,255.5 Z"/></g>
<g><path style="opacity:1" fill="#bca095" d="M 346.5,257.5 C 346.5,257.167 346.5,256.833 346.5,256.5C 350.185,258.794 353.685,261.461 357,264.5C 357.483,263.552 357.649,262.552 357.5,261.5C 361.264,260.452 364.931,259.119 368.5,257.5C 365.541,261.627 362.041,265.294 358,268.5C 358.128,271.486 358.128,274.486 358,277.5C 354.425,270.684 350.592,264.017 346.5,257.5 Z"/></g>
<g><path style="opacity:1" fill="#9c7868" d="M 346.5,256.5 C 346.5,256.167 346.5,255.833 346.5,255.5C 354.5,255.5 362.5,255.5 370.5,255.5C 370.167,256.5 369.5,257.167 368.5,257.5C 364.931,259.119 361.264,260.452 357.5,261.5C 357.649,262.552 357.483,263.552 357,264.5C 353.685,261.461 350.185,258.794 346.5,256.5 Z"/></g>
<g><path style="opacity:1" fill="#d7c5be" d="M 346.5,256.5 C 346.5,256.833 346.5,257.167 346.5,257.5C 346.714,259.144 346.38,260.644 345.5,262C 348.167,262.667 348.167,263.333 345.5,264C 346.833,264.667 346.833,265.333 345.5,266C 348.167,266.667 348.167,267.333 345.5,268C 345.5,269.333 345.5,270.667 345.5,272C 327.488,272.15 309.988,271.983 293,271.5C 289.417,273.29 285.584,273.957 281.5,273.5C 282.986,269.188 284.486,264.855 286,260.5C 287.167,259.333 288.333,258.167 289.5,257C 308.497,256.5 327.497,256.333 346.5,256.5 Z"/></g>
<g><path style="opacity:1" fill="#9b7768" d="M 267.5,255.5 C 274.5,255.5 281.5,255.5 288.5,255.5C 284.297,258.187 279.797,260.52 275,262.5C 272.002,260.667 269.502,258.334 267.5,255.5 Z"/></g>
<g><path style="opacity:1" fill="#b39588" d="M 160.5,256.5 C 167.304,259.067 173.637,262.401 179.5,266.5C 179.821,268.048 180.821,268.715 182.5,268.5C 182.413,271.598 182.913,271.932 184,269.5C 185.66,271.601 187.494,271.434 189.5,269C 198.262,264.285 207.262,260.119 216.5,256.5C 210.706,263.13 204.706,269.63 198.5,276C 199.056,276.383 199.389,276.883 199.5,277.5C 195.809,276.238 192.309,274.571 189,272.5C 183.443,275.529 177.609,277.862 171.5,279.5C 168.635,271.438 164.969,263.771 160.5,256.5 Z"/></g>
<g><path style="opacity:1" fill="#744f40" d="M 27.5,257.5 C 27.8333,257.5 28.1667,257.5 28.5,257.5C 34.8734,262.852 42.2067,266.352 50.5,268C 61.2247,268.097 71.8914,268.763 82.5,270C 87.9166,272.594 92.5832,276.094 96.5,280.5C 94.17,281.206 91.67,281.539 89,281.5C 88.0546,281.095 87.3879,280.428 87,279.5C 86.6411,282.544 85.9745,282.878 85,280.5C 81.8939,280.648 78.7272,280.981 75.5,281.5C 74.3044,281.154 74.3044,280.654 75.5,280C 79.2569,277.716 82.9236,275.716 86.5,274C 84.1667,273.667 81.8333,273.333 79.5,273C 69.1289,272.552 58.9622,272.385 49,272.5C 46.9777,273.786 44.8111,274.786 42.5,275.5C 41.7025,275.957 41.3691,276.624 41.5,277.5C 33.371,273.354 28.7043,266.687 27.5,257.5 Z"/></g>
<g><path style="opacity:1" fill="#795444" d="M 438.5,257.5 C 437.614,266.356 433.28,272.69 425.5,276.5C 422.112,274.825 418.445,273.658 414.5,273C 404.448,272.135 394.448,272.469 384.5,274C 387.28,275.812 389.78,277.979 392,280.5C 392.667,282.167 392.667,283.833 392,285.5C 390.796,284.529 390.296,283.529 390.5,282.5C 387.727,283.08 384.893,283.413 382,283.5C 377.267,282.387 372.434,281.72 367.5,281.5C 363.243,282.379 359.076,282.712 355,282.5C 332.736,281.838 310.569,281.172 288.5,280.5C 315.212,280.512 341.879,280.345 368.5,280C 372.447,277.72 376.113,275.053 379.5,272C 381.717,270.725 384.051,269.725 386.5,269C 397.215,268.875 407.882,268.208 418.5,267C 425.878,265.143 432.544,261.976 438.5,257.5 Z"/></g>
<g><path style="opacity:1" fill="#623f32" d="M 96.5,280.5 C 117.788,281.478 139.121,281.811 160.5,281.5C 139.671,282.332 118.671,282.832 97.5,283C 95.2739,284.227 93.7739,286.061 93,288.5C 92.6667,287.833 92.3333,287.167 92,286.5C 91.3013,288.074 91.6346,289.407 93,290.5C 186.43,289.668 279.93,289.168 373.5,289C 370.456,288.641 370.122,287.974 372.5,287C 370.261,285.69 368.594,283.857 367.5,281.5C 372.434,281.72 377.267,282.387 382,283.5C 384.893,283.413 387.727,283.08 390.5,282.5C 390.296,283.529 390.796,284.529 392,285.5C 392.667,283.833 392.667,282.167 392,280.5C 389.78,277.979 387.28,275.812 384.5,274C 394.448,272.469 404.448,272.135 414.5,273C 418.445,273.658 422.112,274.825 425.5,276.5C 425.53,277.497 425.03,278.164 424,278.5C 421.226,279.536 418.393,280.369 415.5,281C 408.174,281.5 400.841,281.666 393.5,281.5C 392.803,287.555 390.97,293.221 388,298.5C 383.067,303.048 377.234,305.548 370.5,306C 278.833,306.667 187.167,306.667 95.5,306C 81.1016,304.103 73.4349,295.936 72.5,281.5C 65.1591,281.666 57.8258,281.5 50.5,281C 47.135,280.495 44.135,279.328 41.5,277.5C 41.3691,276.624 41.7025,275.957 42.5,275.5C 44.8111,274.786 46.9777,273.786 49,272.5C 58.9622,272.385 69.1289,272.552 79.5,273C 81.8333,273.333 84.1667,273.667 86.5,274C 82.9236,275.716 79.2569,277.716 75.5,280C 74.3044,280.654 74.3044,281.154 75.5,281.5C 78.7272,280.981 81.8939,280.648 85,280.5C 85.9745,282.878 86.6411,282.544 87,279.5C 87.3879,280.428 88.0546,281.095 89,281.5C 91.67,281.539 94.17,281.206 96.5,280.5 Z"/></g>
<g><path style="opacity:1" fill="#53362b" d="M 199.5,277.5 C 204.596,279.584 209.929,280.75 215.5,281C 232.833,281.667 250.167,281.667 267.5,281C 274.463,279.245 281.463,279.079 288.5,280.5C 310.569,281.172 332.736,281.838 355,282.5C 359.076,282.712 363.243,282.379 367.5,281.5C 368.594,283.857 370.261,285.69 372.5,287C 370.122,287.974 370.456,288.641 373.5,289C 279.93,289.168 186.43,289.668 93,290.5C 91.6346,289.407 91.3013,288.074 92,286.5C 92.3333,287.167 92.6667,287.833 93,288.5C 93.7739,286.061 95.2739,284.227 97.5,283C 118.671,282.832 139.671,282.332 160.5,281.5C 163.946,280.313 167.613,279.646 171.5,279.5C 177.609,277.862 183.443,275.529 189,272.5C 192.309,274.571 195.809,276.238 199.5,277.5 Z"/></g>
</svg>
