<?xml version="1.0" encoding="UTF-8"?>
<!DOCTYPE svg PUBLIC "-//W3C//DTD SVG 1.1//EN" "http://www.w3.org/Graphics/SVG/1.1/DTD/svg11.dtd">
<svg xmlns="http://www.w3.org/2000/svg" version="1.1" width="462px" height="329px" style="shape-rendering:geometricPrecision; text-rendering:geometricPrecision; image-rendering:optimizeQuality; fill-rule:evenodd; clip-rule:evenodd" xmlns:xlink="http://www.w3.org/1999/xlink">
<g><path style="opacity:0.557" fill="#012d66" d="M 156.5,7.5 C 203.667,7.5691 250.834,7.5691 298,7.5C 321.907,7.79855 345.074,11.9652 367.5,20C 376.459,25.4299 385.793,30.0966 395.5,34C 400.167,37.3333 404.833,40.6667 409.5,44C 415.333,51.1667 421.833,57.6667 429,63.5C 438.569,76.3083 444.569,90.6416 447,106.5C 447.655,143.834 447.655,181.167 447,218.5C 445.895,230.371 442.229,241.371 436,251.5C 425.194,266.306 412.361,279.139 397.5,290C 387.261,294.584 377.261,299.584 367.5,305C 345.313,313.336 322.313,317.503 298.5,317.5C 250.496,317.576 202.496,317.409 154.5,317C 133.32,316.359 112.987,312.026 93.5,304C 83.5954,297.881 73.2621,292.547 62.5,288C 59.8333,286 57.1667,284 54.5,282C 48.3062,274.473 41.4729,267.64 34,261.5C 28.5031,253.999 23.8364,245.999 20,237.5C 17.8656,232.518 16.3656,227.685 15.5,223C 15.3875,184.276 15.5541,145.443 16,106.5C 16.9987,96.173 19.9987,86.5063 25,77.5C 29.4353,69.2717 35.2686,62.2717 42.5,56.5C 49.7116,47.7901 58.045,40.2901 67.5,34C 76.28,31.61 84.28,27.61 91.5,22C 101.555,17.806 111.888,14.4727 122.5,12C 133.952,10.2928 145.285,8.7928 156.5,7.5 Z"/></g>
<g><path style="opacity:1" fill="#586b88" d="M 172.5,17.5 C 172.5,20.5 172.5,23.5 172.5,26.5C 172.167,26.5 171.833,26.5 171.5,26.5C 171.5,23.5 171.5,20.5 171.5,17.5C 160.819,17.4704 150.152,17.8037 139.5,18.5C 149.952,16.5741 160.618,15.7408 171.5,16C 172.056,16.3826 172.389,16.8826 172.5,17.5 Z"/></g>
<g><path style="opacity:1" fill="#807d81" d="M 174.5,17.5 C 180.37,16.2338 186.37,16.2338 192.5,17.5C 186.724,17.6632 180.724,17.6632 174.5,17.5 Z"/></g>
<g><path style="opacity:1" fill="#9a5a64" d="M 268.5,16.5 C 267.508,16.3284 266.842,16.6618 266.5,17.5C 247.83,17.3334 229.164,17.5001 210.5,18C 205.055,18.8498 199.722,20.0165 194.5,21.5C 194.5,19.8333 194.5,18.1667 194.5,16.5C 219.167,15.1667 243.833,15.1667 268.5,16.5 Z"/></g>
<g><path style="opacity:1" fill="#5c6372" d="M 290.5,16.5 C 295.269,15.7012 300.102,15.3678 305,15.5C 308.27,16.132 311.437,16.7986 314.5,17.5C 313.833,17.5 313.167,17.5 312.5,17.5C 308.167,17.5 303.833,17.5 299.5,17.5C 296.713,16.5233 293.713,16.19 290.5,16.5 Z"/></g>
<g><path style="opacity:1" fill="#2d578b" d="M 171.5,26.5 C 153.072,30.9204 135.406,37.4204 118.5,46C 119.381,46.7083 120.047,47.5416 120.5,48.5C 112.022,43.0907 103.689,37.424 95.5,31.5C 95.5774,30.2502 96.244,29.4169 97.5,29C 105.576,25.5853 113.909,23.0853 122.5,21.5C 125.495,21.7062 128.162,21.0395 130.5,19.5C 133.455,18.8413 136.455,18.5079 139.5,18.5C 150.152,17.8037 160.819,17.4704 171.5,17.5C 171.5,20.5 171.5,23.5 171.5,26.5 Z"/></g>
<g><path style="opacity:1" fill="#92142c" d="M 266.5,17.5 C 267.167,57.1667 267.833,96.8333 268.5,136.5C 308.167,136.5 347.833,136.5 387.5,136.5C 386.748,155.125 386.748,172.458 387.5,188.5C 347.663,188.168 307.996,188.501 268.5,189.5C 267.502,223.663 267.168,257.996 267.5,292.5C 260.537,294.124 253.704,295.124 247,295.5C 242.579,294.552 237.579,294.885 232,296.5C 229.667,296.167 227.333,295.833 225,295.5C 215.645,297.04 206.478,298.04 197.5,298.5C 196.883,298.389 196.383,298.056 196,297.5C 195.833,260.998 195.333,224.664 194.5,188.5C 148.5,188.5 102.5,188.5 56.5,188.5C 56.563,170.061 56.8964,152.727 57.5,136.5C 103.167,136.5 148.833,136.5 194.5,136.5C 194.5,98.1667 194.5,59.8333 194.5,21.5C 199.722,20.0165 205.055,18.8498 210.5,18C 229.164,17.5001 247.83,17.3334 266.5,17.5 Z"/></g>
<g><path style="opacity:1" fill="#07346f" d="M 299.5,17.5 C 303.833,17.5 308.167,17.5 312.5,17.5C 312.611,18.1174 312.944,18.6174 313.5,19C 315.769,19.7581 317.936,19.5914 320,18.5C 320.956,19.8941 322.289,20.5607 324,20.5C 326.137,19.9233 328.304,19.59 330.5,19.5C 333.258,20.7605 336.258,21.5939 339.5,22C 338.366,23.016 338.699,23.6827 340.5,24C 349.602,25.1993 357.936,28.0326 365.5,32.5C 358.485,38.0045 351.151,43.0045 343.5,47.5C 328.148,35.4937 310.814,27.1604 291.5,22.5C 291.5,20.8333 291.5,19.1667 291.5,17.5C 294.167,17.5 296.833,17.5 299.5,17.5 Z"/></g>
<g><path style="opacity:1" fill="#d2d2d2" d="M 172.5,17.5 C 173.167,17.5 173.833,17.5 174.5,17.5C 180.724,17.6632 186.724,17.6632 192.5,17.5C 192.833,17.5 193.167,17.5 193.5,17.5C 193.5,56.8333 193.5,96.1667 193.5,135.5C 146.997,135.168 100.664,135.501 54.5,136.5C 47.8333,136.5 41.1667,136.5 34.5,136.5C 31.1667,136.5 27.8333,136.5 24.5,136.5C 24.5,131.167 24.5,125.833 24.5,120.5C 24.8333,120.5 25.1667,120.5 25.5,120.5C 28.8333,120.5 32.1667,120.5 35.5,120.5C 42.8333,120.5 50.1667,120.5 57.5,120.5C 78.8359,120.667 100.169,120.5 121.5,120C 104.678,108.67 88.0111,97.1697 71.5,85.5C 63.3769,79.5989 55.0436,73.9322 46.5,68.5C 45.8902,67.609 45.5569,66.609 45.5,65.5C 49.5271,61.1384 53.8605,57.1384 58.5,53.5C 66.4624,59.1543 74.4624,64.821 82.5,70.5C 105.954,86.7806 129.287,103.281 152.5,120C 159.158,120.5 165.825,120.666 172.5,120.5C 172.8,115.901 172.467,111.401 171.5,107C 147.804,90.4902 124.138,73.9902 100.5,57.5C 92.4457,51.4496 84.1123,45.7829 75.5,40.5C 82.0757,37.5502 88.7424,34.5502 95.5,31.5C 103.689,37.424 112.022,43.0907 120.5,48.5C 136.864,60.8555 153.531,72.8555 170.5,84.5C 170.56,85.0431 170.893,85.3764 171.5,85.5C 172.5,65.8446 172.833,46.178 172.5,26.5C 172.5,23.5 172.5,20.5 172.5,17.5 Z"/></g>
<g><path style="opacity:1" fill="#d2d2d2" d="M 273.5,17.5 C 273.833,17.5 274.167,17.5 274.5,17.5C 279.884,18.6278 285.217,19.9612 290.5,21.5C 290.167,42.8437 290.5,64.1771 291.5,85.5C 292.107,85.3764 292.44,85.0431 292.5,84.5C 309.5,72.5 326.5,60.5 343.5,48.5C 344.873,48.3433 346.207,48.51 347.5,49C 350.5,51.3333 353.5,53.6667 356.5,56C 357.823,56.8159 358.489,57.9826 358.5,59.5C 336.18,75.6369 313.68,91.6369 291,107.5C 290.501,111.821 290.334,116.154 290.5,120.5C 297.947,120.929 305.281,120.429 312.5,119C 332.354,104.578 352.354,90.4113 372.5,76.5C 373.496,76.4142 374.329,76.7476 375,77.5C 377.767,82.0346 380.267,86.7013 382.5,91.5C 368.533,100.81 354.866,110.477 341.5,120.5C 356.324,121.496 371.324,121.829 386.5,121.5C 386.5,126.167 386.5,130.833 386.5,135.5C 347.5,135.5 308.5,135.5 269.5,135.5C 269.5,96.5 269.5,57.5 269.5,18.5C 271.099,18.7678 272.432,18.4345 273.5,17.5 Z"/></g>
<g><path style="opacity:1" fill="#a6a5aa" d="M 274.5,17.5 C 279.64,16.5119 284.974,16.1786 290.5,16.5C 290.5,18.1667 290.5,19.8333 290.5,21.5C 285.217,19.9612 279.884,18.6278 274.5,17.5 Z"/></g>
<g><path style="opacity:1" fill="#2e3e62" d="M 312.5,17.5 C 313.167,17.5 313.833,17.5 314.5,17.5C 320.051,17.527 325.384,18.1937 330.5,19.5C 328.304,19.59 326.137,19.9233 324,20.5C 322.289,20.5607 320.956,19.8941 320,18.5C 317.936,19.5914 315.769,19.7581 313.5,19C 312.944,18.6174 312.611,18.1174 312.5,17.5 Z"/></g>
<g><path style="opacity:1" fill="#98283d" d="M 266.5,17.5 C 266.842,16.6618 267.508,16.3284 268.5,16.5C 268.5,56.5 268.5,96.5 268.5,136.5C 267.833,96.8333 267.167,57.1667 266.5,17.5 Z"/></g>
<g><path style="opacity:1" fill="#c7a3aa" d="M 268.5,16.5 C 270.042,17.3007 271.708,17.634 273.5,17.5C 272.432,18.4345 271.099,18.7678 269.5,18.5C 269.5,57.5 269.5,96.5 269.5,135.5C 308.5,135.5 347.5,135.5 386.5,135.5C 403.167,135.5 419.833,135.5 436.5,135.5C 436.5,135.833 436.5,136.167 436.5,136.5C 420.167,136.5 403.833,136.5 387.5,136.5C 347.833,136.5 308.167,136.5 268.5,136.5C 268.5,96.5 268.5,56.5 268.5,16.5 Z"/></g>
<g><path style="opacity:1" fill="#7d8390" d="M 130.5,19.5 C 128.162,21.0395 125.495,21.7062 122.5,21.5C 124.905,20.2318 127.572,19.5651 130.5,19.5 Z"/></g>
<g><path style="opacity:1" fill="#334264" d="M 330.5,19.5 C 341.766,21.2334 352.766,24.0667 363.5,28C 365.584,28.6972 367.251,29.8639 368.5,31.5C 367.508,31.3284 366.842,31.6618 366.5,32.5C 366.167,32.5 365.833,32.5 365.5,32.5C 357.936,28.0326 349.602,25.1993 340.5,24C 338.699,23.6827 338.366,23.016 339.5,22C 336.258,21.5939 333.258,20.7605 330.5,19.5 Z"/></g>
<g><path style="opacity:1" fill="#466b97" d="M 290.5,16.5 C 293.713,16.19 296.713,16.5233 299.5,17.5C 296.833,17.5 294.167,17.5 291.5,17.5C 291.5,19.1667 291.5,20.8333 291.5,22.5C 291.169,43.3401 291.503,64.0067 292.5,84.5C 292.44,85.0431 292.107,85.3764 291.5,85.5C 290.5,64.1771 290.167,42.8437 290.5,21.5C 290.5,19.8333 290.5,18.1667 290.5,16.5 Z"/></g>
<g><path style="opacity:1" fill="#093c7d" d="M 291.5,22.5 C 310.814,27.1604 328.148,35.4937 343.5,47.5C 343.5,47.8333 343.5,48.1667 343.5,48.5C 326.5,60.5 309.5,72.5 292.5,84.5C 291.503,64.0067 291.169,43.3401 291.5,22.5 Z"/></g>
<g><path style="opacity:1" fill="#0a3d7d" d="M 171.5,26.5 C 171.83,46.0072 171.497,65.3405 170.5,84.5C 153.531,72.8555 136.864,60.8555 120.5,48.5C 120.047,47.5416 119.381,46.7083 118.5,46C 135.406,37.4204 153.072,30.9204 171.5,26.5 Z"/></g>
<g><path style="opacity:1" fill="#3b618f" d="M 171.5,26.5 C 171.833,26.5 172.167,26.5 172.5,26.5C 172.833,46.178 172.5,65.8446 171.5,85.5C 170.893,85.3764 170.56,85.0431 170.5,84.5C 171.497,65.3405 171.83,46.0072 171.5,26.5 Z"/></g>
<g><path style="opacity:1" fill="#b8b6b7" d="M 365.5,32.5 C 365.833,32.5 366.167,32.5 366.5,32.5C 372.965,34.7539 378.965,37.7539 384.5,41.5C 376.143,47.532 367.81,53.532 359.5,59.5C 359.167,59.5 358.833,59.5 358.5,59.5C 358.489,57.9826 357.823,56.8159 356.5,56C 353.5,53.6667 350.5,51.3333 347.5,49C 346.207,48.51 344.873,48.3433 343.5,48.5C 343.5,48.1667 343.5,47.8333 343.5,47.5C 351.151,43.0045 358.485,38.0045 365.5,32.5 Z"/></g>
<g><path style="opacity:1" fill="#727075" d="M 366.5,32.5 C 366.842,31.6618 367.508,31.3284 368.5,31.5C 375.014,34.3266 381.347,37.3266 387.5,40.5C 387.167,40.5 386.833,40.5 386.5,40.5C 385.833,40.8333 385.167,41.1667 384.5,41.5C 378.965,37.7539 372.965,34.7539 366.5,32.5 Z"/></g>
<g><path style="opacity:1" fill="#9e3e50" d="M 75.5,40.5 C 84.1123,45.7829 92.4457,51.4496 100.5,57.5C 93.0179,59.8962 87.0179,64.2295 82.5,70.5C 74.4624,64.821 66.4624,59.1543 58.5,53.5C 59.6138,52.1147 60.6138,50.6147 61.5,49C 65.8097,45.5121 70.4764,42.6788 75.5,40.5 Z"/></g>
<g><path style="opacity:1" fill="#6a3239" d="M 386.5,40.5 C 386.833,40.5 387.167,40.5 387.5,40.5C 392.343,42.4176 396.677,45.0843 400.5,48.5C 398.801,48.6602 397.134,48.4935 395.5,48C 392.359,45.4631 389.359,42.9631 386.5,40.5 Z"/></g>
<g><path style="opacity:1" fill="#821628" d="M 386.5,40.5 C 389.359,42.9631 392.359,45.4631 395.5,48C 397.134,48.4935 398.801,48.6602 400.5,48.5C 401.833,49.5 403.167,50.5 404.5,51.5C 404.5,52.5 404.5,53.5 404.5,54.5C 393.805,61.5104 383.138,68.5104 372.5,75.5C 369.123,69.4245 364.789,64.0912 359.5,59.5C 367.81,53.532 376.143,47.532 384.5,41.5C 385.167,41.1667 385.833,40.8333 386.5,40.5 Z"/></g>
<g><path style="opacity:1" fill="#b8b5b7" d="M 404.5,54.5 C 408.783,58.4548 412.783,62.7881 416.5,67.5C 405.5,75.5 394.5,83.5 383.5,91.5C 383.167,91.5 382.833,91.5 382.5,91.5C 380.267,86.7013 377.767,82.0346 375,77.5C 374.329,76.7476 373.496,76.4142 372.5,76.5C 372.5,76.1667 372.5,75.8333 372.5,75.5C 383.138,68.5104 393.805,61.5104 404.5,54.5 Z"/></g>
<g><path style="opacity:1" fill="#727176" d="M 404.5,51.5 C 409.167,56.5 413.833,61.5 418.5,66.5C 417.833,66.5 417.5,66.8333 417.5,67.5C 417.167,67.5 416.833,67.5 416.5,67.5C 412.783,62.7881 408.783,58.4548 404.5,54.5C 404.5,53.5 404.5,52.5 404.5,51.5 Z"/></g>
<g><path style="opacity:1" fill="#93182e" d="M 100.5,57.5 C 124.138,73.9902 147.804,90.4902 171.5,107C 172.467,111.401 172.8,115.901 172.5,120.5C 165.825,120.666 159.158,120.5 152.5,120C 129.287,103.281 105.954,86.7806 82.5,70.5C 87.0179,64.2295 93.0179,59.8962 100.5,57.5 Z"/></g>
<g><path style="opacity:1" fill="#93182e" d="M 358.5,59.5 C 358.833,59.5 359.167,59.5 359.5,59.5C 364.789,64.0912 369.123,69.4245 372.5,75.5C 372.5,75.8333 372.5,76.1667 372.5,76.5C 352.354,90.4113 332.354,104.578 312.5,119C 305.281,120.429 297.947,120.929 290.5,120.5C 290.334,116.154 290.501,111.821 291,107.5C 313.68,91.6369 336.18,75.6369 358.5,59.5 Z"/></g>
<g><path style="opacity:1" fill="#07346f" d="M 416.5,67.5 C 416.833,67.5 417.167,67.5 417.5,67.5C 420.585,71.9923 423.918,76.3256 427.5,80.5C 428.396,83.1436 429.229,85.8103 430,88.5C 430.498,90.5444 431.665,91.8777 433.5,92.5C 434.441,94.0495 435.107,95.7162 435.5,97.5C 433.678,98.281 433.011,99.4477 433.5,101C 434.688,103.087 435.688,104.587 436.5,105.5C 437.963,110.461 438.63,115.461 438.5,120.5C 420.833,120.5 403.167,120.5 385.5,120.5C 386.425,115.077 386.758,109.744 386.5,104.5C 385.461,100.548 384.127,96.7151 382.5,93C 383.056,92.6174 383.389,92.1174 383.5,91.5C 394.5,83.5 405.5,75.5 416.5,67.5 Z"/></g>
<g><path style="opacity:1" fill="#2c578c" d="M 46.5,68.5 C 55.0436,73.9322 63.3769,79.5989 71.5,85.5C 69.629,85.8588 68.129,86.8588 67,88.5C 64.4097,93.3489 62.0764,98.3489 60,103.5C 57.9843,108.988 57.151,114.655 57.5,120.5C 50.1667,120.5 42.8333,120.5 35.5,120.5C 34.7888,112.741 35.6222,105.075 38,97.5C 39.8763,92.4617 41.8763,87.4617 44,82.5C 45.1475,83.4581 46.1475,83.1247 47,81.5C 48.0395,79.2537 49.2062,77.087 50.5,75C 48.4565,73.292 46.7899,71.292 45.5,69C 45.7284,68.6012 46.0618,68.4346 46.5,68.5 Z"/></g>
<g><path style="opacity:1" fill="#263b61" d="M 418.5,66.5 C 425.525,73.212 430.525,81.212 433.5,90.5C 433.5,91.1667 433.5,91.8333 433.5,92.5C 431.665,91.8777 430.498,90.5444 430,88.5C 429.229,85.8103 428.396,83.1436 427.5,80.5C 423.918,76.3256 420.585,71.9923 417.5,67.5C 417.5,66.8333 417.833,66.5 418.5,66.5 Z"/></g>
<g><path style="opacity:1" fill="#4b6e99" d="M 45.5,65.5 C 45.5569,66.609 45.8902,67.609 46.5,68.5C 46.0618,68.4346 45.7284,68.6012 45.5,69C 46.7899,71.292 48.4565,73.292 50.5,75C 49.2062,77.087 48.0395,79.2537 47,81.5C 46.1475,83.1247 45.1475,83.4581 44,82.5C 41.8763,87.4617 39.8763,92.4617 38,97.5C 35.6222,105.075 34.7888,112.741 35.5,120.5C 32.1667,120.5 28.8333,120.5 25.5,120.5C 25.3341,115.489 25.5007,110.489 26,105.5C 27.3351,100.496 28.5017,95.4958 29.5,90.5C 32.5768,80.6695 37.9102,72.3361 45.5,65.5 Z"/></g>
<g><path style="opacity:1" fill="#093c7d" d="M 71.5,85.5 C 88.0111,97.1697 104.678,108.67 121.5,120C 100.169,120.5 78.8359,120.667 57.5,120.5C 57.151,114.655 57.9843,108.988 60,103.5C 62.0764,98.3489 64.4097,93.3489 67,88.5C 68.129,86.8588 69.629,85.8588 71.5,85.5 Z"/></g>
<g><path style="opacity:1" fill="#0c3d7d" d="M 382.5,91.5 C 382.833,91.5 383.167,91.5 383.5,91.5C 383.389,92.1174 383.056,92.6174 382.5,93C 384.127,96.7151 385.461,100.548 386.5,104.5C 386.758,109.744 386.425,115.077 385.5,120.5C 370.833,120.5 356.167,120.5 341.5,120.5C 354.866,110.477 368.533,100.81 382.5,91.5 Z"/></g>
<g><path style="opacity:1" fill="#686970" d="M 433.5,90.5 C 435.736,92.5742 436.403,94.9075 435.5,97.5C 435.107,95.7162 434.441,94.0495 433.5,92.5C 433.5,91.8333 433.5,91.1667 433.5,90.5 Z"/></g>
<g><path style="opacity:1" fill="#a0aab8" d="M 29.5,90.5 C 28.5017,95.4958 27.3351,100.496 26,105.5C 25.5007,110.489 25.3341,115.489 25.5,120.5C 25.1667,120.5 24.8333,120.5 24.5,120.5C 23.3349,116.327 23.3349,111.993 24.5,107.5C 24.7955,101.313 26.4622,95.6463 29.5,90.5 Z"/></g>
<g><path style="opacity:1" fill="#616570" d="M 438.5,120.5 C 438.63,115.461 437.963,110.461 436.5,105.5C 436.34,103.801 436.506,102.134 437,100.5C 439.177,107.221 439.677,113.888 438.5,120.5 Z"/></g>
<g><path style="opacity:1" fill="#8592a5" d="M 341.5,120.5 C 356.167,120.5 370.833,120.5 385.5,120.5C 403.167,120.5 420.833,120.5 438.5,120.5C 438.5,125.833 438.5,131.167 438.5,136.5C 437.833,136.5 437.167,136.5 436.5,136.5C 436.5,136.167 436.5,135.833 436.5,135.5C 437.019,131.276 437.352,126.609 437.5,121.5C 420.5,121.5 403.5,121.5 386.5,121.5C 371.324,121.829 356.324,121.496 341.5,120.5 Z"/></g>
<g><path style="opacity:1" fill="#bab7b8" d="M 386.5,121.5 C 403.5,121.5 420.5,121.5 437.5,121.5C 437.352,126.609 437.019,131.276 436.5,135.5C 419.833,135.5 403.167,135.5 386.5,135.5C 386.5,130.833 386.5,126.167 386.5,121.5 Z"/></g>
<g><path style="opacity:1" fill="#ccadb3" d="M 194.5,16.5 C 194.5,18.1667 194.5,19.8333 194.5,21.5C 194.5,59.8333 194.5,98.1667 194.5,136.5C 148.833,136.5 103.167,136.5 57.5,136.5C 56.5,136.5 55.5,136.5 54.5,136.5C 100.664,135.501 146.997,135.168 193.5,135.5C 193.5,96.1667 193.5,56.8333 193.5,17.5C 193.5,16.8333 193.833,16.5 194.5,16.5 Z"/></g>
<g><path style="opacity:1" fill="#b26c78" d="M 24.5,136.5 C 27.8333,136.5 31.1667,136.5 34.5,136.5C 33.2071,153.785 33.2071,171.118 34.5,188.5C 32.5,188.5 30.5,188.5 28.5,188.5C 27.1667,188.5 25.8333,188.5 24.5,188.5C 23.1667,171.167 23.1667,153.833 24.5,136.5 Z"/></g>
<g><path style="opacity:1" fill="#811226" d="M 387.5,136.5 C 403.833,136.5 420.167,136.5 436.5,136.5C 437.167,136.5 437.833,136.5 438.5,136.5C 438.5,153.833 438.5,171.167 438.5,188.5C 438.167,188.5 437.833,188.5 437.5,188.5C 420.833,188.5 404.167,188.5 387.5,188.5C 386.748,172.458 386.748,155.125 387.5,136.5 Z"/></g>
<g><path style="opacity:1" fill="#9d3c4d" d="M 34.5,136.5 C 41.1667,136.5 47.8333,136.5 54.5,136.5C 55.5,136.5 56.5,136.5 57.5,136.5C 56.8964,152.727 56.563,170.061 56.5,188.5C 49.1667,188.5 41.8333,188.5 34.5,188.5C 33.2071,171.118 33.2071,153.785 34.5,136.5 Z"/></g>
<g><path style="opacity:1" fill="#d2d2d2" d="M 24.5,188.5 C 25.8333,188.5 27.1667,188.5 28.5,188.5C 83.3308,189.499 138.331,189.832 193.5,189.5C 193.5,225.833 193.5,262.167 193.5,298.5C 186.794,298.772 179.794,299.105 172.5,299.5C 172.833,279.489 172.5,259.489 171.5,239.5C 170.893,239.624 170.56,239.957 170.5,240.5C 148.888,255.446 127.554,270.779 106.5,286.5C 102.974,289.094 99.3077,291.427 95.5,293.5C 88.7852,290.473 82.1185,287.473 75.5,284.5C 77.153,284.34 78.4863,283.674 79.5,282.5C 82.4735,280.853 85.1401,278.853 87.5,276.5C 115.871,257.222 144.037,237.556 172,217.5C 172.499,213.179 172.666,208.846 172.5,204.5C 165.053,204.071 157.719,204.571 150.5,206C 123.009,225.331 95.676,244.831 68.5,264.5C 66.0361,266.57 63.3695,268.404 60.5,270C 59.1772,270.816 58.5106,271.983 58.5,273.5C 54.5395,267.973 49.8728,262.973 44.5,258.5C 47.4735,256.853 50.1401,254.853 52.5,252.5C 56.4054,250.39 60.072,248.057 63.5,245.5C 82.6772,231.831 102.01,218.331 121.5,205C 100.169,204.5 78.8359,204.333 57.5,204.5C 50.1667,204.5 42.8333,204.5 35.5,204.5C 32.1667,204.5 28.8333,204.5 25.5,204.5C 25.1667,204.5 24.8333,204.5 24.5,204.5C 24.5,199.167 24.5,193.833 24.5,188.5 Z"/></g>
<g><path style="opacity:1" fill="#c89fa7" d="M 28.5,188.5 C 30.5,188.5 32.5,188.5 34.5,188.5C 41.8333,188.5 49.1667,188.5 56.5,188.5C 102.5,188.5 148.5,188.5 194.5,188.5C 194.5,227.167 194.5,265.833 194.5,304.5C 194.5,305.5 194.5,306.5 194.5,307.5C 193.523,304.713 193.19,301.713 193.5,298.5C 193.5,262.167 193.5,225.833 193.5,189.5C 138.331,189.832 83.3308,189.499 28.5,188.5 Z"/></g>
<g><path style="opacity:1" fill="#c498a1" d="M 387.5,188.5 C 404.167,188.5 420.833,188.5 437.5,188.5C 437.5,188.833 437.5,189.167 437.5,189.5C 420.833,189.5 404.167,189.5 387.5,189.5C 348.167,189.5 308.833,189.5 269.5,189.5C 269.5,223.833 269.5,258.167 269.5,292.5C 269.5,297.833 269.5,303.167 269.5,308.5C 269.167,308.5 268.833,308.5 268.5,308.5C 268.5,308.167 268.5,307.833 268.5,307.5C 268.5,268.167 268.5,228.833 268.5,189.5C 307.996,188.501 347.663,188.168 387.5,188.5 Z"/></g>
<g><path style="opacity:1" fill="#d2d2d2" d="M 387.5,189.5 C 387.071,194.048 387.071,198.714 387.5,203.5C 387.5,203.833 387.5,204.167 387.5,204.5C 372.163,204.333 356.83,204.5 341.5,205C 355.014,214.363 368.347,223.863 381.5,233.5C 379.145,238.88 375.812,243.546 371.5,247.5C 371.167,247.5 370.833,247.5 370.5,247.5C 350.657,233.164 330.657,218.997 310.5,205C 303.842,204.5 297.175,204.334 290.5,204.5C 290.2,209.099 290.533,213.599 291.5,218C 312.046,232.72 332.713,247.22 353.5,261.5C 353.586,262.496 353.252,263.329 352.5,264C 347.675,267.677 342.341,270.177 336.5,271.5C 321.833,261.167 307.167,250.833 292.5,240.5C 292.44,239.957 292.107,239.624 291.5,239.5C 290.501,255.82 290.167,272.153 290.5,288.5C 283.468,289.84 276.468,291.173 269.5,292.5C 269.5,258.167 269.5,223.833 269.5,189.5C 308.833,189.5 348.167,189.5 387.5,189.5 Z"/></g>
<g><path style="opacity:1" fill="#b9b8b8" d="M 387.5,189.5 C 404.167,189.5 420.833,189.5 437.5,189.5C 437.242,194.22 437.242,198.72 437.5,203C 420.837,203.5 404.17,203.667 387.5,203.5C 387.071,198.714 387.071,194.048 387.5,189.5 Z"/></g>
<g><path style="opacity:1" fill="#969ba8" d="M 437.5,188.5 C 437.833,188.5 438.167,188.5 438.5,188.5C 438.5,193.833 438.5,199.167 438.5,204.5C 421.5,204.5 404.5,204.5 387.5,204.5C 387.5,204.167 387.5,203.833 387.5,203.5C 404.17,203.667 420.837,203.5 437.5,203C 437.242,198.72 437.242,194.22 437.5,189.5C 437.5,189.167 437.5,188.833 437.5,188.5 Z"/></g>
<g><path style="opacity:1" fill="#2c578c" d="M 35.5,204.5 C 42.8333,204.5 50.1667,204.5 57.5,204.5C 56.9338,211.043 56.6004,217.543 56.5,224C 57.7064,229.031 59.0397,234.031 60.5,239C 60.1667,239.333 59.8333,239.667 59.5,240C 60.3968,242.311 61.7301,244.144 63.5,245.5C 60.072,248.057 56.4054,250.39 52.5,252.5C 39.8664,239.051 34.1997,223.051 35.5,204.5 Z"/></g>
<g><path style="opacity:1" fill="#093d7d" d="M 57.5,204.5 C 78.8359,204.333 100.169,204.5 121.5,205C 102.01,218.331 82.6772,231.831 63.5,245.5C 61.7301,244.144 60.3968,242.311 59.5,240C 59.8333,239.667 60.1667,239.333 60.5,239C 59.0397,234.031 57.7064,229.031 56.5,224C 56.6004,217.543 56.9338,211.043 57.5,204.5 Z"/></g>
<g><path style="opacity:1" fill="#93182e" d="M 87.5,276.5 C 85.1432,276.663 82.8098,276.497 80.5,276C 77.9406,274.223 75.2739,272.723 72.5,271.5C 71.1389,269.15 69.8056,266.816 68.5,264.5C 95.676,244.831 123.009,225.331 150.5,206C 157.719,204.571 165.053,204.071 172.5,204.5C 172.666,208.846 172.499,213.179 172,217.5C 144.037,237.556 115.871,257.222 87.5,276.5 Z"/></g>
<g><path style="opacity:1" fill="#93182e" d="M 370.5,247.5 C 370.631,248.239 370.464,248.906 370,249.5C 365.377,254.202 360.543,258.535 355.5,262.5C 354.833,262.167 354.167,261.833 353.5,261.5C 332.713,247.22 312.046,232.72 291.5,218C 290.533,213.599 290.2,209.099 290.5,204.5C 297.175,204.334 303.842,204.5 310.5,205C 330.657,218.997 350.657,233.164 370.5,247.5 Z"/></g>
<g><path style="opacity:1" fill="#0c3d7d" d="M 387.5,204.5 C 387.404,209.263 387.404,214.096 387.5,219C 385.933,223.867 384.267,228.7 382.5,233.5C 382.167,233.5 381.833,233.5 381.5,233.5C 368.347,223.863 355.014,214.363 341.5,205C 356.83,204.5 372.163,204.333 387.5,204.5 Z"/></g>
<g><path style="opacity:1" fill="#08346f" d="M 387.5,204.5 C 404.5,204.5 421.5,204.5 438.5,204.5C 439.167,204.5 439.5,204.833 439.5,205.5C 437.557,206.078 437.223,207.078 438.5,208.5C 437.489,216.545 436.156,224.545 434.5,232.5C 434.346,234.97 433.346,236.97 431.5,238.5C 429.707,240.426 428.707,242.759 428.5,245.5C 425.242,247.69 423.242,250.69 422.5,254.5C 422.043,256.773 420.71,258.106 418.5,258.5C 406.463,250.154 394.463,241.821 382.5,233.5C 384.267,228.7 385.933,223.867 387.5,219C 387.404,214.096 387.404,209.263 387.5,204.5 Z"/></g>
<g><path style="opacity:1" fill="#5979a1" d="M 25.5,204.5 C 28.8333,204.5 32.1667,204.5 35.5,204.5C 34.1997,223.051 39.8664,239.051 52.5,252.5C 50.1401,254.853 47.4735,256.853 44.5,258.5C 40.4516,254.746 37.1183,250.413 34.5,245.5C 33.6388,240.557 31.6388,236.224 28.5,232.5C 27.6618,232.158 27.3284,231.492 27.5,230.5C 26.0761,221.899 25.4094,213.233 25.5,204.5 Z"/></g>
<g><path style="opacity:1" fill="#a8b1bd" d="M 24.5,204.5 C 24.8333,204.5 25.1667,204.5 25.5,204.5C 25.4094,213.233 26.0761,221.899 27.5,230.5C 25.7426,225.436 24.5759,220.103 24,214.5C 23.1925,210.973 23.3592,207.64 24.5,204.5 Z"/></g>
<g><path style="opacity:1" fill="#66748b" d="M 439.5,205.5 C 439.214,212.888 438.38,220.221 437,227.5C 436.626,229.491 435.793,231.158 434.5,232.5C 436.156,224.545 437.489,216.545 438.5,208.5C 437.223,207.078 437.557,206.078 439.5,205.5 Z"/></g>
<g><path style="opacity:1" fill="#b8b5b6" d="M 381.5,233.5 C 381.833,233.5 382.167,233.5 382.5,233.5C 394.463,241.821 406.463,250.154 418.5,258.5C 416.51,260.163 414.843,262.163 413.5,264.5C 412.675,265.386 411.675,265.719 410.5,265.5C 410.649,266.552 410.483,267.552 410,268.5C 408.134,269.527 406.3,270.527 404.5,271.5C 393.5,263.5 382.5,255.5 371.5,247.5C 375.812,243.546 379.145,238.88 381.5,233.5 Z"/></g>
<g><path style="opacity:1" fill="#a2acba" d="M 28.5,232.5 C 31.6388,236.224 33.6388,240.557 34.5,245.5C 32.1197,241.367 30.1197,237.034 28.5,232.5 Z"/></g>
<g><path style="opacity:1" fill="#3c6290" d="M 170.5,240.5 C 170.56,239.957 170.893,239.624 171.5,239.5C 172.5,259.489 172.833,279.489 172.5,299.5C 172.5,302.5 172.5,305.5 172.5,308.5C 172.167,308.5 171.833,308.5 171.5,308.5C 171.831,285.661 171.497,262.994 170.5,240.5 Z"/></g>
<g><path style="opacity:1" fill="#093c7d" d="M 170.5,240.5 C 171.497,262.994 171.831,285.661 171.5,308.5C 171.167,308.5 170.833,308.5 170.5,308.5C 169.609,307.739 168.942,306.739 168.5,305.5C 167.546,303.189 167.212,301.022 167.5,299C 154.221,297.379 141.221,295.879 128.5,294.5C 120.959,292.431 113.626,289.764 106.5,286.5C 127.554,270.779 148.888,255.446 170.5,240.5 Z"/></g>
<g><path style="opacity:1" fill="#093c7d" d="M 292.5,240.5 C 307.167,250.833 321.833,261.167 336.5,271.5C 336.5,271.833 336.5,272.167 336.5,272.5C 322.042,279.764 307.042,284.764 291.5,287.5C 291.17,271.658 291.504,255.991 292.5,240.5 Z"/></g>
<g><path style="opacity:1" fill="#5b789f" d="M 292.5,240.5 C 291.504,255.991 291.17,271.658 291.5,287.5C 291.5,290.833 291.5,294.167 291.5,297.5C 291.5,300.833 291.5,304.167 291.5,307.5C 299.167,307.5 306.833,307.5 314.5,307.5C 306.643,309.44 298.643,309.773 290.5,308.5C 290.5,301.833 290.5,295.167 290.5,288.5C 290.167,272.153 290.501,255.82 291.5,239.5C 292.107,239.624 292.44,239.957 292.5,240.5 Z"/></g>
<g><path style="opacity:1" fill="#677791" d="M 431.5,238.5 C 431.293,241.241 430.293,243.574 428.5,245.5C 428.707,242.759 429.707,240.426 431.5,238.5 Z"/></g>
<g><path style="opacity:1" fill="#83182a" d="M 370.5,247.5 C 370.833,247.5 371.167,247.5 371.5,247.5C 382.5,255.5 393.5,263.5 404.5,271.5C 403.797,273.716 402.464,275.549 400.5,277C 396.438,280.029 392.105,282.529 387.5,284.5C 376.13,278.152 365.463,270.818 355.5,262.5C 360.543,258.535 365.377,254.202 370,249.5C 370.464,248.906 370.631,248.239 370.5,247.5 Z"/></g>
<g><path style="opacity:0.639" fill="#3f547a" d="M 428.5,245.5 C 426.745,248.68 424.745,251.68 422.5,254.5C 423.242,250.69 425.242,247.69 428.5,245.5 Z"/></g>
<g><path style="opacity:1" fill="#b8b6b7" d="M 353.5,261.5 C 354.167,261.833 354.833,262.167 355.5,262.5C 365.463,270.818 376.13,278.152 387.5,284.5C 381.51,287.495 375.51,290.495 369.5,293.5C 367.692,293.509 366.025,293.009 364.5,292C 361.953,289.946 359.286,288.113 356.5,286.5C 350.115,281.451 343.448,276.785 336.5,272.5C 336.5,272.167 336.5,271.833 336.5,271.5C 342.341,270.177 347.675,267.677 352.5,264C 353.252,263.329 353.586,262.496 353.5,261.5 Z"/></g>
<g><path style="opacity:1" fill="#b06572" d="M 68.5,264.5 C 69.8056,266.816 71.1389,269.15 72.5,271.5C 74.6255,275.446 76.9588,279.113 79.5,282.5C 78.4863,283.674 77.153,284.34 75.5,284.5C 69.351,281.591 63.6843,277.925 58.5,273.5C 58.5106,271.983 59.1772,270.816 60.5,270C 63.3695,268.404 66.0361,266.57 68.5,264.5 Z"/></g>
<g><path style="opacity:1" fill="#9f4051" d="M 72.5,271.5 C 75.2739,272.723 77.9406,274.223 80.5,276C 82.8098,276.497 85.1432,276.663 87.5,276.5C 85.1401,278.853 82.4735,280.853 79.5,282.5C 76.9588,279.113 74.6255,275.446 72.5,271.5 Z"/></g>
<g><path style="opacity:1" fill="#07346f" d="M 336.5,272.5 C 343.448,276.785 350.115,281.451 356.5,286.5C 357.008,289.852 358.342,292.852 360.5,295.5C 359.833,296.833 359.167,296.833 358.5,295.5C 357.333,293.167 356.167,290.833 355,288.5C 352.912,289.308 350.912,290.308 349,291.5C 348.667,291.167 348.333,290.833 348,290.5C 349.374,293.619 350.541,296.953 351.5,300.5C 349.833,300.5 348.167,300.5 346.5,300.5C 346.037,297.518 345.704,294.518 345.5,291.5C 342.215,291.736 339.215,292.736 336.5,294.5C 337.557,297.189 338.89,299.689 340.5,302C 338.564,302.813 336.564,303.313 334.5,303.5C 334.037,300.518 333.704,297.518 333.5,294.5C 319.568,296.975 305.568,297.975 291.5,297.5C 291.5,294.167 291.5,290.833 291.5,287.5C 307.042,284.764 322.042,279.764 336.5,272.5 Z"/></g>
<g><path style="opacity:1" fill="#315a8c" d="M 106.5,286.5 C 113.626,289.764 120.959,292.431 128.5,294.5C 130.965,297.356 130.631,300.19 127.5,303C 128.056,303.383 128.389,303.883 128.5,304.5C 126.565,303.85 124.565,303.517 122.5,303.5C 120.883,302.962 119.216,302.629 117.5,302.5C 115.518,301.438 113.685,300.105 112,298.5C 110.989,299.337 109.822,299.67 108.5,299.5C 105.314,299.105 102.314,298.105 99.5,296.5C 98.914,296.709 98.414,297.043 98,297.5C 96.9152,296.264 96.0819,294.931 95.5,293.5C 99.3077,291.427 102.974,289.094 106.5,286.5 Z"/></g>
<g><path style="opacity:1" fill="#234479" d="M 356.5,286.5 C 359.286,288.113 361.953,289.946 364.5,292C 366.025,293.009 367.692,293.509 369.5,293.5C 364.037,296.992 358.037,299.325 351.5,300.5C 350.541,296.953 349.374,293.619 348,290.5C 348.333,290.833 348.667,291.167 349,291.5C 350.912,290.308 352.912,289.308 355,288.5C 356.167,290.833 357.333,293.167 358.5,295.5C 359.167,296.833 359.833,296.833 360.5,295.5C 358.342,292.852 357.008,289.852 356.5,286.5 Z"/></g>
<g><path style="opacity:1" fill="#25487d" d="M 351.5,300.5 C 340.092,305.024 327.759,307.358 314.5,307.5C 306.833,307.5 299.167,307.5 291.5,307.5C 291.5,304.167 291.5,300.833 291.5,297.5C 305.568,297.975 319.568,296.975 333.5,294.5C 333.704,297.518 334.037,300.518 334.5,303.5C 336.564,303.313 338.564,302.813 340.5,302C 338.89,299.689 337.557,297.189 336.5,294.5C 339.215,292.736 342.215,291.736 345.5,291.5C 345.704,294.518 346.037,297.518 346.5,300.5C 348.167,300.5 349.833,300.5 351.5,300.5 Z"/></g>
<g><path style="opacity:1" fill="#8f283b" d="M 194.5,188.5 C 195.333,224.664 195.833,260.998 196,297.5C 196.383,298.056 196.883,298.389 197.5,298.5C 219.576,299.015 242.076,299.015 265,298.5C 265.333,299.167 265.667,299.833 266,300.5C 267.252,297.986 267.752,295.32 267.5,292.5C 267.168,257.996 267.502,223.663 268.5,189.5C 268.5,228.833 268.5,268.167 268.5,307.5C 244.167,307.5 219.833,307.5 195.5,307.5C 195.737,306.209 195.404,305.209 194.5,304.5C 194.5,265.833 194.5,227.167 194.5,188.5 Z"/></g>
<g><path style="opacity:1" fill="#811226" d="M 267.5,292.5 C 267.752,295.32 267.252,297.986 266,300.5C 265.667,299.833 265.333,299.167 265,298.5C 242.076,299.015 219.576,299.015 197.5,298.5C 206.478,298.04 215.645,297.04 225,295.5C 227.333,295.833 229.667,296.167 232,296.5C 237.579,294.885 242.579,294.552 247,295.5C 253.704,295.124 260.537,294.124 267.5,292.5 Z"/></g>
<g><path style="opacity:1" fill="#bfbdbf" d="M 290.5,288.5 C 290.5,295.167 290.5,301.833 290.5,308.5C 283.5,308.5 276.5,308.5 269.5,308.5C 269.5,303.167 269.5,297.833 269.5,292.5C 276.468,291.173 283.468,289.84 290.5,288.5 Z"/></g>
<g><path style="opacity:1" fill="#c1bec1" d="M 193.5,298.5 C 193.19,301.713 193.523,304.713 194.5,307.5C 194.5,307.833 194.5,308.167 194.5,308.5C 187.167,308.5 179.833,308.5 172.5,308.5C 172.5,305.5 172.5,302.5 172.5,299.5C 179.794,299.105 186.794,298.772 193.5,298.5 Z"/></g>
<g><path style="opacity:1" fill="#8294ae" d="M 117.5,302.5 C 114.215,302.072 111.215,301.072 108.5,299.5C 109.822,299.67 110.989,299.337 112,298.5C 113.685,300.105 115.518,301.438 117.5,302.5 Z"/></g>
<g><path style="opacity:1" fill="#254e85" d="M 128.5,294.5 C 141.221,295.879 154.221,297.379 167.5,299C 167.212,301.022 167.546,303.189 168.5,305.5C 168.942,306.739 169.609,307.739 170.5,308.5C 165.146,308.529 159.813,308.195 154.5,307.5C 152.359,307.387 150.525,306.72 149,305.5C 145.943,306.451 142.777,306.784 139.5,306.5C 136.119,306.54 132.786,306.207 129.5,305.5C 129.5,304.833 129.167,304.5 128.5,304.5C 128.389,303.883 128.056,303.383 127.5,303C 130.631,300.19 130.965,297.356 128.5,294.5 Z"/></g>
<g><path style="opacity:1" fill="#c0c4ca" d="M 122.5,303.5 C 124.565,303.517 126.565,303.85 128.5,304.5C 129.167,304.5 129.5,304.833 129.5,305.5C 126.848,305.59 124.515,304.924 122.5,303.5 Z"/></g>
<g><path style="opacity:1" fill="#8999b0" d="M 170.5,308.5 C 170.833,308.5 171.167,308.5 171.5,308.5C 160.764,309.531 150.097,308.864 139.5,306.5C 142.777,306.784 145.943,306.451 149,305.5C 150.525,306.72 152.359,307.387 154.5,307.5C 159.813,308.195 165.146,308.529 170.5,308.5 Z"/></g>
<g><path style="opacity:1" fill="#b4757e" d="M 194.5,304.5 C 195.404,305.209 195.737,306.209 195.5,307.5C 219.833,307.5 244.167,307.5 268.5,307.5C 268.5,307.833 268.5,308.167 268.5,308.5C 243.833,309.833 219.167,309.833 194.5,308.5C 194.5,308.167 194.5,307.833 194.5,307.5C 194.5,306.5 194.5,305.5 194.5,304.5 Z"/></g>
</svg>
