<?xml version="1.0" encoding="UTF-8"?>
<!DOCTYPE svg PUBLIC "-//W3C//DTD SVG 1.1//EN" "http://www.w3.org/Graphics/SVG/1.1/DTD/svg11.dtd">
<svg xmlns="http://www.w3.org/2000/svg" version="1.1" width="462px" height="329px" style="shape-rendering:geometricPrecision; text-rendering:geometricPrecision; image-rendering:optimizeQuality; fill-rule:evenodd; clip-rule:evenodd" xmlns:xlink="http://www.w3.org/1999/xlink">
<g><path style="opacity:0.585" fill="#d26535" d="M 314.5,19.5 C 315.687,21.9754 317.687,22.9754 320.5,22.5C 321.699,24.3851 323.033,26.2184 324.5,28C 323.218,29.911 321.385,30.7444 319,30.5C 311.973,28.904 305.473,26.0707 299.5,22C 285.978,16.8288 271.978,13.8288 257.5,13C 240.5,12.3333 223.5,12.3333 206.5,13C 196.32,13.5855 186.32,15.2522 176.5,18C 166.067,22.2987 155.567,26.4653 145,30.5C 142.747,30.3687 140.581,29.8687 138.5,29C 136.108,26.272 134.108,23.272 132.5,20C 130.545,19.0467 128.878,17.7134 127.5,16C 120.362,13.5945 113.029,12.9278 105.5,14C 90.9541,15.3172 76.6208,17.1506 62.5,19.5C 52.0257,20.4089 42.6924,24.0756 34.5,30.5C 32.9541,28.2423 30.9541,26.409 28.5,25C 34.936,19.4469 42.2693,15.4469 50.5,13C 71.7705,10.0079 93.1039,7.50789 114.5,5.5C 127.916,5.61861 138.083,11.2853 145,22.5C 166.013,11.4971 188.347,5.4971 212,4.5C 224.918,5.33121 237.918,5.33121 251,4.5C 273.03,5.79892 294.196,10.7989 314.5,19.5 Z"/></g>
<g><path style="opacity:0.585" fill="#d26535" d="M 430.5,122.5 C 437.057,120.107 440.89,115.44 442,108.5C 441.617,97.2031 441.45,85.8698 441.5,74.5C 441.167,66.5 440.833,58.5 440.5,50.5C 439.833,48.1667 439.167,45.8333 438.5,43.5C 436.566,38.0519 433.233,33.5519 428.5,30C 424.984,28.7441 421.984,26.7441 419.5,24C 416.911,22.8035 414.244,21.8035 411.5,21C 391.141,17.4139 370.641,14.9139 350,13.5C 344.254,13.0605 339.087,14.3938 334.5,17.5C 334.167,17.5 333.833,17.5 333.5,17.5C 332.419,15.236 331.085,13.0693 329.5,11C 337.552,6.15387 346.219,4.4872 355.5,6C 375.974,7.71901 396.307,10.3857 416.5,14C 432.868,19.6995 443.368,30.8662 448,47.5C 448.757,70.2791 449.091,92.2791 449,113.5C 446.088,121.413 440.755,127.079 433,130.5C 432.16,127.798 431.327,125.132 430.5,122.5 Z"/></g>
<g><path style="opacity:0.357" fill="#d56f43" d="M 316.5,294.5 C 318.359,290.104 320.526,285.771 323,281.5C 337.353,224.755 352.02,168.088 367,111.5C 367.38,103.21 367.88,95.5436 368.5,88.5C 370.167,88.5 371.833,88.5 373.5,88.5C 373.5,88.8333 373.5,89.1667 373.5,89.5C 372.942,90.7899 371.942,91.6232 370.5,92C 370.366,94.039 370.866,96.2056 372,98.5C 375.952,102.75 380.118,106.75 384.5,110.5C 389.82,117.986 396.32,124.32 404,129.5C 404.941,127.273 406.108,125.273 407.5,123.5C 407.739,125.467 407.406,127.301 406.5,129C 408.269,130.314 410.269,131.147 412.5,131.5C 416.62,131.667 420.62,131.334 424.5,130.5C 423.828,128.47 423.162,126.47 422.5,124.5C 425.221,124.037 427.888,123.371 430.5,122.5C 431.327,125.132 432.16,127.798 433,130.5C 440.755,127.079 446.088,121.413 449,113.5C 449.091,92.2791 448.757,70.2791 448,47.5C 443.368,30.8662 432.868,19.6995 416.5,14C 396.307,10.3857 375.974,7.71901 355.5,6C 346.219,4.4872 337.552,6.15387 329.5,11C 331.085,13.0693 332.419,15.236 333.5,17.5C 332.878,18.6266 332.045,19.6266 331,20.5C 330.459,17.791 328.959,15.791 326.5,14.5C 325.738,15.6283 325.071,16.7949 324.5,18C 326.566,19.6961 328.066,21.5294 329,23.5C 328.667,23.8333 328.333,24.1667 328,24.5C 326.292,22.4565 324.292,20.7899 322,19.5C 321.487,20.5266 320.987,21.5266 320.5,22.5C 317.687,22.9754 315.687,21.9754 314.5,19.5C 315.847,20.0283 317.181,20.195 318.5,20C 325.849,9.407 336.016,3.907 349,3.5C 368.535,5.37428 388.035,7.54094 407.5,10C 421.167,12.7478 432.667,19.2478 442,29.5C 444.861,33.8878 447.194,38.5545 449,43.5C 450.285,62.6187 451.118,81.7854 451.5,101C 453.212,115.919 447.212,126.253 433.5,132C 420.818,136.96 408.484,135.626 396.5,128C 387.296,118.465 378.463,108.632 370,98.5C 369.543,105.578 368.543,112.578 367,119.5C 353.525,169.733 340.525,220.067 328,270.5C 326.15,279.601 322.317,287.601 316.5,294.5 Z"/></g>
<g><path style="opacity:1" fill="#d67a54" d="M 320.5,22.5 C 320.987,21.5266 321.487,20.5266 322,19.5C 324.292,20.7899 326.292,22.4565 328,24.5C 328.333,24.1667 328.667,23.8333 329,23.5C 328.066,21.5294 326.566,19.6961 324.5,18C 325.071,16.7949 325.738,15.6283 326.5,14.5C 328.959,15.791 330.459,17.791 331,20.5C 332.045,19.6266 332.878,18.6266 333.5,17.5C 333.833,17.5 334.167,17.5 334.5,17.5C 335.167,18.1667 335.833,18.8333 336.5,19.5C 334.879,22.1062 332.546,24.1062 329.5,25.5C 329.709,26.086 330.043,26.586 330.5,27C 328.097,28.853 325.764,30.6863 323.5,32.5C 318.904,34.7842 314.738,34.4509 311,31.5C 306.235,30.1187 301.569,27.7854 297,24.5C 295.333,24.5 293.667,24.5 292,24.5C 290.899,22.6061 289.566,21.9394 288,22.5C 282.672,21.3485 277.672,19.6818 273,17.5C 271.348,17.8598 269.682,18.1932 268,18.5C 266.676,17.1198 265.343,16.7865 264,17.5C 258.333,16.8333 252.667,16.1667 247,15.5C 246.667,16.1667 246.333,16.8333 246,17.5C 245.612,16.572 244.945,15.9054 244,15.5C 241.61,15.6843 239.276,15.6843 237,15.5C 236.667,16.1667 236.333,16.8333 236,17.5C 235.612,16.572 234.945,15.9054 234,15.5C 232.85,16.4239 231.85,16.4239 231,15.5C 230.667,16.1667 230.333,16.8333 230,17.5C 229.612,16.572 228.945,15.9054 228,15.5C 226.85,16.4239 225.85,16.4239 225,15.5C 224.667,16.1667 224.333,16.8333 224,17.5C 223.612,16.572 222.945,15.9054 222,15.5C 219.61,15.6843 217.276,15.6843 215,15.5C 214.333,18.1667 213.667,18.1667 213,15.5C 208.667,16.1667 204.333,16.8333 200,17.5C 199.667,17.1667 199.333,16.8333 199,16.5C 197,17.1667 195,17.8333 193,18.5C 191.657,17.7865 190.324,18.1198 189,19.5C 188.667,19.1667 188.333,18.8333 188,18.5C 177.166,20.8879 165.999,25.0546 154.5,31C 144.818,36.5829 137.318,34.4163 132,24.5C 129.333,22.1667 126.667,19.8333 124,17.5C 123.667,17.8333 123.333,18.1667 123,18.5C 121.426,17.1524 119.593,16.4858 117.5,16.5C 113.05,16.7332 108.883,16.7332 105,16.5C 102.347,18.0121 99.6805,18.3455 97,17.5C 94.2918,17.8669 91.7918,18.5335 89.5,19.5C 88.1667,19.1667 86.8333,18.8333 85.5,18.5C 81.7647,18.5152 77.9314,18.5152 74,18.5C 69.8056,19.9127 65.9723,20.246 62.5,19.5C 76.6208,17.1506 90.9541,15.3172 105.5,14C 113.029,12.9278 120.362,13.5945 127.5,16C 128.878,17.7134 130.545,19.0467 132.5,20C 134.108,23.272 136.108,26.272 138.5,29C 140.581,29.8687 142.747,30.3687 145,30.5C 155.567,26.4653 166.067,22.2987 176.5,18C 186.32,15.2522 196.32,13.5855 206.5,13C 223.5,12.3333 240.5,12.3333 257.5,13C 271.978,13.8288 285.978,16.8288 299.5,22C 305.473,26.0707 311.973,28.904 319,30.5C 321.385,30.7444 323.218,29.911 324.5,28C 323.033,26.2184 321.699,24.3851 320.5,22.5 Z"/></g>
<g><path style="opacity:1" fill="#cf714d" d="M 438.5,43.5 C 437.883,43.6107 437.383,43.944 437,44.5C 434.021,38.8502 430.021,34.8502 425,32.5C 422.333,30.1667 419.667,27.8333 417,25.5C 416.617,26.056 416.117,26.3893 415.5,26.5C 412.12,24.0545 408.62,22.3878 405,21.5C 401.663,21.752 397.996,22.0853 394,22.5C 393.333,21.8333 392.667,21.1667 392,20.5C 390.732,20.6158 389.398,20.9491 388,21.5C 387.333,20.8333 386.667,20.1667 386,19.5C 382.139,19.0224 378.473,19.0224 375,19.5C 372.667,18.8333 370.333,18.1667 368,17.5C 364.981,18.4074 361.648,18.0741 358,16.5C 352.859,17.4461 347.859,17.4461 343,16.5C 340.779,17.4059 338.612,18.4059 336.5,19.5C 335.833,18.8333 335.167,18.1667 334.5,17.5C 339.087,14.3938 344.254,13.0605 350,13.5C 370.641,14.9139 391.141,17.4139 411.5,21C 414.244,21.8035 416.911,22.8035 419.5,24C 421.984,26.7441 424.984,28.7441 428.5,30C 433.233,33.5519 436.566,38.0519 438.5,43.5 Z"/></g>
<g><path style="opacity:1" fill="#d16435" d="M 323.5,32.5 C 323.5,33.1667 323.833,33.5 324.5,33.5C 322.906,34.983 321.24,36.483 319.5,38C 322.29,41.7461 324.957,45.5794 327.5,49.5C 327,50.5 326.5,51.5 326,52.5C 325,52.5 324,52.5 323,52.5C 321.615,53.5505 320.615,54.8839 320,56.5C 319.667,56.1667 319.333,55.8333 319,55.5C 318.74,57.6175 317.74,59.2842 316,60.5C 315.586,60.0426 315.086,59.7093 314.5,59.5C 311.413,62.0815 308.579,64.4148 306,66.5C 304.434,65.9394 303.101,66.6061 302,68.5C 299.805,67.4405 297.305,66.6072 294.5,66C 295.833,67.3333 297.167,68.6667 298.5,70C 297.251,71.8241 296.085,71.6574 295,69.5C 293.482,73.9554 291.649,74.2887 289.5,70.5C 292.048,68.7811 291.715,67.4478 288.5,66.5C 292.337,63.1627 295.837,59.496 299,55.5C 299.667,56.8333 300.333,56.8333 301,55.5C 301.374,54.5838 301.874,53.7504 302.5,53C 301.638,50.2656 300.805,50.0989 300,52.5C 298.984,51.3659 298.317,51.6992 298,53.5C 297.667,53.1667 297.333,52.8333 297,52.5C 296.082,54.6324 294.749,55.299 293,54.5C 292.383,55.4491 292.549,56.2825 293.5,57C 292.531,58.7583 291.364,59.2583 290,58.5C 288.488,59.2567 287.154,60.2567 286,61.5C 285.667,61.1667 285.333,60.8333 285,60.5C 283.379,62.4927 281.713,64.4927 280,66.5C 278.984,65.3659 278.317,65.6992 278,67.5C 277.692,66.6919 277.192,66.0253 276.5,65.5C 276.284,68.7491 274.784,69.0825 272,66.5C 272.979,68.2785 272.646,69.9452 271,71.5C 270.309,69.1088 269.309,69.1088 268,71.5C 266.667,71.5 265.333,71.5 264,71.5C 262.701,75.5783 260.868,76.0783 258.5,73C 259.833,72 259.833,71 258.5,70C 259.849,69.2276 260.682,68.0609 261,66.5C 261.667,69.1667 262.333,69.1667 263,66.5C 263.667,69.1667 264.333,69.1667 265,66.5C 265.333,67.1667 265.667,67.8333 266,68.5C 266.45,65.9362 265.284,64.4362 262.5,64C 267.251,62.6421 271.085,59.4754 274,54.5C 274.333,54.8333 274.667,55.1667 275,55.5C 275.333,54.5 275.667,53.5 276,52.5C 276.914,53.6537 277.747,53.487 278.5,52C 277.638,49.2656 276.805,49.0989 276,51.5C 275.667,51.1667 275.333,50.8333 275,50.5C 273.333,51.8333 271.667,53.1667 270,54.5C 269,54.5 268,54.5 267,54.5C 265.26,55.7158 264.26,57.3825 264,59.5C 263.667,59.1667 263.333,58.8333 263,58.5C 258.359,61.6828 253.359,65.3495 248,69.5C 246.611,67.7727 244.944,66.4394 243,65.5C 241.351,66.8977 240.018,66.5644 239,64.5C 237.667,65.1667 236.667,66.1667 236,67.5C 235.833,67 235.667,66.5 235.5,66C 239.005,63.1614 242.172,59.9947 245,56.5C 245.333,56.8333 245.667,57.1667 246,57.5C 246.667,56.1667 247.667,55.1667 249,54.5C 249.749,53.365 249.583,52.365 248.5,51.5C 245.586,53.7486 242.586,55.2486 239.5,56C 240.28,57.073 240.113,58.2396 239,59.5C 238.333,56.8333 237.667,56.8333 237,59.5C 235.853,58.5419 234.853,58.8753 234,60.5C 233.51,61.7932 233.343,63.1266 233.5,64.5C 232.778,64.0825 232.278,63.4158 232,62.5C 230.423,66.2826 229.589,70.2826 229.5,74.5C 229.167,74.5 228.833,74.5 228.5,74.5C 227.853,73.7261 227.52,72.7261 227.5,71.5C 228.838,68.9326 229.338,66.266 229,63.5C 226.342,66.5373 223.675,68.8706 221,70.5C 220.215,68.714 219.049,67.214 217.5,66C 215.381,65.9024 213.714,65.0691 212.5,63.5C 213.289,61.5121 214.455,61.1787 216,62.5C 217.284,61.4281 217.617,60.0948 217,58.5C 217.333,58.8333 217.667,59.1667 218,59.5C 219.667,57.1667 221.667,55.1667 224,53.5C 224.563,52.2752 224.23,51.2752 223,50.5C 219.4,52.9719 215.567,55.1385 211.5,57C 210.874,57.7504 210.374,58.5838 210,59.5C 209.667,59.1667 209.333,58.8333 209,58.5C 208,59.8333 207,61.1667 206,62.5C 205.667,61.8333 205.333,61.1667 205,60.5C 204.529,62.2464 203.862,63.913 203,65.5C 202.026,63.1224 201.359,63.4557 201,66.5C 200.667,65.8333 200.333,65.1667 200,64.5C 198.789,68.4625 196.789,69.1291 194,66.5C 193.333,69.1667 192.667,69.1667 192,66.5C 191.667,67.1667 191.333,67.8333 191,68.5C 190.385,66.8839 189.385,65.5505 188,64.5C 187.223,66.7015 186.056,66.7015 184.5,64.5C 185.289,62.5121 186.455,62.1787 188,63.5C 188.926,61.4164 190.26,59.0831 192,56.5C 192.333,56.8333 192.667,57.1667 193,57.5C 194.582,56.0397 195.915,54.373 197,52.5C 198.364,53.2583 199.531,52.7583 200.5,51C 200,50.5 199.5,50 199,49.5C 196.86,50.7282 195.193,52.3949 194,54.5C 193.667,53.8333 193.333,53.1667 193,52.5C 190.867,53.2551 189.2,54.5884 188,56.5C 186.334,55.6598 186.167,56.1598 187.5,58C 187,58.5 186.5,59 186,59.5C 184.667,59.5 183.333,59.5 182,59.5C 181.558,61.6785 180.558,62.3452 179,61.5C 176.95,64.5734 174.617,66.5734 172,67.5C 171.333,64.8333 170.667,64.8333 170,67.5C 169.333,62.1667 168.667,62.1667 168,67.5C 167.333,64.8333 166.667,64.8333 166,67.5C 165.333,64.8333 164.667,64.8333 164,67.5C 162.667,64.8333 161.333,64.8333 160,67.5C 159.535,66.0692 158.701,64.9025 157.5,64C 159.076,63.5604 160.41,62.727 161.5,61.5C 162.675,62.8549 163.675,62.6883 164.5,61C 164.167,60.6667 163.833,60.3333 163.5,60C 165.667,58.5 167.5,56.6667 169,54.5C 169.914,55.6537 170.747,55.487 171.5,54C 170.809,52.9326 170.309,51.7659 170,50.5C 169.492,52.9042 168.325,53.5709 166.5,52.5C 158.502,57.9872 151.835,62.8205 146.5,67C 145.146,68.2937 143.812,68.4604 142.5,67.5C 141.808,68.0253 141.308,68.6919 141,69.5C 140.535,68.0692 139.701,66.9025 138.5,66C 137.256,65.5439 136.423,66.0439 136,67.5C 134.471,66.4167 132.971,65.4167 131.5,64.5C 136.04,61.4945 140.374,57.6611 144.5,53C 143.638,50.2656 142.805,50.0989 142,52.5C 141.667,52.1667 141.333,51.8333 141,51.5C 135.503,55.1543 130.337,59.1543 125.5,63.5C 124.833,63.5 124.167,63.5 123.5,63.5C 123.5,63.1667 123.5,62.8333 123.5,62.5C 127.507,58.3455 131.173,53.8455 134.5,49C 130.83,47.1445 130.164,44.8112 132.5,42C 131.809,40.9326 131.309,39.7659 131,38.5C 130.641,41.5443 129.974,41.8776 129,39.5C 128.333,40.8333 127.667,40.8333 127,39.5C 126.581,40.6721 125.915,41.6721 125,42.5C 122.113,39.6126 119.279,36.7792 116.5,34C 118.902,32.5293 118.736,31.0293 116,29.5C 114.984,30.6341 114.317,30.3008 114,28.5C 112.912,31.9926 111.745,32.1592 110.5,29C 108.5,28 106.5,27 104.5,26C 107.167,25.3333 107.167,24.6667 104.5,24C 104.833,23 105.167,22 105.5,21C 105,20.5 104.5,20 104,19.5C 98.8332,19.8336 93.9998,19.8336 89.5,19.5C 91.7918,18.5335 94.2918,17.8669 97,17.5C 99.6805,18.3455 102.347,18.0121 105,16.5C 108.883,16.7332 113.05,16.7332 117.5,16.5C 119.593,16.4858 121.426,17.1524 123,18.5C 123.333,18.1667 123.667,17.8333 124,17.5C 126.667,19.8333 129.333,22.1667 132,24.5C 137.318,34.4163 144.818,36.5829 154.5,31C 165.999,25.0546 177.166,20.8879 188,18.5C 188.333,18.8333 188.667,19.1667 189,19.5C 190.324,18.1198 191.657,17.7865 193,18.5C 195,17.8333 197,17.1667 199,16.5C 199.333,16.8333 199.667,17.1667 200,17.5C 204.333,16.8333 208.667,16.1667 213,15.5C 213.667,18.1667 214.333,18.1667 215,15.5C 217.276,15.6843 219.61,15.6843 222,15.5C 222.945,15.9054 223.612,16.572 224,17.5C 224.333,16.8333 224.667,16.1667 225,15.5C 225.85,16.4239 226.85,16.4239 228,15.5C 228.945,15.9054 229.612,16.572 230,17.5C 230.333,16.8333 230.667,16.1667 231,15.5C 231.85,16.4239 232.85,16.4239 234,15.5C 234.945,15.9054 235.612,16.572 236,17.5C 236.333,16.8333 236.667,16.1667 237,15.5C 239.276,15.6843 241.61,15.6843 244,15.5C 244.945,15.9054 245.612,16.572 246,17.5C 246.333,16.8333 246.667,16.1667 247,15.5C 252.667,16.1667 258.333,16.8333 264,17.5C 265.343,16.7865 266.676,17.1198 268,18.5C 269.682,18.1932 271.348,17.8598 273,17.5C 277.672,19.6818 282.672,21.3485 288,22.5C 289.566,21.9394 290.899,22.6061 292,24.5C 293.667,24.5 295.333,24.5 297,24.5C 301.569,27.7854 306.235,30.1187 311,31.5C 314.738,34.4509 318.904,34.7842 323.5,32.5 Z"/></g>
<g><path style="opacity:1" fill="#ca5b2f" d="M 85.5,18.5 C 86.8333,18.8333 88.1667,19.1667 89.5,19.5C 93.9998,19.8336 98.8332,19.8336 104,19.5C 104.5,20 105,20.5 105.5,21C 105.167,22 104.833,23 104.5,24C 107.167,24.6667 107.167,25.3333 104.5,26C 106.5,27 108.5,28 110.5,29C 111.745,32.1592 112.912,31.9926 114,28.5C 114.317,30.3008 114.984,30.6341 116,29.5C 118.736,31.0293 118.902,32.5293 116.5,34C 119.279,36.7792 122.113,39.6126 125,42.5C 125.915,41.6721 126.581,40.6721 127,39.5C 127.667,40.8333 128.333,40.8333 129,39.5C 129.974,41.8776 130.641,41.5443 131,38.5C 131.309,39.7659 131.809,40.9326 132.5,42C 130.164,44.8112 130.83,47.1445 134.5,49C 131.173,53.8455 127.507,58.3455 123.5,62.5C 122.833,62.5 122.5,62.1667 122.5,61.5C 123.501,60.2113 123.334,58.8779 122,57.5C 121.444,59.5951 120.944,59.7618 120.5,58C 120.645,57.228 120.978,56.5613 121.5,56C 120.289,55.2131 119.289,54.5464 118.5,54C 120.821,53.0128 122.487,51.3461 123.5,49C 121.729,46.8865 120.229,47.0532 119,49.5C 118.667,49.1667 118.333,48.8333 118,48.5C 115.896,50.7384 113.562,51.7384 111,51.5C 110.138,49.913 109.471,48.2464 109,46.5C 108.667,47.5 108.333,48.5 108,49.5C 106.794,45.9881 105.127,42.3215 103,38.5C 102.3,40.032 101.134,41.032 99.5,41.5C 99.3062,39.9602 98.4728,38.2935 97,36.5C 96.0255,38.8776 95.3589,38.5443 95,35.5C 94.6667,36.5 94.3333,37.5 94,38.5C 91.5501,34.5108 92.3834,31.3442 96.5,29C 95.6667,28.1667 94.8333,27.3333 94,26.5C 91.6752,26.872 89.5086,28.2053 87.5,30.5C 86.4593,28.0087 85.6259,28.0087 85,30.5C 84.0255,28.1224 83.3589,28.4557 83,31.5C 82.6905,30.2341 82.1905,29.0674 81.5,28C 81.8333,27.6667 82.1667,27.3333 82.5,27C 81.624,25.414 80.624,23.914 79.5,22.5C 74.1965,21.6786 68.8632,21.6786 63.5,22.5C 71.354,20.8282 78.6874,19.4948 85.5,18.5 Z"/></g>
<g><path style="opacity:1" fill="#d06c44" d="M 336.5,19.5 C 336.586,20.4959 336.252,21.3292 335.5,22C 342.787,28.6723 347.454,36.5056 349.5,45.5C 350.524,46.8518 351.524,48.1851 352.5,49.5C 351.061,50.5092 349.728,50.1759 348.5,48.5C 346.575,45.1135 343.742,42.7802 340,41.5C 338.667,39.5 337.333,37.5 336,35.5C 333.104,36.1363 330.771,34.4696 329,30.5C 327.348,31.3994 325.848,32.3994 324.5,33.5C 323.833,33.5 323.5,33.1667 323.5,32.5C 325.764,30.6863 328.097,28.853 330.5,27C 330.043,26.586 329.709,26.086 329.5,25.5C 332.546,24.1062 334.879,22.1062 336.5,19.5 Z"/></g>
<g><path style="opacity:1" fill="#c5562d" d="M 63.5,22.5 C 68.8632,21.6786 74.1965,21.6786 79.5,22.5C 80.624,23.914 81.624,25.414 82.5,27C 82.1667,27.3333 81.8333,27.6667 81.5,28C 82.1905,29.0674 82.6905,30.2341 83,31.5C 83.3589,28.4557 84.0255,28.1224 85,30.5C 85.6259,28.0087 86.4593,28.0087 87.5,30.5C 89.5086,28.2053 91.6752,26.872 94,26.5C 94.8333,27.3333 95.6667,28.1667 96.5,29C 92.3834,31.3442 91.5501,34.5108 94,38.5C 94.3333,37.5 94.6667,36.5 95,35.5C 95.3589,38.5443 96.0255,38.8776 97,36.5C 98.4728,38.2935 99.3062,39.9602 99.5,41.5C 101.134,41.032 102.3,40.032 103,38.5C 105.127,42.3215 106.794,45.9881 108,49.5C 108.333,48.5 108.667,47.5 109,46.5C 109.471,48.2464 110.138,49.913 111,51.5C 113.562,51.7384 115.896,50.7384 118,48.5C 118.333,48.8333 118.667,49.1667 119,49.5C 120.229,47.0532 121.729,46.8865 123.5,49C 122.487,51.3461 120.821,53.0128 118.5,54C 119.289,54.5464 120.289,55.2131 121.5,56C 120.978,56.5613 120.645,57.228 120.5,58C 120.944,59.7618 121.444,59.5951 122,57.5C 123.334,58.8779 123.501,60.2113 122.5,61.5C 119.622,59.6485 116.622,57.9819 113.5,56.5C 111.432,55.6252 109.432,54.4585 107.5,53C 102.983,52.6385 98.8165,52.1385 95,51.5C 94.6258,52.4162 94.1258,53.2496 93.5,54C 93.3178,59.6151 93.9845,65.2817 95.5,71C 94.7621,74.5639 94.7621,77.8972 95.5,81C 93.5722,82.6805 93.2388,84.5138 94.5,86.5C 92.0032,86.1943 89.6699,84.861 87.5,82.5C 87.7093,81.914 88.0426,81.414 88.5,81C 87.0692,80.5348 85.9025,79.7014 85,78.5C 84.6964,76.5595 83.8631,74.8928 82.5,73.5C 82.7093,72.914 83.0426,72.414 83.5,72C 80.6041,70.07 79.6041,67.57 80.5,64.5C 79.9017,63.2054 79.4017,61.8721 79,60.5C 78.6667,61.5 78.3333,62.5 78,63.5C 77.7216,62.5842 77.2216,61.9175 76.5,61.5C 73.6435,58.6409 73.4769,55.9742 76,53.5C 78.2921,54.9078 80.4588,54.7411 82.5,53C 80.5125,51.6811 79.3459,49.8477 79,47.5C 78.1136,51.0718 76.947,50.9052 75.5,47C 76.7948,46.2975 78.1281,45.6309 79.5,45C 80.8333,43.6667 80.8333,42.3333 79.5,41C 77.7703,39.1476 76.6036,39.3143 76,41.5C 75.6667,40.8333 75.3333,40.1667 75,39.5C 74.3333,41.5 73,42.8333 71,43.5C 70,42.1667 69,42.1667 68,43.5C 64.1617,40.4322 63.3283,36.9322 65.5,33C 64.6831,31.51 63.8498,30.01 63,28.5C 62.6667,29.5 62.3333,30.5 62,31.5C 61.3333,30.1667 60.6667,30.1667 60,31.5C 59.1475,29.8753 58.1475,29.5419 57,30.5C 56.3828,29.5509 56.5494,28.7175 57.5,28C 56.6667,27.1667 55.8333,26.3333 55,25.5C 54.3333,26.8333 53.6667,26.8333 53,25.5C 52.0853,26.3279 51.4186,27.3279 51,28.5C 49.0807,27.926 47.2474,27.5926 45.5,27.5C 45.3932,25.6214 45.8932,25.2881 47,26.5C 52.1477,23.3074 57.6477,21.9741 63.5,22.5 Z"/></g>
<g><path style="opacity:1" fill="#c15027" d="M 415.5,26.5 C 416.117,26.3893 416.617,26.056 417,25.5C 419.667,27.8333 422.333,30.1667 425,32.5C 430.021,34.8502 434.021,38.8502 437,44.5C 437.383,43.944 437.883,43.6107 438.5,43.5C 439.167,45.8333 439.833,48.1667 440.5,50.5C 435.841,45.1982 431.174,39.8648 426.5,34.5C 424.851,35.6477 423.351,36.981 422,38.5C 421.667,38.1667 421.333,37.8333 421,37.5C 415.086,43.3486 408.92,48.182 402.5,52C 401.624,54.3757 399.958,55.8757 397.5,56.5C 397.863,57.1835 398.196,57.8501 398.5,58.5C 395.95,57.6422 393.45,56.6422 391,55.5C 390.617,56.056 390.117,56.3893 389.5,56.5C 385.503,54.5111 381.17,53.5111 376.5,53.5C 377.028,52.2794 377.695,51.1127 378.5,50C 381.972,48.1934 384.805,45.6934 387,42.5C 387.333,42.8333 387.667,43.1667 388,43.5C 390.043,41.792 391.71,39.792 393,37.5C 393.974,39.8776 394.641,39.5443 395,36.5C 395.333,36.8333 395.667,37.1667 396,37.5C 400.078,32.8473 404.911,28.8473 410.5,25.5C 412.109,25.3886 413.775,25.722 415.5,26.5 Z"/></g>
<g><path style="opacity:1" fill="#c14f27" d="M 76.5,61.5 C 75.7321,62.2625 75.2321,63.2625 75,64.5C 74.6667,63.8333 74.3333,63.1667 74,62.5C 72.4702,63.636 71.1369,64.636 70,65.5C 69.6667,64.8333 69.3333,64.1667 69,63.5C 68.3333,64.8333 67.6667,66.1667 67,67.5C 66.3333,66.1667 65.6667,64.8333 65,63.5C 64.6667,64.1667 64.3333,64.8333 64,65.5C 63.6232,64.0577 62.7899,63.0577 61.5,62.5C 61.9528,61.5416 62.6195,60.7083 63.5,60C 59.5931,56.7956 55.4265,53.9623 51,51.5C 49.984,52.6341 49.3173,52.3008 49,50.5C 48.2588,51.6405 47.4255,51.6405 46.5,50.5C 41.4894,46.8227 37.1561,42.4894 33.5,37.5C 34.2888,35.5121 35.4555,35.1787 37,36.5C 37.0343,34.8204 37.201,33.3204 37.5,32C 40.1517,30.401 42.8183,28.901 45.5,27.5C 47.2474,27.5926 49.0807,27.926 51,28.5C 51.4186,27.3279 52.0853,26.3279 53,25.5C 53.6667,26.8333 54.3333,26.8333 55,25.5C 55.8333,26.3333 56.6667,27.1667 57.5,28C 56.5494,28.7175 56.3828,29.5509 57,30.5C 58.1475,29.5419 59.1475,29.8753 60,31.5C 60.6667,30.1667 61.3333,30.1667 62,31.5C 62.3333,30.5 62.6667,29.5 63,28.5C 63.8498,30.01 64.6831,31.51 65.5,33C 63.3283,36.9322 64.1617,40.4322 68,43.5C 69,42.1667 70,42.1667 71,43.5C 73,42.8333 74.3333,41.5 75,39.5C 75.3333,40.1667 75.6667,40.8333 76,41.5C 76.6036,39.3143 77.7703,39.1476 79.5,41C 80.8333,42.3333 80.8333,43.6667 79.5,45C 78.1281,45.6309 76.7948,46.2975 75.5,47C 76.947,50.9052 78.1136,51.0718 79,47.5C 79.3459,49.8477 80.5125,51.6811 82.5,53C 80.4588,54.7411 78.2921,54.9078 76,53.5C 73.4769,55.9742 73.6435,58.6409 76.5,61.5 Z"/></g>
<g><path style="opacity:1" fill="#bb4722" d="M 440.5,50.5 C 440.833,58.5 441.167,66.5 441.5,74.5C 440.834,71.3107 440.167,67.9773 439.5,64.5C 439.704,65.5294 439.204,66.5294 438,67.5C 437.135,65.7749 436.469,64.1083 436,62.5C 433.266,63.3617 433.099,64.195 435.5,65C 435.493,67.1193 434.326,68.9526 432,70.5C 430.984,69.3659 430.317,69.6992 430,71.5C 429.026,69.1224 428.359,69.4557 428,72.5C 427.147,74.1247 426.147,74.4581 425,73.5C 424.333,74.8333 423.667,76.1667 423,77.5C 422.667,76.8333 422.333,76.1667 422,75.5C 419.658,79.766 416.991,83.0993 414,85.5C 413.658,83.3808 412.825,83.0474 411.5,84.5C 408.331,76.4828 404.831,68.4828 401,60.5C 400.005,59.9341 399.172,59.2674 398.5,58.5C 398.196,57.8501 397.863,57.1835 397.5,56.5C 399.958,55.8757 401.624,54.3757 402.5,52C 408.92,48.182 415.086,43.3486 421,37.5C 421.333,37.8333 421.667,38.1667 422,38.5C 423.351,36.981 424.851,35.6477 426.5,34.5C 431.174,39.8648 435.841,45.1982 440.5,50.5 Z"/></g>
<g><path style="opacity:0.671" fill="#dd8965" d="M 27.5,38.5 C 24.3729,45.8919 22.7062,53.5586 22.5,61.5C 21.3884,59.256 19.8884,59.256 18,61.5C 17.586,61.0426 17.086,60.7093 16.5,60.5C 15.334,73.4872 15.1673,86.4872 16,99.5C 18.4808,100.149 18.8141,101.149 17,102.5C 16.586,102.043 16.086,101.709 15.5,101.5C 14.5159,104.428 14.1826,107.428 14.5,110.5C 13.8401,109.036 13.5068,107.369 13.5,105.5C 14.1141,86.1571 14.9474,66.8238 16,47.5C 16.8118,43.2301 18.3118,39.2301 20.5,35.5C 22.6621,37.0198 24.9954,38.0198 27.5,38.5 Z"/></g>
<g><path style="opacity:1" fill="#c66749" d="M 85.5,18.5 C 78.6874,19.4948 71.354,20.8282 63.5,22.5C 57.6477,21.9741 52.1477,23.3074 47,26.5C 45.8932,25.2881 45.3932,25.6214 45.5,27.5C 42.8183,28.901 40.1517,30.401 37.5,32C 37.201,33.3204 37.0343,34.8204 37,36.5C 35.4555,35.1787 34.2888,35.5121 33.5,37.5C 37.1561,42.4894 41.4894,46.8227 46.5,50.5C 47.4255,51.6405 48.2588,51.6405 49,50.5C 49.3173,52.3008 49.984,52.6341 51,51.5C 55.4265,53.9623 59.5931,56.7956 63.5,60C 62.6195,60.7083 61.9528,61.5416 61.5,62.5C 56.6645,74.7759 51.6645,87.1093 46.5,99.5C 45.2502,99.5774 44.4169,100.244 44,101.5C 43.3333,100.833 42.6667,100.167 42,99.5C 39.1481,100.313 36.1481,100.313 33,99.5C 31.149,101.781 29.4823,101.781 28,99.5C 26.6667,102.167 25.3333,102.167 24,99.5C 23.6174,100.056 23.1174,100.389 22.5,100.5C 22.5,87.5 22.5,74.5 22.5,61.5C 22.7062,53.5586 24.3729,45.8919 27.5,38.5C 29.8044,35.8587 32.1377,33.192 34.5,30.5C 42.6924,24.0756 52.0257,20.4089 62.5,19.5C 65.9723,20.246 69.8056,19.9127 74,18.5C 77.9314,18.5152 81.7647,18.5152 85.5,18.5 Z"/></g>
<g><path style="opacity:1" fill="#cb6a48" d="M 113.5,56.5 C 114.135,60.1711 112.802,63.3378 109.5,66C 109.833,66.3333 110.167,66.6667 110.5,67C 108.873,69.7542 107.373,72.5875 106,75.5C 105.195,73.0989 104.362,73.2656 103.5,76C 106.167,76.6667 106.167,77.3333 103.5,78C 103.833,78.3333 104.167,78.6667 104.5,79C 102.348,81.4689 100.848,84.3022 100,87.5C 97.9592,88.4231 95.7925,88.7564 93.5,88.5C 93.1667,88.5 92.8333,88.5 92.5,88.5C 93.1667,87.8333 93.8333,87.1667 94.5,86.5C 93.2388,84.5138 93.5722,82.6805 95.5,81C 94.7621,77.8972 94.7621,74.5639 95.5,71C 93.9845,65.2817 93.3178,59.6151 93.5,54C 94.1258,53.2496 94.6258,52.4162 95,51.5C 98.8165,52.1385 102.983,52.6385 107.5,53C 109.432,54.4585 111.432,55.6252 113.5,56.5 Z"/></g>
<g><path style="opacity:1" fill="#cd6032" d="M 228.5,74.5 C 227.781,76.7638 227.448,79.0971 227.5,81.5C 227.044,84.9055 226.378,88.2389 225.5,91.5C 224.097,94.9085 223.43,98.5752 223.5,102.5C 222.701,107.325 221.701,111.992 220.5,116.5C 219.691,118.292 219.191,120.292 219,122.5C 215.186,120.015 211.686,117.182 208.5,114C 200.603,109.219 192.269,105.219 183.5,102C 179.478,97.7993 174.812,94.6327 169.5,92.5C 154.31,83.6466 139.644,73.9799 125.5,63.5C 130.337,59.1543 135.503,55.1543 141,51.5C 141.333,51.8333 141.667,52.1667 142,52.5C 142.805,50.0989 143.638,50.2656 144.5,53C 140.374,57.6611 136.04,61.4945 131.5,64.5C 132.971,65.4167 134.471,66.4167 136,67.5C 136.423,66.0439 137.256,65.5439 138.5,66C 139.701,66.9025 140.535,68.0692 141,69.5C 141.308,68.6919 141.808,68.0253 142.5,67.5C 143.812,68.4604 145.146,68.2937 146.5,67C 151.835,62.8205 158.502,57.9872 166.5,52.5C 168.325,53.5709 169.492,52.9042 170,50.5C 170.309,51.7659 170.809,52.9326 171.5,54C 170.747,55.487 169.914,55.6537 169,54.5C 167.5,56.6667 165.667,58.5 163.5,60C 163.833,60.3333 164.167,60.6667 164.5,61C 163.675,62.6883 162.675,62.8549 161.5,61.5C 160.41,62.727 159.076,63.5604 157.5,64C 158.701,64.9025 159.535,66.0692 160,67.5C 161.333,64.8333 162.667,64.8333 164,67.5C 164.667,64.8333 165.333,64.8333 166,67.5C 166.667,64.8333 167.333,64.8333 168,67.5C 168.667,62.1667 169.333,62.1667 170,67.5C 170.667,64.8333 171.333,64.8333 172,67.5C 174.617,66.5734 176.95,64.5734 179,61.5C 180.558,62.3452 181.558,61.6785 182,59.5C 183.333,59.5 184.667,59.5 186,59.5C 186.5,59 187,58.5 187.5,58C 186.167,56.1598 186.334,55.6598 188,56.5C 189.2,54.5884 190.867,53.2551 193,52.5C 193.333,53.1667 193.667,53.8333 194,54.5C 195.193,52.3949 196.86,50.7282 199,49.5C 199.5,50 200,50.5 200.5,51C 199.531,52.7583 198.364,53.2583 197,52.5C 195.915,54.373 194.582,56.0397 193,57.5C 192.667,57.1667 192.333,56.8333 192,56.5C 190.26,59.0831 188.926,61.4164 188,63.5C 186.455,62.1787 185.289,62.5121 184.5,64.5C 186.056,66.7015 187.223,66.7015 188,64.5C 189.385,65.5505 190.385,66.8839 191,68.5C 191.333,67.8333 191.667,67.1667 192,66.5C 192.667,69.1667 193.333,69.1667 194,66.5C 196.789,69.1291 198.789,68.4625 200,64.5C 200.333,65.1667 200.667,65.8333 201,66.5C 201.359,63.4557 202.026,63.1224 203,65.5C 203.862,63.913 204.529,62.2464 205,60.5C 205.333,61.1667 205.667,61.8333 206,62.5C 207,61.1667 208,59.8333 209,58.5C 209.333,58.8333 209.667,59.1667 210,59.5C 210.374,58.5838 210.874,57.7504 211.5,57C 215.567,55.1385 219.4,52.9719 223,50.5C 224.23,51.2752 224.563,52.2752 224,53.5C 221.667,55.1667 219.667,57.1667 218,59.5C 217.667,59.1667 217.333,58.8333 217,58.5C 217.617,60.0948 217.284,61.4281 216,62.5C 214.455,61.1787 213.289,61.5121 212.5,63.5C 213.714,65.0691 215.381,65.9024 217.5,66C 219.049,67.214 220.215,68.714 221,70.5C 223.675,68.8706 226.342,66.5373 229,63.5C 229.338,66.266 228.838,68.9326 227.5,71.5C 227.52,72.7261 227.853,73.7261 228.5,74.5 Z"/></g>
<g><path style="opacity:1" fill="#ce6133" d="M 352.5,49.5 C 352.5,50.5 352.5,51.5 352.5,52.5C 351.127,52.6567 349.793,52.49 348.5,52C 344.793,48.8234 341.126,45.6567 337.5,42.5C 335.799,42.1896 334.132,42.6896 332.5,44C 332.833,44.3333 333.167,44.6667 333.5,45C 331.667,45.5 330.5,46.6667 330,48.5C 329.444,46.4049 328.944,46.2382 328.5,48C 339.336,62.3266 350.669,76.1599 362.5,89.5C 359.839,93.3508 358.839,97.6841 359.5,102.5C 358.504,102.414 357.671,102.748 357,103.5C 356.261,101.779 355.427,100.113 354.5,98.5C 353.549,99.3256 352.549,99.4922 351.5,99C 353.5,97.6667 355.5,96.3333 357.5,95C 356.542,93.8525 356.875,92.8525 358.5,92C 357.638,89.2656 356.805,89.0989 356,91.5C 355.086,90.3463 354.253,90.513 353.5,92C 354.654,92.9138 354.487,93.7471 353,94.5C 351.605,93.1854 350.605,93.5188 350,95.5C 349.667,94.8333 349.333,94.1667 349,93.5C 348.163,95.8442 346.829,97.8442 345,99.5C 343.127,98.9109 341.46,99.5776 340,101.5C 338.615,100.449 337.615,99.1161 337,97.5C 336.667,98.1667 336.333,98.8333 336,99.5C 334.467,99.0563 332.967,98.723 331.5,98.5C 330.749,99.376 330.249,100.376 330,101.5C 329.716,99.1144 328.716,98.4477 327,99.5C 326.333,98.8333 326.333,98.1667 327,97.5C 328.41,96.2125 329.91,95.0458 331.5,94C 330.874,93.2496 330.374,92.4162 330,91.5C 329.309,94.266 327.809,94.9327 325.5,93.5C 324.205,94.0983 322.872,94.5983 321.5,95C 322.258,96.3639 321.758,97.5305 320,98.5C 319.439,97.9781 318.772,97.6448 318,97.5C 316.989,97.8919 316.489,98.5585 316.5,99.5C 315.459,97.0087 314.626,97.0087 314,99.5C 313.333,96.8333 312.667,96.8333 312,99.5C 311.333,95.5 310.667,95.5 310,99.5C 308.605,98.1854 307.605,98.5188 307,100.5C 305.064,99.8474 303.231,98.6807 301.5,97C 304.639,94.9631 305.472,92.4631 304,89.5C 300.23,91.5852 296.563,94.5852 293,98.5C 292.667,98.1667 292.333,97.8333 292,97.5C 291.558,99.6785 290.558,100.345 289,99.5C 288.333,102.167 287.667,102.167 287,99.5C 286.333,100.833 285.667,102.167 285,103.5C 284.313,101.445 283.146,99.7786 281.5,98.5C 280.749,99.376 280.249,100.376 280,101.5C 278.478,99.7558 276.978,98.0891 275.5,96.5C 279.021,93.8132 282.021,90.6465 284.5,87C 284,86.5 283.5,86 283,85.5C 281.615,86.5505 280.615,87.8839 280,89.5C 279.667,88.8333 279.333,88.1667 279,87.5C 278.138,89.087 277.471,90.7536 277,92.5C 276.333,89.8333 275.667,89.8333 275,92.5C 274.667,92.1667 274.333,91.8333 274,91.5C 272.287,92.8782 270.953,94.5448 270,96.5C 269.026,94.1224 268.359,94.4557 268,97.5C 267.667,96.5 267.333,95.5 267,94.5C 266.64,96.4211 265.806,98.0878 264.5,99.5C 263.575,100.641 262.741,100.641 262,99.5C 261.333,100.833 260.667,102.167 260,103.5C 258.84,101.203 257.84,101.536 257,104.5C 256.026,102.122 255.359,102.456 255,105.5C 254.333,101.5 253.667,101.5 253,105.5C 252.099,102.929 250.766,100.596 249,98.5C 248.195,100.901 247.362,100.734 246.5,98C 247.253,96.513 248.086,96.3463 249,97.5C 250.421,94.9906 252.088,92.6572 254,90.5C 254.563,89.2752 254.23,88.2752 253,87.5C 250.913,91.3022 247.746,93.8022 243.5,95C 242.874,95.7504 242.374,96.5838 242,97.5C 241.667,97.1667 241.333,96.8333 241,96.5C 240.505,98.4727 240.338,100.473 240.5,102.5C 237.566,90.0658 235.233,77.3991 233.5,64.5C 233.343,63.1266 233.51,61.7932 234,60.5C 234.853,58.8753 235.853,58.5419 237,59.5C 237.667,56.8333 238.333,56.8333 239,59.5C 240.113,58.2396 240.28,57.073 239.5,56C 242.586,55.2486 245.586,53.7486 248.5,51.5C 249.583,52.365 249.749,53.365 249,54.5C 247.667,55.1667 246.667,56.1667 246,57.5C 245.667,57.1667 245.333,56.8333 245,56.5C 242.172,59.9947 239.005,63.1614 235.5,66C 235.667,66.5 235.833,67 236,67.5C 236.667,66.1667 237.667,65.1667 239,64.5C 240.018,66.5644 241.351,66.8977 243,65.5C 244.944,66.4394 246.611,67.7727 248,69.5C 253.359,65.3495 258.359,61.6828 263,58.5C 263.333,58.8333 263.667,59.1667 264,59.5C 264.26,57.3825 265.26,55.7158 267,54.5C 268,54.5 269,54.5 270,54.5C 271.667,53.1667 273.333,51.8333 275,50.5C 275.333,50.8333 275.667,51.1667 276,51.5C 276.805,49.0989 277.638,49.2656 278.5,52C 277.747,53.487 276.914,53.6537 276,52.5C 275.667,53.5 275.333,54.5 275,55.5C 274.667,55.1667 274.333,54.8333 274,54.5C 271.085,59.4754 267.251,62.6421 262.5,64C 265.284,64.4362 266.45,65.9362 266,68.5C 265.667,67.8333 265.333,67.1667 265,66.5C 264.333,69.1667 263.667,69.1667 263,66.5C 262.333,69.1667 261.667,69.1667 261,66.5C 260.682,68.0609 259.849,69.2276 258.5,70C 259.833,71 259.833,72 258.5,73C 260.868,76.0783 262.701,75.5783 264,71.5C 265.333,71.5 266.667,71.5 268,71.5C 269.309,69.1088 270.309,69.1088 271,71.5C 272.646,69.9452 272.979,68.2785 272,66.5C 274.784,69.0825 276.284,68.7491 276.5,65.5C 277.192,66.0253 277.692,66.6919 278,67.5C 278.317,65.6992 278.984,65.3659 280,66.5C 281.713,64.4927 283.379,62.4927 285,60.5C 285.333,60.8333 285.667,61.1667 286,61.5C 287.154,60.2567 288.488,59.2567 290,58.5C 291.364,59.2583 292.531,58.7583 293.5,57C 292.549,56.2825 292.383,55.4491 293,54.5C 294.749,55.299 296.082,54.6324 297,52.5C 297.333,52.8333 297.667,53.1667 298,53.5C 298.317,51.6992 298.984,51.3659 300,52.5C 300.805,50.0989 301.638,50.2656 302.5,53C 301.874,53.7504 301.374,54.5838 301,55.5C 300.333,56.8333 299.667,56.8333 299,55.5C 295.837,59.496 292.337,63.1627 288.5,66.5C 291.715,67.4478 292.048,68.7811 289.5,70.5C 291.649,74.2887 293.482,73.9554 295,69.5C 296.085,71.6574 297.251,71.8241 298.5,70C 297.167,68.6667 295.833,67.3333 294.5,66C 297.305,66.6072 299.805,67.4405 302,68.5C 303.101,66.6061 304.434,65.9394 306,66.5C 308.579,64.4148 311.413,62.0815 314.5,59.5C 315.086,59.7093 315.586,60.0426 316,60.5C 317.74,59.2842 318.74,57.6175 319,55.5C 319.333,55.8333 319.667,56.1667 320,56.5C 320.615,54.8839 321.615,53.5505 323,52.5C 324,52.5 325,52.5 326,52.5C 326.5,51.5 327,50.5 327.5,49.5C 324.957,45.5794 322.29,41.7461 319.5,38C 321.24,36.483 322.906,34.983 324.5,33.5C 325.848,32.3994 327.348,31.3994 329,30.5C 330.771,34.4696 333.104,36.1363 336,35.5C 337.333,37.5 338.667,39.5 340,41.5C 343.742,42.7802 346.575,45.1135 348.5,48.5C 349.728,50.1759 351.061,50.5092 352.5,49.5 Z"/></g>
<g><path style="opacity:1" fill="#c7582e" d="M 415.5,26.5 C 413.775,25.722 412.109,25.3886 410.5,25.5C 404.911,28.8473 400.078,32.8473 396,37.5C 395.667,37.1667 395.333,36.8333 395,36.5C 394.641,39.5443 393.974,39.8776 393,37.5C 391.71,39.792 390.043,41.792 388,43.5C 387.667,43.1667 387.333,42.8333 387,42.5C 384.805,45.6934 381.972,48.1934 378.5,50C 377.695,51.1127 377.028,52.2794 376.5,53.5C 374.026,53.376 371.36,53.2093 368.5,53C 368.984,60.1928 369.15,68.0262 369,76.5C 369.5,77 370,77.5 370.5,78C 369.954,80.8739 369.62,84.0406 369.5,87.5C 368.209,87.2627 367.209,87.596 366.5,88.5C 365.167,88.8333 363.833,89.1667 362.5,89.5C 350.669,76.1599 339.336,62.3266 328.5,48C 328.944,46.2382 329.444,46.4049 330,48.5C 330.5,46.6667 331.667,45.5 333.5,45C 333.167,44.6667 332.833,44.3333 332.5,44C 334.132,42.6896 335.799,42.1896 337.5,42.5C 341.126,45.6567 344.793,48.8234 348.5,52C 349.793,52.49 351.127,52.6567 352.5,52.5C 352.5,51.5 352.5,50.5 352.5,49.5C 351.524,48.1851 350.524,46.8518 349.5,45.5C 347.454,36.5056 342.787,28.6723 335.5,22C 336.252,21.3292 336.586,20.4959 336.5,19.5C 338.612,18.4059 340.779,17.4059 343,16.5C 347.859,17.4461 352.859,17.4461 358,16.5C 361.648,18.0741 364.981,18.4074 368,17.5C 370.333,18.1667 372.667,18.8333 375,19.5C 378.473,19.0224 382.139,19.0224 386,19.5C 386.667,20.1667 387.333,20.8333 388,21.5C 389.398,20.9491 390.732,20.6158 392,20.5C 392.667,21.1667 393.333,21.8333 394,22.5C 397.996,22.0853 401.663,21.752 405,21.5C 408.62,22.3878 412.12,24.0545 415.5,26.5 Z"/></g>
<g><path style="opacity:0.671" fill="#df9170" d="M 22.5,61.5 C 22.5,74.5 22.5,87.5 22.5,100.5C 20.4288,107.821 22.4288,114.321 28.5,120C 30.0779,121.094 31.7446,121.928 33.5,122.5C 35.6539,123.063 37.6539,124.563 39.5,127C 38.4178,128.33 37.7512,129.83 37.5,131.5C 35.4916,130.699 34.9916,129.366 36,127.5C 33.6667,131.167 32.6667,130.833 33,126.5C 32.0853,127.328 31.4186,128.328 31,129.5C 30.6827,127.699 30.016,127.366 29,128.5C 25.9545,128.208 23.7879,126.708 22.5,124C 21.5,123.667 20.5,123.333 19.5,123C 17.4056,118.982 15.7389,114.815 14.5,110.5C 14.1826,107.428 14.5159,104.428 15.5,101.5C 16.086,101.709 16.586,102.043 17,102.5C 18.8141,101.149 18.4808,100.149 16,99.5C 15.1673,86.4872 15.334,73.4872 16.5,60.5C 17.086,60.7093 17.586,61.0426 18,61.5C 19.8884,59.256 21.3884,59.256 22.5,61.5 Z"/></g>
<g><path style="opacity:1" fill="#ba4622" d="M 94.5,86.5 C 93.8333,87.1667 93.1667,87.8333 92.5,88.5C 91.0783,88.7086 89.745,89.2086 88.5,90C 81.5763,96.7078 75.2429,103.874 69.5,111.5C 65.0831,115.926 60.4164,119.926 55.5,123.5C 54.209,123.263 53.209,123.596 52.5,124.5C 51.5,124.5 50.5,124.5 49.5,124.5C 49.7529,122.173 49.0863,120.173 47.5,118.5C 48.2388,115.575 48.5721,112.742 48.5,110C 48.0656,107.684 47.0656,105.684 45.5,104C 45.2144,102.612 45.5477,101.112 46.5,99.5C 51.6645,87.1093 56.6645,74.7759 61.5,62.5C 62.7899,63.0577 63.6232,64.0577 64,65.5C 64.3333,64.8333 64.6667,64.1667 65,63.5C 65.6667,64.8333 66.3333,66.1667 67,67.5C 67.6667,66.1667 68.3333,64.8333 69,63.5C 69.3333,64.1667 69.6667,64.8333 70,65.5C 71.1369,64.636 72.4702,63.636 74,62.5C 74.3333,63.1667 74.6667,63.8333 75,64.5C 75.2321,63.2625 75.7321,62.2625 76.5,61.5C 77.2216,61.9175 77.7216,62.5842 78,63.5C 78.3333,62.5 78.6667,61.5 79,60.5C 79.4017,61.8721 79.9017,63.2054 80.5,64.5C 79.6041,67.57 80.6041,70.07 83.5,72C 83.0426,72.414 82.7093,72.914 82.5,73.5C 83.8631,74.8928 84.6964,76.5595 85,78.5C 85.9025,79.7014 87.0692,80.5348 88.5,81C 88.0426,81.414 87.7093,81.914 87.5,82.5C 89.6699,84.861 92.0032,86.1943 94.5,86.5 Z"/></g>
<g><path style="opacity:1" fill="#d88360" d="M 123.5,63.5 C 124.167,63.5 124.833,63.5 125.5,63.5C 139.644,73.9799 154.31,83.6466 169.5,92.5C 168.874,93.5289 168.041,94.5289 167,95.5C 164.824,95.5716 162.824,95.2383 161,94.5C 159.647,95.7042 157.981,96.3708 156,96.5C 153.648,96.6951 151.648,96.0284 150,94.5C 147.163,97.3714 145.496,96.7047 145,92.5C 144.086,96.1851 143.419,95.8518 143,91.5C 142.667,92.8333 142.333,94.1667 142,95.5C 141.333,92.8333 140.667,92.8333 140,95.5C 139.333,92.8333 138.667,92.8333 138,95.5C 137.667,95.1667 137.333,94.8333 137,94.5C 133.138,96.0047 129.138,97.0047 125,97.5C 123.605,96.1854 122.605,96.5188 122,98.5C 121.333,95.8333 120.667,95.8333 120,98.5C 119.417,96.9984 118.584,95.6651 117.5,94.5C 115.53,95.4431 114.03,94.7764 113,92.5C 110.797,96.4006 107.63,97.4006 103.5,95.5C 102.877,93.2895 101.877,91.2895 100.5,89.5C 107.824,80.5108 115.49,71.8441 123.5,63.5 Z"/></g>
<g><path style="opacity:1" fill="#c96847" d="M 376.5,53.5 C 381.17,53.5111 385.503,54.5111 389.5,56.5C 385.569,66.2686 381.235,75.4352 376.5,84C 376.833,84.3333 377.167,84.6667 377.5,85C 376.264,86.3875 374.931,87.5542 373.5,88.5C 371.833,88.5 370.167,88.5 368.5,88.5C 367.833,88.5 367.167,88.5 366.5,88.5C 367.209,87.596 368.209,87.2627 369.5,87.5C 369.62,84.0406 369.954,80.8739 370.5,78C 370,77.5 369.5,77 369,76.5C 369.15,68.0262 368.984,60.1928 368.5,53C 371.36,53.2093 374.026,53.376 376.5,53.5 Z"/></g>
<g><path style="opacity:1" fill="#b5411e" d="M 441.5,74.5 C 441.45,85.8698 441.617,97.2031 442,108.5C 440.89,115.44 437.057,120.107 430.5,122.5C 427.888,123.371 425.221,124.037 422.5,124.5C 422.167,124.5 421.833,124.5 421.5,124.5C 422.061,121.966 422.394,119.466 422.5,117C 421.833,116.667 421.167,116.333 420.5,116C 420.461,114.755 420.795,113.422 421.5,112C 421.095,111.055 420.428,110.388 419.5,110C 420.428,109.612 421.095,108.945 421.5,108C 420.377,105.061 418.711,102.561 416.5,100.5C 414.433,95.2987 412.766,89.9654 411.5,84.5C 412.825,83.0474 413.658,83.3808 414,85.5C 416.991,83.0993 419.658,79.766 422,75.5C 422.333,76.1667 422.667,76.8333 423,77.5C 423.667,76.1667 424.333,74.8333 425,73.5C 426.147,74.4581 427.147,74.1247 428,72.5C 428.359,69.4557 429.026,69.1224 430,71.5C 430.317,69.6992 430.984,69.3659 432,70.5C 434.326,68.9526 435.493,67.1193 435.5,65C 433.099,64.195 433.266,63.3617 436,62.5C 436.469,64.1083 437.135,65.7749 438,67.5C 439.204,66.5294 439.704,65.5294 439.5,64.5C 440.167,67.9773 440.834,71.3107 441.5,74.5 Z"/></g>
<g><path style="opacity:1" fill="#cf7656" d="M 113.5,56.5 C 116.622,57.9819 119.622,59.6485 122.5,61.5C 122.5,62.1667 122.833,62.5 123.5,62.5C 123.5,62.8333 123.5,63.1667 123.5,63.5C 115.49,71.8441 107.824,80.5108 100.5,89.5C 98.7446,90.0722 97.0779,90.9055 95.5,92C 96.1712,92.9862 96.1712,94.1529 95.5,95.5C 94.8333,95.1667 94.1667,94.8333 93.5,94.5C 93.9349,92.2967 93.9349,90.2967 93.5,88.5C 95.7925,88.7564 97.9592,88.4231 100,87.5C 100.848,84.3022 102.348,81.4689 104.5,79C 104.167,78.6667 103.833,78.3333 103.5,78C 106.167,77.3333 106.167,76.6667 103.5,76C 104.362,73.2656 105.195,73.0989 106,75.5C 107.373,72.5875 108.873,69.7542 110.5,67C 110.167,66.6667 109.833,66.3333 109.5,66C 112.802,63.3378 114.135,60.1711 113.5,56.5 Z"/></g>
<g><path style="opacity:1" fill="#c96d50" d="M 398.5,58.5 C 399.172,59.2674 400.005,59.9341 401,60.5C 404.831,68.4828 408.331,76.4828 411.5,84.5C 412.766,89.9654 414.433,95.2987 416.5,100.5C 415.591,105.204 413.925,109.038 411.5,112C 412.634,113.016 412.301,113.683 410.5,114C 410.833,114.333 411.167,114.667 411.5,115C 409.203,117.099 407.536,119.599 406.5,122.5C 397.76,116.262 390.594,108.595 385,99.5C 381.571,95.5615 377.737,92.2281 373.5,89.5C 373.5,89.1667 373.5,88.8333 373.5,88.5C 374.931,87.5542 376.264,86.3875 377.5,85C 377.167,84.6667 376.833,84.3333 376.5,84C 381.235,75.4352 385.569,66.2686 389.5,56.5C 390.117,56.3893 390.617,56.056 391,55.5C 393.45,56.6422 395.95,57.6422 398.5,58.5 Z"/></g>
<g><path style="opacity:1" fill="#de9979" d="M 228.5,74.5 C 228.833,74.5 229.167,74.5 229.5,74.5C 229.279,77.0673 228.612,79.4006 227.5,81.5C 227.448,79.0971 227.781,76.7638 228.5,74.5 Z"/></g>
<g><path style="opacity:0.584" fill="#d26535" d="M 92.5,88.5 C 92.8333,88.5 93.1667,88.5 93.5,88.5C 93.9349,90.2967 93.9349,92.2967 93.5,94.5C 85.147,106.031 75.8137,116.865 65.5,127C 64.0692,127.465 62.9025,128.299 62,129.5C 61.5814,128.328 60.9147,127.328 60,126.5C 60.2626,127.951 60.0959,129.284 59.5,130.5C 58.4117,127.986 57.0783,125.652 55.5,123.5C 60.4164,119.926 65.0831,115.926 69.5,111.5C 75.2429,103.874 81.5763,96.7078 88.5,90C 89.745,89.2086 91.0783,88.7086 92.5,88.5 Z"/></g>
<g><path style="opacity:0.585" fill="#d26536" d="M 366.5,88.5 C 367.167,88.5 367.833,88.5 368.5,88.5C 367.88,95.5436 367.38,103.21 367,111.5C 352.02,168.088 337.353,224.755 323,281.5C 320.526,285.771 318.359,290.104 316.5,294.5C 315.094,297.414 313.094,299.914 310.5,302C 306.451,305.352 302.118,308.185 297.5,310.5C 294.687,310.548 292.021,311.215 289.5,312.5C 288.156,310.471 286.823,308.471 285.5,306.5C 289.934,304.448 294.267,302.115 298.5,299.5C 302.869,296.131 306.536,292.131 309.5,287.5C 313.016,283.809 315.516,279.475 317,274.5C 320.262,264.194 322.762,253.694 324.5,243C 324.43,242.235 324.097,241.735 323.5,241.5C 323.5,241.167 323.5,240.833 323.5,240.5C 324.931,240.119 325.764,239.119 326,237.5C 330.017,221.099 334.184,204.765 338.5,188.5C 343.922,170.479 348.589,152.146 352.5,133.5C 355.674,123.158 358.007,112.824 359.5,102.5C 358.839,97.6841 359.839,93.3508 362.5,89.5C 363.833,89.1667 365.167,88.8333 366.5,88.5 Z"/></g>
<g><path style="opacity:1" fill="#ca5b2f" d="M 359.5,102.5 C 358.007,112.824 355.674,123.158 352.5,133.5C 351.21,134.058 350.377,135.058 350,136.5C 349.309,134.109 348.309,134.109 347,136.5C 345.57,136.306 344.07,136.306 342.5,136.5C 341.459,134.009 340.626,134.009 340,136.5C 338.13,135.491 335.963,135.324 333.5,136C 334.701,135.097 335.535,133.931 336,132.5C 336.333,133.167 336.667,133.833 337,134.5C 337.98,132.741 338.647,131.074 339,129.5C 339.333,130.5 339.667,131.5 340,132.5C 341.302,129.046 342.802,125.712 344.5,122.5C 345.396,123.506 346.062,123.506 346.5,122.5C 346,121.5 345.5,120.5 345,119.5C 342.839,120.317 341.006,122.15 339.5,125C 335.845,126.828 332.511,128.494 329.5,130C 329.833,130.333 330.167,130.667 330.5,131C 328.671,131.273 327.171,132.107 326,133.5C 325.667,132.833 325.333,132.167 325,131.5C 323.506,136.252 321.673,136.252 319.5,131.5C 314.706,119.934 306.039,115.434 293.5,118C 287.136,119.873 282.469,123.706 279.5,129.5C 278.672,135.319 278.172,141.319 278,147.5C 277.959,140.996 277.292,134.662 276,128.5C 275.803,130.516 274.803,132.516 273,134.5C 272.667,133.833 272.333,133.167 272,132.5C 271,133.833 270,135.167 269,136.5C 268.333,132.5 267.667,132.5 267,136.5C 266.333,132.5 265.667,132.5 265,136.5C 264.333,132.5 263.667,132.5 263,136.5C 262.333,133.833 261.667,133.833 261,136.5C 260.333,133.833 259.667,133.833 259,136.5C 258.5,136 258,135.5 257.5,135C 259.527,132.906 261.194,130.573 262.5,128C 261.91,126.491 261.244,124.991 260.5,123.5C 258.144,125.69 255.644,127.69 253,129.5C 252.667,129.167 252.333,128.833 252,128.5C 251.385,130.116 250.385,131.449 249,132.5C 248.295,130.014 247.462,130.014 246.5,132.5C 243.87,122.746 241.87,112.746 240.5,102.5C 240.338,100.473 240.505,98.4727 241,96.5C 241.333,96.8333 241.667,97.1667 242,97.5C 242.374,96.5838 242.874,95.7504 243.5,95C 247.746,93.8022 250.913,91.3022 253,87.5C 254.23,88.2752 254.563,89.2752 254,90.5C 252.088,92.6572 250.421,94.9906 249,97.5C 248.086,96.3463 247.253,96.513 246.5,98C 247.362,100.734 248.195,100.901 249,98.5C 250.766,100.596 252.099,102.929 253,105.5C 253.667,101.5 254.333,101.5 255,105.5C 255.359,102.456 256.026,102.122 257,104.5C 257.84,101.536 258.84,101.203 260,103.5C 260.667,102.167 261.333,100.833 262,99.5C 262.741,100.641 263.575,100.641 264.5,99.5C 265.806,98.0878 266.64,96.4211 267,94.5C 267.333,95.5 267.667,96.5 268,97.5C 268.359,94.4557 269.026,94.1224 270,96.5C 270.953,94.5448 272.287,92.8782 274,91.5C 274.333,91.8333 274.667,92.1667 275,92.5C 275.667,89.8333 276.333,89.8333 277,92.5C 277.471,90.7536 278.138,89.087 279,87.5C 279.333,88.1667 279.667,88.8333 280,89.5C 280.615,87.8839 281.615,86.5505 283,85.5C 283.5,86 284,86.5 284.5,87C 282.021,90.6465 279.021,93.8132 275.5,96.5C 276.978,98.0891 278.478,99.7558 280,101.5C 280.249,100.376 280.749,99.376 281.5,98.5C 283.146,99.7786 284.313,101.445 285,103.5C 285.667,102.167 286.333,100.833 287,99.5C 287.667,102.167 288.333,102.167 289,99.5C 290.558,100.345 291.558,99.6785 292,97.5C 292.333,97.8333 292.667,98.1667 293,98.5C 296.563,94.5852 300.23,91.5852 304,89.5C 305.472,92.4631 304.639,94.9631 301.5,97C 303.231,98.6807 305.064,99.8474 307,100.5C 307.605,98.5188 308.605,98.1854 310,99.5C 310.667,95.5 311.333,95.5 312,99.5C 312.667,96.8333 313.333,96.8333 314,99.5C 314.626,97.0087 315.459,97.0087 316.5,99.5C 316.489,98.5585 316.989,97.8919 318,97.5C 318.772,97.6448 319.439,97.9781 320,98.5C 321.758,97.5305 322.258,96.3639 321.5,95C 322.872,94.5983 324.205,94.0983 325.5,93.5C 327.809,94.9327 329.309,94.266 330,91.5C 330.374,92.4162 330.874,93.2496 331.5,94C 329.91,95.0458 328.41,96.2125 327,97.5C 326.333,98.1667 326.333,98.8333 327,99.5C 328.716,98.4477 329.716,99.1144 330,101.5C 330.249,100.376 330.749,99.376 331.5,98.5C 332.967,98.723 334.467,99.0563 336,99.5C 336.333,98.8333 336.667,98.1667 337,97.5C 337.615,99.1161 338.615,100.449 340,101.5C 341.46,99.5776 343.127,98.9109 345,99.5C 346.829,97.8442 348.163,95.8442 349,93.5C 349.333,94.1667 349.667,94.8333 350,95.5C 350.605,93.5188 351.605,93.1854 353,94.5C 354.487,93.7471 354.654,92.9138 353.5,92C 354.253,90.513 355.086,90.3463 356,91.5C 356.805,89.0989 357.638,89.2656 358.5,92C 356.875,92.8525 356.542,93.8525 357.5,95C 355.5,96.3333 353.5,97.6667 351.5,99C 352.549,99.4922 353.549,99.3256 354.5,98.5C 355.427,100.113 356.261,101.779 357,103.5C 357.671,102.748 358.504,102.414 359.5,102.5 Z"/></g>
<g><path style="opacity:1" fill="#db906f" d="M 225.5,91.5 C 225.57,95.4248 224.903,99.0915 223.5,102.5C 223.43,98.5752 224.097,94.9085 225.5,91.5 Z"/></g>
<g><path style="opacity:0.999" fill="#d57e5c" d="M 169.5,92.5 C 174.812,94.6327 179.478,97.7993 183.5,102C 192.269,105.219 200.603,109.219 208.5,114C 211.686,117.182 215.186,120.015 219,122.5C 219.191,120.292 219.691,118.292 220.5,116.5C 219.152,125.338 217.486,134.004 215.5,142.5C 215.663,140.143 215.497,137.81 215,135.5C 213.446,137.969 212.113,140.303 211,142.5C 210.667,141.833 210.333,141.167 210,140.5C 209.333,141.833 208.667,143.167 208,144.5C 207.751,143.376 207.251,142.376 206.5,141.5C 206.251,142.582 206.085,143.915 206,145.5C 205,145.167 204,144.833 203,144.5C 202.333,147.167 201.667,147.167 201,144.5C 200.333,145.167 199.667,145.833 199,146.5C 196.982,144.65 195.149,142.65 193.5,140.5C 194.989,140.467 196.322,139.967 197.5,139C 196.366,137.984 196.699,137.317 198.5,137C 197.711,133.903 196.544,133.736 195,136.5C 194.439,135.978 193.772,135.645 193,135.5C 191.259,137.454 189.092,138.454 186.5,138.5C 186.977,143.742 186.144,148.742 184,153.5C 183.283,152.956 182.783,152.289 182.5,151.5C 184.51,144.34 185.01,137.007 184,129.5C 178.482,119.328 169.982,115.495 158.5,118C 153.159,119.151 149.159,121.985 146.5,126.5C 144.933,127.681 144.099,129.347 144,131.5C 143.359,137.528 143.526,143.528 144.5,149.5C 144.631,150.239 144.464,150.906 144,151.5C 142.992,151.018 141.825,150.852 140.5,151C 141.167,150.333 141.833,149.667 142.5,149C 141.833,147.333 141.167,145.667 140.5,144C 141.26,142.165 141.594,140.165 141.5,138C 141.387,136.72 140.72,135.887 139.5,135.5C 136.867,136.301 135.033,137.967 134,140.5C 133.026,138.122 132.359,138.456 132,141.5C 131.667,140.833 131.333,140.167 131,139.5C 130.667,140.833 130.333,142.167 130,143.5C 129.026,141.122 128.359,141.456 128,144.5C 127.333,140.5 126.667,140.5 126,144.5C 125.333,139.167 124.667,139.167 124,144.5C 123.667,143.833 123.333,143.167 123,142.5C 122.333,143.833 121.667,145.167 121,146.5C 119.846,144.043 118.512,144.043 117,146.5C 116.667,146.167 116.333,145.833 116,145.5C 115.517,146.448 115.351,147.448 115.5,148.5C 108.643,131.568 104.643,113.902 103.5,95.5C 107.63,97.4006 110.797,96.4006 113,92.5C 114.03,94.7764 115.53,95.4431 117.5,94.5C 118.584,95.6651 119.417,96.9984 120,98.5C 120.667,95.8333 121.333,95.8333 122,98.5C 122.605,96.5188 123.605,96.1854 125,97.5C 129.138,97.0047 133.138,96.0047 137,94.5C 137.333,94.8333 137.667,95.1667 138,95.5C 138.667,92.8333 139.333,92.8333 140,95.5C 140.667,92.8333 141.333,92.8333 142,95.5C 142.333,94.1667 142.667,92.8333 143,91.5C 143.419,95.8518 144.086,96.1851 145,92.5C 145.496,96.7047 147.163,97.3714 150,94.5C 151.648,96.0284 153.648,96.6951 156,96.5C 157.981,96.3708 159.647,95.7042 161,94.5C 162.824,95.2383 164.824,95.5716 167,95.5C 168.041,94.5289 168.874,93.5289 169.5,92.5 Z"/></g>
<g><path style="opacity:0.678" fill="#e09473" d="M 373.5,89.5 C 377.737,92.2281 381.571,95.5615 385,99.5C 390.594,108.595 397.76,116.262 406.5,122.5C 406.833,122.5 407.167,122.5 407.5,122.5C 407.5,122.833 407.5,123.167 407.5,123.5C 406.108,125.273 404.941,127.273 404,129.5C 396.32,124.32 389.82,117.986 384.5,110.5C 380.118,106.75 375.952,102.75 372,98.5C 370.866,96.2056 370.366,94.039 370.5,92C 371.942,91.6232 372.942,90.7899 373.5,89.5 Z"/></g>
<g><path style="opacity:1" fill="#bf5635" d="M 416.5,100.5 C 418.711,102.561 420.377,105.061 421.5,108C 421.095,108.945 420.428,109.612 419.5,110C 420.428,110.388 421.095,111.055 421.5,112C 420.795,113.422 420.461,114.755 420.5,116C 421.167,116.333 421.833,116.667 422.5,117C 422.394,119.466 422.061,121.966 421.5,124.5C 418.813,124.664 416.146,124.497 413.5,124C 412.333,123.5 411.5,122.667 411,121.5C 409.989,122.337 408.822,122.67 407.5,122.5C 407.167,122.5 406.833,122.5 406.5,122.5C 407.536,119.599 409.203,117.099 411.5,115C 411.167,114.667 410.833,114.333 410.5,114C 412.301,113.683 412.634,113.016 411.5,112C 413.925,109.038 415.591,105.204 416.5,100.5 Z"/></g>
<g><path style="opacity:0.678" fill="#e09473" d="M 100.5,89.5 C 101.877,91.2895 102.877,93.2895 103.5,95.5C 104.643,113.902 108.643,131.568 115.5,148.5C 118.34,162.39 121.674,176.057 125.5,189.5C 128.789,206.999 133.455,223.999 139.5,240.5C 140.872,251.068 143.205,261.402 146.5,271.5C 147.128,276.428 148.628,281.095 151,285.5C 155.416,291.752 160.916,296.752 167.5,300.5C 173.168,304.494 179.502,307.161 186.5,308.5C 186.323,310.651 185.656,312.984 184.5,315.5C 182.492,314.699 181.992,313.366 183,311.5C 182.085,312.328 181.419,313.328 181,314.5C 180.5,314 180,313.5 179.5,313C 180.404,307.329 179.57,307.496 177,313.5C 175.488,312.743 174.154,311.743 173,310.5C 171.984,311.634 171.317,311.301 171,309.5C 170.667,309.833 170.333,310.167 170,310.5C 158.779,305.017 149.779,297.017 143,286.5C 138.422,272.19 134.756,257.523 132,242.5C 129.722,238.055 128.055,233.388 127,228.5C 119.389,201.389 112.722,174.055 107,146.5C 100.522,129.946 96.6889,112.946 95.5,95.5C 96.1712,94.1529 96.1712,92.9862 95.5,92C 97.0779,90.9055 98.7446,90.0722 100.5,89.5 Z"/></g>
<g><path style="opacity:1" fill="#5b4d4b" d="M 182.5,151.5 C 171.982,162.203 160.482,163.203 148,154.5C 146.906,152.922 146.072,151.255 145.5,149.5C 145.233,141.778 145.566,134.111 146.5,126.5C 149.159,121.985 153.159,119.151 158.5,118C 169.982,115.495 178.482,119.328 184,129.5C 185.01,137.007 184.51,144.34 182.5,151.5 Z"/></g>
<g><path style="opacity:1" fill="#2b1918" d="M 319.5,131.5 C 321.919,155.247 311.586,164.08 288.5,158C 284.612,155.778 281.779,152.612 280,148.5C 279.5,142.175 279.334,135.842 279.5,129.5C 282.469,123.706 287.136,119.873 293.5,118C 306.039,115.434 314.706,119.934 319.5,131.5 Z"/></g>
<g><path style="opacity:0.627" fill="#da815b" d="M 421.5,124.5 C 421.833,124.5 422.167,124.5 422.5,124.5C 423.162,126.47 423.828,128.47 424.5,130.5C 420.62,131.334 416.62,131.667 412.5,131.5C 410.269,131.147 408.269,130.314 406.5,129C 407.406,127.301 407.739,125.467 407.5,123.5C 407.5,123.167 407.5,122.833 407.5,122.5C 408.822,122.67 409.989,122.337 411,121.5C 411.5,122.667 412.333,123.5 413.5,124C 416.146,124.497 418.813,124.664 421.5,124.5 Z"/></g>
<g><path style="opacity:0.357" fill="#d57145" d="M 314.5,19.5 C 294.196,10.7989 273.03,5.79892 251,4.5C 237.918,5.33121 224.918,5.33121 212,4.5C 188.347,5.4971 166.013,11.4971 145,22.5C 138.083,11.2853 127.916,5.61861 114.5,5.5C 93.1039,7.50789 71.7705,10.0079 50.5,13C 42.2693,15.4469 34.936,19.4469 28.5,25C 30.9541,26.409 32.9541,28.2423 34.5,30.5C 32.1377,33.192 29.8044,35.8587 27.5,38.5C 24.9954,38.0198 22.6621,37.0198 20.5,35.5C 18.3118,39.2301 16.8118,43.2301 16,47.5C 14.9474,66.8238 14.1141,86.1571 13.5,105.5C 13.5068,107.369 13.8401,109.036 14.5,110.5C 15.7389,114.815 17.4056,118.982 19.5,123C 20.5,123.333 21.5,123.667 22.5,124C 23.7879,126.708 25.9545,128.208 29,128.5C 30.016,127.366 30.6827,127.699 31,129.5C 31.4186,128.328 32.0853,127.328 33,126.5C 32.6667,130.833 33.6667,131.167 36,127.5C 34.9916,129.366 35.4916,130.699 37.5,131.5C 42.2096,131.473 46.8762,131.306 51.5,131C 51.1667,130.667 50.8333,130.333 50.5,130C 51.2444,128.185 51.9111,126.352 52.5,124.5C 53.209,123.596 54.209,123.263 55.5,123.5C 57.0783,125.652 58.4117,127.986 59.5,130.5C 60.0959,129.284 60.2626,127.951 60,126.5C 60.9147,127.328 61.5814,128.328 62,129.5C 62.9025,128.299 64.0692,127.465 65.5,127C 75.8137,116.865 85.147,106.031 93.5,94.5C 94.1667,94.8333 94.8333,95.1667 95.5,95.5C 96.6889,112.946 100.522,129.946 107,146.5C 112.722,174.055 119.389,201.389 127,228.5C 128.055,233.388 129.722,238.055 132,242.5C 134.756,257.523 138.422,272.19 143,286.5C 149.779,297.017 158.779,305.017 170,310.5C 170.333,310.167 170.667,309.833 171,309.5C 171.317,311.301 171.984,311.634 173,310.5C 174.154,311.743 175.488,312.743 177,313.5C 179.57,307.496 180.404,307.329 179.5,313C 180,313.5 180.5,314 181,314.5C 181.419,313.328 182.085,312.328 183,311.5C 181.992,313.366 182.492,314.699 184.5,315.5C 190.297,316.021 196.463,317.021 203,318.5C 203.875,316.487 205.209,316.487 207,318.5C 215.058,318.384 223.391,318.384 232,318.5C 232.333,317.833 232.667,317.167 233,316.5C 234.667,317.167 236.333,317.833 238,318.5C 243.226,317.538 248.226,317.538 253,318.5C 257.671,317.563 262.171,316.896 266.5,316.5C 265.117,314.68 264.117,312.68 263.5,310.5C 270.964,309.812 278.298,308.478 285.5,306.5C 286.823,308.471 288.156,310.471 289.5,312.5C 292.021,311.215 294.687,310.548 297.5,310.5C 285.843,316.997 273.509,320.163 260.5,320C 238.575,320.41 216.742,320.577 195,320.5C 174.351,317.665 157.351,307.998 144,291.5C 140.367,285.608 137.7,279.275 136,272.5C 122.77,219.15 108.937,165.983 94.5,113C 94.8333,112.667 95.1667,112.333 95.5,112C 94.3041,107.66 93.4707,103.493 93,99.5C 85.1281,107.703 77.6281,116.203 70.5,125C 55.1988,137.227 39.1988,138.227 22.5,128C 17.9686,124.429 14.802,119.929 13,114.5C 12.5696,91.5496 12.9029,68.8829 14,46.5C 19.3708,29.4613 30.5375,17.9613 47.5,12C 69.8613,8.21339 92.3613,5.38006 115,3.5C 128.341,3.99792 138.674,9.66459 146,20.5C 172.886,6.34938 201.552,0.682715 232,3.5C 255.121,1.61923 277.621,4.45257 299.5,12C 304.84,14.0032 309.84,16.5032 314.5,19.5 Z"/></g>
<g><path style="opacity:0.627" fill="#d97d56" d="M 49.5,124.5 C 50.5,124.5 51.5,124.5 52.5,124.5C 51.9111,126.352 51.2444,128.185 50.5,130C 50.8333,130.333 51.1667,130.667 51.5,131C 46.8762,131.306 42.2096,131.473 37.5,131.5C 37.7512,129.83 38.4178,128.33 39.5,127C 37.6539,124.563 35.6539,123.063 33.5,122.5C 34.8221,122.67 35.9887,122.337 37,121.5C 37.5,122.667 38.3333,123.5 39.5,124C 42.8168,124.498 46.1501,124.665 49.5,124.5 Z"/></g>
<g><path style="opacity:1" fill="#c56749" d="M 22.5,100.5 C 23.6578,105.012 26.1578,105.678 30,102.5C 31.5655,101.939 32.8989,102.606 34,104.5C 35.3333,101.833 36.6667,101.833 38,104.5C 39.5797,101.746 40.7464,101.912 41.5,105C 40.7135,107.099 40.3801,109.266 40.5,111.5C 39.448,111.351 38.448,111.517 37.5,112C 38.8331,113.84 38.6665,114.34 37,113.5C 36.5,114.667 35.6667,115.5 34.5,116C 36.9913,116.626 36.9913,117.459 34.5,118.5C 33.7542,119.736 33.4208,121.07 33.5,122.5C 31.7446,121.928 30.0779,121.094 28.5,120C 22.4288,114.321 20.4288,107.821 22.5,100.5 Z"/></g>
<g><path style="opacity:1" fill="#bf5736" d="M 46.5,99.5 C 45.5477,101.112 45.2144,102.612 45.5,104C 47.0656,105.684 48.0656,107.684 48.5,110C 48.5721,112.742 48.2388,115.575 47.5,118.5C 49.0863,120.173 49.7529,122.173 49.5,124.5C 46.1501,124.665 42.8168,124.498 39.5,124C 38.3333,123.5 37.5,122.667 37,121.5C 35.9887,122.337 34.8221,122.67 33.5,122.5C 33.4208,121.07 33.7542,119.736 34.5,118.5C 36.9913,117.459 36.9913,116.626 34.5,116C 35.6667,115.5 36.5,114.667 37,113.5C 38.6665,114.34 38.8331,113.84 37.5,112C 38.448,111.517 39.448,111.351 40.5,111.5C 40.3801,109.266 40.7135,107.099 41.5,105C 40.7464,101.912 39.5797,101.746 38,104.5C 36.6667,101.833 35.3333,101.833 34,104.5C 32.8989,102.606 31.5655,101.939 30,102.5C 26.1578,105.678 23.6578,105.012 22.5,100.5C 23.1174,100.389 23.6174,100.056 24,99.5C 25.3333,102.167 26.6667,102.167 28,99.5C 29.4823,101.781 31.149,101.781 33,99.5C 36.1481,100.313 39.1481,100.313 42,99.5C 42.6667,100.167 43.3333,100.833 44,101.5C 44.4169,100.244 45.2502,99.5774 46.5,99.5 Z"/></g>
<g><path style="opacity:1" fill="#84645a" d="M 146.5,126.5 C 145.566,134.111 145.233,141.778 145.5,149.5C 145.167,149.5 144.833,149.5 144.5,149.5C 143.526,143.528 143.359,137.528 144,131.5C 144.099,129.347 144.933,127.681 146.5,126.5 Z"/></g>
<g><path style="opacity:1" fill="#d17959" d="M 215.5,142.5 C 214.508,152.801 212.341,162.801 209,172.5C 206.732,177.581 203.899,182.248 200.5,186.5C 200.767,183.225 199.767,182.392 197.5,184C 199.701,184.777 199.701,185.944 197.5,187.5C 195.333,187.863 193,188.363 190.5,189C 191.833,188.333 191.833,187.667 190.5,187C 191.449,186.383 192.282,186.549 193,187.5C 194.332,186.838 195.498,185.672 196.5,184C 195.833,183.667 195.167,183.333 194.5,183C 195.167,181 196.5,179.667 198.5,179C 197.542,177.853 197.875,176.853 199.5,176C 198.874,175.25 198.374,174.416 198,173.5C 192.945,175.865 188.612,179.198 185,183.5C 183.333,183.167 181.667,182.833 180,182.5C 177.697,182.742 175.697,184.075 174,186.5C 172.513,185.747 172.346,184.914 173.5,184C 172.584,183.626 171.75,183.126 171,182.5C 170.581,183.672 169.915,184.672 169,185.5C 167.56,184.07 167.226,182.403 168,180.5C 168.974,182.878 169.641,182.544 170,179.5C 170.333,180.167 170.667,180.833 171,181.5C 171.497,174.497 172.163,174.163 173,180.5C 173.003,177.284 174.169,174.617 176.5,172.5C 169.888,174.036 163.721,177.703 158,183.5C 157.667,182.833 157.333,182.167 157,181.5C 156.333,182.833 155.667,184.167 155,185.5C 154.667,184.833 154.333,184.167 154,183.5C 151.597,183.796 149.097,184.296 146.5,185C 148.947,183.771 149.113,182.271 147,180.5C 145.5,184.854 143.333,185.687 140.5,183C 141.469,181.242 142.636,180.742 144,181.5C 145.529,180.271 146.696,178.771 147.5,177C 146.833,176.667 146.167,176.333 145.5,176C 147.717,174.725 150.051,173.725 152.5,173C 151.333,171.833 150.167,170.667 149,169.5C 146.349,172.806 142.682,175.806 138,178.5C 137.086,177.346 136.253,177.513 135.5,179C 135.833,179.333 136.167,179.667 136.5,180C 133.228,181.608 130.228,183.608 127.5,186C 126.177,186.816 125.511,187.983 125.5,189.5C 121.674,176.057 118.34,162.39 115.5,148.5C 115.351,147.448 115.517,146.448 116,145.5C 116.333,145.833 116.667,146.167 117,146.5C 118.512,144.043 119.846,144.043 121,146.5C 121.667,145.167 122.333,143.833 123,142.5C 123.333,143.167 123.667,143.833 124,144.5C 124.667,139.167 125.333,139.167 126,144.5C 126.667,140.5 127.333,140.5 128,144.5C 128.359,141.456 129.026,141.122 130,143.5C 130.333,142.167 130.667,140.833 131,139.5C 131.333,140.167 131.667,140.833 132,141.5C 132.359,138.456 133.026,138.122 134,140.5C 135.033,137.967 136.867,136.301 139.5,135.5C 140.72,135.887 141.387,136.72 141.5,138C 141.594,140.165 141.26,142.165 140.5,144C 141.167,145.667 141.833,147.333 142.5,149C 141.833,149.667 141.167,150.333 140.5,151C 141.825,150.852 142.992,151.018 144,151.5C 144.464,150.906 144.631,150.239 144.5,149.5C 144.833,149.5 145.167,149.5 145.5,149.5C 146.072,151.255 146.906,152.922 148,154.5C 160.482,163.203 171.982,162.203 182.5,151.5C 182.783,152.289 183.283,152.956 184,153.5C 186.144,148.742 186.977,143.742 186.5,138.5C 189.092,138.454 191.259,137.454 193,135.5C 193.772,135.645 194.439,135.978 195,136.5C 196.544,133.736 197.711,133.903 198.5,137C 196.699,137.317 196.366,137.984 197.5,139C 196.322,139.967 194.989,140.467 193.5,140.5C 195.149,142.65 196.982,144.65 199,146.5C 199.667,145.833 200.333,145.167 201,144.5C 201.667,147.167 202.333,147.167 203,144.5C 204,144.833 205,145.167 206,145.5C 206.085,143.915 206.251,142.582 206.5,141.5C 207.251,142.376 207.751,143.376 208,144.5C 208.667,143.167 209.333,141.833 210,140.5C 210.333,141.167 210.667,141.833 211,142.5C 212.113,140.303 213.446,137.969 215,135.5C 215.497,137.81 215.663,140.143 215.5,142.5 Z"/></g>
<g><path style="opacity:0.078" fill="#d57346" d="M 424.5,135.5 C 425.833,136.167 425.833,136.167 424.5,135.5 Z"/></g>
<g><path style="opacity:0.078" fill="#d57346" d="M 419.5,150.5 C 420.833,151.167 420.833,151.167 419.5,150.5 Z"/></g>
<g><path style="opacity:1" fill="#f5ede0" d="M 233.5,64.5 C 235.233,77.3991 237.566,90.0658 240.5,102.5C 241.87,112.746 243.87,122.746 246.5,132.5C 247.871,150.578 252.538,167.578 260.5,183.5C 261.677,185.103 261.511,186.436 260,187.5C 259.667,187.167 259.333,186.833 259,186.5C 258,187.833 257,189.167 256,190.5C 255.667,190.167 255.333,189.833 255,189.5C 253.333,191.167 251.667,192.833 250,194.5C 249.667,194.167 249.333,193.833 249,193.5C 246.135,199.529 244.469,199.529 244,193.5C 244.046,196.633 243.046,199.3 241,201.5C 240.667,201.167 240.333,200.833 240,200.5C 238.253,204.838 235.919,205.504 233,202.5C 232.316,203.784 232.483,204.951 233.5,206C 232.134,207.6 231.134,209.433 230.5,211.5C 229.41,212.727 228.076,213.56 226.5,214C 227.167,214.333 227.833,214.667 228.5,215C 226.667,215.5 225.5,216.667 225,218.5C 224.667,217.833 224.333,217.167 224,216.5C 221.667,218.167 219.333,219.833 217,221.5C 216.667,221.167 216.333,220.833 216,220.5C 213.438,222.638 210.772,225.305 208,228.5C 207.026,226.122 206.359,226.456 206,229.5C 205.667,229.167 205.333,228.833 205,228.5C 203.915,230.373 202.582,232.04 201,233.5C 200.667,233.167 200.333,232.833 200,232.5C 198.659,235.187 196.993,236.853 195,237.5C 194.333,234.833 193.667,234.833 193,237.5C 191.84,235.203 190.84,235.536 190,238.5C 189.309,236.109 188.309,236.109 187,238.5C 185.363,236.19 183.196,234.69 180.5,234C 186.754,230.41 192.42,226.077 197.5,221C 198.5,218.667 200.167,217 202.5,216C 201.258,212.643 200.424,212.81 200,216.5C 199.667,215.833 199.333,215.167 199,214.5C 197.684,215.974 196.684,217.641 196,219.5C 195.333,216.833 194.667,216.833 194,219.5C 193.667,219.167 193.333,218.833 193,218.5C 189.855,221.734 186.522,224.734 183,227.5C 182,227.5 181,227.5 180,227.5C 178.391,230.76 176.058,232.426 173,232.5C 172.558,234.679 171.558,235.345 170,234.5C 169.431,238.361 168.598,238.361 167.5,234.5C 165.803,235.364 164.637,236.697 164,238.5C 162.015,237.584 160.015,235.917 158,233.5C 157.333,232.833 157.333,232.167 158,231.5C 160.667,230.167 162.667,228.167 164,225.5C 164.333,225.833 164.667,226.167 165,226.5C 170.337,220.457 176.003,215.457 182,211.5C 181.787,209.6 180.953,207.933 179.5,206.5C 187.79,201.21 194.79,194.544 200.5,186.5C 203.899,182.248 206.732,177.581 209,172.5C 212.341,162.801 214.508,152.801 215.5,142.5C 217.486,134.004 219.152,125.338 220.5,116.5C 221.701,111.992 222.701,107.325 223.5,102.5C 224.903,99.0915 225.57,95.4248 225.5,91.5C 226.378,88.2389 227.044,84.9055 227.5,81.5C 228.612,79.4006 229.279,77.0673 229.5,74.5C 229.589,70.2826 230.423,66.2826 232,62.5C 232.278,63.4158 232.778,64.0825 233.5,64.5 Z"/></g>
<g><path style="opacity:0.999" fill="#c25128" d="M 352.5,133.5 C 348.589,152.146 343.922,170.479 338.5,188.5C 338.565,188.062 338.399,187.728 338,187.5C 335.035,189.132 332.701,191.465 331,194.5C 330.667,193.833 330.333,193.167 330,192.5C 329.716,194.886 328.716,195.552 327,194.5C 325.513,195.253 325.346,196.086 326.5,197C 325.551,197.617 324.718,197.451 324,196.5C 322.348,197.068 320.682,198.401 319,200.5C 318.333,197.833 317.667,197.833 317,200.5C 316.333,199.833 315.667,199.167 315,198.5C 314,199.833 313,199.833 312,198.5C 310.667,199.167 309.667,200.167 309,201.5C 309.698,199.236 309.198,197.403 307.5,196C 311.638,194.564 312.471,192.064 310,188.5C 309.641,191.544 308.974,191.878 308,189.5C 307.683,191.301 307.016,191.634 306,190.5C 306.178,192.44 305.178,194.107 303,195.5C 302.667,195.167 302.333,194.833 302,194.5C 298.039,197.811 294.372,200.811 291,203.5C 290.026,201.122 289.359,201.456 289,204.5C 288.217,202.567 288.717,201.067 290.5,200C 288.989,198.385 287.656,198.385 286.5,200C 287.297,202.749 287.297,205.249 286.5,207.5C 276.248,201.249 267.581,193.249 260.5,183.5C 252.538,167.578 247.871,150.578 246.5,132.5C 247.462,130.014 248.295,130.014 249,132.5C 250.385,131.449 251.385,130.116 252,128.5C 252.333,128.833 252.667,129.167 253,129.5C 255.644,127.69 258.144,125.69 260.5,123.5C 261.244,124.991 261.91,126.491 262.5,128C 261.194,130.573 259.527,132.906 257.5,135C 258,135.5 258.5,136 259,136.5C 259.667,133.833 260.333,133.833 261,136.5C 261.667,133.833 262.333,133.833 263,136.5C 263.667,132.5 264.333,132.5 265,136.5C 265.667,132.5 266.333,132.5 267,136.5C 267.667,132.5 268.333,132.5 269,136.5C 270,135.167 271,133.833 272,132.5C 272.333,133.167 272.667,133.833 273,134.5C 274.803,132.516 275.803,130.516 276,128.5C 277.292,134.662 277.959,140.996 278,147.5C 278.172,141.319 278.672,135.319 279.5,129.5C 279.334,135.842 279.5,142.175 280,148.5C 281.779,152.612 284.612,155.778 288.5,158C 311.586,164.08 321.919,155.247 319.5,131.5C 321.673,136.252 323.506,136.252 325,131.5C 325.333,132.167 325.667,132.833 326,133.5C 327.171,132.107 328.671,131.273 330.5,131C 330.167,130.667 329.833,130.333 329.5,130C 332.511,128.494 335.845,126.828 339.5,125C 341.006,122.15 342.839,120.317 345,119.5C 345.5,120.5 346,121.5 346.5,122.5C 346.062,123.506 345.396,123.506 344.5,122.5C 342.802,125.712 341.302,129.046 340,132.5C 339.667,131.5 339.333,130.5 339,129.5C 338.647,131.074 337.98,132.741 337,134.5C 336.667,133.833 336.333,133.167 336,132.5C 335.535,133.931 334.701,135.097 333.5,136C 335.963,135.324 338.13,135.491 340,136.5C 340.626,134.009 341.459,134.009 342.5,136.5C 344.07,136.306 345.57,136.306 347,136.5C 348.309,134.109 349.309,134.109 350,136.5C 350.377,135.058 351.21,134.058 352.5,133.5 Z"/></g>
<g><path style="opacity:0.078" fill="#d57346" d="M 416.5,157.5 C 417.833,158.167 417.833,158.167 416.5,157.5 Z"/></g>
<g><path style="opacity:1" fill="#cd7456" d="M 200.5,186.5 C 194.79,194.544 187.79,201.21 179.5,206.5C 172.881,210.149 166.548,214.315 160.5,219C 153.325,226.008 146.325,233.175 139.5,240.5C 133.455,223.999 128.789,206.999 125.5,189.5C 125.511,187.983 126.177,186.816 127.5,186C 130.228,183.608 133.228,181.608 136.5,180C 136.167,179.667 135.833,179.333 135.5,179C 136.253,177.513 137.086,177.346 138,178.5C 142.682,175.806 146.349,172.806 149,169.5C 150.167,170.667 151.333,171.833 152.5,173C 150.051,173.725 147.717,174.725 145.5,176C 146.167,176.333 146.833,176.667 147.5,177C 146.696,178.771 145.529,180.271 144,181.5C 142.636,180.742 141.469,181.242 140.5,183C 143.333,185.687 145.5,184.854 147,180.5C 149.113,182.271 148.947,183.771 146.5,185C 149.097,184.296 151.597,183.796 154,183.5C 154.333,184.167 154.667,184.833 155,185.5C 155.667,184.167 156.333,182.833 157,181.5C 157.333,182.167 157.667,182.833 158,183.5C 163.721,177.703 169.888,174.036 176.5,172.5C 174.169,174.617 173.003,177.284 173,180.5C 172.163,174.163 171.497,174.497 171,181.5C 170.667,180.833 170.333,180.167 170,179.5C 169.641,182.544 168.974,182.878 168,180.5C 167.226,182.403 167.56,184.07 169,185.5C 169.915,184.672 170.581,183.672 171,182.5C 171.75,183.126 172.584,183.626 173.5,184C 172.346,184.914 172.513,185.747 174,186.5C 175.697,184.075 177.697,182.742 180,182.5C 181.667,182.833 183.333,183.167 185,183.5C 188.612,179.198 192.945,175.865 198,173.5C 198.374,174.416 198.874,175.25 199.5,176C 197.875,176.853 197.542,177.853 198.5,179C 196.5,179.667 195.167,181 194.5,183C 195.167,183.333 195.833,183.667 196.5,184C 195.498,185.672 194.332,186.838 193,187.5C 192.282,186.549 191.449,186.383 190.5,187C 191.833,187.667 191.833,188.333 190.5,189C 193,188.363 195.333,187.863 197.5,187.5C 199.701,185.944 199.701,184.777 197.5,184C 199.767,182.392 200.767,183.225 200.5,186.5 Z"/></g>
<g><path style="opacity:0.078" fill="#d57346" d="M 396.5,186.5 C 397.833,187.167 397.833,187.167 396.5,186.5 Z"/></g>
<g><path style="opacity:0.078" fill="#d57346" d="M 69.5,187.5 C 70.8333,188.167 70.8333,188.167 69.5,187.5 Z"/></g>
<g><path style="opacity:1" fill="#bc4924" d="M 338.5,188.5 C 334.184,204.765 330.017,221.099 326,237.5C 325.764,239.119 324.931,240.119 323.5,240.5C 317.167,232.167 309.833,224.833 301.5,218.5C 296.5,214.833 291.5,211.167 286.5,207.5C 287.297,205.249 287.297,202.749 286.5,200C 287.656,198.385 288.989,198.385 290.5,200C 288.717,201.067 288.217,202.567 289,204.5C 289.359,201.456 290.026,201.122 291,203.5C 294.372,200.811 298.039,197.811 302,194.5C 302.333,194.833 302.667,195.167 303,195.5C 305.178,194.107 306.178,192.44 306,190.5C 307.016,191.634 307.683,191.301 308,189.5C 308.974,191.878 309.641,191.544 310,188.5C 312.471,192.064 311.638,194.564 307.5,196C 309.198,197.403 309.698,199.236 309,201.5C 309.667,200.167 310.667,199.167 312,198.5C 313,199.833 314,199.833 315,198.5C 315.667,199.167 316.333,199.833 317,200.5C 317.667,197.833 318.333,197.833 319,200.5C 320.682,198.401 322.348,197.068 324,196.5C 324.718,197.451 325.551,197.617 326.5,197C 325.346,196.086 325.513,195.253 327,194.5C 328.716,195.552 329.716,194.886 330,192.5C 330.333,193.167 330.667,193.833 331,194.5C 332.701,191.465 335.035,189.132 338,187.5C 338.399,187.728 338.565,188.062 338.5,188.5 Z"/></g>
<g><path style="opacity:1" fill="#efe7d7" d="M 260.5,183.5 C 267.581,193.249 276.248,201.249 286.5,207.5C 291.5,211.167 296.5,214.833 301.5,218.5C 299.007,218.329 297.174,219.329 296,221.5C 289.957,225.123 283.957,229.457 278,234.5C 276.984,233.366 276.317,233.699 276,235.5C 275.667,234.833 275.333,234.167 275,233.5C 273.667,234.833 272.333,236.167 271,237.5C 270.333,236.833 269.667,236.167 269,235.5C 268.803,237.516 267.803,239.516 266,241.5C 265.617,240.944 265.117,240.611 264.5,240.5C 262.33,238.914 259.996,237.58 257.5,236.5C 256.737,235.732 255.737,235.232 254.5,235C 239.661,234.172 224.994,234.339 210.5,235.5C 199.802,236.522 195.802,242.188 198.5,252.5C 198.414,253.496 198.748,254.329 199.5,255C 196.466,258.517 193.133,260.85 189.5,262C 187.412,264.088 184.912,266.588 182,269.5C 181.667,269.167 181.333,268.833 181,268.5C 180.276,270.959 178.943,271.959 177,271.5C 176.333,275.5 175.667,275.5 175,271.5C 174.667,272.833 174.333,274.167 174,275.5C 173.187,267.833 172.521,268.166 172,276.5C 171.333,267.167 170.667,267.167 170,276.5C 169.187,268.833 168.521,269.166 168,277.5C 167.667,275.167 167.333,272.833 167,270.5C 166.759,273.289 166.092,275.956 165,278.5C 164.395,276.519 163.395,276.185 162,277.5C 160.667,276.833 159.667,275.833 159,274.5C 158.444,276.595 157.944,276.762 157.5,275C 158.34,273.829 159.173,272.662 160,271.5C 160.333,272.167 160.667,272.833 161,273.5C 161.667,268.167 162.333,268.167 163,273.5C 163.251,271.567 163.751,269.734 164.5,268C 165.744,267.544 166.577,268.044 167,269.5C 167.707,267.919 168.54,266.419 169.5,265C 169.167,264.667 168.833,264.333 168.5,264C 172.875,262.059 176.042,258.892 178,254.5C 178.333,255.167 178.667,255.833 179,256.5C 179.5,255.333 180.333,254.5 181.5,254C 179.776,253.552 179.109,252.718 179.5,251.5C 178.408,252.831 177.074,253.664 175.5,254C 176.654,254.914 176.487,255.747 175,256.5C 174.586,256.043 174.086,255.709 173.5,255.5C 172.667,256.5 171.833,257.5 171,258.5C 170.667,258.167 170.333,257.833 170,257.5C 169,258.833 168,260.167 167,261.5C 166.667,260.833 166.333,260.167 166,259.5C 164.245,262.044 162.245,264.377 160,266.5C 158.984,265.366 158.317,265.699 158,267.5C 157.667,266.833 157.333,266.167 157,265.5C 156.059,267.772 154.726,269.772 153,271.5C 151.984,270.366 151.317,270.699 151,272.5C 150.333,269.833 149.667,269.833 149,272.5C 148.667,271.5 148.333,270.5 148,269.5C 147.722,270.416 147.222,271.082 146.5,271.5C 143.205,261.402 140.872,251.068 139.5,240.5C 146.325,233.175 153.325,226.008 160.5,219C 166.548,214.315 172.881,210.149 179.5,206.5C 180.953,207.933 181.787,209.6 182,211.5C 176.003,215.457 170.337,220.457 165,226.5C 164.667,226.167 164.333,225.833 164,225.5C 162.667,228.167 160.667,230.167 158,231.5C 157.333,232.167 157.333,232.833 158,233.5C 160.015,235.917 162.015,237.584 164,238.5C 164.637,236.697 165.803,235.364 167.5,234.5C 168.598,238.361 169.431,238.361 170,234.5C 171.558,235.345 172.558,234.679 173,232.5C 176.058,232.426 178.391,230.76 180,227.5C 181,227.5 182,227.5 183,227.5C 186.522,224.734 189.855,221.734 193,218.5C 193.333,218.833 193.667,219.167 194,219.5C 194.667,216.833 195.333,216.833 196,219.5C 196.684,217.641 197.684,215.974 199,214.5C 199.333,215.167 199.667,215.833 200,216.5C 200.424,212.81 201.258,212.643 202.5,216C 200.167,217 198.5,218.667 197.5,221C 192.42,226.077 186.754,230.41 180.5,234C 183.196,234.69 185.363,236.19 187,238.5C 188.309,236.109 189.309,236.109 190,238.5C 190.84,235.536 191.84,235.203 193,237.5C 193.667,234.833 194.333,234.833 195,237.5C 196.993,236.853 198.659,235.187 200,232.5C 200.333,232.833 200.667,233.167 201,233.5C 202.582,232.04 203.915,230.373 205,228.5C 205.333,228.833 205.667,229.167 206,229.5C 206.359,226.456 207.026,226.122 208,228.5C 210.772,225.305 213.438,222.638 216,220.5C 216.333,220.833 216.667,221.167 217,221.5C 219.333,219.833 221.667,218.167 224,216.5C 224.333,217.167 224.667,217.833 225,218.5C 225.5,216.667 226.667,215.5 228.5,215C 227.833,214.667 227.167,214.333 226.5,214C 228.076,213.56 229.41,212.727 230.5,211.5C 231.134,209.433 232.134,207.6 233.5,206C 232.483,204.951 232.316,203.784 233,202.5C 235.919,205.504 238.253,204.838 240,200.5C 240.333,200.833 240.667,201.167 241,201.5C 243.046,199.3 244.046,196.633 244,193.5C 244.469,199.529 246.135,199.529 249,193.5C 249.333,193.833 249.667,194.167 250,194.5C 251.667,192.833 253.333,191.167 255,189.5C 255.333,189.833 255.667,190.167 256,190.5C 257,189.167 258,187.833 259,186.5C 259.333,186.833 259.667,187.167 260,187.5C 261.511,186.436 261.677,185.103 260.5,183.5 Z"/></g>
<g><path style="opacity:1" fill="#eae0cf" d="M 301.5,218.5 C 309.833,224.833 317.167,232.167 323.5,240.5C 323.5,240.833 323.5,241.167 323.5,241.5C 321.304,242.854 319.804,244.854 319,247.5C 318.667,246.833 318.333,246.167 318,245.5C 314.279,248.947 310.113,251.78 305.5,254C 304.638,256.734 303.805,256.901 303,254.5C 302.333,255.833 301.667,257.167 301,258.5C 300.667,258.167 300.333,257.833 300,257.5C 298.328,260.514 296.328,262.514 294,263.5C 293.333,260.833 292.667,260.833 292,263.5C 291.333,260.833 290.667,260.833 290,263.5C 289.667,262.833 289.333,262.167 289,261.5C 288.333,262.833 287.667,264.167 287,265.5C 286.333,264.167 285.667,262.833 285,261.5C 284.333,264.167 283.667,264.167 283,261.5C 281.979,265.807 280.812,266.141 279.5,262.5C 281.003,259.462 283.003,257.629 285.5,257C 285.167,256.667 284.833,256.333 284.5,256C 287.627,253.627 291.127,250.793 295,247.5C 295.315,246.092 294.982,244.759 294,243.5C 290.373,246.489 286.706,249.489 283,252.5C 282.667,252.167 282.333,251.833 282,251.5C 278.793,255.186 274.96,258.019 270.5,260C 271.654,260.914 271.487,261.747 270,262.5C 264.665,266.101 259.331,270.434 254,275.5C 253.667,275.167 253.333,274.833 253,274.5C 251.992,276.259 250.492,277.426 248.5,278C 247.874,278.75 247.374,279.584 247,280.5C 245.149,278.96 243.982,277.46 243.5,276C 244.056,275.617 244.389,275.117 244.5,274.5C 250.502,267.302 256.835,260.302 263.5,253.5C 267.114,249.507 267.447,245.173 264.5,240.5C 265.117,240.611 265.617,240.944 266,241.5C 267.803,239.516 268.803,237.516 269,235.5C 269.667,236.167 270.333,236.833 271,237.5C 272.333,236.167 273.667,234.833 275,233.5C 275.333,234.167 275.667,234.833 276,235.5C 276.317,233.699 276.984,233.366 278,234.5C 283.957,229.457 289.957,225.123 296,221.5C 297.174,219.329 299.007,218.329 301.5,218.5 Z"/></g>
<g><path style="opacity:1" fill="#b0a398" d="M 210.5,235.5 C 224.994,234.339 239.661,234.172 254.5,235C 255.737,235.232 256.737,235.732 257.5,236.5C 255.139,236.326 252.806,235.993 250.5,235.5C 237.167,235.5 223.833,235.5 210.5,235.5 Z"/></g>
<g><path style="opacity:1" fill="#5f4f4d" d="M 210.5,235.5 C 223.833,235.5 237.167,235.5 250.5,235.5C 250.5,235.833 250.5,236.167 250.5,236.5C 237.483,236.168 224.483,236.501 211.5,237.5C 207.826,242.832 203.826,247.832 199.5,252.5C 199.167,252.5 198.833,252.5 198.5,252.5C 195.802,242.188 199.802,236.522 210.5,235.5 Z"/></g>
<g><path style="opacity:1" fill="#402f2e" d="M 250.5,236.5 C 255.217,241.882 259.55,247.549 263.5,253.5C 256.835,260.302 250.502,267.302 244.5,274.5C 242.405,275.412 240.405,276.579 238.5,278C 234.167,278.667 229.833,278.667 225.5,278C 221.05,275.381 217.05,272.214 213.5,268.5C 208.461,263.463 203.794,258.129 199.5,252.5C 203.826,247.832 207.826,242.832 211.5,237.5C 224.483,236.501 237.483,236.168 250.5,236.5 Z"/></g>
<g><path style="opacity:1" fill="#2a1a19" d="M 250.5,235.5 C 252.806,235.993 255.139,236.326 257.5,236.5C 259.996,237.58 262.33,238.914 264.5,240.5C 267.447,245.173 267.114,249.507 263.5,253.5C 259.55,247.549 255.217,241.882 250.5,236.5C 250.5,236.167 250.5,235.833 250.5,235.5 Z"/></g>
<g><path style="opacity:1" fill="#e6dac7" d="M 323.5,241.5 C 324.097,241.735 324.43,242.235 324.5,243C 322.762,253.694 320.262,264.194 317,274.5C 315.516,279.475 313.016,283.809 309.5,287.5C 308.504,287.414 307.671,287.748 307,288.5C 306.667,287.833 306.333,287.167 306,286.5C 305,288.5 304,290.5 303,292.5C 302.333,289.833 301.667,289.833 301,292.5C 300.667,291.833 300.333,291.167 300,290.5C 299.667,291.833 299.333,293.167 299,294.5C 298.764,292.236 298.264,290.069 297.5,288C 299.301,287.683 299.634,287.016 298.5,286C 301.7,286.653 303.366,285.153 303.5,281.5C 306.901,278.606 310.235,276.106 313.5,274C 313,273.5 312.5,273 312,272.5C 304.572,277.034 297.572,282.034 291,287.5C 290.667,287.167 290.333,286.833 290,286.5C 289.16,289.464 288.16,289.797 287,287.5C 284.733,290.772 282.067,293.772 279,296.5C 278.667,295.833 278.333,295.167 278,294.5C 276.26,295.716 275.26,297.382 275,299.5C 274.667,298.5 274.333,297.5 274,296.5C 271.835,298.592 270.835,300.926 271,303.5C 270,304.167 269,304.833 268,305.5C 267.383,304.551 267.549,303.718 268.5,303C 265.833,302.333 265.833,301.667 268.5,301C 265.833,300.333 265.833,299.667 268.5,299C 267.151,298.228 266.318,297.061 266,295.5C 265.691,296.766 265.191,297.933 264.5,299C 265.458,300.147 265.125,301.147 263.5,302C 264.167,302.667 264.833,303.333 265.5,304C 263.846,305.827 263.012,307.66 263,309.5C 258.653,308.804 254.153,308.804 249.5,309.5C 248.692,309.192 248.025,308.692 247.5,308C 249.733,304.756 252.4,301.923 255.5,299.5C 253.995,296 252.495,296.334 251,300.5C 250.667,299.833 250.333,299.167 250,298.5C 248.333,300.5 246.667,302.5 245,304.5C 244.667,303.833 244.333,303.167 244,302.5C 242.667,305.167 240.667,307.167 238,308.5C 237.667,307.833 237.333,307.167 237,306.5C 236.581,307.672 235.915,308.672 235,309.5C 232.812,308.553 230.478,308.553 228,309.5C 227.333,306.833 226.667,306.833 226,309.5C 224,309.5 222,309.5 220,309.5C 219.5,309 219,308.5 218.5,308C 224.748,304.042 230.415,299.375 235.5,294C 234.874,293.25 234.374,292.416 234,291.5C 232,293.5 230,295.5 228,297.5C 227.667,297.167 227.333,296.833 227,296.5C 226.641,299.544 225.974,299.878 225,297.5C 224.641,300.544 223.974,300.878 223,298.5C 220.527,301.395 217.86,304.061 215,306.5C 214,306.5 213,306.5 212,306.5C 211.667,307.5 211.333,308.5 211,309.5C 206.657,308.84 201.824,308.84 196.5,309.5C 193.119,309.54 189.786,309.207 186.5,308.5C 179.502,307.161 173.168,304.494 167.5,300.5C 170.408,299.841 170.742,299.007 168.5,298C 170.301,297.683 170.634,297.016 169.5,296C 170.907,294.548 172.407,294.715 174,296.5C 174.667,295.167 175.333,293.833 176,292.5C 176.333,293.167 176.667,293.833 177,294.5C 187.767,285.467 199.101,276.467 211,267.5C 211.671,268.252 212.504,268.586 213.5,268.5C 217.05,272.214 221.05,275.381 225.5,278C 229.833,278.667 234.167,278.667 238.5,278C 240.405,276.579 242.405,275.412 244.5,274.5C 244.389,275.117 244.056,275.617 243.5,276C 243.982,277.46 245.149,278.96 247,280.5C 247.374,279.584 247.874,278.75 248.5,278C 250.492,277.426 251.992,276.259 253,274.5C 253.333,274.833 253.667,275.167 254,275.5C 259.331,270.434 264.665,266.101 270,262.5C 271.487,261.747 271.654,260.914 270.5,260C 274.96,258.019 278.793,255.186 282,251.5C 282.333,251.833 282.667,252.167 283,252.5C 286.706,249.489 290.373,246.489 294,243.5C 294.982,244.759 295.315,246.092 295,247.5C 291.127,250.793 287.627,253.627 284.5,256C 284.833,256.333 285.167,256.667 285.5,257C 283.003,257.629 281.003,259.462 279.5,262.5C 280.812,266.141 281.979,265.807 283,261.5C 283.667,264.167 284.333,264.167 285,261.5C 285.667,262.833 286.333,264.167 287,265.5C 287.667,264.167 288.333,262.833 289,261.5C 289.333,262.167 289.667,262.833 290,263.5C 290.667,260.833 291.333,260.833 292,263.5C 292.667,260.833 293.333,260.833 294,263.5C 296.328,262.514 298.328,260.514 300,257.5C 300.333,257.833 300.667,258.167 301,258.5C 301.667,257.167 302.333,255.833 303,254.5C 303.805,256.901 304.638,256.734 305.5,254C 310.113,251.78 314.279,248.947 318,245.5C 318.333,246.167 318.667,246.833 319,247.5C 319.804,244.854 321.304,242.854 323.5,241.5 Z"/></g>
<g><path style="opacity:1" fill="#eae0cf" d="M 198.5,252.5 C 198.833,252.5 199.167,252.5 199.5,252.5C 203.794,258.129 208.461,263.463 213.5,268.5C 212.504,268.586 211.671,268.252 211,267.5C 199.101,276.467 187.767,285.467 177,294.5C 176.667,293.833 176.333,293.167 176,292.5C 175.333,293.833 174.667,295.167 174,296.5C 172.407,294.715 170.907,294.548 169.5,296C 170.634,297.016 170.301,297.683 168.5,298C 170.742,299.007 170.408,299.841 167.5,300.5C 160.916,296.752 155.416,291.752 151,285.5C 148.628,281.095 147.128,276.428 146.5,271.5C 147.222,271.082 147.722,270.416 148,269.5C 148.333,270.5 148.667,271.5 149,272.5C 149.667,269.833 150.333,269.833 151,272.5C 151.317,270.699 151.984,270.366 153,271.5C 154.726,269.772 156.059,267.772 157,265.5C 157.333,266.167 157.667,266.833 158,267.5C 158.317,265.699 158.984,265.366 160,266.5C 162.245,264.377 164.245,262.044 166,259.5C 166.333,260.167 166.667,260.833 167,261.5C 168,260.167 169,258.833 170,257.5C 170.333,257.833 170.667,258.167 171,258.5C 171.833,257.5 172.667,256.5 173.5,255.5C 174.086,255.709 174.586,256.043 175,256.5C 176.487,255.747 176.654,254.914 175.5,254C 177.074,253.664 178.408,252.831 179.5,251.5C 179.109,252.718 179.776,253.552 181.5,254C 180.333,254.5 179.5,255.333 179,256.5C 178.667,255.833 178.333,255.167 178,254.5C 176.042,258.892 172.875,262.059 168.5,264C 168.833,264.333 169.167,264.667 169.5,265C 168.54,266.419 167.707,267.919 167,269.5C 166.577,268.044 165.744,267.544 164.5,268C 163.751,269.734 163.251,271.567 163,273.5C 162.333,268.167 161.667,268.167 161,273.5C 160.667,272.833 160.333,272.167 160,271.5C 159.173,272.662 158.34,273.829 157.5,275C 157.944,276.762 158.444,276.595 159,274.5C 159.667,275.833 160.667,276.833 162,277.5C 163.395,276.185 164.395,276.519 165,278.5C 166.092,275.956 166.759,273.289 167,270.5C 167.333,272.833 167.667,275.167 168,277.5C 168.521,269.166 169.187,268.833 170,276.5C 170.667,267.167 171.333,267.167 172,276.5C 172.521,268.166 173.187,267.833 174,275.5C 174.333,274.167 174.667,272.833 175,271.5C 175.667,275.5 176.333,275.5 177,271.5C 178.943,271.959 180.276,270.959 181,268.5C 181.333,268.833 181.667,269.167 182,269.5C 184.912,266.588 187.412,264.088 189.5,262C 193.133,260.85 196.466,258.517 199.5,255C 198.748,254.329 198.414,253.496 198.5,252.5 Z"/></g>
<g><path style="opacity:1" fill="#e3d3bf" d="M 309.5,287.5 C 306.536,292.131 302.869,296.131 298.5,299.5C 294.267,302.115 289.934,304.448 285.5,306.5C 278.298,308.478 270.964,309.812 263.5,310.5C 240.994,310.831 218.66,310.497 196.5,309.5C 201.824,308.84 206.657,308.84 211,309.5C 211.333,308.5 211.667,307.5 212,306.5C 213,306.5 214,306.5 215,306.5C 217.86,304.061 220.527,301.395 223,298.5C 223.974,300.878 224.641,300.544 225,297.5C 225.974,299.878 226.641,299.544 227,296.5C 227.333,296.833 227.667,297.167 228,297.5C 230,295.5 232,293.5 234,291.5C 234.374,292.416 234.874,293.25 235.5,294C 230.415,299.375 224.748,304.042 218.5,308C 219,308.5 219.5,309 220,309.5C 222,309.5 224,309.5 226,309.5C 226.667,306.833 227.333,306.833 228,309.5C 230.478,308.553 232.812,308.553 235,309.5C 235.915,308.672 236.581,307.672 237,306.5C 237.333,307.167 237.667,307.833 238,308.5C 240.667,307.167 242.667,305.167 244,302.5C 244.333,303.167 244.667,303.833 245,304.5C 246.667,302.5 248.333,300.5 250,298.5C 250.333,299.167 250.667,299.833 251,300.5C 252.495,296.334 253.995,296 255.5,299.5C 252.4,301.923 249.733,304.756 247.5,308C 248.025,308.692 248.692,309.192 249.5,309.5C 254.153,308.804 258.653,308.804 263,309.5C 263.012,307.66 263.846,305.827 265.5,304C 264.833,303.333 264.167,302.667 263.5,302C 265.125,301.147 265.458,300.147 264.5,299C 265.191,297.933 265.691,296.766 266,295.5C 266.318,297.061 267.151,298.228 268.5,299C 265.833,299.667 265.833,300.333 268.5,301C 265.833,301.667 265.833,302.333 268.5,303C 267.549,303.718 267.383,304.551 268,305.5C 269,304.833 270,304.167 271,303.5C 270.835,300.926 271.835,298.592 274,296.5C 274.333,297.5 274.667,298.5 275,299.5C 275.26,297.382 276.26,295.716 278,294.5C 278.333,295.167 278.667,295.833 279,296.5C 282.067,293.772 284.733,290.772 287,287.5C 288.16,289.797 289.16,289.464 290,286.5C 290.333,286.833 290.667,287.167 291,287.5C 297.572,282.034 304.572,277.034 312,272.5C 312.5,273 313,273.5 313.5,274C 310.235,276.106 306.901,278.606 303.5,281.5C 303.366,285.153 301.7,286.653 298.5,286C 299.634,287.016 299.301,287.683 297.5,288C 298.264,290.069 298.764,292.236 299,294.5C 299.333,293.167 299.667,291.833 300,290.5C 300.333,291.167 300.667,291.833 301,292.5C 301.667,289.833 302.333,289.833 303,292.5C 304,290.5 305,288.5 306,286.5C 306.333,287.167 306.667,287.833 307,288.5C 307.671,287.748 308.504,287.414 309.5,287.5 Z"/></g>
<g><path style="opacity:0.627" fill="#da7f58" d="M 186.5,308.5 C 189.786,309.207 193.119,309.54 196.5,309.5C 218.66,310.497 240.994,310.831 263.5,310.5C 264.117,312.68 265.117,314.68 266.5,316.5C 262.171,316.896 257.671,317.563 253,318.5C 248.226,317.538 243.226,317.538 238,318.5C 236.333,317.833 234.667,317.167 233,316.5C 232.667,317.167 232.333,317.833 232,318.5C 223.391,318.384 215.058,318.384 207,318.5C 205.209,316.487 203.875,316.487 203,318.5C 196.463,317.021 190.297,316.021 184.5,315.5C 185.656,312.984 186.323,310.651 186.5,308.5 Z"/></g>
<g><path style="opacity:0.574" fill="#d36839" d="M 6.5,324.5 C 13.9818,323.508 21.6484,323.175 29.5,323.5C 29.5,325.167 29.5,326.833 29.5,328.5C 28.8333,328.5 28.1667,328.5 27.5,328.5C 27.3893,327.883 27.056,327.383 26.5,327C 20.5,326.667 14.5,326.333 8.5,326C 7.9558,325.283 7.28913,324.783 6.5,324.5 Z"/></g>
<g><path style="opacity:0.627" fill="#da7e56" d="M 6.5,324.5 C 7.28913,324.783 7.9558,325.283 8.5,326C 14.5,326.333 20.5,326.667 26.5,327C 27.056,327.383 27.3893,327.883 27.5,328.5C 20.5,328.5 13.5,328.5 6.5,328.5C 6.5,327.167 6.5,325.833 6.5,324.5 Z"/></g>
</svg>
